<svg id="Capa_1" xmlns="http://www.w3.org/2000/svg" viewBox="-474 352.4 73.1 65.6"><style>.st0{stroke:#000;stroke-width:2;stroke-miterlimit:10}</style><path class="st0" d="M-467.5 418h60c3.6 0 6.6-2.9 6.6-6.6v-52.5c0-3.6-2.9-6.6-6.6-6.6h-60c-3.6 0-6.6 2.9-6.6 6.6v52.5c0 3.7 3 6.6 6.6 6.6zm0-63.6h60c2.6 0 4.7 2.1 4.7 4.7v4.7h-69.4v-4.7c0-2.7 2.1-4.7 4.7-4.7zm-4.7 11.1h69.4v45.9c0 2.6-2.1 4.7-4.7 4.7h-60c-2.6 0-4.7-2.1-4.7-4.7v-45.9z"/><circle cx="-465.6" cy="359" r="1.9"/><circle cx="-458.1" cy="359" r="1.9"/><circle cx="-450.6" cy="359" r="1.9"/><ellipse cx="-446.9" cy="393.8" rx="1.9" ry="2.8"/><ellipse cx="-428.1" cy="393.8" rx="1.9" ry="2.8"/><path d="M-428.1 398.4h-18.8c-.6 0-1.1.3-1.5.7-.4.5-.5 1.1-.3 1.6.1.3 2 7 11.2 7 9.1 0 11.1-6.7 11.2-7 .2-.6 0-1.2-.3-1.6-.4-.5-.9-.7-1.5-.7z"/></svg>