<?xml version="1.0" encoding="utf-8"?>
<!-- Generator: Adobe Illustrator 16.0.0, SVG Export Plug-In . SVG Version: 6.00 Build 0)  -->
<!DOCTYPE svg PUBLIC "-//W3C//DTD SVG 1.1//EN" "http://www.w3.org/Graphics/SVG/1.1/DTD/svg11.dtd">
<svg version="1.1" id="Capa_1" xmlns="http://www.w3.org/2000/svg" xmlns:xlink="http://www.w3.org/1999/xlink" x="0px" y="0px"
	 width="595.279px" height="841.891px" viewBox="0 0 595.279 841.891" enable-background="new 0 0 595.279 841.891"
	 xml:space="preserve">
<g id="Page-1_1_">
	<g id="_x33_20_x5F_" transform="translate(-37.000000, -784.000000)">
		<g id="Group-5" transform="translate(37.000000, 784.000000)">
			<g id="Page-1" transform="translate(201.000000, 0.000000)">
				<g id="Group-3" transform="translate(0.000000, 0.376185)">
					<g id="Clip-2">
					</g>
					<defs>
						<filter id="Adobe_OpacityMaskFilter" filterUnits="userSpaceOnUse" x="207.981" y="194.208" width="62.285" height="60.36">
							<feColorMatrix  type="matrix" values="1 0 0 0 0  0 1 0 0 0  0 0 1 0 0  0 0 0 1 0"/>
						</filter>
					</defs>
					<mask maskUnits="userSpaceOnUse" x="207.981" y="194.208" width="62.285" height="60.36" id="mask-2_2_">
						<g filter="url(#Adobe_OpacityMaskFilter)">
							<polygon id="path-1_2_" fill="#FFFFFF" points="207.982,254.568 270.264,254.568 270.264,194.208 207.982,194.208 							"/>
						</g>
					</mask>
					<path id="Fill-1" mask="url(#mask-2_2_)" fill="#472728" d="M268.623,218.583c-1.816-1.887-4.987-2.885-9.177-2.885
						c-3.104,0-6.696,0.533-10.673,1.587c-6.806,1.802-11.553,4.969-14.543,7.603c-0.161-0.102-0.332-0.193-0.507-0.274
						c-0.171-0.079-0.346-0.146-0.527-0.202c0.046-3.984-0.646-9.646-3.717-15.982c-4.378-9.037-9.584-14.22-14.283-14.221
						c-1.49,0-2.846,0.53-3.924,1.531c-3.178,2.962-3.322,10.431-3.192,18.477c0.006,0.447,0.015,0.869,0.018,1.263
						c0.053,4.294,1.649,7.314,4.277,9.865c-0.382,0.212-0.713,0.448-0.997,0.714c-2.165,2.017-3.726,7.423-3.339,11.573
						c0.299,3.199,1.646,5.643,3.893,7.065c1.191,0.754,2.533,1.137,3.987,1.137c1.458,0,2.912-0.397,4.295-1.015
						c-0.35,1.648-0.515,3.319-0.118,4.379c0.29,0.777,0.847,1.385,1.568,1.713c0.369,0.172,0.784,0.262,1.217,0.262
						c1.4,0,2.611-0.866,4.331-3.15c0.978,3.244,2.847,5.403,5.494,6.21c0.727,0.223,1.482,0.335,2.247,0.335
						c6.336,0,12.1-8.092,12.248-12.062c0.015-0.387-0.021-0.793-0.107-1.22c0.529,0.048,1.037,0.071,1.537,0.071
						c3.304,0,6.077-1.036,8.731-3.26c0.311-0.262,0.645-0.542,1-0.835c6.17-5.137,11.725-10.109,11.899-14.436
						C270.323,221.228,269.756,219.762,268.623,218.583"/>
				</g>
				<path id="Fill-4" fill="#E500DF" d="M227.111,210.123c-5.357-11.062-11.247-14.515-14.046-11.909
					c-2.801,2.612-2.397,12.692-2.335,17.782c0.061,5.092,2.66,7.989,7.702,11.243c5.036,3.257,11.154,5.106,11.562,2.759
					C229.994,229.997,232.475,221.189,227.111,210.123z"/>
				<path id="Fill-6" fill="#ED497E" d="M213.167,228.535c-2.065,1.922-4.623,11.453,0.174,14.487
					c4.794,3.038,12.17-4.146,15.062-8.148c2.892-4.002,1.659-7.243-4.552-7.699C223.851,227.175,215.229,226.619,213.167,228.535z"
					/>
				<path id="Fill-8" fill="#DE00DB" d="M232.495,231.147c0,0,5.065-7.624,16.952-10.771c11.885-3.147,18.336-0.934,18.186,2.891
					c-0.154,3.825-8.061,10.084-11.961,13.361c-3.904,3.272-7.793,3.192-13.546,1.487
					C236.374,236.416,230.983,232.986,232.495,231.147"/>
				<path id="Fill-10" fill="#ED497E" d="M238.636,233.961c0,0,6.048,6.177,5.937,8.994c-0.105,2.811-5.67,10.968-11.098,9.31
					c-5.43-1.657-4.786-11.936-3.636-16.738C230.99,230.727,234.248,229.552,238.636,233.961"/>
				<path id="Fill-12" fill="#734A1E" d="M227.681,242.985c-0.517,1.113-3.952,6.531-4.928,6.079
					c-0.972-0.443,0.893-6.582,1.403-7.701l5.785-12.598c0.512-1.117,1.717-1.659,2.692-1.21c0.97,0.442,1.343,1.712,0.827,2.829
					L227.681,242.985z"/>
			</g>
			<g id="rumble_hola" transform="translate(0.000000, 30.000000)">
				<g id="Layer_1_1_">
					<g id="Group_13_">
						<path id="Shape" fill="#FFFFFF" d="M275.063,587.109c96.975,0,175.551-79.358,175.551-176.493v-0.527
							c0-97.134-78.576-175.945-175.551-175.945c-97.036,0-176.014,78.917-176.014,176.142v0.135
							C99.049,507.646,178.027,587.109,275.063,587.109L275.063,587.109z"/>
						<path id="Shape_1_" opacity="0.3" fill="#010101" enable-background="new    " d="M380.25,268.25
							c0,0-23.964-62.24-110.041-57.408l47.645,20.461L380.25,268.25L380.25,268.25z"/>
						<path id="Shape_2_" opacity="0.3" fill="#010101" enable-background="new    " d="M443.805,362.021
							c-1.838-2.74,2.413-5.939,3.371-8.649c6.063-17.175,7.181-30.485,7.194-30.622l-0.03-0.38l-0.021-0.394
							c1.142-4.005,5.142-6.804,9.28-6.487l0.122-0.223v-0.001c0-0.351,0.52,0.295,0.753,0.336c0.282,0.051,0.83,0.355,1.122,0.443
							c2.845,0.805,4.795,2.864,5.671,5.791c0.207,0.681,0.29,1.395,0.357,2.126l1.077-3.812c0.124-0.436,0.262-0.876,0.47-1.323
							c0.021-0.059,0.028-0.162,0.07-0.246c0.191-0.39,0.354-0.814,0.622-1.173l0.169-0.23c0.255-0.338,0.599-0.625,0.882-0.902
							c0.062-0.059,0.176-0.074,0.269-0.16c0.324-0.307,0.662-0.572,1.025-0.819l0.131-0.081c0.328-0.216,0.662-0.404,1.048-0.582
							c0.036-0.018,0.094-0.043,0.149-0.066c0.405-0.181,0.796-0.304,1.267-0.432c0.123-0.032,0.229-0.042,0.301-0.045
							c0.307-0.066,0.61-0.083,0.876-0.099c0.103-0.007,0.208-0.011,0.313-0.023l0.182,0.003l2.836,0.099l0.222,0.045
							c2.26,0.641,4.128,2.125,5.271,4.183c1.14,2.054,1.416,4.427,0.774,6.686l-1.208,4.238c1.833-2.477,4.81-3.814,7.906-3.513
							c1.382,0.133,2.725,0.605,3.899,1.36c0.719,0.461,1.361,1.027,1.915,1.682c2.323,2.712,2.778,6.523,1.166,9.699
							c-0.06,0.113-0.123,0.224-0.185,0.339c-1.017,3.033-9.281,26.782-27.748,52.423c-7.21,10.026-15.059,19.042-23.442,26.963
							C451.879,418.177,452.7,375.299,443.805,362.021L443.805,362.021z"/>
						<g transform="translate(23.000000, 0.000000)">
							<g transform="translate(134.500000, 55.112474)">
								<path id="Shape_3_" fill="#4F2324" d="M215.582,354.665c0,0-13.296,5.504-20.05,6.558l-11.055,33.612l14.554-1.696
									l8.874-1.368l4.557-0.958L215.582,354.665L215.582,354.665z"/>
								<g transform="translate(2.500000, 0.000000)">
									<path id="Shape_4_" fill="#4F2324" d="M313.153,239.953l-0.195-0.006c-0.115,0.014-0.224,0.018-0.336,0.026
										c-0.283,0.018-0.606,0.037-0.938,0.108c-0.072,0.003-0.187,0.014-0.319,0.047c-0.5,0.138-0.919,0.268-1.35,0.46
										c-0.061,0.027-0.123,0.053-0.161,0.073c-0.41,0.189-0.769,0.39-1.118,0.62l-0.14,0.087
										c-0.388,0.262-0.749,0.548-1.096,0.875c-0.099,0.089-0.22,0.107-0.287,0.17c-0.303,0.296-0.672,0.601-0.944,0.961
										l-0.18,0.247c-0.283,0.384-0.463,0.837-0.668,1.253c-0.043,0.087-0.059,0.198-0.083,0.262
										c-0.223,0.479-0.379,0.947-0.515,1.412l-1.175,4.069c-0.072-0.78-0.213-1.543-0.434-2.271
										c-0.938-3.123-3.127-5.322-6.162-6.181c-0.313-0.095-1.081-0.42-1.385-0.473c-0.243-0.043-0.428-0.732-1.198-0.358v0.001
										l0.267,0.241c-4.418-0.339-8.275,2.647-9.491,6.923l0.014,0.422l0.024,0.406c-0.015,0.142-1.207,14.357-7.682,32.698
										c-5.912,16.735-17.519,40.337-39.311,57.724c-8.057,6.418-17.08,11.663-26.87,15.585l-5.562,36.332
										c21.719-4.272,42.035-13.272,60.393-26.758c15.239-11.197,29.169-25.483,41.401-42.476
										c19.714-27.38,28.54-52.742,29.628-55.977c0.067-0.124,0.131-0.241,0.194-0.361c1.723-3.395,1.235-7.463-1.241-10.358
										c-0.594-0.698-1.28-1.302-2.048-1.795c-1.253-0.805-2.687-1.31-4.161-1.453c-3.305-0.322-6.484,1.106-8.441,3.752
										l1.291-4.526c0.684-2.413,0.39-4.948-0.828-7.139c-1.22-2.197-3.215-3.784-5.629-4.466l-0.236-0.049L313.153,239.953
										L313.153,239.953z"/>
									<g transform="translate(0.000000, 2.505112)">
										<path id="Shape_5_" fill="#006E76" d="M193.579,362.278l-7.301,25.716c109.35-7.823,147.094-125.537,147.094-125.537
											c1.669-2.599,0.919-6.053-1.671-7.727c-2.594-1.672-6.046-0.92-7.713,1.679l-5.594,8.7l-0.665,1.035
											c-0.518,0.443-1.243,0.626-1.944,0.425c-1.12-0.316-1.773-1.491-1.453-2.617l4.458-15.688
											c0.844-2.965-0.873-6.065-3.843-6.909c-2.964-0.849-6.051,0.876-6.894,3.848l-4.457,15.689h-0.008
											c-0.008,0.045-0.018,0.084-0.03,0.126c-0.335,1.195-1.579,1.888-2.773,1.547c-1.067-0.301-1.729-1.331-1.615-2.4
											l0.253-9.839c0.331-3.202-0.874-6.068-3.836-6.913c-2.97-0.845-6.054,0.877-6.901,3.849
											C288.686,247.26,280.809,342.774,193.579,362.278"/>
										<g id="Clipped_13_">
											<g>
												<g id="SVGID_1_">
												</g>
												<defs>
													
														<filter id="Adobe_OpacityMaskFilter_1_" filterUnits="userSpaceOnUse" x="256.455" y="259.384" width="87.614" height="63.355">
														<feColorMatrix  type="matrix" values="1 0 0 0 0  0 1 0 0 0  0 0 1 0 0  0 0 0 1 0"/>
													</filter>
												</defs>
												<mask maskUnits="userSpaceOnUse" x="256.455" y="259.384" width="87.614" height="63.355" id="mask-4_2_">
													<g filter="url(#Adobe_OpacityMaskFilter_1_)">
														<path id="path-3_2_" fill="#FFFFFF" d="M308.054,245.205l-4.457,15.688l-0.009-0.001
															c-0.009,0.046-0.019,0.088-0.03,0.13c-0.339,1.196-1.58,1.886-2.773,1.545c-1.066-0.304-1.729-1.327-1.616-2.402
															l0.258-9.839c0.325-3.202-0.875-6.065-3.841-6.912c-2.968-0.847-6.052,0.876-6.895,3.846
															c0,0-7.88,95.514-95.111,115.018l-7.301,25.713c109.35-7.824,147.093-125.528,147.093-125.528
															c1.67-2.599,0.918-6.062-1.67-7.735c-2.594-1.67-6.046-0.92-7.713,1.679l-5.595,8.704l-0.662,1.036
															c-0.518,0.44-1.239,0.624-1.946,0.428c-1.12-0.321-1.773-1.497-1.455-2.619l4.457-15.689
															c0.846-2.971-0.873-6.065-3.84-6.908c-0.33-0.097-0.659-0.16-0.991-0.192
															C311.322,240.912,308.798,242.561,308.054,245.205"/>
													</g>
												</mask>
												<g id="Group_2_" opacity="0.5" mask="url(#mask-4_2_)">
													<g transform="translate(45.500000, 11.523517)">
														<g>
															<g id="Clipped_1_">
																<g id="SVGID_3_">
																</g>
																<defs>
																	
																		<filter id="Adobe_OpacityMaskFilter_2_" filterUnits="userSpaceOnUse" x="210.955" y="247.86" width="87.614" height="63.355">
																		<feColorMatrix  type="matrix" values="1 0 0 0 0  0 1 0 0 0  0 0 1 0 0  0 0 0 1 0"/>
																	</filter>
																</defs>
																<mask maskUnits="userSpaceOnUse" x="210.955" y="247.86" width="87.614" height="63.355" id="mask-6_2_">
																	<g filter="url(#Adobe_OpacityMaskFilter_2_)">
																		<polygon id="path-5_2_" fill="#FFFFFF" points="210.959,303.2 293.182,311.223 298.563,255.876 216.341,247.853 
																																					"/>
																	</g>
																</mask>
																<g id="Group_1_" opacity="0.75" mask="url(#mask-6_2_)">
																	<g id="Clipped">
																		<g>
																			<g id="SVGID_5_">
																			</g>
																			<defs>
																				
																					<filter id="Adobe_OpacityMaskFilter_3_" filterUnits="userSpaceOnUse" x="210.955" y="247.86" width="87.614" height="63.355">
																					<feColorMatrix  type="matrix" values="1 0 0 0 0  0 1 0 0 0  0 0 1 0 0  0 0 0 1 0"/>
																				</filter>
																			</defs>
																			<mask maskUnits="userSpaceOnUse" x="210.955" y="247.86" width="87.614" height="63.355" id="mask-8_2_">
																				<g filter="url(#Adobe_OpacityMaskFilter_3_)">
																					<polygon id="path-7_2_" fill="#FFFFFF" points="210.959,303.2 293.182,311.223 298.563,255.876 
																						216.341,247.853 																					"/>
																				</g>
																			</mask>
																			<g mask="url(#mask-8_2_)">
																				<g id="SVGID_7_">
																				</g>
																				<defs>
																					
																						<filter id="Adobe_OpacityMaskFilter_4_" filterUnits="userSpaceOnUse" x="210.955" y="247.86" width="87.614" height="63.355">
																						<feColorMatrix  type="matrix" values="1 0 0 0 0  0 1 0 0 0  0 0 1 0 0  0 0 0 1 0"/>
																					</filter>
																				</defs>
																				<mask maskUnits="userSpaceOnUse" x="210.955" y="247.86" width="87.614" height="63.355" id="mask-10_2_">
																					<g filter="url(#Adobe_OpacityMaskFilter_4_)">
																						<polygon id="path-9_2_" fill="#FFFFFF" points="210.959,303.2 293.182,311.223 298.564,255.876 
																							216.341,247.85 																						"/>
																					</g>
																				</mask>
																				<g id="Group" mask="url(#mask-10_2_)">
																					
																						<g id="Bitmap" transform="translate(28.749999, 20.792435) rotate(0.000000) translate(-28.749999, -20.792435) translate(-0.000001, 0.000002)">
																						<g transform="matrix(1 0 7.450581e-09 1 -3.051758e-05 -1.525879e-05)" enable-background="new    ">
																							
																								<image overflow="visible" width="131" height="88" xlink:href="863FBEDCA49E9437.png"  transform="matrix(0.6277 0.0611 -0.0613 0.6289 216.3469 247.8604)">
																							</image>
																						</g>
																					</g>
																				</g>
																			</g>
																		</g>
																	</g>
																</g>
															</g>
															<g id="Clipped_2_">
																<g id="SVGID_2_">
																</g>
																<defs>
																	
																		<filter id="Adobe_OpacityMaskFilter_5_" filterUnits="userSpaceOnUse" x="224.673" y="260.271" width="58.77" height="36.186">
																		<feColorMatrix  type="matrix" values="1 0 0 0 0  0 1 0 0 0  0 0 1 0 0  0 0 0 1 0"/>
																	</filter>
																</defs>
																<mask maskUnits="userSpaceOnUse" x="224.673" y="260.271" width="58.77" height="36.186" id="mask-12_2_">
																	<g filter="url(#Adobe_OpacityMaskFilter_5_)">
																		<polygon id="path-11_2_" fill="#FFFFFF" points="210.959,303.2 293.182,311.223 298.563,255.876 216.341,247.853 
																																					"/>
																	</g>
																</mask>
																
																	<rect id="Rectangle-path" x="225.637" y="270.283" transform="matrix(0.9279 0.3728 -0.3728 0.9279 122.0753 -74.6413)" mask="url(#mask-12_2_)" fill="#9CD3E3" width="56.844" height="16.161"/>
															</g>
														</g>
													</g>
												</g>
											</g>
											<g>
												<g id="SVGID_4_">
												</g>
												<defs>
													
														<filter id="Adobe_OpacityMaskFilter_6_" filterUnits="userSpaceOnUse" x="199.334" y="348.445" width="39.527" height="58.154">
														<feColorMatrix  type="matrix" values="1 0 0 0 0  0 1 0 0 0  0 0 1 0 0  0 0 0 1 0"/>
													</filter>
												</defs>
												<mask maskUnits="userSpaceOnUse" x="199.334" y="348.445" width="39.527" height="58.154" id="mask-14_2_">
													<g filter="url(#Adobe_OpacityMaskFilter_6_)">
														<path id="path-13_2_" fill="#FFFFFF" d="M308.054,245.205l-4.457,15.688l-0.009-0.001
															c-0.009,0.046-0.019,0.088-0.03,0.13c-0.339,1.196-1.58,1.886-2.773,1.545c-1.066-0.304-1.729-1.327-1.616-2.402
															l0.258-9.839c0.325-3.202-0.875-6.065-3.841-6.912c-2.968-0.847-6.052,0.876-6.895,3.846
															c0,0-7.88,95.514-95.111,115.018l-7.301,25.713c109.35-7.824,147.093-125.528,147.093-125.528
															c1.67-2.599,0.918-6.062-1.67-7.735c-2.594-1.67-6.046-0.92-7.713,1.679l-5.595,8.704l-0.662,1.036
															c-0.518,0.44-1.239,0.624-1.946,0.428c-1.12-0.321-1.773-1.497-1.455-2.619l4.457-15.689
															c0.846-2.971-0.873-6.065-3.84-6.908c-0.33-0.097-0.659-0.16-0.991-0.192
															C311.322,240.912,308.798,242.561,308.054,245.205"/>
													</g>
												</mask>
												<g id="Group_3_" opacity="0.5" mask="url(#mask-14_2_)">
													<g transform="translate(5.500000, 68.640082)">
														<g>
															<g id="Clipped_3_">
																<g id="SVGID_9_">
																</g>
																<defs>
																	
																		<filter id="Adobe_OpacityMaskFilter_7_" filterUnits="userSpaceOnUse" x="193.834" y="279.805" width="39.527" height="58.154">
																		<feColorMatrix  type="matrix" values="1 0 0 0 0  0 1 0 0 0  0 0 1 0 0  0 0 0 1 0"/>
																	</filter>
																</defs>
																<mask maskUnits="userSpaceOnUse" x="193.834" y="279.805" width="39.527" height="58.154" id="mask-16_2_">
																	<g filter="url(#Adobe_OpacityMaskFilter_7_)">
																		<polygon id="path-15_2_" fill="#FFFFFF" points="189.158,335.095 232.531,339.324 238.038,282.627 
																			194.668,278.401 																		"/>
																	</g>
																</mask>
																
																	<rect id="Rectangle-path_1_" x="185.177" y="300.802" transform="matrix(0.4401 0.8979 -0.8979 0.4401 396.9434 -18.8627)" mask="url(#mask-16_2_)" fill="#9CD3E3" width="56.842" height="16.16"/>
															</g>
														</g>
													</g>
												</g>
											</g>
											<g>
												<g id="SVGID_6_">
												</g>
												<defs>
													
														<filter id="Adobe_OpacityMaskFilter_8_" filterUnits="userSpaceOnUse" x="198.503" y="312.033" width="107.594" height="108.909">
														<feColorMatrix  type="matrix" values="1 0 0 0 0  0 1 0 0 0  0 0 1 0 0  0 0 0 1 0"/>
													</filter>
												</defs>
												<mask maskUnits="userSpaceOnUse" x="198.503" y="312.033" width="107.594" height="108.909" id="mask-18_2_">
													<g filter="url(#Adobe_OpacityMaskFilter_8_)">
														<path id="path-17_2_" fill="#FFFFFF" d="M308.054,245.205l-4.457,15.688l-0.009-0.001
															c-0.009,0.046-0.019,0.088-0.03,0.13c-0.339,1.196-1.58,1.886-2.773,1.545c-1.066-0.304-1.729-1.327-1.616-2.402
															l0.258-9.839c0.325-3.202-0.875-6.065-3.841-6.912c-2.968-0.847-6.052,0.876-6.895,3.846
															c0,0-7.88,95.514-95.111,115.018l-7.301,25.713c109.35-7.824,147.093-125.528,147.093-125.528
															c1.67-2.599,0.918-6.062-1.67-7.735c-2.594-1.67-6.046-0.92-7.713,1.679l-5.595,8.704l-0.662,1.036
															c-0.518,0.44-1.239,0.624-1.946,0.428c-1.12-0.321-1.773-1.497-1.455-2.619l4.457-15.689
															c0.846-2.971-0.873-6.065-3.84-6.908c-0.33-0.097-0.659-0.16-0.991-0.192
															C311.322,240.912,308.798,242.561,308.054,245.205"/>
													</g>
												</mask>
												<g id="Group_6_" opacity="0.5" mask="url(#mask-18_2_)">
													<g transform="translate(8.000000, 45.593047)">
														<g>
															<g id="Clipped_5_">
																<g id="SVGID_11_">
																</g>
																<defs>
																	
																		<filter id="Adobe_OpacityMaskFilter_9_" filterUnits="userSpaceOnUse" x="190.503" y="266.44" width="107.594" height="108.909">
																		<feColorMatrix  type="matrix" values="1 0 0 0 0  0 1 0 0 0  0 0 1 0 0  0 0 0 1 0"/>
																	</filter>
																</defs>
																<mask maskUnits="userSpaceOnUse" x="190.503" y="266.44" width="107.594" height="108.909" id="mask-20_2_">
																	<g filter="url(#Adobe_OpacityMaskFilter_9_)">
																		<polygon id="path-19_2_" fill="#FFFFFF" points="190.517,365.801 288.429,375.359 298.088,275.98 
																			200.173,266.429 																		"/>
																	</g>
																</mask>
																<g id="Group_5_" opacity="0.75" mask="url(#mask-20_2_)">
																	<g id="Clipped_4_">
																		<g>
																			<g id="SVGID_13_">
																			</g>
																			<defs>
																				
																					<filter id="Adobe_OpacityMaskFilter_10_" filterUnits="userSpaceOnUse" x="190.503" y="266.44" width="107.594" height="108.909">
																					<feColorMatrix  type="matrix" values="1 0 0 0 0  0 1 0 0 0  0 0 1 0 0  0 0 0 1 0"/>
																				</filter>
																			</defs>
																			<mask maskUnits="userSpaceOnUse" x="190.503" y="266.44" width="107.594" height="108.909" id="mask-22_2_">
																				<g filter="url(#Adobe_OpacityMaskFilter_10_)">
																					<polygon id="path-21_2_" fill="#FFFFFF" points="190.517,365.801 288.429,375.359 298.088,275.98 
																						200.173,266.429 																					"/>
																				</g>
																			</mask>
																			<g mask="url(#mask-22_2_)">
																				<g id="SVGID_15_">
																				</g>
																				<defs>
																					
																						<filter id="Adobe_OpacityMaskFilter_11_" filterUnits="userSpaceOnUse" x="190.503" y="266.44" width="107.594" height="108.909">
																						<feColorMatrix  type="matrix" values="1 0 0 0 0  0 1 0 0 0  0 0 1 0 0  0 0 0 1 0"/>
																					</filter>
																				</defs>
																				<mask maskUnits="userSpaceOnUse" x="190.503" y="266.44" width="107.594" height="108.909" id="mask-24_2_">
																					<g filter="url(#Adobe_OpacityMaskFilter_11_)">
																						<polygon id="path-23_2_" fill="#FFFFFF" points="190.517,365.801 288.429,375.359 298.088,275.98 
																							200.173,266.429 																						"/>
																					</g>
																				</mask>
																				<g id="Group_4_" mask="url(#mask-24_2_)">
																					
																						<g id="Bitmap_1_" transform="translate(35.250014, 35.572599) rotate(0.000000) translate(-35.250014, -35.572599) translate(0.000014, 0.000002)">
																						<g transform="matrix(1 0 7.450581e-09 1 -3.051758e-05 0)" enable-background="new    ">
																							
																								<image overflow="visible" width="156" height="158" xlink:href="863FBEDCA49E9432.png"  transform="matrix(0.6277 0.0611 -0.0613 0.6289 200.1828 266.4397)">
																							</image>
																						</g>
																					</g>
																				</g>
																			</g>
																		</g>
																	</g>
																</g>
															</g>
															<g id="Clipped_6_">
																<g id="SVGID_8_">
																</g>
																<defs>
																	
																		<filter id="Adobe_OpacityMaskFilter_12_" filterUnits="userSpaceOnUse" x="216.632" y="288.926" width="47.771" height="54.792">
																		<feColorMatrix  type="matrix" values="1 0 0 0 0  0 1 0 0 0  0 0 1 0 0  0 0 0 1 0"/>
																	</filter>
																</defs>
																<mask maskUnits="userSpaceOnUse" x="216.632" y="288.926" width="47.771" height="54.792" id="mask-26_2_">
																	<g filter="url(#Adobe_OpacityMaskFilter_12_)">
																		<polygon id="path-25_2_" fill="#FFFFFF" points="190.517,365.801 288.429,375.359 298.088,275.98 
																			200.173,266.429 																		"/>
																	</g>
																</mask>
																<polygon id="Shape_6_" mask="url(#mask-26_2_)" fill="#9CD3E3" points="229.317,288.926 264.403,333.744 
																	251.716,343.718 216.632,298.904 																"/>
															</g>
														</g>
													</g>
												</g>
											</g>
											<g>
												<g id="SVGID_10_">
												</g>
												<defs>
													
														<filter id="Adobe_OpacityMaskFilter_13_" filterUnits="userSpaceOnUse" x="219.982" y="293.56" width="111.94" height="102.48">
														<feColorMatrix  type="matrix" values="1 0 0 0 0  0 1 0 0 0  0 0 1 0 0  0 0 0 1 0"/>
													</filter>
												</defs>
												<mask maskUnits="userSpaceOnUse" x="219.982" y="293.56" width="111.94" height="102.48" id="mask-28_2_">
													<g filter="url(#Adobe_OpacityMaskFilter_13_)">
														<path id="path-27_2_" fill="#FFFFFF" d="M308.054,245.205l-4.457,15.688l-0.009-0.001
															c-0.009,0.046-0.019,0.088-0.03,0.13c-0.339,1.196-1.58,1.886-2.773,1.545c-1.066-0.304-1.729-1.327-1.616-2.402
															l0.258-9.839c0.325-3.202-0.875-6.065-3.841-6.912c-2.968-0.847-6.052,0.876-6.895,3.846
															c0,0-7.88,95.514-95.111,115.018l-7.301,25.713c109.35-7.824,147.093-125.528,147.093-125.528
															c1.67-2.599,0.918-6.062-1.67-7.735c-2.594-1.67-6.046-0.92-7.713,1.679l-5.595,8.704l-0.662,1.036
															c-0.518,0.44-1.239,0.624-1.946,0.428c-1.12-0.321-1.773-1.497-1.455-2.619l4.457-15.689
															c0.846-2.971-0.873-6.065-3.84-6.908c-0.33-0.097-0.659-0.16-0.991-0.192
															C311.322,240.912,308.798,242.561,308.054,245.205"/>
													</g>
												</mask>
												<g id="Group_9_" opacity="0.5" mask="url(#mask-28_2_)">
													<g transform="translate(22.000000, 33.568507)">
														<g>
															<g id="Clipped_8_">
																
																	<g id="SVGID_17_" transform="translate(36.487576, 33.672043) rotate(185.560654) translate(-36.487576, -33.672043) ">
																</g>
																<defs>
																	
																		<filter id="Adobe_OpacityMaskFilter_14_" filterUnits="userSpaceOnUse" x="197.982" y="259.991" width="111.94" height="102.48">
																		<feColorMatrix  type="matrix" values="1 0 0 0 0  0 1 0 0 0  0 0 1 0 0  0 0 0 1 0"/>
																	</filter>
																</defs>
																<mask maskUnits="userSpaceOnUse" x="197.982" y="259.991" width="111.94" height="102.48" id="mask-30_2_">
																	<g filter="url(#Adobe_OpacityMaskFilter_14_)">
																		<rect id="path-29_2_" x="202.235" y="264.786" fill="#FFFFFF" width="103.424" height="92.893"/>
																	</g>
																</mask>
																<g id="Group_8_" opacity="0.75" mask="url(#mask-30_2_)">
																	<g id="Clipped_7_">
																		<g>
																			
																				<g id="SVGID_19_" transform="translate(36.487576, 33.672043) rotate(185.560654) translate(-36.487576, -33.672043) ">
																			</g>
																			<defs>
																				
																					<filter id="Adobe_OpacityMaskFilter_15_" filterUnits="userSpaceOnUse" x="197.982" y="259.991" width="111.94" height="102.48">
																					<feColorMatrix  type="matrix" values="1 0 0 0 0  0 1 0 0 0  0 0 1 0 0  0 0 0 1 0"/>
																				</filter>
																			</defs>
																			<mask maskUnits="userSpaceOnUse" x="197.982" y="259.991" width="111.94" height="102.48" id="mask-32_2_">
																				<g filter="url(#Adobe_OpacityMaskFilter_15_)">
																					<rect id="path-31_2_" x="202.235" y="264.786" fill="#FFFFFF" width="103.424" height="92.893"/>
																				</g>
																			</mask>
																			<g mask="url(#mask-32_2_)">
																				
																					<g id="SVGID_21_" transform="translate(36.487576, 33.672043) rotate(185.560654) translate(-36.487576, -33.672043) ">
																				</g>
																				<defs>
																					
																						<filter id="Adobe_OpacityMaskFilter_16_" filterUnits="userSpaceOnUse" x="197.982" y="259.991" width="111.94" height="102.48">
																						<feColorMatrix  type="matrix" values="1 0 0 0 0  0 1 0 0 0  0 0 1 0 0  0 0 0 1 0"/>
																					</filter>
																				</defs>
																				<mask maskUnits="userSpaceOnUse" x="197.982" y="259.991" width="111.94" height="102.48" id="mask-34_2_">
																					<g filter="url(#Adobe_OpacityMaskFilter_16_)">
																						<rect id="path-33_2_" x="202.235" y="264.786" fill="#FFFFFF" width="103.424" height="92.893"/>
																					</g>
																				</mask>
																				<g id="Group_7_" mask="url(#mask-34_2_)">
																					
																						<g id="Bitmap_2_" transform="translate(36.499983, 33.568509) rotate(0.000000) translate(-36.499983, -33.568509) translate(-0.000017, 0.000002)">
																						<g transform="matrix(1 0 7.450581e-09 1 -1.525879e-05 0)" enable-background="new    ">
																							
																								<image overflow="visible" width="164" height="147" xlink:href="863FBEDCA49E9431.png"  transform="matrix(0.6277 0.0611 -0.0613 0.6289 206.9876 259.9911)">
																							</image>
																						</g>
																					</g>
																				</g>
																			</g>
																		</g>
																	</g>
																</g>
															</g>
															<g id="Clipped_9_">
																
																	<g id="SVGID_12_" transform="translate(36.487576, 33.672043) rotate(185.560654) translate(-36.487576, -33.672043) ">
																</g>
																<defs>
																	
																		<filter id="Adobe_OpacityMaskFilter_17_" filterUnits="userSpaceOnUse" x="223.219" y="282.226" width="53.959" height="48.931">
																		<feColorMatrix  type="matrix" values="1 0 0 0 0  0 1 0 0 0  0 0 1 0 0  0 0 0 1 0"/>
																	</filter>
																</defs>
																<mask maskUnits="userSpaceOnUse" x="223.219" y="282.226" width="53.959" height="48.931" id="mask-36_2_">
																	<g filter="url(#Adobe_OpacityMaskFilter_17_)">
																		<rect id="path-35_2_" x="202.235" y="264.786" fill="#FFFFFF" width="103.424" height="92.893"/>
																	</g>
																</mask>
																<polygon id="Shape_7_" mask="url(#mask-36_2_)" fill="#9CD3E3" points="233.564,282.226 277.178,318.755 
																	266.84,331.157 223.219,294.624 																"/>
															</g>
														</g>
													</g>
												</g>
											</g>
											<g>
												<g id="SVGID_14_">
												</g>
												<defs>
													
														<filter id="Adobe_OpacityMaskFilter_18_" filterUnits="userSpaceOnUse" x="245.262" y="282.585" width="88.104" height="68.387">
														<feColorMatrix  type="matrix" values="1 0 0 0 0  0 1 0 0 0  0 0 1 0 0  0 0 0 1 0"/>
													</filter>
												</defs>
												<mask maskUnits="userSpaceOnUse" x="245.262" y="282.585" width="88.104" height="68.387" id="mask-38_2_">
													<g filter="url(#Adobe_OpacityMaskFilter_18_)">
														<path id="path-37_2_" fill="#FFFFFF" d="M308.054,245.205l-4.457,15.688l-0.009-0.001
															c-0.009,0.046-0.019,0.088-0.03,0.13c-0.339,1.196-1.58,1.886-2.773,1.545c-1.066-0.304-1.729-1.327-1.616-2.402
															l0.258-9.839c0.325-3.202-0.875-6.065-3.841-6.912c-2.968-0.847-6.052,0.876-6.895,3.846
															c0,0-7.88,95.514-95.111,115.018l-7.301,25.713c109.35-7.824,147.093-125.528,147.093-125.528
															c1.67-2.599,0.918-6.062-1.67-7.735c-2.594-1.67-6.046-0.92-7.713,1.679l-5.595,8.704l-0.662,1.036
															c-0.518,0.44-1.239,0.624-1.946,0.428c-1.12-0.321-1.773-1.497-1.455-2.619l4.457-15.689
															c0.846-2.971-0.873-6.065-3.84-6.908c-0.33-0.097-0.659-0.16-0.991-0.192
															C311.322,240.912,308.798,242.561,308.054,245.205"/>
													</g>
												</mask>
												<g id="Group_12_" opacity="0.5" mask="url(#mask-38_2_)">
													<g transform="translate(38.500000, 26.554192)">
														<g>
															<g id="Clipped_11_">
																
																	<g id="SVGID_23_" transform="translate(28.656890, 22.508106) rotate(185.560654) translate(-28.656890, -22.508106) ">
																</g>
																<defs>
																	
																		<filter id="Adobe_OpacityMaskFilter_19_" filterUnits="userSpaceOnUse" x="206.762" y="256.031" width="88.104" height="68.387">
																		<feColorMatrix  type="matrix" values="1 0 0 0 0  0 1 0 0 0  0 0 1 0 0  0 0 0 1 0"/>
																	</filter>
																</defs>
																<mask maskUnits="userSpaceOnUse" x="206.762" y="256.031" width="88.104" height="68.387" id="mask-40_2_">
																	<g filter="url(#Adobe_OpacityMaskFilter_19_)">
																		<rect id="path-39_2_" x="209.508" y="259.887" fill="#FFFFFF" width="82.612" height="60.66"/>
																	</g>
																</mask>
																<g id="Group_11_" opacity="0.75" mask="url(#mask-40_2_)">
																	<g id="Clipped_10_">
																		<g>
																			
																				<g id="SVGID_25_" transform="translate(28.656890, 22.508106) rotate(185.560654) translate(-28.656890, -22.508106) ">
																			</g>
																			<defs>
																				
																					<filter id="Adobe_OpacityMaskFilter_20_" filterUnits="userSpaceOnUse" x="206.762" y="256.031" width="88.104" height="68.387">
																					<feColorMatrix  type="matrix" values="1 0 0 0 0  0 1 0 0 0  0 0 1 0 0  0 0 0 1 0"/>
																				</filter>
																			</defs>
																			<mask maskUnits="userSpaceOnUse" x="206.762" y="256.031" width="88.104" height="68.387" id="mask-42_2_">
																				<g filter="url(#Adobe_OpacityMaskFilter_20_)">
																					<rect id="path-41_2_" x="209.508" y="259.887" fill="#FFFFFF" width="82.612" height="60.66"/>
																				</g>
																			</mask>
																			<g mask="url(#mask-42_2_)">
																				<g id="SVGID_27_">
																				</g>
																				<defs>
																					
																						<filter id="Adobe_OpacityMaskFilter_21_" filterUnits="userSpaceOnUse" x="206.762" y="256.031" width="88.104" height="68.387">
																						<feColorMatrix  type="matrix" values="1 0 0 0 0  0 1 0 0 0  0 0 1 0 0  0 0 0 1 0"/>
																					</filter>
																				</defs>
																				<mask maskUnits="userSpaceOnUse" x="206.762" y="256.031" width="88.104" height="68.387" id="mask-44_2_">
																					<g filter="url(#Adobe_OpacityMaskFilter_21_)">
																						<polygon id="path-43_2_" fill="#FFFFFF" points="206.768,316.401 288.99,324.42 294.858,264.046 
																							212.638,256.023 																						"/>
																					</g>
																				</mask>
																				<g id="Group_10_" mask="url(#mask-44_2_)">
																					
																						<g id="Bitmap_3_" transform="translate(28.749999, 22.546014) rotate(0.000000) translate(-28.749999, -22.546014) translate(-0.000001, 0.000002)">
																						<g transform="matrix(1 0 7.450581e-09 1 0 0)" enable-background="new    ">
																							
																								<image overflow="visible" width="131" height="96" xlink:href="863FBEDCA49E943D.png"  transform="matrix(0.6277 0.0611 -0.0613 0.6289 212.6428 256.0306)">
																							</image>
																						</g>
																					</g>
																				</g>
																			</g>
																		</g>
																	</g>
																</g>
															</g>
															<g id="Clipped_12_">
																
																	<g id="SVGID_16_" transform="translate(28.656890, 22.508106) rotate(185.560654) translate(-28.656890, -22.508106) ">
																</g>
																<defs>
																	
																		<filter id="Adobe_OpacityMaskFilter_22_" filterUnits="userSpaceOnUse" x="221.008" y="268.581" width="57.786" height="40.923">
																		<feColorMatrix  type="matrix" values="1 0 0 0 0  0 1 0 0 0  0 0 1 0 0  0 0 0 1 0"/>
																	</filter>
																</defs>
																<mask maskUnits="userSpaceOnUse" x="221.008" y="268.581" width="57.786" height="40.923" id="mask-46_2_">
																	<g filter="url(#Adobe_OpacityMaskFilter_22_)">
																		<rect id="path-45_2_" x="209.508" y="259.887" fill="#FFFFFF" width="82.612" height="60.66"/>
																	</g>
																</mask>
																<polygon id="Shape_8_" mask="url(#mask-46_2_)" fill="#9CD3E3" points="228.554,268.581 278.794,295.22 
																	271.253,309.505 221.008,282.86 																"/>
															</g>
														</g>
													</g>
												</g>
											</g>
										</g>
									</g>
								</g>
							</g>
							<path id="Shape_9_" fill="none" d="M162.232,513.635l-1.736-31.098c-0.425,1.081-0.84,2.166-1.227,3.259
								c-9.365,26.285-6.805,52.504-3.014,69.851c0.244,1.124,0.5,2.223,0.759,3.305c6.004,3.885,12.251,7.414,18.72,10.558
								C167.028,553.401,162.246,534.123,162.232,513.635L162.232,513.635z"/>
							<path id="Shape_10_" fill="#4F2324" d="M157.316,426.584l-0.865,0.828l0.033,0.065c0.277-0.275,0.554-0.552,0.834-0.825
								L157.316,426.584L157.316,426.584z"/>
							<path id="Shape_11_" fill="#4F2324" d="M144.191,447.485c-2.292,3.141-4.429,6.326-6.412,9.551l0,0
								C139.764,453.811,141.899,450.626,144.191,447.485L144.191,447.485z"/>
							<path id="Shape_12_" fill="#4F2324" d="M128.541,475.366L128.541,475.366c-2.762,5.519-4.495,11.077-6.25,16.619l0,0
								C124.046,486.443,125.779,480.884,128.541,475.366L128.541,475.366z"/>
							<path id="Shape_13_" fill="#4F2324" d="M159.269,485.796c0.387-1.093,0.802-2.178,1.227-3.259l-0.455-8.151
								c-13.839,29.495-11.98,59.793-7.152,81.804c1.364,0.938,2.738,1.862,4.127,2.762c-0.261-1.082-0.515-2.181-0.761-3.305
								C152.464,538.3,149.906,512.081,159.269,485.796L159.269,485.796z"/>
							<path id="Shape_14_" fill="#4F2324" d="M137.779,457.036L137.779,457.036c-0.78,1.267-1.533,2.535-2.268,3.812l0,0
								C136.246,459.573,136.999,458.302,137.779,457.036L137.779,457.036z"/>
							<path id="Shape_15_" fill="#4F2324" d="M117.673,507.327h-0.027c-1.009,5.407-1.507,9.551-2.278,14.032l0,0
								C116.139,516.88,116.665,512.734,117.673,507.327L117.673,507.327z"/>
							<path id="Shape_16_" fill="#4F2324" d="M117.755,507.715c0.575-2.626,1.397-5.269,1.948-7.92c0,0,0,0,0-0.002
								c0.553-2.595,1.418-5.198,2.244-7.808c1.756-5.542,3.804-11.101,6.235-16.619c2.152-4.882,4.587-9.735,7.336-14.519
								c0.733-1.274,1.483-2.545,2.263-3.812c1.985-3.225,4.119-6.41,6.412-9.551c3.975-5.446,8.425-10.75,13.411-15.848
								l-0.126-2.198l-0.994-1.962c-14.73,14.541-26.257,31.887-34.208,51.698c-4.733,11.797-8.199,24.479-10.424,37.854
								c1.108,1.462,2.255,2.903,3.409,4.329C115.912,516.878,116.747,512.322,117.755,507.715L117.755,507.715z"/>
							<path id="Shape_17_" fill="#4F2324" d="M157.319,426.652c-0.28,0.273-0.558,0.55-0.834,0.825l0.994,1.962L157.319,426.652
								L157.319,426.652z"/>
							<path id="Shape_18_" fill="#006E76" d="M160.085,474.385v-0.006c-2.313,3.664-2.721,7.338-3.98,11.01
								c-0.69,2.017-1.417,4.03-1.417,6.04v0.003c-2.312,1.628-1.369,3.253-1.745,4.873c-1.257,5.388-2.34,10.725-2.828,15.956
								c-0.095,1.009-0.301,2.015-0.369,3.015c-0.053,0.768-0.155,1.533-0.194,2.298c-0.061,1.172-0.139,2.34-0.166,3.501
								c-0.135,5.577,0.075,10.985,0.555,16.159c0.02,0.207,0.029,0.418,0.048,0.626c0.3,3.081,0.684,6.078,1.137,8.972
								c0.252,1.578,0.516,3.129,0.801,4.646c0.301,1.608,0.621,3.179,0.958,4.708c0,0.003,0.025,0.004,0.025,0.004
								C148.082,534.18,146.207,503.881,160.085,474.385L160.085,474.385z"/>
							<path id="Shape_19_" fill="#006E76" d="M132.422,493.472l20.031,2.833c0.378-1.62,0.8-3.243,1.258-4.873l-3.367-6.83
								L132.422,493.472L132.422,493.472z"/>
							<polygon id="Shape_20_" fill="#006E76" points="132.42,492.648 132.422,492.648 150.831,484.192 154.688,491.432 
								154.688,491.429 150.835,484.188 							"/>
							<polygon id="Shape_21_" fill="#006E76" points="158.416,453.48 158.908,454.48 158.866,453.765 							"/>
							<path id="Shape_22_" fill="#006E76" d="M157.605,431.64c-0.461,0.47-0.905,0.945-1.355,1.418l1.491,0.935L157.605,431.64
								L157.605,431.64z"/>
							<path id="Shape_23_" fill="#006E76" d="M151.134,438.707c1.634-1.907,3.429-3.79,5.198-5.648
								c0.45-0.473,0.668-0.948,1.439-1.418v-0.003c-4.626,5.098-9.52,10.401-13.497,15.848c0.491-0.669,0.931-1.338,1.434-2.001
								C147.441,443.196,149.225,440.935,151.134,438.707L151.134,438.707z"/>
							<path id="Shape_24_" fill="#006E76" d="M121.92,491.985l10.5,1.487l17.925-8.871l3.366,6.83
								c0.566-2.01,1.194-4.025,1.885-6.041l-27.427-10.024C125.739,480.884,123.676,486.443,121.92,491.985L121.92,491.985z"/>
							<path id="Shape_25_" fill="#006E76" d="M137.779,457.036c-0.78,1.267-1.533,2.535-2.266,3.812l5.058,1.85L137.779,457.036
								L137.779,457.036z"/>
							<path id="Shape_26_" fill="#006E76" d="M140.568,462.696l19.211,7.021l-0.87-15.237l-0.492-1l-12.75-7.996
								c-0.5,0.663-0.984,1.332-1.476,2.001c-2.292,3.141-4.429,6.326-6.412,9.551L140.568,462.696L140.568,462.696z"/>
							<path id="Shape_27_" fill="#006E76" d="M141.284,521.635l8.207-4.061c0.038-0.764,0.08-1.528,0.133-2.298L136.042,522
								L141.284,521.635L141.284,521.635z"/>
							<path id="Shape_28_" fill="#006E76" d="M149.356,521.077c0.027-1.161,0.075-2.331,0.135-3.503l-8.205,4.061L149.356,521.077
								L149.356,521.077z"/>
							<path id="Shape_29_" fill="#006E76" d="M115.249,521.359c0.534,0.661,1.069,1.318,1.61,1.97L136.042,522l13.582-6.724
								c0.069-1,0.151-2.006,0.246-3.014l-32.142-4.548C116.719,512.322,115.9,516.88,115.249,521.359L115.249,521.359z"/>
							<path id="Shape_30_" fill="#006E76" d="M137.285,544.145l12.697-6.285c-0.02-0.208-0.038-0.419-0.057-0.626l-18.819,1.306
								C133.12,540.456,135.18,542.324,137.285,544.145L137.285,544.145z"/>
							<path id="Shape_31_" fill="#006E76" d="M142.372,548.371l8.752-1.539c-0.455-2.894-0.843-5.89-1.142-8.972l-12.697,6.285
								C138.951,545.587,140.651,546.992,142.372,548.371L142.372,548.371z"/>
							<path id="Shape_32_" fill="#9CD3E3" d="M152.882,556.185c-0.334-1.529-0.656-3.1-0.958-4.708l-3.341,1.655
								C150.002,554.172,151.434,555.192,152.882,556.185L152.882,556.185z"/>
							<path id="Shape_33_" fill="#9CD3E3" d="M148.583,553.133l3.341-1.655c-0.286-1.517-0.551-3.067-0.801-4.646l-8.752,1.539
								C144.406,550.003,146.477,551.589,148.583,553.133L148.583,553.133z"/>
							<path id="Shape_34_" fill="#9CD3E3" d="M145.666,445.484l12.75,7.996l-7.282-14.773
								C149.225,440.935,147.399,443.196,145.666,445.484L145.666,445.484z"/>
							<path id="Shape_35_" fill="#9CD3E3" d="M157.74,433.993l-1.491-0.935c-1.771,1.858-3.481,3.741-5.113,5.648l7.282,14.773
								l0.45,0.285L157.74,433.993L157.74,433.993z"/>
							<path id="Shape_36_" fill="#9CD3E3" d="M135.617,460.973h0.052c-2.75,4.636-4.882,9.48-7.194,14.365v-0.014
								C130.787,470.441,132.867,465.609,135.617,460.973L135.617,460.973z"/>
							<polygon id="Shape_37_" fill="#9CD3E3" points="159.824,470.49 159.779,469.718 140.568,462.696 147.434,476.625 							"/>
							<path id="Shape_38_" fill="#9CD3E3" d="M159.824,470.49l-12.39,6.134l-6.864-13.928l-5.058-1.849
								c-2.748,4.782-5.191,9.636-7.344,14.519l27.427,10.023c1.259-3.672,2.727-7.346,4.447-11.01l-0.214-3.823L159.824,470.49
								L159.824,470.49z"/>
							<rect id="Rectangle-path_2_" x="119.646" y="499.793" fill="#9CD3E3" width="0.154" height="0.156"/>
							<path id="Shape_39_" fill="#9CD3E3" d="M121.92,491.793L121.92,491.793c-0.827,2.609-1.584,5.492-2.274,7.808l0,0
								C120.339,497.285,121.095,494.402,121.92,491.793L121.92,491.793z"/>
							<path id="Shape_40_" fill="#9CD3E3" d="M119.994,499.698v-0.046c-1.542,2.651-1.71,5.357-2.284,7.675H117.7
								C118.275,505.01,118.452,502.35,119.994,499.698L119.994,499.698z"/>
							<path id="Shape_41_" fill="#9CD3E3" d="M119.646,499.793c-0.704,2.653-1.343,5.296-1.918,7.922l32.142,4.548
								c0.489-5.23,1.327-10.569,2.583-15.957l-20.031-2.833L119.646,499.793L119.646,499.793z"/>
							
								<rect id="Rectangle-path_3_" x="118.866" y="495.676" transform="matrix(-0.8966 0.4429 -0.4429 -0.8966 458.5014 884.4421)" fill="#9CD3E3" width="14.247" height="0.153"/>
							<path id="Shape_42_" fill="#9CD3E3" d="M121.92,491.985c-0.825,2.609-1.581,5.213-2.274,7.808l12.774-6.32L121.92,491.985
								L121.92,491.985z"/>
							<path id="Shape_43_" fill="#9CD3E3" d="M136.042,522l-19.183,1.329c1.614,1.939,3.263,3.847,4.956,5.714L136.042,522
								L136.042,522z"/>
							<path id="Shape_44_" fill="#9CD3E3" d="M123.234,530.569l18.052-8.935l-5.245,0.367l-14.227,7.041
								C122.281,529.556,122.76,530.06,123.234,530.569L123.234,530.569z"/>
							<path id="Shape_45_" fill="#9CD3E3" d="M123.234,530.569c2.541,2.737,5.164,5.399,7.872,7.972l18.819-1.307
								c-0.478-5.173-0.705-10.58-0.569-16.157l-8.069,0.558L123.234,530.569L123.234,530.569z"/>
							<path id="Shape_46_" fill="#4F2324" d="M166.521,512.199l-2.113-38.379c-1.435,2.854-2.747,5.759-3.911,8.717l1.736,31.098
								c0.012,20.488,4.795,39.767,13.501,55.874c2.549,1.239,5.132,2.42,7.746,3.536
								C172.5,556.275,166.521,535.129,166.521,512.199L166.521,512.199z"/>
							<path id="Shape_47_" fill="#4F2324" d="M161.592,422.664l-6.09-110.596c0-54.069,44.149-98.304,98.104-98.304
								c53.957,0,98.104,44.235,98.104,98.304l-0.034,0.663c12.146,6.461,20.445,19.251,20.445,33.963
								c0,16.21-10.082,30.077-24.282,35.712l-7.147,129.79c0,18.911-4.062,36.606-11.643,51.64
								c1.027,1.305,2.063,2.623,3.107,3.954c0.094-0.048,0.188-0.097,0.28-0.144c8.37-15.824,12.927-34.635,12.938-54.926
								l3.823-69.4l2.023-36.7l1.153-20.956c2.075-1.062,4.07-2.298,5.912-3.666c11.598-7.887,18.52-20.938,18.52-34.913
								c0-14.734-7.813-28.542-20.42-36.167c-0.396-26.579-11.008-51.624-29.918-70.575c-19.3-19.341-44.858-29.991-71.967-29.991
								c-21.443,0-43.205,6.85-60.383,19.279c-27.764,19.407-44.826,50.728-44.826,83.871v0.726
								c-10.023,7.919-16.331,20.452-16.331,33.817c0,15.307,8.532,29.385,21.914,36.871l1.846,30.787l0.607,10.88l2.497-2.397
								L161.592,422.664L161.592,422.664z"/>
							<path id="Shape_48_" fill="#4F2324" d="M328.587,569.576c1.198-0.584,2.389-1.178,3.569-1.786
								c-1.044-1.333-2.08-2.649-3.107-3.954c-0.643,1.276-1.311,2.537-2.006,3.773C327.552,568.26,328.067,568.915,328.587,569.576
								L328.587,569.576z"/>
							<path id="Shape_49_" fill="#4F2324" d="M324.839,571.341c1.257-0.575,2.507-1.162,3.746-1.765
								c-0.519-0.661-1.033-1.316-1.542-1.967C326.334,568.876,325.601,570.119,324.839,571.341L324.839,571.341z"/>
							<path id="Shape_50_" fill="#4F2324" d="M159.484,424.517l1.578,3.703c0.264-0.252,0.527-0.501,0.794-0.752l-0.264-4.805
								l-1.774,1.522l-2.502,2.397l0.004,0.068C158.047,425.947,158.74,425.21,159.484,424.517L159.484,424.517z"/>
							<path id="Shape_51_" fill="#4F2324" d="M158.255,430.972l-0.777-1.533l0.126,2.199
								C157.822,431.417,158.035,431.195,158.255,430.972L158.255,430.972z"/>
							<path id="Shape_52_" fill="#4F2324" d="M164.016,466.736c-1.446,2.54-2.773,5.091-3.976,7.649l0.455,8.151
								c1.166-2.958,2.476-5.862,3.912-8.717L164.016,466.736L164.016,466.736z"/>
							<path id="Shape_53_" fill="#4F2324" d="M161.062,428.22l-1.578-3.703c-0.744,0.692-1.437,1.43-2.166,2.135l0.16,2.787
								l0.777,1.533C159.171,430.048,160.111,429.131,161.062,428.22L161.062,428.22z"/>
							<path id="Shape_54_" fill="#4F2324" d="M161.856,427.469c-0.267,0.251-0.53,0.502-0.794,0.754l0.959,2.249L161.856,427.469
								L161.856,427.469z"/>
							<polygon id="Shape_56_" fill="#4F2324" points="163.463,456.644 158.866,453.765 158.908,454.48 163.899,464.605 							"/>
							<path id="Shape_57_" fill="#4F2324" d="M161.959,470.514c0.253-0.487,0.506-0.973,0.768-1.46l-2.023,1.002L161.959,470.514
								L161.959,470.514z"/>
							<path id="Shape_59_" fill="#4F2324" d="M160.737,435.874l-2.482-4.899c-0.22,0.221-0.432,0.442-0.65,0.666l0.136,2.353
								L160.737,435.874L160.737,435.874z"/>
							<path id="Shape_60_" fill="#4F2324" d="M162.727,469.054c0.416-0.776,0.85-1.549,1.289-2.323l-0.118-2.126l-4.99-10.125
								l0.87,15.239l0.925,0.337L162.727,469.054L162.727,469.054z"/>
							<path id="Shape_61_" fill="#4F2324" d="M164.711,466.736v-0.005c0,0.774-1.22,1.547-1.637,2.323
								c-0.261,0.487-0.668,0.973-0.92,1.46c-0.667,1.285-1.298,2.574-2.069,3.866v0.006
								C160.856,471.827,162.397,469.276,164.711,466.736L164.711,466.736z"/>
							<path id="Shape_62_" fill="#4F2324" d="M162.375,436.898l-0.354-6.427l-0.959-2.249c-0.951,0.908-1.891,1.826-2.807,2.752
								l2.482,4.899L162.375,436.898L162.375,436.898z"/>
							<path id="Shape_63_" fill="#4F2324" d="M158.288,430.845c0.917-0.774,1.796-1.715,2.567-2.623v-0.003
								c-0.771,0.911-1.636,1.852-2.551,2.624h-0.017V430.845z"/>
							<polygon id="Shape_64_" fill="#4F2324" points="160.737,435.874 157.74,433.993 158.866,453.765 163.463,456.644 
								162.51,439.374 							"/>
							<polygon id="Shape_65_" fill="#4F2324" points="162.375,436.898 160.737,435.874 162.51,439.374 							"/>
							<path id="Shape_66_" fill="#4F2324" d="M160.704,470.056l-0.88,0.434l0.003,0.066l0.213,3.823
								c0.605-1.291,1.25-2.58,1.918-3.865L160.704,470.056L160.704,470.056z"/>
							<polygon id="Shape_67_" fill="#4F2324" points="160.704,470.056 159.779,469.718 159.824,470.49 							"/>
							<path id="Shape_68_" fill="#49B7C8" d="M234.627,586.276c5.803,0.583,11.685,0.86,17.636,0.86
								c13.453,0,26.558-1.548,39.154-4.439l33.584-11.251l4.048-7.607c7.58-15.034,11.643-32.73,11.643-51.64l7.147-129.792
								c14.2-5.633,24.282-19.502,24.282-35.712c0-14.712-8.3-27.502-20.445-33.963l0.034-0.663
								c0-54.069-44.147-98.304-98.104-98.304c-53.953,0-98.104,44.235-98.104,98.304l6.09,110.596l2.15,51.156l2.996,38.379
								c0,22.93,5.873,44.077,16.854,60.846c3.276,1.402,6.552,2.753,9.926,3.954C193.517,576.999,215.781,585.334,234.627,586.276
								L234.627,586.276z M307.092,491.492c-0.007,1.481,0.007,2.971-0.143,4.449c-0.098,1.481-0.329,2.958-0.617,4.417
								c-0.273,1.472-0.681,2.918-1.137,4.342l-0.788,2.112l-0.949,2.055c-0.707,1.344-1.495,2.645-2.4,3.884
								c-0.947,1.209-1.981,2.365-3.186,3.374c-1.223,0.977-2.536,1.903-4.051,2.476c-0.713,0.349-1.562,0.548-2.399,0.745
								c-0.85,0.21-1.483,0.185-2.235,0.286c-1.857-0.037-3.361-0.241-4.927-0.861c-1.558-0.523-2.927-1.41-4.211-2.363
								c-1.269-0.977-2.36-2.129-3.368-3.332c-0.963-1.232-1.826-2.533-2.587-3.889l-1.04-2.066l-0.881-2.138
								c-0.086-0.249-0.164-0.499-0.25-0.75c-0.091,0.296-0.173,0.588-0.268,0.879l-0.832,2.184l-1.002,2.136
								c-0.735,1.391-1.575,2.744-2.534,4.04c-0.997,1.267-2.098,2.479-3.384,3.539c-1.307,1.029-2.713,2.017-4.357,2.618
								c-0.758,0.354-1.72,0.582-2.663,0.78c-1.051,0.217-1.322,0.162-2.488,0.274c-1.768-0.066-3.562-0.311-5.174-0.988
								c-1.66-0.584-3.099-1.539-4.436-2.558c-1.318-1.043-2.456-2.245-3.487-3.505c-0.997-1.285-1.874-2.634-2.65-4.032
								l-1.057-2.133l-0.417-1.026c-0.747,1.905-1.649,3.769-2.766,5.55c-1.042,1.534-2.16,3.041-3.569,4.358
								c-1.335,1.37-3.01,2.485-4.794,3.407c-0.968,0.384-1.819,0.824-3.008,1.053c-0.515,0.108-1.226,0.301-1.587,0.308
								l-1.235,0.101l-0.56,0.02l-0.388-0.036l-0.78-0.068c-0.521-0.044-1.042-0.106-1.533-0.281
								c-1.012-0.245-1.961-0.641-2.831-1.151c-0.91-0.441-1.632-1.136-2.41-1.701c-0.669-0.683-1.391-1.306-1.963-2.028
								c-1.214-1.386-2.262-2.821-3.177-4.322c-0.925-1.496-1.613-3.095-2.277-4.678l-0.846-2.43l-0.669-2.464l-0.515-2.489
								l-0.343-2.512c-0.154-1.707-0.238-3.396-0.208-5.033c0.005-0.474,0.012-0.942,0.019-1.412
								c-0.006-0.423-0.026-0.849-0.019-1.264c0.014-1.521,0.04-3.027,0.054-4.525c-0.009-0.911-0.03-1.818-0.072-2.734
								c-0.004-0.112,0.024-0.214,0.07-0.311c-0.012-0.786-0.033-1.573-0.07-2.364c-0.018-0.376,0.765-0.692,1.138-0.711
								c0.374-0.018,1.199,0.274,1.199,0.647v0.063c0,0.816-0.026,1.638-0.039,2.458c0.015,0.051,0.039,0.099,0.039,0.156v0.061
								c0,1.166-0.539,2.334-0.544,3.505c0.016,1.241-0.208,2.485-0.173,3.711c0.07,1.674,0.14,3.273,0.381,4.849l0.419,2.374
								l0.602,2.333c0.491,1.53,1.095,3.006,1.792,4.434c0.734,1.409,1.566,2.749,2.53,3.965c0.961,1.21,2.015,2.354,3.283,3.142
								c1.241,0.824,2.597,1.353,3.896,1.607c1.205,0.363,2.666,0.337,3.524,0.382l1.232-0.092c0.464-0.015,0.539-0.136,0.831-0.178
								c0.449-0.047,1.085-0.359,1.656-0.56c1.131-0.589,2.279-1.265,3.262-2.26c1.03-0.913,1.902-2.065,2.744-3.241
								c0.783-1.233,1.5-2.525,2.094-3.904c0.586-1.373,1.087-2.803,1.478-4.273c0.399-1.467,0.684-2.97,0.895-4.484
								c0.205-1.521,0.286-3.057,0.334-4.597c-0.063-1.541,1.142-2.844,2.684-2.9c1.539-0.062,2.277,1.143,2.334,2.685l-0.56,0.099
								v0.117c0,1.358,0.6,2.717,0.764,4.063c0.108,1.349,0.624,2.689,0.9,4.005c0.272,1.323,0.801,2.608,1.216,3.88l0.79,1.866
								l0.888,1.792c0.623,1.162,1.334,2.265,2.102,3.301c0.804,1.001,1.666,1.93,2.617,2.711c0.964,0.747,1.967,1.448,3.06,1.834
								c1.068,0.49,2.202,0.623,3.331,0.713c0.271-0.06,1.479-0.049,1.837-0.191c0.476-0.133,0.948-0.189,1.515-0.452
								c1.102-0.371,2.142-1.046,3.135-1.775c0.981-0.76,1.874-1.687,2.71-2.679c0.803-1.027,1.536-2.13,2.196-3.29l0.91-1.796
								l0.776-1.877c0.455-1.28,0.883-2.578,1.192-3.913c0.317-1.333,0.587-2.688,0.735-4.059c0.192-1.367,0.231-2.75,0.298-4.133
								c-0.046-1.122,0.265-2.077,1.386-2.126c1.123-0.054,1.563,0.818,1.563,1.943v0.12v0.062c0,1.383,0.583,2.771,0.742,4.148
								c0.1,1.378,0.61,2.748,0.888,4.095c0.27,1.363,0.794,2.684,1.218,3.991l0.795,1.927l0.901,1.858
								c0.642,1.208,1.37,2.354,2.169,3.444l1.302,1.527c0.482,0.441,0.935,0.945,1.439,1.356c1.018,0.812,2.093,1.582,3.286,2.031
								c1.113,0.544,2.539,0.715,3.573,0.837c0.688-0.066,1.534-0.028,2.095-0.179c0.574-0.136,1.155-0.217,1.771-0.492
								c1.237-0.4,2.36-1.129,3.443-1.915c1.064-0.816,2.017-1.8,2.914-2.849c0.855-1.081,1.633-2.231,2.33-3.446l0.959-1.871
								l0.818-1.946c0.48-1.33,0.939-2.672,1.277-4.051c0.34-1.376,0.642-2.774,0.804-4.192c0.217-1.414,0.278-2.843,0.362-4.276
								l0.005-0.044c0.023-0.375,0.343-0.661,0.714-0.641c0.364,0.024,0.642,0.324,0.64,0.685c-0.004,0.831-0.01,1.664-0.034,2.496
								C307.074,491.372,307.092,491.429,307.092,491.492L307.092,491.492z M320.171,443.491c-0.052,1.663-0.259,3.318-0.488,4.972
								c-0.263,1.648-0.581,3.287-1.007,4.912c-0.442,1.62-0.92,3.234-1.561,4.804c-0.612,1.571-1.33,3.12-2.212,4.598
								c-0.837,1.493-1.87,2.904-3.049,4.216c-0.56,0.676-1.285,1.225-1.93,1.839c-0.756,0.503-1.445,1.103-2.293,1.498
								l-1.254,0.609c-0.447,0.175-0.96,0.299-1.441,0.447c-1.062,0.346-1.719,0.273-2.574,0.409
								c-0.786-0.021-1.039-0.063-1.59-0.104c-0.481-0.009-0.945-0.115-1.406-0.251c-0.942-0.196-1.813-0.551-2.656-0.972
								c-0.867-0.377-1.58-0.956-2.364-1.444c-0.672-0.599-1.428-1.146-2.021-1.81c-1.246-1.285-2.353-2.68-3.263-4.166
								c-0.953-1.467-1.743-3.011-2.43-4.591c-0.641-1.415-1.15-2.873-1.62-4.341c-0.447,1.512-0.932,3.021-1.558,4.485
								c-0.655,1.614-1.421,3.194-2.359,4.713c-0.893,1.529-1.984,2.978-3.236,4.33c-0.602,0.692-1.368,1.274-2.055,1.914
								c-0.801,0.531-1.539,1.146-2.443,1.567l-1.345,0.639c-0.486,0.191-1.058,0.332-1.59,0.477l-0.819,0.206
								c-0.247,0.049-0.419,0.049-0.626,0.079l-1.218,0.465l-0.261,0.344h-0.024l-0.045-0.342l-0.096-0.178l-0.192-0.102
								l-0.386-0.073l-0.771-0.093c-0.518-0.026-1.017-0.15-1.5-0.299c-1.009-0.226-1.93-0.624-2.814-1.078
								c-0.914-0.411-1.654-1.027-2.468-1.559c-0.689-0.631-1.463-1.215-2.07-1.905c-1.272-1.343-2.381-2.791-3.293-4.321
								c-0.951-1.512-1.733-3.102-2.403-4.71c-0.497-1.129-0.896-2.283-1.271-3.443c-0.376,1.154-0.778,2.302-1.271,3.429
								c-0.68,1.604-1.46,3.183-2.417,4.69c-0.911,1.522-2.022,2.968-3.293,4.302c-0.605,0.69-1.376,1.269-2.071,1.892
								c-0.807,0.525-1.545,1.134-2.455,1.54l-1.345,0.627c-0.485,0.187-1.057,0.314-1.585,0.459
								c-1.305,0.35-1.555,0.227-2.88,0.364c-2.034-0.106-4.073-0.55-5.778-1.521c-0.898-0.409-1.626-1.027-2.425-1.558
								c-0.677-0.633-1.439-1.208-2.036-1.901c-1.244-1.345-2.328-2.79-3.219-4.312c-0.931-1.51-1.691-3.085-2.343-4.69
								c-0.678-1.601-1.199-3.24-1.671-4.892c-0.003-0.008-0.003-0.016-0.006-0.022c-0.497,1.615-1.038,3.215-1.732,4.774
								c-0.671,1.58-1.452,3.127-2.393,4.599c-0.899,1.486-1.992,2.888-3.223,4.174c-0.591,0.663-1.338,1.214-2.007,1.815
								c-0.777,0.501-1.492,1.085-2.361,1.458l-1.283,0.58c-0.452,0.176-0.977,0.287-1.463,0.417
								c-1.147,0.328-1.574,0.22-2.744,0.347c-1.906-0.12-3.819-0.533-5.428-1.464c-0.848-0.396-1.542-0.994-2.298-1.497
								c-0.652-0.607-1.372-1.16-1.944-1.832c-1.189-1.303-2.247-2.696-3.087-4.2c-0.882-1.475-1.601-3.033-2.216-4.607
								c-0.644-1.569-1.126-3.189-1.571-4.807c-0.333-1.271-0.592-2.554-0.812-3.84c-0.001-0.012,0.437-0.023,0.434-0.036
								l2.24,0.756c0.491,1.512,1.02,3.011,1.688,4.443c0.638,1.441,1.369,2.832,2.227,4.122c0.828,1.307,1.778,2.518,2.825,3.597
								c0.5,0.564,1.111,0.982,1.654,1.483c0.619,0.368,1.188,0.854,1.839,1.117c1.253,0.691,2.625,0.896,3.963,0.973
								c0.439-0.104,1.689-0.098,2.087-0.349c0.292-0.108,0.572-0.157,0.879-0.284l0.934-0.463c0.629-0.282,1.175-0.779,1.777-1.15
								c0.525-0.516,1.113-0.935,1.593-1.506c1.003-1.09,1.92-2.296,2.684-3.617c0.801-1.298,1.474-2.698,2.057-4.135
								c0.605-1.429,1.078-2.92,1.51-4.422c0.419-1.512,0.749-3.044,1.02-4.596c0.232-1.557,1.024-3.113,1.105-4.688
								c0.156-1.568,0.726-3.15,0.726-4.726v-0.034c0-1.142,0.358-2.08,1.491-2.109c1.138-0.026,1.593,0.874,1.593,2.015v0.128
								c0,0.378,0,0.756,0.012,1.133c0.252,0.334,0.421,0.725,0.431,1.179l-0.012,0.129c0.071,1.573,0.082,3.153,0.27,4.717
								c0.095,1.307,0.301,2.595,0.517,3.883c0.22,0.975,0.456,1.942,0.744,2.898c0.455,1.48,0.945,2.955,1.575,4.355
								c0.602,1.413,1.295,2.779,2.105,4.04c0.776,1.289,1.698,2.449,2.689,3.486c0.479,0.543,1.051,0.931,1.565,1.415
								c0.576,0.34,1.109,0.809,1.713,1.051c1.158,0.652,2.4,0.828,3.617,0.909c0.285-0.087,1.709-0.09,1.953-0.317
								c0.249-0.097,0.482-0.132,0.754-0.24l0.872-0.423c0.593-0.248,1.114-0.721,1.681-1.063c0.497-0.491,1.06-0.887,1.526-1.431
								c0.967-1.045,1.864-2.208,2.619-3.495c0.785-1.265,1.45-2.626,2.029-4.037c0.605-1.397,1.073-2.868,1.509-4.348
								c0.421-1.485,0.754-3,1.027-4.527c0.239-1.537,0.491-3.074,0.584-4.634c0.163-1.556,0.148-3.121,0.208-4.68
								c-0.048-1.43,1.611-2.622,3.036-2.667c1.424-0.048,3.213,1.072,3.213,2.5v0.144v0.021c0,0.297-0.226,0.592-0.22,0.889
								c0.274,0.395,0.22,0.867,0.22,1.386v0.145v0.023c0,1.558-0.257,3.119-0.087,4.675c0.089,1.474,0.175,2.931,0.404,4.387
								c0.177,0.784,0.296,1.562,0.518,2.334c0.439,1.471,0.874,2.938,1.479,4.333c0.581,1.405,1.235,2.768,2.025,4.021
								c0.753,1.287,1.643,2.439,2.607,3.472c0.463,0.543,1.02,0.931,1.519,1.417c0.565,0.344,1.082,0.81,1.667,1.057
								c0.575,0.292,1.152,0.552,1.747,0.671c0.297,0.101,0.59,0.178,0.894,0.178l0.448,0.04l0.223,0.023l0.113-0.526l0.053-0.536
								h0.021l1.027,0.458c0.189-0.024,0.431,0.242,0.584,0.208l0.361,0.004c0.245-0.083,0.479-0.044,0.754-0.144l0.87-0.373
								c0.593-0.238,1.118-0.684,1.689-1.023c0.506-0.479,1.078-0.855,1.551-1.399c0.985-1.031,1.896-2.179,2.67-3.462
								c0.805-1.25,1.492-2.61,2.091-4.021c0.624-1.393,1.113-2.862,1.568-4.339c0.44-1.49,0.798-3.002,1.093-4.539
								c0.256-1.538,0.531-3.084,0.643-4.652c0.184-1.56,0.194-3.135,0.261-4.705c-0.047-1.228,0.87-2.261,2.094-2.306
								c1.22-0.048,2.267,0.903,2.267,2.134v0.134v0.039c0,0.351-0.229,0.702-0.222,1.054c0.256,0.347,0.222,0.748,0.222,1.212
								v0.133v0.044c0,1.569,0.306,3.143,0.465,4.707c0.087,1.571,0.474,3.125,0.702,4.675c0.006,0.033,0.083,0.065,0.091,0.1
								c0.146,0.683,0.34,1.368,0.522,2.044c0.423,1.498,0.896,2.994,1.491,4.422c0.566,1.436,1.238,2.835,2.023,4.138
								c0.755,1.327,1.663,2.532,2.65,3.629c0.477,0.575,1.061,0.999,1.583,1.512c0.592,0.38,1.14,0.881,1.772,1.162
								c1.145,0.729,2.709,0.97,3.743,1.112c0.754-0.094,1.774-0.052,2.256-0.283c0.298-0.094,0.591-0.14,0.906-0.251l0.958-0.433
								c0.656-0.266,1.226-0.751,1.843-1.116c0.549-0.498,1.157-0.919,1.669-1.474c1.056-1.07,2.035-2.269,2.861-3.581
								c0.86-1.297,1.593-2.696,2.233-4.135c0.666-1.43,1.197-2.931,1.693-4.447c0.479-1.521,0.868-3.07,1.195-4.641
								c0.29-1.579,0.124-3.158,0.277-4.755c0.229-1.601-0.096-3.211-0.096-4.827v-0.049c0-0.409,0.854-0.716,1.264-0.69
								c0.393,0.027,0.928,0.351,0.932,0.739c-0.002,0.586,0.123,1.17,0.126,1.756c0.28,0.106,0.539,0.371,0.541,0.687
								C320.225,440.174,320.304,441.835,320.171,443.491L320.171,443.491z"/>
							<path id="Shape_69_" fill="#49B7C8" d="M327.043,567.609c-9.77-12.443-17.566-22.289-18.425-23.121l-12.942,10.202
								l-13.277,10.468c0.488,0.837,5.684,7.492,12.868,16.594c10.243-2.597,20.13-6.096,29.573-10.411
								C325.601,570.119,326.334,568.876,327.043,567.609L327.043,567.609z"/>
							<path id="Shape_70_" fill="#49B7C8" d="M175.504,458.329v-0.004c-2.312,0.882-1.859,1.438-1.859,1.438l-2.303-3.749
								c-2.583,3.539-5.075,7.118-7.123,10.721l1.095,7.086C168.016,468.448,170.108,463.261,175.504,458.329L175.504,458.329z"/>
							<path id="Shape_71_" fill="#49B7C8" d="M170.94,456.013l1.897,3.749c0,0,0.401-0.556,1.053-1.437l-1.694-3.976
								C171.774,454.904,171.347,455.457,170.94,456.013L170.94,456.013z"/>
							<path id="Shape_72_" fill="#49B7C8" d="M165.631,438.942l9.726,6.1l-10.166-20.624c-1.137,1.006-2.246,2.024-3.335,3.051
								l0.165,3.003L165.631,438.942L165.631,438.942z"/>
							<path id="Shape_74_" fill="#49B7C8" d="M168.358,459.491c-1.366,2.036-2.301,4.196-3.495,6.253
								c-0.169,0.292-0.152,0.695-0.152,0.987v0.005c0.771-3.603,3.835-6.535,6.417-11.17h-0.095
								C170.136,457.884,169.187,458.254,168.358,459.491L168.358,459.491z"/>
							<path id="Shape_75_" fill="#49B7C8" d="M168.358,459.715l-4.895-3.07l0.436,7.961l0.618,1.249
								C165.712,463.799,166.992,461.751,168.358,459.715L168.358,459.715z"/>
							<polygon id="Shape_76_" fill="#49B7C8" points="162.021,430.471 162.375,436.898 165.631,438.942 							"/>
							<path id="Shape_77_" fill="#49B7C8" d="M172.42,454.347c0,0.554-0.962,1.109-1.369,1.666h0.057
								c0.407-0.557,1.312-1.109,1.312-1.664V454.347L172.42,454.347z"/>
							<path id="Shape_78_" fill="#49B7C8" d="M177.011,448.4l-1.654-3.358l-9.727-6.1l6.565,15.405
								C173.708,452.348,175.313,450.367,177.011,448.4L177.011,448.4z"/>
							<path id="Shape_79_" fill="#49B7C8" d="M170.94,456.013l-8.43-16.64l0.952,17.271l4.895,3.07
								C169.187,458.477,170.043,457.24,170.94,456.013L170.94,456.013z"/>
							<path id="Shape_80_" fill="#49B7C8" d="M170.94,456.013c0.405-0.557,0.834-1.112,1.256-1.666l-6.565-15.404l-3.255-2.045
								l0.135,2.476L170.94,456.013L170.94,456.013z"/>
							<path id="Shape_82_" fill="#49B7C8" d="M115.249,521.359c-0.104,0.702-0.2,1.403-0.293,2.103l1.903-0.133
								C116.318,522.677,115.782,522.02,115.249,521.359L115.249,521.359z"/>
							<path id="Shape_84_" fill="#49B7C8" d="M176.18,308.257c-21.147,0-38.353,17.242-38.353,38.438
								c0,21.19,17.206,38.434,38.353,38.434s38.356-17.244,38.356-38.434C214.536,325.498,197.329,308.257,176.18,308.257"/>
							<path id="Shape_85_" fill="#33A7B8" d="M176.18,319.737c16.021,0,29.008,13.013,29.008,29.065
								c0,16.048-12.986,29.065-29.008,29.065c-16.019,0-29.005-13.015-29.005-29.065
								C147.175,332.75,160.161,319.737,176.18,319.737"/>
							<path id="Shape_86_" fill="#33A7B8" d="M333.112,319.737c16.022,0,29.008,13.013,29.008,29.065
								c0,16.048-12.985,29.065-29.008,29.065c-16.017,0-29.003-13.015-29.003-29.065
								C304.109,332.75,317.092,319.737,333.112,319.737"/>
							
								<rect id="Rectangle-path_4_" x="345.84" y="397.833" transform="matrix(-0.9988 -0.0482 0.0482 -0.9988 674.6374 864.8668)" fill="#4F2324" width="3.792" height="52.949"/>
							
								<rect id="Rectangle-path_5_" x="134.038" y="435.106" transform="matrix(-0.0479 -0.9989 0.9989 -0.0479 -268.3619 618.2079)" fill="#4F2324" width="52.847" height="3.802"/>
							<g id="Shape_87_" transform="translate(24.000000, 70.644172)">
								<path fill="#FACF18" d="M152.18,250.174c14.263,0,25.828,11.583,25.828,25.876c0,14.291-11.565,25.877-25.828,25.877
									c-14.26,0-25.823-11.587-25.823-25.877C126.359,261.756,137.921,250.174,152.18,250.174"/>
								<path fill="#4F2324" d="M152.18,303.354c-15.022,0-27.246-12.251-27.246-27.304c0-15.055,12.224-27.303,27.246-27.303
									c15.025,0,27.246,12.248,27.246,27.303C179.428,291.102,167.205,303.354,152.18,303.354L152.18,303.354z M152.18,251.595
									c-13.455,0-24.4,10.97-24.4,24.455c0,13.483,10.946,24.45,24.4,24.45c13.459,0,24.403-10.967,24.403-24.45
									C176.583,262.565,165.639,251.595,152.18,251.595L152.18,251.595z"/>
							</g>
							<g id="Shape_88_" transform="translate(126.000000, 70.644172)">
								<path fill="#FACF18" d="M207.766,250.174c14.263,0,25.818,11.583,25.818,25.876c0,14.291-11.556,25.877-25.818,25.877
									c-14.267,0-25.825-11.587-25.825-25.877C181.941,261.756,193.499,250.174,207.766,250.174"/>
								<path fill="#4F2324" d="M207.766,303.354c-15.024,0-27.247-12.251-27.247-27.304c0-15.055,12.223-27.303,27.247-27.303
									c15.021,0,27.243,12.248,27.243,27.303C235.009,291.102,222.787,303.354,207.766,303.354L207.766,303.354z M207.766,251.595
									c-13.457,0-24.404,10.97-24.404,24.455c0,13.483,10.947,24.45,24.404,24.45c13.453,0,24.397-10.967,24.397-24.45
									C232.163,262.565,221.219,251.595,207.766,251.595L207.766,251.595z"/>
							</g>
							<path id="Shape_89_" fill="#33A7B8" d="M159.282,311.883c0,0,18.47-30.081,39.457,2.225
								C198.739,314.108,181.791,297.96,159.282,311.883L159.282,311.883z"/>
							<path id="Shape_90_" fill="#4F2324" d="M197.673,314.589c-0.335,0-0.673-0.119-0.944-0.361
								c-16.034-14.28-34.694-2.438-35.48-1.926c-0.657,0.424-1.539,0.241-1.966-0.418c-0.43-0.657-0.245-1.539,0.415-1.97
								c0.21-0.135,21.25-13.558,38.923,2.186c0.587,0.522,0.638,1.423,0.119,2.012
								C198.456,314.427,198.066,314.589,197.673,314.589L197.673,314.589z"/>
							<path id="Shape_91_" fill="#33A7B8" d="M254.091,213.633c0,0,83.921,21.777,58.002,95.255c0,0,21.182-7.127,40.299,3.957
								C352.392,312.845,351.999,221.474,254.091,213.633L254.091,213.633z"/>
							<path id="Shape_92_" fill="#4F2324" d="M309.345,314.589c-0.39,0-0.784-0.162-1.064-0.48
								c-0.521-0.588-0.467-1.488,0.121-2.012c17.67-15.743,38.711-2.32,38.919-2.184c0.658,0.43,0.844,1.313,0.415,1.97
								c-0.428,0.659-1.311,0.843-1.966,0.418c-0.786-0.512-19.446-12.356-35.481,1.924
								C310.019,314.469,309.68,314.589,309.345,314.589L309.345,314.589z"/>
							<g transform="translate(39.000000, 77.157464)">
								<path id="Shape_93_" fill="#4F2324" d="M137.18,286.033c-2.473,0-4.475-2.008-4.475-4.483v-24.03
									c0-2.479,2.002-4.484,4.475-4.484s4.475,2.008,4.475,4.484v24.03C141.657,284.025,139.653,286.033,137.18,286.033"/>
								<ellipse id="Oval" fill="#FFFFFF" cx="144.759" cy="258.141" rx="5.68" ry="5.691"/>
							</g>
							<g transform="translate(141.000000, 76.155419)">
								<path id="Shape_94_" fill="#4F2324" d="M192.766,287.035c-2.476,0-4.479-2.008-4.479-4.483v-24.03
									c0-2.479,2.003-4.484,4.479-4.484c2.469,0,4.471,2.008,4.471,4.484v24.03C197.237,285.027,195.235,287.035,192.766,287.035"
									/>
								<ellipse id="Oval_1_" fill="#FFFFFF" cx="200.162" cy="257.243" rx="5.68" ry="5.691"/>
							</g>
							<path id="Shape_95_" fill="#33A7B8" d="M252.447,393.603c-15.245,0-29.662-5.675-40.797-16.104
								c-5.729-5.362-6.031-14.359-0.676-20.101c5.349-5.741,14.326-6.042,20.056-0.679c12.68,11.871,32.634,11.194,44.477-1.505
								c5.35-5.737,14.333-6.044,20.056-0.679c5.731,5.367,6.032,14.358,0.678,20.097c-10.881,11.668-25.69,18.391-41.707,18.936
								C253.841,393.594,253.142,393.603,252.447,393.603"/>
							<path id="Shape_96_" fill="#9CD3E3" d="M252.447,389.787c-15.245,0-29.662-5.676-40.797-16.103
								c-5.729-5.362-6.031-14.361-0.676-20.103c5.349-5.737,14.326-6.042,20.056-0.679c12.68,11.871,32.634,11.198,44.477-1.505
								c5.35-5.739,14.333-6.043,20.056-0.679c5.731,5.364,6.032,14.36,0.678,20.1c-10.881,11.668-25.69,18.389-41.707,18.931
								C253.841,389.777,253.142,389.787,252.447,389.787"/>
							<path id="Shape_97_" fill="#7BB4C3" d="M252.5,383.186c-12.334,0-24.688-4.495-34.388-13.576
								c-1.914-1.792-2.015-4.789-0.226-6.701c1.783-1.913,4.772-2.015,6.686-0.226c16.483,15.439,42.433,14.56,57.847-1.962
								c1.785-1.91,4.775-2.013,6.688-0.224c1.908,1.782,2.006,4.785,0.227,6.701C279.425,377.817,265.978,383.186,252.5,383.186"/>
							<path id="Shape_98_" fill="#4F2324" d="M252.5,380.655c-12.334,0-24.688-4.497-34.388-13.579
								c-1.914-1.788-2.015-4.787-0.226-6.701c1.783-1.913,4.772-2.013,6.686-0.227c16.483,15.443,42.433,14.564,57.847-1.958
								c1.785-1.913,4.775-2.015,6.688-0.229c1.908,1.786,2.006,4.789,0.227,6.704C279.425,375.283,265.978,380.655,252.5,380.655"
								/>
							<g id="Shape_99_" transform="translate(62.000000, 88.680982)">
								<path fill="#33A7B8" d="M190.447,304.922c-15.245,0-29.662-5.675-40.797-16.104c-5.729-5.362-6.031-14.359-0.676-20.101
									c5.349-5.741,14.326-6.042,20.056-0.679c12.68,11.871,32.634,11.194,44.477-1.505c5.35-5.739,14.333-6.044,20.056-0.681
									c5.731,5.368,6.032,14.36,0.678,20.098c-10.881,11.668-25.69,18.391-41.707,18.936
									C191.841,304.913,191.142,304.922,190.447,304.922"/>
								<path fill="#9CD3E3" d="M190.447,301.106c-15.245,0-29.662-5.676-40.797-16.103c-5.729-5.362-6.031-14.361-0.676-20.103
									c5.349-5.737,14.326-6.042,20.056-0.679c12.68,11.871,32.634,11.198,44.477-1.505c5.35-5.739,14.333-6.043,20.056-0.679
									c5.731,5.364,6.032,14.36,0.678,20.1c-10.881,11.668-25.69,18.389-41.707,18.931
									C191.841,301.096,191.142,301.106,190.447,301.106"/>
								<path fill="#7BB4C3" d="M190.5,294.505c-12.334,0-24.688-4.495-34.388-13.576c-1.914-1.792-2.015-4.789-0.226-6.701
									c1.783-1.913,4.772-2.015,6.686-0.226c16.483,15.439,42.433,14.56,57.847-1.962c1.785-1.91,4.775-2.013,6.688-0.224
									c1.908,1.782,2.006,4.785,0.227,6.701C217.425,289.136,203.978,294.505,190.5,294.505"/>
								<path fill="#4F2324" d="M190.5,291.974c-12.334,0-24.688-4.497-34.388-13.579c-1.914-1.788-2.015-4.787-0.226-6.701
									c1.783-1.913,4.772-2.013,6.686-0.227c16.483,15.443,42.433,14.564,57.847-1.958c1.785-1.913,4.775-2.015,6.688-0.229
									c1.908,1.786,2.006,4.789,0.227,6.704C217.425,286.602,203.978,291.974,190.5,291.974"/>
							</g>
							<rect id="Rectangle-path_6_" x="170.878" y="422.346" fill="#49B7C8" width="162.677" height="103.521"/>
							<g id="Shape_100_" transform="translate(44.000000, 144.795501)">
								<path fill="#33A7B8" d="M159.219,337.492c-0.139,3.306-0.079,6.651,0.015,9.919c0.073,1.677,0.262,3.286,0.503,4.864
									l0.481,2.383l0.636,2.337c0.492,1.538,1.114,3.018,1.81,4.45c0.737,1.412,1.581,2.756,2.547,3.976
									c0.964,1.214,2.024,2.361,3.298,3.153c1.244,0.826,2.605,1.354,3.906,1.61c1.209,0.362,2.677,0.342,3.539,0.385l1.234-0.092
									c0.467-0.017,0.543-0.136,0.837-0.178c0.448-0.049,1.087-0.363,1.663-0.563c1.132-0.59,2.281-1.268,3.268-2.267
									c1.033-0.916,1.909-2.072,2.752-3.254c0.786-1.234,1.506-2.532,2.101-3.913c0.589-1.381,1.092-2.813,1.484-4.287
									c0.399-1.47,0.687-2.976,0.897-4.499c0.205-1.526,0.287-3.066,0.336-4.607h5.597c0.036,1.359,0.039,2.721,0.203,4.071
									c0.107,1.356,0.345,2.696,0.624,4.017c0.273,1.329,0.661,2.616,1.08,3.896l0.723,1.87l0.855,1.797
									c0.626,1.168,1.321,2.271,2.09,3.313c0.806,0.999,1.663,1.937,2.615,2.718c0.966,0.748,1.972,1.453,3.065,1.842
									c1.072,0.49,2.208,0.624,3.34,0.714c0.271-0.06,1.485-0.049,1.842-0.193c0.477-0.134,0.95-0.189,1.519-0.453
									c1.108-0.372,2.147-1.047,3.143-1.782c0.986-0.761,1.88-1.688,2.721-2.686c0.808-1.031,1.542-2.136,2.205-3.301l0.91-1.801
									l0.78-1.883c0.456-1.282,0.885-2.585,1.194-3.924c0.32-1.338,0.59-2.697,0.736-4.073c0.196-1.372,0.238-2.758,0.304-4.145
									h4.075c0.03,1.387,0.027,2.779,0.183,4.161c0.103,1.382,0.333,2.756,0.612,4.109c0.269,1.363,0.659,2.69,1.084,4
									l0.729,1.935l0.867,1.861c0.643,1.21,1.355,2.363,2.154,3.457l1.298,1.533c0.483,0.442,0.932,0.951,1.439,1.36
									c1.021,0.814,2.097,1.586,3.294,2.033c1.118,0.552,2.546,0.722,3.582,0.844c0.689-0.066,1.537-0.03,2.1-0.182
									c0.579-0.135,1.162-0.217,1.779-0.493c1.238-0.399,2.367-1.128,3.451-1.919c1.071-0.819,2.024-1.804,2.925-2.856
									c0.855-1.082,1.635-2.238,2.337-3.457l0.964-1.876l0.82-1.953c0.48-1.334,0.943-2.679,1.279-4.064
									c0.343-1.38,0.641-2.784,0.806-4.205c0.218-1.417,0.282-2.853,0.363-4.289l0.005-0.045c0.024-0.375,0.346-0.662,0.72-0.642
									c0.362,0.022,0.645,0.326,0.641,0.687c-0.009,1.486,0.007,2.977-0.144,4.464c-0.1,1.484-0.332,2.966-0.621,4.43
									c-0.271,1.474-0.68,2.924-1.139,4.354l-0.791,2.12l-0.955,2.062c-0.705,1.347-1.5,2.652-2.406,3.896
									c-0.948,1.211-1.984,2.37-3.192,3.384c-1.229,0.98-2.546,1.908-4.065,2.483c-0.714,0.35-1.564,0.547-2.407,0.748
									c-0.852,0.209-1.486,0.184-2.24,0.288c-1.867-0.039-3.373-0.244-4.941-0.868c-1.562-0.524-2.937-1.412-4.225-2.366
									c-1.273-0.98-2.368-2.137-3.379-3.344c-0.967-1.238-1.829-2.543-2.594-3.899l-1.044-2.076l-0.884-2.14
									c-0.515-1.456-0.991-2.917-1.335-4.418c-0.353-1.494-0.65-3.004-0.815-4.53c-0.213-1.52-0.259-3.052-0.329-4.583
									c-0.048-1.127,0.82-2.085,1.947-2.135c1.125-0.053,2.078,0.821,2.128,1.95l0.003,0.118l-0.003,0.063
									c-0.024,1.532-0.031,3.07-0.202,4.601c-0.116,1.532-0.373,3.059-0.69,4.568c-0.301,1.521-0.74,3.01-1.226,4.491
									l-0.831,2.194l-1.009,2.14c-0.735,1.395-1.578,2.752-2.541,4.054c-1,1.268-2.104,2.48-3.393,3.547
									c-1.313,1.034-2.723,2.021-4.373,2.626c-0.759,0.356-1.723,0.581-2.668,0.783c-1.056,0.218-1.328,0.161-2.497,0.274
									c-1.771-0.066-3.572-0.312-5.189-0.994c-1.663-0.584-3.108-1.54-4.448-2.56c-1.323-1.048-2.464-2.256-3.503-3.518
									c-0.997-1.289-1.878-2.642-2.655-4.045l-1.062-2.14l-0.892-2.203c-0.522-1.49-0.998-2.99-1.337-4.523
									c-0.349-1.528-0.643-3.068-0.801-4.623c-0.206-1.554-0.249-3.114-0.304-4.67c-0.063-1.551,1.143-2.853,2.689-2.912
									c1.545-0.059,2.846,1.146,2.906,2.695l0.003,0.096v0.121c0.003,7.056-1.515,14.271-5.457,20.557
									c-1.045,1.539-2.163,3.051-3.578,4.37c-1.34,1.373-3.022,2.493-4.812,3.42c-0.97,0.383-1.823,0.824-3.019,1.055
									c-0.516,0.11-1.229,0.298-1.59,0.308l-1.238,0.102l-0.562,0.019l-0.39-0.035l-0.783-0.067
									c-0.522-0.045-1.045-0.109-1.537-0.283c-1.017-0.245-1.971-0.645-2.842-1.156c-0.913-0.444-1.639-1.138-2.415-1.705
									c-0.673-0.686-1.395-1.312-1.969-2.035c-1.218-1.391-2.272-2.83-3.188-4.336c-0.926-1.501-1.62-3.105-2.283-4.69
									l-0.849-2.437l-0.67-2.472l-0.518-2.497l-0.343-2.521c-0.155-1.709-0.241-3.403-0.209-5.048
									c0.031-3.357,0.136-6.638-0.016-9.964c-0.02-0.376,0.275-0.696,0.649-0.714c0.376-0.018,0.692,0.276,0.713,0.652
									C159.219,337.45,159.219,337.476,159.219,337.492"/>
								<path fill="#33A7B8" d="M137.666,293.745c0.112,1.636,0.172,3.297,0.404,4.869c0.158,1.587,0.482,3.183,0.789,4.755
									c0.357,1.569,0.739,3.12,1.218,4.643c0.495,1.516,1.024,3.021,1.696,4.457c0.642,1.444,1.372,2.842,2.232,4.137
									c0.833,1.31,1.784,2.521,2.834,3.606c0.502,0.567,1.115,0.984,1.659,1.487c0.62,0.371,1.192,0.857,1.849,1.122
									c1.254,0.692,2.629,0.897,3.973,0.973c0.442-0.103,1.694-0.095,2.094-0.35c0.294-0.106,0.574-0.158,0.881-0.28l0.937-0.466
									c0.633-0.283,1.183-0.78,1.783-1.153c0.527-0.517,1.114-0.94,1.599-1.511c1.006-1.093,1.925-2.302,2.693-3.631
									c0.799-1.301,1.476-2.706,2.061-4.146c0.607-1.432,1.082-2.929,1.514-4.436c0.422-1.516,0.751-3.053,1.024-4.609
									c0.232-1.559,0.479-3.123,0.563-4.701c0.158-1.574,0.143-3.162,0.183-4.74h4.12c0.069,1.578,0.082,3.163,0.271,4.729
									c0.114,1.578,0.388,3.132,0.649,4.683c0.301,1.542,0.658,3.065,1.106,4.566c0.458,1.487,0.952,2.966,1.583,4.372
									c0.604,1.412,1.299,2.788,2.111,4.05c0.779,1.293,1.705,2.454,2.699,3.494c0.48,0.547,1.055,0.937,1.57,1.425
									c0.578,0.337,1.111,0.81,1.718,1.051c1.163,0.657,2.408,0.831,3.626,0.913c0.286-0.088,1.715-0.091,1.959-0.318
									c0.25-0.098,0.483-0.136,0.759-0.244l0.874-0.421c0.593-0.249,1.117-0.725,1.683-1.071c0.503-0.487,1.066-0.885,1.535-1.432
									c0.97-1.047,1.869-2.212,2.625-3.505c0.789-1.267,1.458-2.636,2.038-4.05c0.604-1.4,1.075-2.878,1.513-4.361
									c0.422-1.49,0.756-3.008,1.03-4.544c0.24-1.541,0.491-3.082,0.584-4.647c0.163-1.558,0.146-3.127,0.208-4.69h5.174
									c0.048,1.563,0.044,3.134,0.215,4.688c0.095,1.562,0.354,3.107,0.592,4.646c0.282,1.535,0.62,3.052,1.047,4.543
									c0.441,1.478,0.916,2.946,1.521,4.349c0.584,1.407,1.259,2.775,2.049,4.033c0.755,1.291,1.659,2.447,2.625,3.483
									c0.467,0.546,1.03,0.934,1.53,1.42c0.565,0.342,1.086,0.813,1.674,1.062c0.575,0.292,1.156,0.551,1.753,0.672
									c0.294,0.099,0.593,0.177,0.897,0.177l0.449,0.041l0.224,0.022l0.116,0.02l0.055,0.005h0.027l0.014,0.006
									c-0.096,0.003,0.246-0.011-0.219,0.01l1.228-0.104c0.19-0.021,0.431-0.026,0.584-0.06l0.362-0.131
									c0.247-0.086,0.48-0.112,0.758-0.214l0.87-0.406c0.595-0.241,1.124-0.703,1.698-1.047c0.505-0.479,1.078-0.864,1.554-1.409
									c0.987-1.034,1.903-2.189,2.679-3.477c0.805-1.254,1.498-2.623,2.096-4.036c0.627-1.398,1.118-2.875,1.575-4.356
									c0.439-1.495,0.8-3.009,1.095-4.554c0.258-1.542,0.534-3.095,0.644-4.664c0.185-1.564,0.198-3.145,0.265-4.719h4.444
									c0.04,1.574,0.026,3.154,0.186,4.726c0.087,1.572,0.336,3.131,0.565,4.688c0.28,1.545,0.59,3.084,0.999,4.598
									c0.422,1.501,0.879,3,1.477,4.432c0.568,1.442,1.233,2.846,2.021,4.149c0.755,1.331,1.664,2.545,2.655,3.645
									c0.476,0.573,1.062,1,1.586,1.515c0.592,0.383,1.139,0.883,1.775,1.167c1.148,0.731,2.716,0.973,3.752,1.112
									c0.759-0.09,1.779-0.051,2.263-0.283c0.301-0.094,0.595-0.14,0.908-0.251l0.961-0.436c0.659-0.265,1.233-0.753,1.85-1.117
									c0.55-0.5,1.162-0.921,1.674-1.48c1.06-1.073,2.043-2.271,2.87-3.595c0.861-1.297,1.599-2.697,2.239-4.143
									c0.67-1.435,1.203-2.94,1.7-4.458c0.48-1.527,0.869-3.083,1.2-4.655c0.287-1.585,0.604-3.169,0.758-4.774
									c0.229-1.604,0.278-3.221,0.386-4.837v-0.051c0.026-0.412,0.379-0.718,0.788-0.692c0.392,0.027,0.689,0.353,0.69,0.743
									c-0.002,1.659,0.049,3.327-0.082,4.988c-0.055,1.671-0.276,3.33-0.504,4.987c-0.265,1.654-0.594,3.3-1.02,4.927
									c-0.443,1.627-0.931,3.243-1.569,4.818c-0.614,1.578-1.338,3.131-2.221,4.61c-0.843,1.498-1.878,2.915-3.059,4.23
									c-0.562,0.68-1.292,1.231-1.937,1.848c-0.762,0.503-1.454,1.102-2.302,1.501l-1.259,0.609
									c-0.448,0.179-0.96,0.302-1.445,0.447c-1.062,0.348-1.723,0.273-2.581,0.413c-0.79-0.021-1.044-0.065-1.596-0.104
									c-0.483-0.011-0.945-0.118-1.412-0.252c-0.942-0.196-1.816-0.553-2.663-0.977c-0.869-0.376-1.583-0.954-2.372-1.447
									c-0.675-0.601-1.43-1.148-2.027-1.813c-1.249-1.29-2.354-2.69-3.272-4.18c-0.952-1.473-1.75-3.019-2.438-4.605
									c-0.714-1.575-1.273-3.204-1.787-4.84c-0.501-1.645-0.913-3.307-1.226-4.989c-0.283-1.681-0.574-3.371-0.697-5.071
									c-0.199-1.696-0.214-3.398-0.28-5.102c-0.047-1.231,0.907-2.269,2.136-2.315c1.226-0.047,2.263,0.908,2.309,2.141v0.134
									v0.041c-0.039,1.703-0.031,3.409-0.204,5.106c-0.097,1.707-0.361,3.4-0.616,5.093c-0.3,1.69-0.661,3.367-1.131,5.032
									c-0.479,1.66-1.005,3.31-1.688,4.916c-0.658,1.619-1.427,3.204-2.367,4.726c-0.895,1.531-1.991,2.987-3.247,4.345
									c-0.603,0.692-1.373,1.276-2.06,1.918c-0.805,0.533-1.542,1.15-2.451,1.572l-1.35,0.641
									c-0.486,0.193-1.06,0.335-1.596,0.478l-0.819,0.207c-0.247,0.049-0.418,0.049-0.629,0.08l-1.224,0.122l-0.259,0.006h-0.024
									l-0.047-0.006l-0.097-0.007l-0.193-0.015l-0.384-0.03l-0.774-0.071c-0.52-0.028-1.02-0.144-1.505-0.29
									c-1.015-0.228-1.935-0.62-2.822-1.075c-0.917-0.412-1.66-1.029-2.476-1.563c-0.693-0.629-1.47-1.216-2.076-1.905
									c-1.277-1.35-2.39-2.804-3.304-4.335c-0.955-1.518-1.739-3.11-2.414-4.725c-0.703-1.608-1.246-3.265-1.743-4.926
									c-0.485-1.665-0.861-3.351-1.174-5.043c-0.277-1.701-0.56-3.399-0.674-5.113c-0.187-1.714-0.19-3.425-0.246-5.138
									c-0.048-1.434,1.069-2.629,2.498-2.678c1.429-0.045,2.626,1.075,2.675,2.508v0.146v0.024
									c-0.049,1.713-0.07,3.424-0.256,5.134c-0.118,1.718-0.403,3.416-0.684,5.111c-0.321,1.693-0.705,3.375-1.19,5.038
									c-0.5,1.659-1.048,3.311-1.752,4.918c-0.681,1.611-1.465,3.196-2.424,4.708c-0.916,1.526-2.03,2.977-3.304,4.314
									c-0.608,0.692-1.382,1.271-2.078,1.897c-0.809,0.525-1.551,1.138-2.461,1.546l-1.351,0.627
									c-0.485,0.189-1.059,0.316-1.588,0.46c-1.31,0.353-1.562,0.229-2.891,0.367c-2.041-0.108-4.085-0.551-5.794-1.526
									c-0.901-0.411-1.634-1.032-2.432-1.562c-0.679-0.634-1.445-1.211-2.042-1.906c-1.247-1.348-2.335-2.799-3.229-4.325
									c-0.934-1.512-1.699-3.095-2.352-4.704c-0.678-1.604-1.202-3.25-1.676-4.906c-0.462-1.656-0.82-3.331-1.122-5.021
									c-0.253-1.687-0.518-3.376-0.614-5.075c-0.167-1.694-0.154-3.396-0.193-5.095v-0.038c-0.027-1.145,0.875-2.089,2.012-2.113
									c1.138-0.026,2.087,0.877,2.111,2.019l-0.003,0.133c-0.068,1.696-0.084,3.396-0.282,5.085
									c-0.128,1.697-0.418,3.379-0.7,5.055c-0.325,1.678-0.712,3.337-1.201,4.978c-0.502,1.636-1.048,3.261-1.751,4.84
									c-0.673,1.582-1.455,3.137-2.398,4.613c-0.9,1.488-1.999,2.896-3.233,4.188c-0.595,0.664-1.344,1.217-2.013,1.819
									c-0.78,0.499-1.495,1.086-2.366,1.46l-1.287,0.583c-0.455,0.177-0.98,0.288-1.47,0.42c-1.15,0.328-1.576,0.22-2.75,0.343
									c-1.911-0.119-3.83-0.532-5.447-1.463c-0.849-0.397-1.545-0.995-2.304-1.501c-0.654-0.61-1.378-1.164-1.95-1.839
									c-1.192-1.307-2.254-2.706-3.098-4.212c-0.884-1.48-1.605-3.043-2.222-4.621c-0.644-1.573-1.13-3.198-1.574-4.823
									c-0.429-1.63-0.763-3.278-1.004-4.938c-0.208-1.665-0.425-3.316-0.473-5.007c-0.126-1.691-0.066-3.313-0.063-4.957
									c0.001-0.412,0.334-0.745,0.744-0.745C137.318,293.048,137.64,293.362,137.666,293.745"/>
								<g opacity="0.75">
									<g>
										<path fill="#9CD3E3" d="M137.178,291.299c0.108,1.635,0.17,3.298,0.402,4.866c0.159,1.591,0.481,3.184,0.789,4.756
											c0.358,1.569,0.741,3.123,1.22,4.644c0.494,1.517,1.024,3.024,1.695,4.457c0.64,1.445,1.372,2.843,2.231,4.134
											c0.833,1.314,1.783,2.527,2.836,3.609c0.501,0.566,1.114,0.984,1.659,1.488c0.619,0.37,1.191,0.856,1.846,1.123
											c1.254,0.693,2.63,0.896,3.974,0.973c0.441-0.104,1.694-0.097,2.094-0.353c0.293-0.105,0.574-0.157,0.881-0.28
											l0.937-0.465c0.634-0.283,1.18-0.781,1.782-1.156c0.527-0.515,1.115-0.936,1.6-1.508c1.005-1.093,1.927-2.302,2.692-3.631
											c0.801-1.3,1.479-2.706,2.062-4.146c0.609-1.433,1.082-2.93,1.514-4.436c0.423-1.517,0.751-3.053,1.025-4.609
											c0.232-1.562,0.479-3.121,0.562-4.703c0.158-1.575,0.143-3.158,0.184-4.74h4.121c0.068,1.582,0.082,3.164,0.27,4.732
											c0.113,1.577,0.387,3.131,0.649,4.681c0.301,1.541,0.656,3.067,1.108,4.569c0.457,1.484,0.95,2.965,1.581,4.366
											c0.605,1.417,1.298,2.79,2.111,4.053c0.78,1.293,1.705,2.458,2.698,3.495c0.48,0.546,1.058,0.935,1.572,1.422
											c0.577,0.342,1.111,0.811,1.717,1.053c1.163,0.655,2.408,0.831,3.626,0.914c0.286-0.087,1.715-0.094,1.959-0.318
											c0.251-0.101,0.483-0.134,0.761-0.245l0.873-0.421c0.593-0.247,1.117-0.724,1.683-1.069
											c0.502-0.491,1.067-0.886,1.535-1.433c0.968-1.047,1.869-2.213,2.625-3.505c0.787-1.268,1.456-2.636,2.036-4.05
											c0.605-1.4,1.075-2.878,1.515-4.36c0.42-1.49,0.754-3.01,1.028-4.544c0.24-1.54,0.493-3.084,0.584-4.647
											c0.164-1.56,0.147-3.128,0.209-4.692h5.174c0.048,1.564,0.044,3.133,0.215,4.689c0.095,1.563,0.354,3.106,0.591,4.645
											c0.283,1.536,0.621,3.053,1.048,4.544c0.44,1.478,0.916,2.945,1.521,4.349c0.584,1.408,1.259,2.775,2.051,4.035
											c0.754,1.286,1.656,2.445,2.625,3.48c0.465,0.547,1.027,0.935,1.53,1.423c0.564,0.341,1.086,0.812,1.673,1.057
											c0.575,0.294,1.156,0.556,1.752,0.674c0.298,0.103,0.594,0.18,0.898,0.18l0.449,0.04l0.225,0.022l0.115,0.019l0.054,0.004
											h0.027l0.013,0.006c-0.095,0.005,0.247-0.01-0.219,0.011l1.229-0.102c0.191-0.021,0.431-0.027,0.586-0.061l0.361-0.132
											c0.246-0.085,0.481-0.112,0.757-0.213l0.872-0.408c0.594-0.24,1.12-0.702,1.695-1.045c0.51-0.48,1.079-0.868,1.554-1.41
											c0.988-1.033,1.904-2.19,2.678-3.478c0.807-1.253,1.5-2.623,2.097-4.036c0.627-1.397,1.12-2.872,1.575-4.354
											c0.44-1.496,0.802-3.012,1.097-4.554c0.258-1.542,0.533-3.097,0.645-4.665c0.184-1.562,0.195-3.145,0.262-4.72h4.445
											c0.041,1.575,0.025,3.157,0.187,4.729c0.087,1.569,0.335,3.13,0.563,4.684c0.28,1.547,0.591,3.085,1,4.598
											c0.421,1.502,0.879,3.003,1.476,4.435c0.569,1.44,1.234,2.844,2.022,4.148c0.754,1.332,1.663,2.545,2.654,3.645
											c0.476,0.575,1.063,0.999,1.588,1.514c0.592,0.384,1.138,0.883,1.775,1.166c1.146,0.734,2.714,0.976,3.752,1.116
											c0.758-0.094,1.78-0.053,2.262-0.284c0.3-0.094,0.595-0.141,0.911-0.254l0.96-0.432c0.657-0.267,1.229-0.755,1.85-1.122
											c0.548-0.498,1.16-0.919,1.673-1.479c1.06-1.072,2.041-2.273,2.872-3.592c0.859-1.299,1.596-2.703,2.237-4.146
											c0.67-1.433,1.202-2.941,1.699-4.46c0.481-1.527,0.869-3.081,1.201-4.654c0.287-1.583,0.603-3.167,0.759-4.771
											c0.228-1.605,0.276-3.221,0.383-4.842v-0.049c0.027-0.41,0.38-0.719,0.789-0.691c0.391,0.026,0.689,0.349,0.692,0.74
											c-0.005,1.663,0.048,3.329-0.082,4.99c-0.053,1.672-0.277,3.328-0.507,4.987c-0.264,1.653-0.593,3.302-1.02,4.927
											c-0.442,1.626-0.928,3.241-1.568,4.817c-0.615,1.578-1.337,3.132-2.222,4.613c-0.842,1.498-1.877,2.912-3.058,4.229
											c-0.561,0.679-1.291,1.231-1.937,1.847c-0.76,0.505-1.455,1.104-2.302,1.501l-1.259,0.612
											c-0.445,0.178-0.961,0.304-1.444,0.445c-1.064,0.35-1.724,0.273-2.582,0.414c-0.789-0.021-1.045-0.064-1.595-0.104
											c-0.484-0.011-0.946-0.121-1.411-0.254c-0.943-0.194-1.817-0.554-2.665-0.975c-0.868-0.377-1.582-0.955-2.372-1.449
											c-0.673-0.603-1.429-1.147-2.028-1.813c-1.249-1.288-2.355-2.689-3.27-4.18c-0.955-1.471-1.75-3.019-2.439-4.604
											c-0.715-1.576-1.274-3.204-1.787-4.843c-0.5-1.642-0.915-3.306-1.229-4.987c-0.279-1.681-0.572-3.37-0.695-5.072
											c-0.199-1.695-0.214-3.396-0.28-5.102c-0.046-1.231,0.906-2.269,2.136-2.313c1.226-0.049,2.264,0.907,2.31,2.139v0.137
											v0.038c-0.039,1.705-0.03,3.413-0.205,5.11c-0.096,1.706-0.361,3.395-0.617,5.094c-0.298,1.688-0.659,3.363-1.128,5.032
											c-0.479,1.656-1.008,3.309-1.688,4.915c-0.66,1.617-1.428,3.204-2.367,4.724c-0.896,1.533-1.992,2.989-3.248,4.344
											c-0.603,0.694-1.371,1.278-2.061,1.919c-0.804,0.532-1.542,1.15-2.449,1.572l-1.351,0.641
											c-0.485,0.193-1.06,0.335-1.596,0.479l-0.816,0.208c-0.249,0.047-0.422,0.047-0.633,0.076l-1.221,0.124l-0.26,0.004
											h-0.024l-0.045-0.004l-0.096-0.007l-0.192-0.014l-0.387-0.032l-0.773-0.072c-0.521-0.025-1.021-0.144-1.506-0.29
											c-1.015-0.225-1.936-0.618-2.822-1.074c-0.915-0.412-1.661-1.03-2.476-1.562c-0.693-0.631-1.47-1.216-2.076-1.908
											c-1.276-1.349-2.39-2.801-3.303-4.334c-0.955-1.518-1.74-3.109-2.416-4.722c-0.702-1.609-1.245-3.268-1.74-4.928
											c-0.485-1.666-0.865-3.35-1.178-5.044c-0.275-1.702-0.559-3.4-0.671-5.113c-0.188-1.711-0.193-3.424-0.247-5.139
											c-0.049-1.433,1.068-2.629,2.498-2.674c1.429-0.049,2.624,1.071,2.675,2.506v0.147v0.021
											c-0.051,1.715-0.071,3.428-0.259,5.136c-0.117,1.715-0.403,3.414-0.681,5.11c-0.322,1.692-0.706,3.375-1.19,5.039
											c-0.499,1.659-1.047,3.312-1.753,4.916c-0.679,1.614-1.465,3.198-2.423,4.708c-0.916,1.527-2.033,2.976-3.306,4.319
											c-0.606,0.687-1.382,1.268-2.076,1.895c-0.81,0.526-1.551,1.138-2.463,1.547l-1.349,0.625
											c-0.488,0.188-1.062,0.317-1.59,0.46c-1.31,0.352-1.56,0.229-2.891,0.369c-2.039-0.109-4.084-0.553-5.794-1.527
											c-0.9-0.414-1.632-1.031-2.431-1.563c-0.682-0.634-1.447-1.212-2.042-1.904c-1.25-1.351-2.337-2.799-3.231-4.326
											c-0.932-1.514-1.697-3.097-2.349-4.704c-0.681-1.605-1.204-3.251-1.679-4.907c-0.459-1.655-0.821-3.331-1.119-5.018
											c-0.253-1.687-0.518-3.376-0.616-5.077c-0.167-1.694-0.153-3.397-0.193-5.097v-0.035
											c-0.028-1.145,0.875-2.087,2.012-2.114c1.14-0.025,2.085,0.876,2.111,2.02l-0.001,0.13
											c-0.07,1.699-0.086,3.397-0.283,5.087c-0.126,1.695-0.417,3.379-0.7,5.056c-0.327,1.676-0.711,3.336-1.2,4.977
											c-0.501,1.636-1.048,3.261-1.751,4.84c-0.673,1.583-1.455,3.137-2.398,4.611c-0.901,1.49-1.999,2.896-3.233,4.189
											c-0.593,0.665-1.345,1.216-2.015,1.819c-0.779,0.499-1.494,1.086-2.363,1.461l-1.289,0.582
											c-0.455,0.177-0.982,0.287-1.47,0.417c-1.149,0.331-1.577,0.223-2.753,0.347c-1.909-0.119-3.828-0.534-5.445-1.465
											c-0.849-0.398-1.545-0.994-2.305-1.5c-0.652-0.611-1.376-1.168-1.949-1.839c-1.191-1.309-2.254-2.706-3.098-4.212
											c-0.882-1.481-1.605-3.042-2.223-4.622c-0.643-1.575-1.129-3.199-1.573-4.823c-0.429-1.628-0.764-3.277-1.004-4.939
											c-0.206-1.664-0.425-3.314-0.476-5.007c-0.124-1.689-0.063-3.312-0.061-4.957c0.001-0.413,0.334-0.742,0.744-0.742
											C136.83,290.601,137.153,290.913,137.178,291.299"/>
									</g>
								</g>
								<g transform="translate(14.500000, 29.560327)" opacity="0.75">
									<g>
										<path fill="#9CD3E3" d="M144.719,305.249c-0.139,3.307-0.079,6.65,0.015,9.919c0.073,1.677,0.262,3.285,0.503,4.865
											l0.481,2.383l0.636,2.338c0.492,1.534,1.114,3.014,1.81,4.448c0.737,1.412,1.581,2.756,2.547,3.975
											c0.964,1.214,2.024,2.36,3.298,3.153c1.244,0.827,2.605,1.355,3.906,1.611c1.209,0.361,2.677,0.34,3.539,0.382l1.234-0.09
											c0.467-0.017,0.543-0.138,0.837-0.18c0.448-0.048,1.087-0.359,1.663-0.561c1.132-0.591,2.281-1.271,3.268-2.269
											c1.033-0.915,1.909-2.072,2.752-3.252c0.786-1.235,1.506-2.531,2.101-3.915c0.589-1.378,1.092-2.812,1.484-4.287
											c0.399-1.469,0.687-2.978,0.897-4.496c0.205-1.527,0.287-3.067,0.336-4.61h5.597c0.036,1.361,0.039,2.72,0.203,4.072
											c0.107,1.354,0.345,2.698,0.624,4.019c0.273,1.327,0.661,2.614,1.08,3.893l0.723,1.872l0.855,1.797
											c0.626,1.166,1.321,2.27,2.09,3.312c0.806,1.001,1.663,1.936,2.615,2.719c0.966,0.748,1.972,1.453,3.065,1.842
											c1.072,0.491,2.208,0.625,3.34,0.712c0.271-0.057,1.485-0.046,1.842-0.191c0.477-0.135,0.95-0.189,1.519-0.452
											c1.108-0.375,2.147-1.047,3.143-1.781c0.986-0.764,1.88-1.69,2.721-2.687c0.808-1.031,1.542-2.136,2.205-3.304l0.91-1.799
											l0.78-1.882c0.456-1.285,0.885-2.584,1.194-3.928c0.32-1.334,0.59-2.695,0.736-4.068c0.196-1.372,0.238-2.761,0.304-4.145
											h4.075c0.03,1.384,0.027,2.779,0.183,4.159c0.103,1.383,0.333,2.758,0.612,4.108c0.269,1.364,0.659,2.692,1.084,4
											l0.729,1.936l0.867,1.861c0.643,1.21,1.355,2.364,2.154,3.457l1.298,1.532c0.483,0.442,0.932,0.949,1.439,1.361
											c1.021,0.817,2.097,1.587,3.294,2.036c1.118,0.549,2.546,0.72,3.582,0.841c0.689-0.065,1.537-0.03,2.1-0.181
											c0.579-0.134,1.162-0.217,1.779-0.493c1.238-0.399,2.367-1.13,3.451-1.919c1.071-0.819,2.024-1.805,2.925-2.858
											c0.855-1.084,1.635-2.237,2.337-3.454l0.964-1.879l0.82-1.952c0.48-1.334,0.943-2.679,1.279-4.065
											c0.343-1.381,0.641-2.783,0.806-4.204c0.218-1.419,0.282-2.851,0.363-4.289l0.005-0.046
											c0.024-0.374,0.346-0.659,0.72-0.641c0.362,0.024,0.645,0.326,0.641,0.687c-0.009,1.486,0.007,2.976-0.144,4.462
											c-0.1,1.486-0.332,2.967-0.621,4.433c-0.271,1.472-0.68,2.924-1.139,4.354l-0.791,2.119l-0.955,2.062
											c-0.705,1.346-1.5,2.651-2.406,3.895c-0.948,1.212-1.984,2.373-3.192,3.384c-1.229,0.981-2.546,1.909-4.065,2.483
											c-0.714,0.349-1.564,0.55-2.407,0.749c-0.852,0.21-1.486,0.185-2.24,0.284c-1.867-0.035-3.373-0.24-4.941-0.863
											c-1.562-0.524-2.937-1.414-4.225-2.369c-1.273-0.98-2.368-2.133-3.379-3.341c-0.967-1.238-1.829-2.545-2.594-3.9
											l-1.044-2.075l-0.884-2.143c-0.515-1.453-0.991-2.916-1.335-4.417c-0.353-1.491-0.65-3.002-0.815-4.53
											c-0.213-1.52-0.259-3.051-0.329-4.583c-0.048-1.129,0.82-2.083,1.947-2.132c1.125-0.056,2.078,0.82,2.128,1.949
											l0.003,0.119l-0.003,0.063c-0.024,1.53-0.031,3.069-0.202,4.597c-0.116,1.532-0.373,3.061-0.69,4.571
											c-0.301,1.521-0.74,3.009-1.226,4.49l-0.831,2.192l-1.009,2.138c-0.735,1.398-1.578,2.755-2.541,4.056
											c-1,1.27-2.104,2.483-3.393,3.548c-1.313,1.035-2.723,2.022-4.373,2.628c-0.759,0.354-1.723,0.581-2.668,0.781
											c-1.056,0.218-1.328,0.161-2.497,0.276c-1.771-0.07-3.572-0.314-5.189-0.994c-1.663-0.587-3.108-1.544-4.448-2.562
											c-1.323-1.05-2.464-2.254-3.503-3.519c-0.997-1.289-1.878-2.64-2.655-4.042l-1.062-2.141l-0.892-2.203
											c-0.522-1.489-0.998-2.992-1.337-4.525c-0.349-1.525-0.643-3.069-0.801-4.62c-0.206-1.554-0.249-3.112-0.304-4.671
											c-0.063-1.551,1.143-2.853,2.689-2.912c1.545-0.06,2.846,1.147,2.906,2.695l0.003,0.097v0.12
											c0.003,7.057-1.515,14.271-5.457,20.558c-1.045,1.536-2.163,3.048-3.578,4.367c-1.34,1.377-3.022,2.497-4.812,3.421
											c-0.97,0.384-1.823,0.825-3.019,1.058c-0.516,0.111-1.229,0.298-1.59,0.306l-1.238,0.104l-0.562,0.017l-0.39-0.033
											l-0.783-0.069c-0.522-0.045-1.045-0.109-1.537-0.281c-1.017-0.247-1.971-0.646-2.842-1.157
											c-0.913-0.445-1.639-1.138-2.415-1.707c-0.673-0.686-1.395-1.311-1.969-2.033c-1.218-1.391-2.272-2.831-3.188-4.337
											c-0.926-1.501-1.62-3.104-2.283-4.691l-0.849-2.434l-0.67-2.475l-0.518-2.495l-0.343-2.521
											c-0.155-1.71-0.241-3.403-0.209-5.047c0.031-3.357,0.136-6.64-0.016-9.966c-0.02-0.376,0.275-0.696,0.649-0.711
											c0.376-0.022,0.692,0.272,0.713,0.649C144.719,305.207,144.719,305.233,144.719,305.249"/>
									</g>
								</g>
							</g>
						</g>
					</g>
				</g>
			</g>
		</g>
	</g>
</g>
</svg>
