<?xml version="1.0" encoding="utf-8"?>
<!-- Generator: Adobe Illustrator 16.0.0, SVG Export Plug-In . SVG Version: 6.00 Build 0)  -->
<!DOCTYPE svg PUBLIC "-//W3C//DTD SVG 1.1//EN" "http://www.w3.org/Graphics/SVG/1.1/DTD/svg11.dtd">
<svg version="1.1" id="Capa_1" xmlns="http://www.w3.org/2000/svg" xmlns:xlink="http://www.w3.org/1999/xlink" x="0px" y="0px"
	 width="595.279px" height="841.891px" viewBox="0 0 595.279 841.891" enable-background="new 0 0 595.279 841.891"
	 xml:space="preserve">
<g id="Page-1_1_">
	<g id="_x33_20_x5F_" transform="translate(-37.000000, -784.000000)">
		<g id="Group-5" transform="translate(37.000000, 784.000000)">
			<g id="Page-1" transform="translate(201.000000, 0.000000)">
				<g id="Group-3" transform="translate(0.000000, 0.376185)">
					<g id="Clip-2">
					</g>
					<defs>
						<filter id="Adobe_OpacityMaskFilter" filterUnits="userSpaceOnUse" x="156.763" y="292.687" width="29.377" height="28.468">
							<feColorMatrix  type="matrix" values="1 0 0 0 0  0 1 0 0 0  0 0 1 0 0  0 0 0 1 0"/>
						</filter>
					</defs>
					<mask maskUnits="userSpaceOnUse" x="156.763" y="292.687" width="29.377" height="28.468" id="mask-2_1_">
						<g filter="url(#Adobe_OpacityMaskFilter)">
							<polygon id="path-1_1_" fill="#FFFFFF" points="156.764,321.155 186.139,321.155 186.139,292.687 156.764,292.687 							"/>
						</g>
					</mask>
					<path id="Fill-1" mask="url(#mask-2_1_)" fill="#472728" d="M185.365,304.183c-0.856-0.89-2.352-1.36-4.328-1.36
						c-1.464,0-3.157,0.251-5.033,0.749c-3.21,0.85-5.449,2.343-6.859,3.586c-0.076-0.048-0.156-0.091-0.239-0.129
						c-0.08-0.037-0.163-0.069-0.248-0.095c0.021-1.879-0.305-4.55-1.753-7.538c-2.065-4.262-4.521-6.707-6.737-6.708
						c-0.702,0-1.342,0.25-1.851,0.722c-1.498,1.397-1.566,4.92-1.505,8.714c0.003,0.211,0.007,0.41,0.009,0.596
						c0.024,2.025,0.777,3.45,2.017,4.653c-0.181,0.1-0.336,0.211-0.47,0.337c-1.021,0.951-1.758,3.501-1.575,5.458
						c0.142,1.509,0.776,2.662,1.836,3.333c0.562,0.355,1.195,0.536,1.881,0.536c0.688,0,1.373-0.188,2.025-0.479
						c-0.165,0.777-0.243,1.565-0.056,2.065c0.137,0.367,0.399,0.653,0.739,0.808c0.174,0.081,0.37,0.124,0.574,0.124
						c0.66,0,1.231-0.409,2.043-1.486c0.461,1.53,1.343,2.548,2.591,2.929c0.343,0.105,0.699,0.158,1.06,0.158
						c2.988,0,5.707-3.816,5.776-5.689c0.008-0.183-0.01-0.374-0.05-0.575c0.249,0.022,0.489,0.034,0.725,0.034
						c1.559,0,2.866-0.489,4.118-1.538c0.146-0.124,0.305-0.255,0.472-0.394c2.91-2.423,5.53-4.768,5.612-6.809
						C186.166,305.43,185.9,304.739,185.365,304.183"/>
				</g>
				<path id="Fill-4" fill="#E500DF" d="M165.786,300.392c-2.526-5.217-5.305-6.846-6.625-5.617c-1.32,1.232-1.13,5.986-1.101,8.387
					c0.028,2.401,1.254,3.768,3.632,5.303c2.376,1.536,5.261,2.408,5.453,1.301C167.146,309.765,168.317,305.611,165.786,300.392z"
					/>
				<path id="Fill-6" fill="#ED497E" d="M159.209,309.076c-0.974,0.907-2.18,5.402,0.083,6.833c2.261,1.433,5.739-1.955,7.104-3.843
					s0.782-3.416-2.146-3.631C164.249,308.434,160.182,308.172,159.209,309.076z"/>
				<path id="Fill-8" fill="#DE00DB" d="M168.325,310.308c0,0,2.389-3.596,7.995-5.08c5.605-1.484,8.648-0.44,8.577,1.364
					c-0.072,1.804-3.802,4.756-5.641,6.301c-1.842,1.543-3.676,1.505-6.39,0.702C170.155,312.792,167.613,311.175,168.325,310.308"
					/>
				<path id="Fill-10" fill="#ED497E" d="M171.222,311.635c0,0,2.853,2.914,2.8,4.242c-0.049,1.326-2.674,5.173-5.233,4.391
					c-2.562-0.781-2.258-5.629-1.715-7.895C167.615,310.109,169.153,309.555,171.222,311.635"/>
				<path id="Fill-12" fill="#734A1E" d="M166.055,315.891c-0.244,0.525-1.863,3.081-2.324,2.867
					c-0.458-0.209,0.421-3.104,0.662-3.632l2.729-5.942c0.241-0.527,0.81-0.782,1.27-0.571c0.457,0.208,0.634,0.808,0.39,1.334
					L166.055,315.891z"/>
			</g>
			<g id="rumble_hola" transform="translate(0.000000, 30.000000)">
				<g id="Layer_1_1_">
					<g id="Group_13_">
						<path id="Shape_1_" opacity="0.3" fill="#010101" enable-background="new    " d="M344.213,311.956
							c0,0-11.303-29.355-51.899-27.076l22.472,9.65L344.213,311.956L344.213,311.956z"/>
						<path id="Shape_2_" opacity="0.3" fill="#010101" enable-background="new    " d="M374.189,356.182
							c-0.867-1.292,1.138-2.801,1.59-4.079c2.859-8.1,3.387-14.378,3.393-14.442l-0.014-0.179l-0.011-0.186
							c0.539-1.889,2.426-3.209,4.377-3.06l0.058-0.105v0c0-0.166,0.245,0.139,0.355,0.159c0.133,0.024,0.392,0.167,0.529,0.208
							c1.342,0.38,2.261,1.351,2.674,2.731c0.098,0.321,0.138,0.658,0.169,1.003l0.508-1.798c0.059-0.206,0.124-0.414,0.222-0.624
							c0.01-0.028,0.013-0.077,0.033-0.116c0.09-0.184,0.167-0.384,0.293-0.553l0.08-0.108c0.12-0.16,0.282-0.295,0.416-0.425
							c0.029-0.028,0.083-0.035,0.127-0.076c0.152-0.145,0.312-0.27,0.482-0.386l0.062-0.038c0.155-0.102,0.312-0.19,0.494-0.274
							c0.018-0.009,0.045-0.021,0.07-0.031c0.191-0.085,0.375-0.144,0.598-0.204c0.059-0.015,0.107-0.02,0.142-0.021
							c0.145-0.031,0.288-0.039,0.413-0.047c0.049-0.003,0.099-0.005,0.148-0.011l0.086,0.001l1.337,0.047l0.104,0.021
							c1.066,0.302,1.947,1.002,2.486,1.973c0.538,0.969,0.668,2.088,0.365,3.153l-0.57,1.999c0.865-1.168,2.27-1.799,3.729-1.657
							c0.651,0.062,1.284,0.285,1.839,0.642c0.339,0.217,0.642,0.484,0.903,0.793c1.095,1.279,1.31,3.077,0.55,4.575
							c-0.028,0.053-0.059,0.105-0.088,0.16c-0.479,1.431-4.377,12.631-13.087,24.725c-3.4,4.729-7.102,8.981-11.056,12.717
							C377.996,382.667,378.383,362.444,374.189,356.182L374.189,356.182z"/>
						<g transform="translate(23.000000, 0.000000)">
							<g transform="translate(134.500000, 55.112474)">
								<path id="Shape_3_" fill="#4F2324" d="M183.332,323.593c0,0-6.271,2.596-9.456,3.093l-5.214,15.853l6.864-0.8l4.186-0.646
									l2.149-0.451L183.332,323.593L183.332,323.593z"/>
								<g transform="translate(2.500000, 0.000000)">
									<path id="Shape_4_" fill="#4F2324" d="M228.03,269.491l-0.092-0.003c-0.054,0.007-0.105,0.009-0.158,0.012
										c-0.134,0.009-0.286,0.018-0.442,0.051c-0.034,0.001-0.089,0.006-0.15,0.022c-0.236,0.065-0.434,0.126-0.637,0.217
										c-0.029,0.013-0.059,0.025-0.076,0.034c-0.193,0.089-0.362,0.184-0.527,0.292l-0.065,0.041
										c-0.184,0.124-0.354,0.258-0.518,0.413c-0.047,0.042-0.104,0.05-0.135,0.08c-0.144,0.14-0.317,0.284-0.445,0.453
										l-0.085,0.117c-0.134,0.181-0.219,0.395-0.315,0.591c-0.021,0.041-0.028,0.094-0.039,0.124
										c-0.105,0.226-0.179,0.446-0.243,0.666l-0.554,1.919c-0.034-0.368-0.101-0.728-0.205-1.071
										c-0.442-1.473-1.475-2.51-2.906-2.915c-0.147-0.045-0.51-0.198-0.653-0.223c-0.114-0.02-0.201-0.345-0.564-0.169v0
										l0.126,0.114c-2.084-0.16-3.903,1.249-4.477,3.265l0.007,0.199l0.011,0.191c-0.007,0.067-0.569,6.771-3.623,15.421
										c-2.788,7.893-8.263,19.024-18.541,27.225c-3.8,3.027-8.056,5.501-12.672,7.351l-2.624,17.135
										c10.244-2.015,19.826-6.259,28.483-12.62c7.188-5.281,13.758-12.019,19.526-20.033
										c9.298-12.914,13.461-24.875,13.975-26.401c0.031-0.059,0.062-0.114,0.091-0.17c0.812-1.601,0.583-3.52-0.585-4.885
										c-0.28-0.329-0.604-0.614-0.966-0.846c-0.591-0.38-1.268-0.618-1.963-0.686c-1.559-0.152-3.058,0.521-3.981,1.77
										l0.609-2.135c0.322-1.138,0.185-2.333-0.391-3.367c-0.575-1.037-1.517-1.785-2.655-2.106l-0.11-0.023L228.03,269.491
										L228.03,269.491z"/>
									<g transform="translate(0.000000, 2.505112)">
										<path id="Shape_5_" fill="#006E76" d="M171.634,325.86l-3.443,12.129c51.574-3.689,69.375-59.208,69.375-59.208
											c0.787-1.226,0.434-2.855-0.788-3.645c-1.224-0.789-2.852-0.434-3.638,0.792l-2.639,4.103l-0.313,0.488
											c-0.244,0.209-0.586,0.295-0.917,0.201c-0.528-0.149-0.836-0.703-0.686-1.234l2.104-7.399
											c0.397-1.399-0.412-2.861-1.812-3.259c-1.398-0.4-2.854,0.413-3.252,1.815l-2.102,7.399h-0.004
											c-0.004,0.021-0.009,0.04-0.015,0.06c-0.157,0.563-0.744,0.89-1.308,0.729c-0.503-0.142-0.815-0.628-0.762-1.132
											l0.119-4.641c0.156-1.51-0.412-2.862-1.809-3.26c-1.401-0.398-2.855,0.414-3.255,1.815
											C216.49,271.613,212.776,316.661,171.634,325.86"/>
										<g id="Clipped_13_">
											<g>
												<g id="SVGID_20_">
												</g>
												<defs>
													
														<filter id="Adobe_OpacityMaskFilter_1_" filterUnits="userSpaceOnUse" x="201.287" y="277.331" width="41.326" height="29.877">
														<feColorMatrix  type="matrix" values="1 0 0 0 0  0 1 0 0 0  0 0 1 0 0  0 0 0 1 0"/>
													</filter>
												</defs>
												<mask maskUnits="userSpaceOnUse" x="201.287" y="277.331" width="41.326" height="29.877" id="mask-4_1_">
													<g filter="url(#Adobe_OpacityMaskFilter_1_)">
														<path id="path-3_1_" fill="#FFFFFF" d="M225.625,270.644l-2.103,7.399l-0.004,0c-0.005,0.022-0.009,0.042-0.015,0.062
															c-0.159,0.564-0.745,0.889-1.308,0.729c-0.503-0.143-0.815-0.626-0.762-1.133l0.121-4.641
															c0.153-1.51-0.412-2.86-1.812-3.26s-2.854,0.413-3.252,1.814c0,0-3.716,45.048-44.858,54.247l-3.443,12.127
															c51.574-3.689,69.375-59.203,69.375-59.203c0.788-1.226,0.433-2.859-0.787-3.648
															c-1.224-0.788-2.852-0.434-3.639,0.792l-2.639,4.105l-0.312,0.489c-0.244,0.208-0.585,0.294-0.918,0.202
															c-0.528-0.152-0.836-0.706-0.687-1.235l2.103-7.399c0.398-1.401-0.412-2.861-1.812-3.258
															c-0.155-0.045-0.311-0.076-0.468-0.09C227.166,268.619,225.976,269.397,225.625,270.644"/>
													</g>
												</mask>
												<g id="Group_2_" opacity="0.5" mask="url(#mask-4_1_)">
													<g transform="translate(45.500000, 11.523517)">
														<g>
															<g id="Clipped_1_">
																<g id="SVGID_18_">
																</g>
																<defs>
																	
																		<filter id="Adobe_OpacityMaskFilter_2_" filterUnits="userSpaceOnUse" x="155.787" y="265.808" width="41.326" height="29.877">
																		<feColorMatrix  type="matrix" values="1 0 0 0 0  0 1 0 0 0  0 0 1 0 0  0 0 0 1 0"/>
																	</filter>
																</defs>
																<mask maskUnits="userSpaceOnUse" x="155.787" y="265.808" width="41.326" height="29.877" id="mask-6_1_">
																	<g filter="url(#Adobe_OpacityMaskFilter_2_)">
																		<polygon id="path-5_1_" fill="#FFFFFF" points="155.791,291.908 194.571,295.692 197.109,269.588 
																			158.329,265.804 																		"/>
																	</g>
																</mask>
																<g id="Group_1_" opacity="0.75" mask="url(#mask-6_1_)">
																	<g id="Clipped">
																		<g>
																			<g id="SVGID_5_">
																			</g>
																			<defs>
																				
																					<filter id="Adobe_OpacityMaskFilter_3_" filterUnits="userSpaceOnUse" x="155.787" y="265.808" width="41.326" height="29.877">
																					<feColorMatrix  type="matrix" values="1 0 0 0 0  0 1 0 0 0  0 0 1 0 0  0 0 0 1 0"/>
																				</filter>
																			</defs>
																			<mask maskUnits="userSpaceOnUse" x="155.787" y="265.808" width="41.326" height="29.877" id="mask-8_1_">
																				<g filter="url(#Adobe_OpacityMaskFilter_3_)">
																					<polygon id="path-7_1_" fill="#FFFFFF" points="155.791,291.908 194.571,295.692 197.109,269.588 
																						158.329,265.804 																					"/>
																				</g>
																			</mask>
																			<g mask="url(#mask-8_1_)">
																				<g id="SVGID_7_">
																				</g>
																				<defs>
																					
																						<filter id="Adobe_OpacityMaskFilter_4_" filterUnits="userSpaceOnUse" x="155.787" y="265.808" width="41.326" height="29.877">
																						<feColorMatrix  type="matrix" values="1 0 0 0 0  0 1 0 0 0  0 0 1 0 0  0 0 0 1 0"/>
																					</filter>
																				</defs>
																				<mask maskUnits="userSpaceOnUse" x="155.787" y="265.808" width="41.326" height="29.877" id="mask-10_1_">
																					<g filter="url(#Adobe_OpacityMaskFilter_4_)">
																						<polygon id="path-9_1_" fill="#FFFFFF" points="155.791,291.908 194.571,295.692 197.109,269.588 
																							158.329,265.803 																						"/>
																					</g>
																				</mask>
																				<g id="Group" mask="url(#mask-10_1_)">
																					
																						<g id="Bitmap" transform="translate(28.749999, 20.792435) rotate(0.000000) translate(-28.749999, -20.792435) translate(-0.000001, 0.000002)">
																						<g transform="matrix(1 0 7.450581e-09 1 -3.051758e-05 -1.525879e-05)" enable-background="new    ">
																						</g>
																					</g>
																				</g>
																			</g>
																		</g>
																	</g>
																</g>
															</g>
															<g id="Clipped_2_">
																<g id="SVGID_3_">
																</g>
																<defs>
																	
																		<filter id="Adobe_OpacityMaskFilter_5_" filterUnits="userSpaceOnUse" x="162.251" y="271.662" width="27.719" height="17.067">
																		<feColorMatrix  type="matrix" values="1 0 0 0 0  0 1 0 0 0  0 0 1 0 0  0 0 0 1 0"/>
																	</filter>
																</defs>
																<mask maskUnits="userSpaceOnUse" x="162.251" y="271.662" width="27.719" height="17.067" id="mask-12_1_">
																	<g filter="url(#Adobe_OpacityMaskFilter_5_)">
																		<polygon id="path-11_1_" fill="#FFFFFF" points="155.791,291.908 194.571,295.692 197.109,269.588 
																			158.329,265.804 																		"/>
																	</g>
																</mask>
																
																	<rect id="Rectangle-path" x="162.706" y="276.384" transform="matrix(-0.9279 -0.3728 0.3728 -0.9279 235.0688 605.8458)" mask="url(#mask-12_1_)" fill="#9CD3E3" width="26.81" height="7.622"/>
															</g>
														</g>
													</g>
												</g>
											</g>
											<g>
												<g id="SVGID_4_">
												</g>
												<defs>
													
														<filter id="Adobe_OpacityMaskFilter_6_" filterUnits="userSpaceOnUse" x="174.351" y="319.33" width="18.643" height="27.426">
														<feColorMatrix  type="matrix" values="1 0 0 0 0  0 1 0 0 0  0 0 1 0 0  0 0 0 1 0"/>
													</filter>
												</defs>
												<mask maskUnits="userSpaceOnUse" x="174.351" y="319.33" width="18.643" height="27.426" id="mask-14_1_">
													<g filter="url(#Adobe_OpacityMaskFilter_6_)">
														<path id="path-13_1_" fill="#FFFFFF" d="M225.625,270.644l-2.103,7.399l-0.004,0
															c-0.005,0.022-0.009,0.042-0.015,0.062c-0.159,0.564-0.745,0.889-1.308,0.729c-0.503-0.143-0.815-0.626-0.762-1.133
															l0.121-4.641c0.153-1.51-0.412-2.86-1.812-3.26s-2.854,0.413-3.252,1.814c0,0-3.716,45.048-44.858,54.247
															l-3.443,12.127c51.574-3.689,69.375-59.203,69.375-59.203c0.788-1.226,0.433-2.859-0.787-3.648
															c-1.224-0.788-2.852-0.434-3.639,0.792l-2.639,4.105l-0.312,0.489c-0.244,0.208-0.585,0.294-0.918,0.202
															c-0.528-0.152-0.836-0.706-0.687-1.235l2.103-7.399c0.398-1.401-0.412-2.861-1.812-3.258
															c-0.155-0.045-0.311-0.076-0.468-0.09C227.166,268.619,225.976,269.397,225.625,270.644"/>
													</g>
												</mask>
												<g id="Group_3_" opacity="0.5" mask="url(#mask-14_1_)">
													<g transform="translate(5.500000, 68.640082)">
														<g>
															<g id="Clipped_3_">
																<g id="SVGID_9_">
																</g>
																<defs>
																	
																		<filter id="Adobe_OpacityMaskFilter_7_" filterUnits="userSpaceOnUse" x="168.851" y="250.69" width="18.643" height="27.426">
																		<feColorMatrix  type="matrix" values="1 0 0 0 0  0 1 0 0 0  0 0 1 0 0  0 0 0 1 0"/>
																	</filter>
																</defs>
																<mask maskUnits="userSpaceOnUse" x="168.851" y="250.69" width="18.643" height="27.426" id="mask-16_1_">
																	<g filter="url(#Adobe_OpacityMaskFilter_7_)">
																		<polygon id="path-15_1_" fill="#FFFFFF" points="166.643,276.773 187.099,278.768 189.697,252.027 
																			169.242,250.033 																		"/>
																	</g>
																</mask>
																
																	<rect id="Rectangle-path_1_" x="164.768" y="260.592" transform="matrix(-0.4401 -0.8979 0.8979 -0.4401 19.1758 540.7612)" mask="url(#mask-16_1_)" fill="#9CD3E3" width="26.807" height="7.622"/>
															</g>
														</g>
													</g>
												</g>
											</g>
											<g>
												<g id="SVGID_6_">
												</g>
												<defs>
													
														<filter id="Adobe_OpacityMaskFilter_8_" filterUnits="userSpaceOnUse" x="173.953" y="302.162" width="50.752" height="51.36">
														<feColorMatrix  type="matrix" values="1 0 0 0 0  0 1 0 0 0  0 0 1 0 0  0 0 0 1 0"/>
													</filter>
												</defs>
												<mask maskUnits="userSpaceOnUse" x="173.953" y="302.162" width="50.752" height="51.36" id="mask-18_1_">
													<g filter="url(#Adobe_OpacityMaskFilter_8_)">
														<path id="path-17_1_" fill="#FFFFFF" d="M225.625,270.644l-2.103,7.399l-0.004,0
															c-0.005,0.022-0.009,0.042-0.015,0.062c-0.159,0.564-0.745,0.889-1.308,0.729c-0.503-0.143-0.815-0.626-0.762-1.133
															l0.121-4.641c0.153-1.51-0.412-2.86-1.812-3.26s-2.854,0.413-3.252,1.814c0,0-3.716,45.048-44.858,54.247
															l-3.443,12.127c51.574-3.689,69.375-59.203,69.375-59.203c0.788-1.226,0.433-2.859-0.787-3.648
															c-1.224-0.788-2.852-0.434-3.639,0.792l-2.639,4.105l-0.312,0.489c-0.244,0.208-0.585,0.294-0.918,0.202
															c-0.528-0.152-0.836-0.706-0.687-1.235l2.103-7.399c0.398-1.401-0.412-2.861-1.812-3.258
															c-0.155-0.045-0.311-0.076-0.468-0.09C227.166,268.619,225.976,269.397,225.625,270.644"/>
													</g>
												</mask>
												<g id="Group_6_" opacity="0.5" mask="url(#mask-18_1_)">
													<g transform="translate(8.000000, 45.593047)">
														<g>
															<g id="Clipped_5_">
																<g id="SVGID_11_">
																</g>
																<defs>
																	
																		<filter id="Adobe_OpacityMaskFilter_9_" filterUnits="userSpaceOnUse" x="165.953" y="256.569" width="50.752" height="51.36">
																		<feColorMatrix  type="matrix" values="1 0 0 0 0  0 1 0 0 0  0 0 1 0 0  0 0 0 1 0"/>
																	</filter>
																</defs>
																<mask maskUnits="userSpaceOnUse" x="165.953" y="256.569" width="50.752" height="51.36" id="mask-20_1_">
																	<g filter="url(#Adobe_OpacityMaskFilter_9_)">
																		<polygon id="path-19_1_" fill="#FFFFFF" points="165.963,303.432 212.142,307.94 216.698,261.069 
																			170.518,256.564 																		"/>
																	</g>
																</mask>
																<g id="Group_5_" opacity="0.75" mask="url(#mask-20_1_)">
																	<g id="Clipped_4_">
																		<g>
																			<g id="SVGID_13_">
																			</g>
																			<defs>
																				
																					<filter id="Adobe_OpacityMaskFilter_10_" filterUnits="userSpaceOnUse" x="165.953" y="256.569" width="50.752" height="51.36">
																					<feColorMatrix  type="matrix" values="1 0 0 0 0  0 1 0 0 0  0 0 1 0 0  0 0 0 1 0"/>
																				</filter>
																			</defs>
																			<mask maskUnits="userSpaceOnUse" x="165.953" y="256.569" width="50.752" height="51.36" id="mask-22_1_">
																				<g filter="url(#Adobe_OpacityMaskFilter_10_)">
																					<polygon id="path-21_1_" fill="#FFFFFF" points="165.963,303.432 212.142,307.94 216.698,261.069 
																						170.518,256.564 																					"/>
																				</g>
																			</mask>
																			<g mask="url(#mask-22_1_)">
																				<g id="SVGID_15_">
																				</g>
																				<defs>
																					
																						<filter id="Adobe_OpacityMaskFilter_11_" filterUnits="userSpaceOnUse" x="165.953" y="256.569" width="50.752" height="51.36">
																						<feColorMatrix  type="matrix" values="1 0 0 0 0  0 1 0 0 0  0 0 1 0 0  0 0 0 1 0"/>
																					</filter>
																				</defs>
																				<mask maskUnits="userSpaceOnUse" x="165.953" y="256.569" width="50.752" height="51.36" id="mask-24_1_">
																					<g filter="url(#Adobe_OpacityMaskFilter_11_)">
																						<polygon id="path-23_1_" fill="#FFFFFF" points="165.963,303.432 212.142,307.94 216.698,261.069 
																							170.518,256.564 																						"/>
																					</g>
																				</mask>
																				<g id="Group_4_" mask="url(#mask-24_1_)">
																					
																						<g id="Bitmap_1_" transform="translate(35.250014, 35.572599) rotate(0.000000) translate(-35.250014, -35.572599) translate(0.000014, 0.000002)">
																						<g transform="matrix(1 0 7.450581e-09 1 -3.051758e-05 0)" enable-background="new    ">
																						</g>
																					</g>
																				</g>
																			</g>
																		</g>
																	</g>
																</g>
															</g>
															<g id="Clipped_6_">
																<g id="SVGID_8_">
																</g>
																<defs>
																	
																		<filter id="Adobe_OpacityMaskFilter_12_" filterUnits="userSpaceOnUse" x="178.281" y="267.175" width="22.53" height="25.842">
																		<feColorMatrix  type="matrix" values="1 0 0 0 0  0 1 0 0 0  0 0 1 0 0  0 0 0 1 0"/>
																	</filter>
																</defs>
																<mask maskUnits="userSpaceOnUse" x="178.281" y="267.175" width="22.53" height="25.842" id="mask-26_1_">
																	<g filter="url(#Adobe_OpacityMaskFilter_12_)">
																		<polygon id="path-25_1_" fill="#FFFFFF" points="165.963,303.432 212.142,307.94 216.698,261.069 
																			170.518,256.564 																		"/>
																	</g>
																</mask>
																<polygon id="Shape_6_" mask="url(#mask-26_1_)" fill="#9CD3E3" points="184.263,267.175 200.811,288.313 
																	194.827,293.017 178.281,271.881 																"/>
															</g>
														</g>
													</g>
												</g>
											</g>
											<g>
												<g id="SVGID_10_">
												</g>
												<defs>
													
														<filter id="Adobe_OpacityMaskFilter_13_" filterUnits="userSpaceOnUse" x="184.084" y="293.45" width="52.802" height="48.329">
														<feColorMatrix  type="matrix" values="1 0 0 0 0  0 1 0 0 0  0 0 1 0 0  0 0 0 1 0"/>
													</filter>
												</defs>
												<mask maskUnits="userSpaceOnUse" x="184.084" y="293.45" width="52.802" height="48.329" id="mask-28_1_">
													<g filter="url(#Adobe_OpacityMaskFilter_13_)">
														<path id="path-27_1_" fill="#FFFFFF" d="M225.625,270.644l-2.103,7.399l-0.004,0
															c-0.005,0.022-0.009,0.042-0.015,0.062c-0.159,0.564-0.745,0.889-1.308,0.729c-0.503-0.143-0.815-0.626-0.762-1.133
															l0.121-4.641c0.153-1.51-0.412-2.86-1.812-3.26s-2.854,0.413-3.252,1.814c0,0-3.716,45.048-44.858,54.247
															l-3.443,12.127c51.574-3.689,69.375-59.203,69.375-59.203c0.788-1.226,0.433-2.859-0.787-3.648
															c-1.224-0.788-2.852-0.434-3.639,0.792l-2.639,4.105l-0.312,0.489c-0.244,0.208-0.585,0.294-0.918,0.202
															c-0.528-0.152-0.836-0.706-0.687-1.235l2.103-7.399c0.398-1.401-0.412-2.861-1.812-3.258
															c-0.155-0.045-0.311-0.076-0.468-0.09C227.166,268.619,225.976,269.397,225.625,270.644"/>
													</g>
												</mask>
												<g id="Group_9_" opacity="0.5" mask="url(#mask-28_1_)">
													<g transform="translate(22.000000, 33.568507)">
														<g>
															<g id="Clipped_8_">
																
																	<g id="SVGID_17_" transform="translate(36.487576, 33.672043) rotate(185.560654) translate(-36.487576, -33.672043) ">
																</g>
																<defs>
																	
																		<filter id="Adobe_OpacityMaskFilter_14_" filterUnits="userSpaceOnUse" x="162.084" y="259.882" width="52.802" height="48.329">
																		<feColorMatrix  type="matrix" values="1 0 0 0 0  0 1 0 0 0  0 0 1 0 0  0 0 0 1 0"/>
																	</filter>
																</defs>
																<mask maskUnits="userSpaceOnUse" x="162.084" y="259.882" width="52.802" height="48.329" id="mask-30_1_">
																	<g filter="url(#Adobe_OpacityMaskFilter_14_)">
																		<rect id="path-29_1_" x="164.093" y="262.143" fill="#FFFFFF" width="48.778" height="43.812"/>
																	</g>
																</mask>
																<g id="Group_8_" opacity="0.75" mask="url(#mask-30_1_)">
																	<g id="Clipped_7_">
																		<g>
																			
																				<g id="SVGID_19_" transform="translate(36.487576, 33.672043) rotate(185.560654) translate(-36.487576, -33.672043) ">
																			</g>
																			<defs>
																				
																					<filter id="Adobe_OpacityMaskFilter_15_" filterUnits="userSpaceOnUse" x="162.084" y="259.882" width="52.802" height="48.329">
																					<feColorMatrix  type="matrix" values="1 0 0 0 0  0 1 0 0 0  0 0 1 0 0  0 0 0 1 0"/>
																				</filter>
																			</defs>
																			<mask maskUnits="userSpaceOnUse" x="162.084" y="259.882" width="52.802" height="48.329" id="mask-32_1_">
																				<g filter="url(#Adobe_OpacityMaskFilter_15_)">
																					<rect id="path-31_1_" x="164.093" y="262.143" fill="#FFFFFF" width="48.778" height="43.812"/>
																				</g>
																			</mask>
																			<g mask="url(#mask-32_1_)">
																				
																					<g id="SVGID_21_" transform="translate(36.487576, 33.672043) rotate(185.560654) translate(-36.487576, -33.672043) ">
																				</g>
																				<defs>
																					
																						<filter id="Adobe_OpacityMaskFilter_16_" filterUnits="userSpaceOnUse" x="162.084" y="259.882" width="52.802" height="48.329">
																						<feColorMatrix  type="matrix" values="1 0 0 0 0  0 1 0 0 0  0 0 1 0 0  0 0 0 1 0"/>
																					</filter>
																				</defs>
																				<mask maskUnits="userSpaceOnUse" x="162.084" y="259.882" width="52.802" height="48.329" id="mask-34_1_">
																					<g filter="url(#Adobe_OpacityMaskFilter_16_)">
																						<rect id="path-33_1_" x="164.093" y="262.143" fill="#FFFFFF" width="48.778" height="43.812"/>
																					</g>
																				</mask>
																				<g id="Group_7_" mask="url(#mask-34_1_)">
																					
																						<g id="Bitmap_2_" transform="translate(36.499983, 33.568509) rotate(0.000000) translate(-36.499983, -33.568509) translate(-0.000017, 0.000002)">
																						<g transform="matrix(1 0 7.450581e-09 1 -1.525879e-05 0)" enable-background="new    ">
																						</g>
																					</g>
																				</g>
																			</g>
																		</g>
																	</g>
																</g>
															</g>
															<g id="Clipped_9_">
																
																	<g id="SVGID_12_" transform="translate(36.487576, 33.672043) rotate(185.560654) translate(-36.487576, -33.672043) ">
																</g>
																<defs>
																	
																		<filter id="Adobe_OpacityMaskFilter_17_" filterUnits="userSpaceOnUse" x="173.99" y="270.368" width="25.449" height="23.078">
																		<feColorMatrix  type="matrix" values="1 0 0 0 0  0 1 0 0 0  0 0 1 0 0  0 0 0 1 0"/>
																	</filter>
																</defs>
																<mask maskUnits="userSpaceOnUse" x="173.99" y="270.368" width="25.449" height="23.078" id="mask-36_1_">
																	<g filter="url(#Adobe_OpacityMaskFilter_17_)">
																		<rect id="path-35_1_" x="164.093" y="262.143" fill="#FFFFFF" width="48.778" height="43.812"/>
																	</g>
																</mask>
																<polygon id="Shape_7_" mask="url(#mask-36_1_)" fill="#9CD3E3" points="178.868,270.368 199.439,287.597 
																	194.563,293.446 173.99,276.216 																"/>
															</g>
														</g>
													</g>
												</g>
											</g>
											<g>
												<g id="SVGID_14_">
												</g>
												<defs>
													
														<filter id="Adobe_OpacityMaskFilter_18_" filterUnits="userSpaceOnUse" x="196.008" y="288.274" width="41.558" height="32.25">
														<feColorMatrix  type="matrix" values="1 0 0 0 0  0 1 0 0 0  0 0 1 0 0  0 0 0 1 0"/>
													</filter>
												</defs>
												<mask maskUnits="userSpaceOnUse" x="196.008" y="288.274" width="41.558" height="32.25" id="mask-38_1_">
													<g filter="url(#Adobe_OpacityMaskFilter_18_)">
														<path id="path-37_1_" fill="#FFFFFF" d="M225.625,270.644l-2.103,7.399l-0.004,0
															c-0.005,0.022-0.009,0.042-0.015,0.062c-0.159,0.564-0.745,0.889-1.308,0.729c-0.503-0.143-0.815-0.626-0.762-1.133
															l0.121-4.641c0.153-1.51-0.412-2.86-1.812-3.26s-2.854,0.413-3.252,1.814c0,0-3.716,45.048-44.858,54.247
															l-3.443,12.127c51.574-3.689,69.375-59.203,69.375-59.203c0.788-1.226,0.433-2.859-0.787-3.648
															c-1.224-0.788-2.852-0.434-3.639,0.792l-2.639,4.105l-0.312,0.489c-0.244,0.208-0.585,0.294-0.918,0.202
															c-0.528-0.152-0.836-0.706-0.687-1.235l2.103-7.399c0.398-1.401-0.412-2.861-1.812-3.258
															c-0.155-0.045-0.311-0.076-0.468-0.09C227.166,268.619,225.976,269.397,225.625,270.644"/>
													</g>
												</mask>
												<g id="Group_12_" opacity="0.5" mask="url(#mask-38_1_)">
													<g transform="translate(38.500000, 26.554192)">
														<g>
															<g id="Clipped_11_">
																
																	<g id="SVGID_23_" transform="translate(28.656890, 22.508106) rotate(185.560654) translate(-28.656890, -22.508106) ">
																</g>
																<defs>
																	
																		<filter id="Adobe_OpacityMaskFilter_19_" filterUnits="userSpaceOnUse" x="157.508" y="261.72" width="41.558" height="32.25">
																		<feColorMatrix  type="matrix" values="1 0 0 0 0  0 1 0 0 0  0 0 1 0 0  0 0 0 1 0"/>
																	</filter>
																</defs>
																<mask maskUnits="userSpaceOnUse" x="157.508" y="261.72" width="41.558" height="32.25" id="mask-40_1_">
																	<g filter="url(#Adobe_OpacityMaskFilter_19_)">
																		<rect id="path-39_1_" x="158.805" y="263.538" fill="#FFFFFF" width="38.963" height="28.61"/>
																	</g>
																</mask>
																<g id="Group_11_" opacity="0.75" mask="url(#mask-40_1_)">
																	<g id="Clipped_10_">
																		<g>
																			
																				<g id="SVGID_25_" transform="translate(28.656890, 22.508106) rotate(185.560654) translate(-28.656890, -22.508106) ">
																			</g>
																			<defs>
																				
																					<filter id="Adobe_OpacityMaskFilter_20_" filterUnits="userSpaceOnUse" x="157.508" y="261.72" width="41.558" height="32.25">
																					<feColorMatrix  type="matrix" values="1 0 0 0 0  0 1 0 0 0  0 0 1 0 0  0 0 0 1 0"/>
																				</filter>
																			</defs>
																			<mask maskUnits="userSpaceOnUse" x="157.508" y="261.72" width="41.558" height="32.25" id="mask-42_1_">
																				<g filter="url(#Adobe_OpacityMaskFilter_20_)">
																					<rect id="path-41_1_" x="158.805" y="263.538" fill="#FFFFFF" width="38.963" height="28.61"/>
																				</g>
																			</mask>
																			<g mask="url(#mask-42_1_)">
																				<g id="SVGID_27_">
																				</g>
																				<defs>
																					
																						<filter id="Adobe_OpacityMaskFilter_21_" filterUnits="userSpaceOnUse" x="157.508" y="261.72" width="41.558" height="32.25">
																						<feColorMatrix  type="matrix" values="1 0 0 0 0  0 1 0 0 0  0 0 1 0 0  0 0 0 1 0"/>
																					</filter>
																				</defs>
																				<mask maskUnits="userSpaceOnUse" x="157.508" y="261.72" width="41.558" height="32.25" id="mask-44_1_">
																					<g filter="url(#Adobe_OpacityMaskFilter_21_)">
																						<polygon id="path-43_1_" fill="#FFFFFF" points="157.513,290.192 196.291,293.974 199.059,265.5 
																							160.281,261.716 																						"/>
																					</g>
																				</mask>
																				<g id="Group_10_" mask="url(#mask-44_1_)">
																					
																						<g id="Bitmap_3_" transform="translate(28.749999, 22.546014) rotate(0.000000) translate(-28.749999, -22.546014) translate(-0.000001, 0.000002)">
																						<g transform="matrix(1 0 7.450581e-09 1 0 0)" enable-background="new    ">
																						</g>
																					</g>
																				</g>
																			</g>
																		</g>
																	</g>
																</g>
															</g>
															<g id="Clipped_12_">
																
																	<g id="SVGID_16_" transform="translate(28.656890, 22.508106) rotate(185.560654) translate(-28.656890, -22.508106) ">
																</g>
																<defs>
																	
																		<filter id="Adobe_OpacityMaskFilter_22_" filterUnits="userSpaceOnUse" x="164.229" y="267.638" width="27.254" height="19.301">
																		<feColorMatrix  type="matrix" values="1 0 0 0 0  0 1 0 0 0  0 0 1 0 0  0 0 0 1 0"/>
																	</filter>
																</defs>
																<mask maskUnits="userSpaceOnUse" x="164.229" y="267.638" width="27.254" height="19.301" id="mask-46_1_">
																	<g filter="url(#Adobe_OpacityMaskFilter_22_)">
																		<rect id="path-45_1_" x="158.805" y="263.538" fill="#FFFFFF" width="38.963" height="28.61"/>
																	</g>
																</mask>
																<polygon id="Shape_8_" mask="url(#mask-46_1_)" fill="#9CD3E3" points="167.788,267.638 191.483,280.202 
																	187.926,286.94 164.229,274.373 																"/>
															</g>
														</g>
													</g>
												</g>
											</g>
										</g>
									</g>
								</g>
							</g>
							<path id="Shape_9_" fill="none" d="M229.236,427.688l-0.819-14.667c-0.2,0.51-0.396,1.021-0.578,1.537
								c-4.417,12.397-3.21,24.763-1.422,32.944c0.115,0.53,0.236,1.049,0.358,1.559c2.832,1.833,5.778,3.497,8.829,4.979
								C231.497,446.444,229.242,437.351,229.236,427.688L229.236,427.688z"/>
							<path id="Shape_10_" fill="#4F2324" d="M226.917,386.632l-0.408,0.391l0.016,0.03c0.13-0.129,0.261-0.26,0.393-0.389
								L226.917,386.632L226.917,386.632z"/>
							<path id="Shape_11_" fill="#4F2324" d="M220.727,396.49c-1.081,1.481-2.089,2.983-3.024,4.504l0,0
								C218.639,399.473,219.646,397.971,220.727,396.49L220.727,396.49z"/>
							<path id="Shape_12_" fill="#4F2324" d="M213.345,409.639L213.345,409.639c-1.303,2.603-2.12,5.225-2.948,7.838l0,0
								C211.225,414.864,212.043,412.242,213.345,409.639L213.345,409.639z"/>
							<path id="Shape_13_" fill="#4F2324" d="M227.838,414.558c0.182-0.516,0.378-1.027,0.578-1.537l-0.214-3.844
								c-6.527,13.91-5.65,28.2-3.373,38.582c0.643,0.441,1.291,0.878,1.947,1.302c-0.124-0.51-0.243-1.028-0.359-1.559
								C224.628,439.321,223.422,426.956,227.838,414.558L227.838,414.558z"/>
							<path id="Shape_14_" fill="#4F2324" d="M217.702,400.994L217.702,400.994c-0.368,0.598-0.723,1.196-1.069,1.798l0,0
								C216.979,402.191,217.334,401.592,217.702,400.994L217.702,400.994z"/>
							<path id="Shape_15_" fill="#4F2324" d="M208.219,424.714h-0.013c-0.476,2.55-0.71,4.504-1.074,6.618l0,0
								C207.496,429.219,207.744,427.263,208.219,424.714L208.219,424.714z"/>
							<path id="Shape_16_" fill="#4F2324" d="M208.258,424.896c0.271-1.238,0.659-2.484,0.919-3.735c0,0,0,0,0-0.001
								c0.261-1.224,0.669-2.451,1.059-3.683c0.828-2.613,1.794-5.235,2.94-7.838c1.015-2.303,2.164-4.592,3.46-6.848
								c0.346-0.601,0.699-1.2,1.067-1.798c0.937-1.521,1.943-3.023,3.024-4.505c1.875-2.568,3.974-5.07,6.325-7.475l-0.059-1.037
								l-0.469-0.925c-6.948,6.858-12.384,15.039-16.134,24.383c-2.233,5.563-3.867,11.545-4.917,17.854
								c0.522,0.689,1.063,1.369,1.607,2.042C207.389,429.218,207.783,427.069,208.258,424.896L208.258,424.896z"/>
							<path id="Shape_17_" fill="#4F2324" d="M226.918,386.664c-0.132,0.128-0.263,0.259-0.394,0.389l0.469,0.926L226.918,386.664
								L226.918,386.664z"/>
							<path id="Shape_18_" fill="#006E76" d="M228.222,409.177v-0.003c-1.09,1.729-1.283,3.461-1.876,5.192
								c-0.326,0.952-0.668,1.901-0.668,2.85v0.001c-1.091,0.768-0.646,1.534-0.823,2.298c-0.593,2.542-1.104,5.059-1.334,7.526
								c-0.044,0.476-0.142,0.95-0.174,1.422c-0.025,0.362-0.073,0.723-0.091,1.084c-0.029,0.553-0.066,1.104-0.078,1.651
								c-0.064,2.63,0.035,5.181,0.262,7.621c0.009,0.098,0.014,0.197,0.022,0.295c0.141,1.453,0.322,2.866,0.536,4.231
								c0.119,0.744,0.244,1.476,0.377,2.191c0.143,0.758,0.293,1.499,0.452,2.22c0,0.002,0.012,0.002,0.012,0.002
								C222.562,437.378,221.677,423.088,228.222,409.177L228.222,409.177z"/>
							<path id="Shape_19_" fill="#006E76" d="M215.176,418.178l9.448,1.336c0.178-0.764,0.377-1.529,0.593-2.298l-1.588-3.222
								L215.176,418.178L215.176,418.178z"/>
							<polygon id="Shape_20_" fill="#006E76" points="215.175,417.791 215.176,417.791 223.858,413.802 225.677,417.217 
								225.677,417.216 223.86,413.8 							"/>
							<polygon id="Shape_21_" fill="#006E76" points="227.435,399.317 227.668,399.789 227.648,399.451 							"/>
							<path id="Shape_22_" fill="#006E76" d="M227.053,389.016c-0.217,0.222-0.427,0.446-0.639,0.669l0.704,0.441L227.053,389.016
								L227.053,389.016z"/>
							<path id="Shape_23_" fill="#006E76" d="M224.001,392.349c0.771-0.899,1.618-1.787,2.452-2.664
								c0.212-0.223,0.315-0.447,0.679-0.669v-0.001c-2.182,2.405-4.49,4.905-6.366,7.475c0.231-0.315,0.439-0.631,0.676-0.943
								C222.26,394.467,223.101,393.4,224.001,392.349L224.001,392.349z"/>
							<path id="Shape_24_" fill="#006E76" d="M210.222,417.477l4.952,0.701l8.455-4.184l1.587,3.222
								c0.267-0.948,0.563-1.898,0.889-2.85l-12.936-4.728C212.024,412.242,211.051,414.864,210.222,417.477L210.222,417.477z"/>
							<path id="Shape_25_" fill="#006E76" d="M217.702,400.994c-0.368,0.598-0.723,1.196-1.068,1.798l2.385,0.873L217.702,400.994
								L217.702,400.994z"/>
							<path id="Shape_26_" fill="#006E76" d="M219.018,403.664l9.061,3.312l-0.41-7.187l-0.232-0.472l-6.013-3.771
								c-0.236,0.313-0.464,0.629-0.696,0.944c-1.081,1.481-2.089,2.983-3.024,4.504L219.018,403.664L219.018,403.664z"/>
							<path id="Shape_27_" fill="#006E76" d="M219.355,431.462l3.871-1.915c0.018-0.36,0.038-0.721,0.062-1.084l-6.406,3.171
								L219.355,431.462L219.355,431.462z"/>
							<path id="Shape_28_" fill="#006E76" d="M223.162,431.198c0.013-0.547,0.036-1.099,0.064-1.651l-3.87,1.915L223.162,431.198
								L223.162,431.198z"/>
							<path id="Shape_29_" fill="#006E76" d="M207.076,431.332c0.252,0.312,0.504,0.621,0.759,0.929l9.047-0.627l6.406-3.171
								c0.033-0.472,0.071-0.946,0.116-1.422l-15.159-2.145C207.77,427.069,207.384,429.219,207.076,431.332L207.076,431.332z"/>
							<path id="Shape_30_" fill="#006E76" d="M217.469,442.078l5.988-2.964c-0.01-0.098-0.018-0.197-0.027-0.295l-8.875,0.615
								C215.505,440.339,216.477,441.219,217.469,442.078L217.469,442.078z"/>
							<path id="Shape_31_" fill="#006E76" d="M219.868,444.071l4.128-0.726c-0.215-1.365-0.397-2.777-0.539-4.231l-5.988,2.964
								C218.255,442.759,219.057,443.421,219.868,444.071L219.868,444.071z"/>
							<path id="Shape_32_" fill="#9CD3E3" d="M224.825,447.757c-0.158-0.721-0.309-1.462-0.452-2.221l-1.576,0.78
								C223.467,446.807,224.143,447.289,224.825,447.757L224.825,447.757z"/>
							<path id="Shape_33_" fill="#9CD3E3" d="M222.798,446.317l1.576-0.78c-0.134-0.716-0.26-1.446-0.377-2.191l-4.128,0.726
								C220.828,444.841,221.805,445.589,222.798,446.317L222.798,446.317z"/>
							<path id="Shape_34_" fill="#9CD3E3" d="M221.422,395.546l6.013,3.771l-3.435-6.968
								C223.101,393.4,222.24,394.467,221.422,395.546L221.422,395.546z"/>
							<path id="Shape_35_" fill="#9CD3E3" d="M227.117,390.126l-0.704-0.441c-0.835,0.876-1.642,1.765-2.411,2.664l3.434,6.968
								l0.212,0.134L227.117,390.126L227.117,390.126z"/>
							<path id="Shape_36_" fill="#9CD3E3" d="M216.683,402.851h0.024c-1.297,2.187-2.303,4.471-3.393,6.774v-0.006
								C214.405,407.317,215.385,405.038,216.683,402.851L216.683,402.851z"/>
							<polygon id="Shape_37_" fill="#9CD3E3" points="228.1,407.34 228.078,406.975 219.018,403.664 222.256,410.233 							"/>
							<path id="Shape_38_" fill="#9CD3E3" d="M228.1,407.34l-5.844,2.894l-3.237-6.569l-2.385-0.872
								c-1.296,2.255-2.449,4.545-3.464,6.848l12.936,4.727c0.594-1.731,1.286-3.464,2.097-5.192l-0.101-1.803L228.1,407.34
								L228.1,407.34z"/>
							<rect id="Rectangle-path_2_" x="209.15" y="421.16" fill="#9CD3E3" width="0.072" height="0.074"/>
							<path id="Shape_39_" fill="#9CD3E3" d="M210.222,417.386L210.222,417.386c-0.39,1.231-0.747,2.591-1.072,3.683l0,0
								C209.477,419.977,209.834,418.618,210.222,417.386L210.222,417.386z"/>
							<path id="Shape_40_" fill="#9CD3E3" d="M209.314,421.115v-0.021c-0.727,1.25-0.807,2.526-1.077,3.62h-0.005
								C208.504,423.621,208.587,422.366,209.314,421.115L209.314,421.115z"/>
							<path id="Shape_41_" fill="#9CD3E3" d="M209.15,421.16c-0.332,1.252-0.633,2.498-0.904,3.736l15.159,2.145
								c0.23-2.466,0.626-4.984,1.218-7.525l-9.448-1.336L209.15,421.16L209.15,421.16z"/>
							
								<rect id="Rectangle-path_3_" x="208.773" y="419.218" transform="matrix(0.8966 -0.4428 0.4428 0.8966 -163.7216 137.2829)" fill="#9CD3E3" width="6.72" height="0.072"/>
							<path id="Shape_42_" fill="#9CD3E3" d="M210.222,417.477c-0.389,1.23-0.746,2.459-1.072,3.683l6.024-2.98L210.222,417.477
								L210.222,417.477z"/>
							<path id="Shape_43_" fill="#9CD3E3" d="M216.883,431.634l-9.047,0.627c0.761,0.914,1.539,1.814,2.337,2.695L216.883,431.634
								L216.883,431.634z"/>
							<path id="Shape_44_" fill="#9CD3E3" d="M210.843,435.676l8.514-4.215l-2.474,0.174l-6.71,3.32
								C210.393,435.197,210.619,435.435,210.843,435.676L210.843,435.676z"/>
							<path id="Shape_45_" fill="#9CD3E3" d="M210.843,435.676c1.198,1.29,2.436,2.546,3.713,3.76l8.875-0.616
								c-0.226-2.44-0.333-4.99-0.269-7.621l-3.806,0.264L210.843,435.676L210.843,435.676z"/>
							<path id="Shape_46_" fill="#4F2324" d="M231.258,427.011l-0.997-18.102c-0.676,1.347-1.295,2.717-1.845,4.111l0.819,14.667
								c0.005,9.663,2.261,18.756,6.367,26.353c1.202,0.584,2.42,1.142,3.653,1.668C234.078,447.8,231.258,437.826,231.258,427.011
								L231.258,427.011z"/>
							<path id="Shape_47_" fill="#4F2324" d="M228.933,384.783l-2.872-52.161c0-25.501,20.822-46.364,46.27-46.364
								c25.448,0,46.27,20.863,46.27,46.364l-0.017,0.312c5.729,3.047,9.643,9.08,9.643,16.019c0,7.645-4.755,14.186-11.452,16.843
								l-3.371,61.213c0,8.92-1.915,17.265-5.491,24.355c0.484,0.615,0.974,1.237,1.466,1.865c0.044-0.022,0.089-0.046,0.132-0.068
								c3.947-7.463,6.097-16.335,6.102-25.905l1.804-32.731l0.954-17.309l0.544-9.883c0.979-0.501,1.919-1.084,2.788-1.729
								c5.47-3.719,8.734-9.875,8.734-16.466c0-6.949-3.685-13.462-9.63-17.058c-0.188-12.536-5.192-24.348-14.111-33.286
								c-9.103-9.122-21.156-14.145-33.942-14.145c-10.113,0-20.377,3.231-28.479,9.093c-13.095,9.153-21.142,23.925-21.142,39.557
								v0.342c-4.727,3.735-7.702,9.646-7.702,15.95c0,7.219,4.024,13.859,10.335,17.39l0.871,14.521l0.287,5.131l1.178-1.131
								L228.933,384.783L228.933,384.783z"/>
							<path id="Shape_48_" fill="#4F2324" d="M307.695,454.072c0.565-0.275,1.127-0.555,1.684-0.842
								c-0.492-0.629-0.981-1.25-1.466-1.865c-0.303,0.603-0.618,1.196-0.945,1.78C307.206,453.452,307.449,453.76,307.695,454.072
								L307.695,454.072z"/>
							<path id="Shape_49_" fill="#4F2324" d="M305.927,454.905c0.593-0.271,1.183-0.549,1.767-0.833
								c-0.245-0.312-0.487-0.62-0.727-0.927C306.632,453.742,306.286,454.329,305.927,454.905L305.927,454.905z"/>
							<path id="Shape_50_" fill="#4F2324" d="M227.939,385.657l0.745,1.747c0.124-0.119,0.248-0.236,0.374-0.355l-0.125-2.266
								l-0.836,0.718l-1.18,1.131l0.002,0.032C227.261,386.332,227.588,385.984,227.939,385.657L227.939,385.657z"/>
							<path id="Shape_51_" fill="#4F2324" d="M227.36,388.701l-0.366-0.723l0.059,1.037
								C227.156,388.911,227.256,388.807,227.36,388.701L227.36,388.701z"/>
							<path id="Shape_52_" fill="#4F2324" d="M230.077,405.569c-0.682,1.198-1.308,2.401-1.875,3.607l0.215,3.845
								c0.55-1.396,1.168-2.765,1.845-4.111L230.077,405.569L230.077,405.569z"/>
							<path id="Shape_53_" fill="#4F2324" d="M228.684,387.404l-0.745-1.747c-0.351,0.326-0.678,0.675-1.021,1.007l0.076,1.314
								l0.366,0.723C227.791,388.265,228.235,387.833,228.684,387.404L228.684,387.404z"/>
							<path id="Shape_54_" fill="#4F2324" d="M229.058,387.049c-0.126,0.119-0.25,0.237-0.374,0.356l0.452,1.061L229.058,387.049
								L229.058,387.049z"/>
							<polygon id="Shape_56_" fill="#4F2324" points="229.816,400.809 227.648,399.451 227.668,399.789 230.022,404.564 							"/>
							<path id="Shape_57_" fill="#4F2324" d="M229.107,407.351c0.119-0.229,0.238-0.459,0.362-0.689l-0.955,0.473L229.107,407.351
								L229.107,407.351z"/>
							<path id="Shape_59_" fill="#4F2324" d="M228.53,391.013l-1.17-2.311c-0.104,0.104-0.204,0.208-0.307,0.314l0.064,1.11
								L228.53,391.013L228.53,391.013z"/>
							<path id="Shape_60_" fill="#4F2324" d="M229.469,406.662c0.196-0.365,0.4-0.73,0.608-1.095l-0.056-1.003l-2.354-4.775
								l0.41,7.188l0.436,0.158L229.469,406.662L229.469,406.662z"/>
							<path id="Shape_61_" fill="#4F2324" d="M230.405,405.569v-0.002c0,0.364-0.575,0.729-0.772,1.095
								c-0.123,0.23-0.315,0.46-0.434,0.689c-0.314,0.605-0.612,1.214-0.976,1.823v0.003
								C228.587,407.97,229.313,406.767,230.405,405.569L230.405,405.569z"/>
							<path id="Shape_62_" fill="#4F2324" d="M229.302,391.497l-0.167-3.032l-0.452-1.061c-0.449,0.428-0.893,0.861-1.324,1.298
								l1.17,2.311L229.302,391.497L229.302,391.497z"/>
							<path id="Shape_63_" fill="#4F2324" d="M227.375,388.641c0.432-0.365,0.847-0.809,1.211-1.237v-0.001
								c-0.364,0.43-0.771,0.874-1.203,1.237L227.375,388.641L227.375,388.641L227.375,388.641z"/>
							<polygon id="Shape_64_" fill="#4F2324" points="228.53,391.013 227.117,390.126 227.648,399.451 229.816,400.809 
								229.366,392.664 							"/>
							<polygon id="Shape_65_" fill="#4F2324" points="229.302,391.497 228.53,391.013 229.366,392.664 							"/>
							<path id="Shape_66_" fill="#4F2324" d="M228.514,407.135l-0.415,0.205l0.001,0.031l0.101,1.803
								c0.286-0.608,0.589-1.217,0.905-1.822L228.514,407.135L228.514,407.135z"/>
							<polygon id="Shape_67_" fill="#4F2324" points="228.514,407.135 228.078,406.975 228.1,407.34 							"/>
							<path id="Shape_68_" fill="#49B7C8" d="M263.379,461.949c2.737,0.274,5.512,0.405,8.318,0.405
								c6.345,0,12.525-0.73,18.466-2.094l15.84-5.306l1.909-3.588c3.575-7.091,5.491-15.437,5.491-24.355l3.371-61.215
								c6.697-2.657,11.452-9.198,11.452-16.843c0-6.939-3.914-12.971-9.643-16.019l0.017-0.312
								c0-25.501-20.822-46.364-46.27-46.364c-25.446,0-46.27,20.863-46.27,46.364l2.872,52.161l1.014,24.127l1.413,18.101
								c0,10.814,2.77,20.789,7.949,28.697c1.545,0.661,3.09,1.299,4.682,1.865C243.99,457.573,254.491,461.505,263.379,461.949
								L263.379,461.949z M297.557,417.245c-0.003,0.698,0.003,1.401-0.067,2.099c-0.046,0.698-0.155,1.396-0.291,2.083
								c-0.129,0.694-0.321,1.376-0.536,2.048l-0.372,0.996l-0.447,0.97c-0.333,0.634-0.705,1.247-1.132,1.831
								c-0.447,0.57-0.935,1.116-1.503,1.592c-0.577,0.46-1.195,0.897-1.91,1.167c-0.337,0.165-0.737,0.259-1.132,0.352
								c-0.401,0.1-0.699,0.088-1.054,0.135c-0.876-0.017-1.586-0.113-2.324-0.405c-0.734-0.247-1.381-0.665-1.986-1.114
								c-0.599-0.462-1.112-1.005-1.588-1.572c-0.454-0.581-0.861-1.194-1.221-1.834l-0.49-0.975l-0.416-1.008
								c-0.04-0.117-0.077-0.235-0.117-0.354c-0.043,0.14-0.082,0.277-0.127,0.414l-0.393,1.03l-0.472,1.007
								c-0.348,0.656-0.743,1.294-1.195,1.905c-0.471,0.599-0.989,1.17-1.597,1.67c-0.616,0.485-1.279,0.951-2.055,1.234
								c-0.357,0.167-0.811,0.274-1.256,0.368c-0.496,0.103-0.623,0.076-1.173,0.129c-0.834-0.031-1.68-0.146-2.44-0.466
								c-0.783-0.275-1.462-0.726-2.093-1.207c-0.622-0.491-1.158-1.059-1.645-1.652c-0.47-0.606-0.884-1.242-1.25-1.902
								l-0.499-1.006l-0.196-0.483c-0.353,0.898-0.778,1.777-1.305,2.617c-0.491,0.724-1.019,1.435-1.683,2.056
								c-0.63,0.646-1.42,1.172-2.261,1.606c-0.457,0.182-0.857,0.389-1.418,0.497c-0.243,0.051-0.578,0.143-0.749,0.146
								l-0.583,0.047l-0.264,0.01l-0.183-0.017l-0.368-0.032c-0.246-0.021-0.492-0.05-0.723-0.133
								c-0.477-0.115-0.925-0.302-1.335-0.543c-0.43-0.208-0.77-0.535-1.137-0.802c-0.316-0.322-0.656-0.616-0.926-0.957
								c-0.573-0.653-1.067-1.33-1.499-2.038c-0.436-0.705-0.761-1.46-1.074-2.206l-0.399-1.146l-0.315-1.162l-0.243-1.174
								l-0.162-1.185c-0.072-0.805-0.112-1.602-0.098-2.374c0.003-0.224,0.006-0.444,0.009-0.666
								c-0.003-0.199-0.012-0.4-0.009-0.596c0.007-0.718,0.019-1.428,0.026-2.135c-0.004-0.43-0.014-0.856-0.034-1.289
								c-0.001-0.053,0.012-0.101,0.033-0.146c-0.006-0.371-0.016-0.742-0.033-1.115c-0.008-0.178,0.361-0.326,0.537-0.335
								c0.176-0.009,0.565,0.129,0.565,0.305v0.029c0,0.386-0.012,0.773-0.018,1.16c0.007,0.024,0.018,0.047,0.018,0.073v0.029
								c0,0.55-0.254,1.101-0.256,1.652c0.007,0.586-0.098,1.172-0.082,1.751c0.033,0.789,0.066,1.543,0.18,2.286l0.198,1.12
								l0.284,1.101c0.231,0.722,0.517,1.417,0.846,2.091c0.346,0.664,0.738,1.297,1.193,1.87c0.453,0.571,0.951,1.11,1.548,1.481
								c0.585,0.39,1.225,0.639,1.838,0.759c0.568,0.171,1.257,0.158,1.662,0.18l0.581-0.043c0.219-0.008,0.254-0.064,0.392-0.084
								c0.211-0.022,0.512-0.17,0.781-0.265c0.533-0.277,1.075-0.597,1.539-1.065c0.486-0.431,0.897-0.975,1.294-1.528
								c0.37-0.582,0.708-1.191,0.988-1.842c0.276-0.647,0.513-1.322,0.697-2.015c0.188-0.692,0.323-1.401,0.422-2.115
								c0.097-0.718,0.135-1.441,0.157-2.168c-0.03-0.727,0.539-1.342,1.266-1.368c0.726-0.029,1.074,0.539,1.101,1.267
								l-0.264,0.047v0.055c0,0.641,0.283,1.281,0.36,1.916c0.051,0.637,0.294,1.269,0.425,1.889
								c0.128,0.625,0.377,1.23,0.573,1.831l0.373,0.88l0.418,0.845c0.294,0.548,0.629,1.068,0.992,1.558
								c0.379,0.472,0.786,0.91,1.234,1.278c0.455,0.353,0.928,0.683,1.444,0.865c0.503,0.23,1.039,0.294,1.571,0.336
								c0.127-0.028,0.697-0.023,0.866-0.091c0.225-0.062,0.447-0.089,0.715-0.213c0.52-0.175,1.01-0.493,1.479-0.837
								c0.463-0.358,0.884-0.796,1.277-1.264c0.38-0.484,0.725-1.005,1.036-1.552l0.43-0.847l0.366-0.886
								c0.215-0.604,0.416-1.216,0.562-1.846c0.149-0.628,0.277-1.268,0.347-1.914c0.091-0.645,0.109-1.297,0.141-1.949
								c-0.021-0.529,0.125-0.979,0.653-1.003c0.53-0.025,0.737,0.386,0.737,0.917v0.057v0.029c0,0.652,0.275,1.307,0.351,1.956
								c0.047,0.649,0.287,1.296,0.419,1.932c0.127,0.643,0.374,1.266,0.574,1.882l0.375,0.909l0.425,0.876
								c0.303,0.569,0.646,1.11,1.022,1.625l0.614,0.72c0.228,0.208,0.441,0.445,0.679,0.64c0.48,0.383,0.987,0.746,1.55,0.958
								c0.525,0.256,1.198,0.337,1.686,0.395c0.324-0.031,0.724-0.014,0.988-0.084c0.271-0.064,0.545-0.103,0.835-0.232
								c0.583-0.188,1.113-0.532,1.624-0.903c0.501-0.385,0.951-0.849,1.374-1.344c0.403-0.51,0.771-1.052,1.1-1.625l0.452-0.883
								l0.386-0.918c0.227-0.627,0.442-1.26,0.602-1.91c0.161-0.649,0.304-1.309,0.38-1.978c0.103-0.667,0.131-1.341,0.171-2.017
								l0.002-0.021c0.011-0.177,0.161-0.312,0.337-0.303c0.172,0.012,0.303,0.153,0.302,0.323
								c-0.002,0.393-0.005,0.785-0.016,1.178C297.548,417.188,297.557,417.216,297.557,417.245L297.557,417.245z M303.726,394.606
								c-0.025,0.784-0.123,1.564-0.23,2.345c-0.124,0.777-0.274,1.55-0.475,2.316c-0.209,0.765-0.435,1.525-0.736,2.266
								c-0.289,0.741-0.628,1.472-1.044,2.169c-0.395,0.704-0.882,1.369-1.438,1.988c-0.264,0.319-0.606,0.578-0.91,0.867
								c-0.356,0.237-0.682,0.521-1.082,0.707l-0.591,0.287c-0.211,0.083-0.453,0.141-0.68,0.211
								c-0.501,0.163-0.811,0.129-1.215,0.192c-0.37-0.01-0.489-0.029-0.749-0.049c-0.228-0.004-0.446-0.054-0.663-0.118
								c-0.444-0.093-0.855-0.26-1.253-0.459c-0.409-0.178-0.745-0.45-1.115-0.681c-0.316-0.282-0.674-0.54-0.953-0.854
								c-0.588-0.606-1.109-1.264-1.539-1.965c-0.449-0.692-0.822-1.42-1.146-2.165c-0.303-0.668-0.543-1.355-0.765-2.048
								c-0.211,0.713-0.439,1.425-0.734,2.115c-0.31,0.762-0.671,1.507-1.113,2.224c-0.421,0.721-0.936,1.404-1.525,2.041
								c-0.284,0.327-0.646,0.602-0.97,0.903c-0.378,0.25-0.726,0.54-1.152,0.739l-0.634,0.301c-0.229,0.091-0.499,0.157-0.75,0.226
								l-0.387,0.097c-0.116,0.023-0.197,0.023-0.295,0.038l-0.574,0.219l-0.124,0.162h-0.011l-0.021-0.161l-0.045-0.084
								l-0.091-0.048l-0.182-0.035l-0.364-0.044c-0.244-0.012-0.479-0.07-0.707-0.141c-0.476-0.106-0.91-0.294-1.327-0.509
								c-0.431-0.193-0.78-0.484-1.164-0.734c-0.325-0.298-0.69-0.574-0.976-0.898c-0.6-0.634-1.124-1.316-1.553-2.038
								c-0.448-0.714-0.817-1.463-1.133-2.222c-0.234-0.532-0.423-1.077-0.6-1.624c-0.177,0.544-0.367,1.086-0.599,1.617
								c-0.321,0.757-0.689,1.501-1.14,2.212c-0.43,0.718-0.954,1.4-1.553,2.029c-0.286,0.325-0.649,0.599-0.977,0.893
								c-0.381,0.247-0.729,0.534-1.158,0.726l-0.634,0.296c-0.229,0.089-0.498,0.148-0.748,0.217
								c-0.615,0.165-0.733,0.107-1.358,0.172c-0.959-0.051-1.921-0.26-2.726-0.718c-0.424-0.192-0.767-0.484-1.144-0.734
								c-0.319-0.299-0.679-0.57-0.96-0.897c-0.586-0.634-1.098-1.315-1.518-2.033c-0.439-0.712-0.797-1.455-1.105-2.212
								c-0.319-0.755-0.565-1.528-0.788-2.308c-0.001-0.003-0.001-0.008-0.003-0.01c-0.234,0.762-0.49,1.516-0.817,2.251
								c-0.316,0.746-0.685,1.476-1.129,2.169c-0.423,0.701-0.939,1.362-1.52,1.969c-0.279,0.312-0.631,0.573-0.947,0.856
								c-0.367,0.236-0.704,0.512-1.114,0.688l-0.605,0.273c-0.213,0.083-0.46,0.136-0.69,0.197
								c-0.541,0.154-0.743,0.104-1.294,0.163c-0.898-0.057-1.801-0.251-2.56-0.69c-0.4-0.187-0.728-0.469-1.084-0.706
								c-0.308-0.286-0.647-0.547-0.917-0.864c-0.561-0.614-1.06-1.271-1.456-1.98c-0.416-0.695-0.755-1.431-1.045-2.173
								c-0.304-0.74-0.531-1.504-0.741-2.268c-0.157-0.599-0.279-1.204-0.383-1.811c0-0.006,0.206-0.011,0.205-0.018l1.057,0.357
								c0.232,0.713,0.481,1.42,0.796,2.095c0.301,0.68,0.646,1.336,1.051,1.944c0.391,0.616,0.838,1.188,1.333,1.696
								c0.235,0.267,0.523,0.464,0.779,0.699c0.292,0.174,0.561,0.403,0.868,0.527c0.591,0.325,1.238,0.423,1.869,0.459
								c0.207-0.049,0.796-0.046,0.984-0.165c0.138-0.051,0.27-0.074,0.415-0.134l0.44-0.218c0.296-0.134,0.554-0.368,0.838-0.543
								c0.247-0.243,0.525-0.44,0.751-0.71c0.473-0.515,0.906-1.083,1.266-1.706c0.378-0.612,0.695-1.272,0.97-1.95
								c0.285-0.674,0.508-1.377,0.712-2.086c0.198-0.713,0.354-1.436,0.481-2.167c0.109-0.734,0.482-1.469,0.521-2.212
								c0.074-0.739,0.342-1.485,0.342-2.229v-0.016c0-0.539,0.169-0.981,0.703-0.995c0.537-0.012,0.751,0.412,0.751,0.951v0.06
								c0,0.178,0,0.356,0.006,0.534c0.119,0.158,0.198,0.342,0.203,0.557l-0.006,0.061c0.034,0.742,0.039,1.487,0.127,2.225
								c0.045,0.616,0.142,1.224,0.244,1.832c0.104,0.459,0.215,0.915,0.351,1.366c0.215,0.698,0.446,1.394,0.743,2.054
								c0.284,0.667,0.611,1.311,0.993,1.906c0.366,0.607,0.801,1.154,1.268,1.644c0.226,0.256,0.496,0.439,0.738,0.667
								c0.272,0.16,0.523,0.382,0.808,0.496c0.546,0.308,1.132,0.391,1.706,0.429c0.134-0.041,0.806-0.043,0.921-0.149
								c0.117-0.046,0.227-0.062,0.355-0.113l0.411-0.199c0.28-0.117,0.525-0.34,0.792-0.502c0.235-0.231,0.5-0.418,0.72-0.675
								c0.456-0.492,0.879-1.041,1.235-1.648c0.37-0.597,0.684-1.238,0.957-1.904c0.286-0.658,0.506-1.353,0.712-2.05
								c0.199-0.701,0.355-1.415,0.484-2.136c0.113-0.725,0.232-1.45,0.276-2.186c0.077-0.733,0.07-1.472,0.098-2.207
								c-0.023-0.675,0.76-1.236,1.432-1.258c0.671-0.022,1.516,0.505,1.516,1.179v0.068v0.01c0,0.14-0.106,0.279-0.104,0.419
								c0.129,0.187,0.104,0.409,0.104,0.654v0.068v0.011c0,0.735-0.122,1.471-0.041,2.205c0.042,0.695,0.082,1.382,0.19,2.069
								c0.083,0.369,0.14,0.736,0.244,1.101c0.207,0.693,0.412,1.385,0.698,2.043c0.274,0.663,0.582,1.306,0.955,1.896
								c0.355,0.607,0.775,1.15,1.229,1.638c0.219,0.257,0.481,0.439,0.717,0.669c0.267,0.162,0.51,0.382,0.786,0.498
								c0.271,0.138,0.544,0.26,0.824,0.316c0.141,0.048,0.278,0.084,0.422,0.084l0.211,0.019l0.105,0.011l0.054-0.248l0.024-0.253
								h0.01l0.484,0.217c0.09-0.012,0.203,0.114,0.275,0.098l0.171,0.002c0.115-0.039,0.226-0.021,0.355-0.067l0.41-0.177
								c0.279-0.112,0.527-0.322,0.796-0.481c0.239-0.227,0.509-0.404,0.732-0.66c0.464-0.486,0.894-1.027,1.259-1.633
								c0.38-0.59,0.703-1.231,0.986-1.896c0.294-0.657,0.525-1.35,0.739-2.047c0.208-0.703,0.377-1.416,0.516-2.141
								c0.121-0.726,0.25-1.455,0.304-2.193c0.086-0.736,0.091-1.479,0.123-2.22c-0.022-0.579,0.41-1.066,0.987-1.088
								c0.575-0.022,1.069,0.426,1.069,1.007v0.063v0.018c0,0.166-0.107,0.332-0.104,0.498c0.12,0.163,0.104,0.353,0.104,0.571
								v0.062v0.021c0,0.74,0.145,1.482,0.219,2.22c0.041,0.741,0.225,1.475,0.331,2.206c0.003,0.015,0.04,0.03,0.043,0.047
								c0.069,0.321,0.161,0.646,0.247,0.964c0.199,0.706,0.422,1.412,0.703,2.086c0.267,0.677,0.583,1.337,0.954,1.951
								c0.355,0.626,0.784,1.194,1.25,1.712c0.225,0.271,0.5,0.471,0.746,0.713c0.279,0.179,0.538,0.415,0.836,0.548
								c0.54,0.344,1.277,0.458,1.765,0.524c0.356-0.044,0.837-0.024,1.064-0.133c0.141-0.045,0.279-0.066,0.428-0.118l0.451-0.205
								c0.31-0.125,0.579-0.354,0.869-0.526c0.26-0.235,0.546-0.434,0.787-0.695c0.499-0.505,0.96-1.069,1.35-1.688
								c0.406-0.612,0.751-1.271,1.054-1.95c0.313-0.675,0.564-1.382,0.798-2.098c0.227-0.717,0.41-1.448,0.564-2.188
								c0.137-0.745,0.058-1.489,0.13-2.243c0.108-0.755-0.045-1.514-0.045-2.276v-0.023c0-0.193,0.402-0.338,0.597-0.326
								c0.185,0.013,0.438,0.166,0.438,0.349c-0.001,0.276,0.059,0.552,0.06,0.828c0.133,0.05,0.255,0.175,0.256,0.324
								C303.751,393.042,303.788,393.825,303.726,394.606L303.726,394.606z"/>
							<path id="Shape_69_" fill="#49B7C8" d="M306.967,453.145c-4.608-5.869-8.285-10.513-8.69-10.905l-6.104,4.812l-6.263,4.938
								c0.23,0.395,2.681,3.533,6.069,7.826c4.831-1.225,9.494-2.875,13.948-4.91C306.286,454.329,306.632,453.742,306.967,453.145
								L306.967,453.145z"/>
							<path id="Shape_70_" fill="#49B7C8" d="M235.495,401.604v-0.002c-1.09,0.416-0.876,0.678-0.876,0.678l-1.087-1.768
								c-1.218,1.669-2.393,3.356-3.359,5.057l0.517,3.342C231.964,406.377,232.95,403.93,235.495,401.604L235.495,401.604z"/>
							<path id="Shape_71_" fill="#49B7C8" d="M233.343,400.511l0.895,1.769c0,0,0.189-0.263,0.497-0.678l-0.799-1.876
								C233.736,399.989,233.534,400.25,233.343,400.511L233.343,400.511z"/>
							<path id="Shape_72_" fill="#49B7C8" d="M230.838,392.461l4.587,2.877l-4.794-9.728c-0.536,0.475-1.06,0.955-1.573,1.439
								l0.078,1.417L230.838,392.461L230.838,392.461z"/>
							<path id="Shape_74_" fill="#49B7C8" d="M232.125,402.152c-0.645,0.961-1.085,1.979-1.648,2.949
								c-0.08,0.138-0.072,0.328-0.072,0.466v0.002c0.364-1.699,1.809-3.082,3.026-5.268h-0.045
								C232.963,401.394,232.516,401.569,232.125,402.152L232.125,402.152z"/>
							<path id="Shape_75_" fill="#49B7C8" d="M232.125,402.258l-2.309-1.448l0.206,3.756l0.292,0.589
								C230.876,404.183,231.48,403.219,232.125,402.258L232.125,402.258z"/>
							<polygon id="Shape_76_" fill="#49B7C8" points="229.136,388.465 229.302,391.497 230.838,392.461 							"/>
							<path id="Shape_77_" fill="#49B7C8" d="M234.04,399.726c0,0.261-0.454,0.522-0.646,0.785h0.027
								C233.614,400.249,234.04,399.989,234.04,399.726L234.04,399.726L234.04,399.726z"/>
							<path id="Shape_78_" fill="#49B7C8" d="M236.206,396.922l-0.78-1.584l-4.588-2.877l3.097,7.266
								C234.648,398.783,235.405,397.849,236.206,396.922L236.206,396.922z"/>
							<path id="Shape_79_" fill="#49B7C8" d="M233.343,400.511l-3.976-7.848l0.449,8.146l2.309,1.448
								C232.516,401.674,232.919,401.091,233.343,400.511L233.343,400.511z"/>
							<path id="Shape_80_" fill="#49B7C8" d="M233.343,400.511c0.191-0.263,0.393-0.524,0.592-0.785l-3.097-7.266l-1.535-0.964
								l0.064,1.167L233.343,400.511L233.343,400.511z"/>
							<path id="Shape_82_" fill="#49B7C8" d="M207.076,431.332c-0.049,0.33-0.095,0.661-0.138,0.991l0.897-0.062
								C207.581,431.953,207.328,431.643,207.076,431.332L207.076,431.332z"/>
							<path id="Shape_84_" fill="#49B7C8" d="M235.814,330.824c-9.974,0-18.089,8.132-18.089,18.129
								c0,9.994,8.115,18.127,18.089,18.127s18.09-8.133,18.09-18.127C253.904,338.956,245.788,330.824,235.814,330.824"/>
							<path id="Shape_85_" fill="#33A7B8" d="M235.814,336.239c7.556,0,13.681,6.137,13.681,13.708
								c0,7.569-6.125,13.708-13.681,13.708c-7.555,0-13.68-6.138-13.68-13.708C222.134,342.376,228.259,336.239,235.814,336.239"/>
							<path id="Shape_86_" fill="#33A7B8" d="M309.828,336.239c7.558,0,13.682,6.137,13.682,13.708
								c0,7.569-6.124,13.708-13.682,13.708c-7.554,0-13.679-6.138-13.679-13.708C296.15,342.376,302.274,336.239,309.828,336.239"
								/>
							
								<rect id="Rectangle-path_4_" x="315.848" y="373.072" transform="matrix(0.9988 0.0481 -0.0481 0.9988 18.8952 -14.7766)" fill="#4F2324" width="1.788" height="24.972"/>
							
								<rect id="Rectangle-path_5_" x="215.945" y="390.643" transform="matrix(0.0479 0.9989 -0.9989 0.0479 608.5538 144.6329)" fill="#4F2324" width="24.926" height="1.794"/>
							<g id="Shape_87_" transform="translate(24.000000, 70.644172)">
								<path fill="#FACF18" d="M211.814,266.105c6.727,0,12.181,5.463,12.181,12.204c0,6.74-5.454,12.205-12.181,12.205
									c-6.726,0-12.179-5.465-12.179-12.205C199.635,271.567,205.089,266.105,211.814,266.105"/>
								<path fill="#4F2324" d="M211.814,291.186c-7.085,0-12.85-5.778-12.85-12.877c0-7.101,5.765-12.877,12.85-12.877
									c7.086,0,12.85,5.776,12.85,12.877C224.665,285.408,218.9,291.186,211.814,291.186L211.814,291.186z M211.814,266.775
									c-6.346,0-11.508,5.173-11.508,11.534c0,6.359,5.163,11.532,11.508,11.532c6.348,0,11.509-5.172,11.509-11.532
									C223.323,271.948,218.162,266.775,211.814,266.775L211.814,266.775z"/>
							</g>
							<g id="Shape_88_" transform="translate(126.000000, 70.644172)">
								<path fill="#FACF18" d="M184.137,266.105c6.728,0,12.178,5.463,12.178,12.204c0,6.74-5.451,12.205-12.178,12.205
									c-6.729,0-12.18-5.465-12.18-12.205C171.957,271.567,177.408,266.105,184.137,266.105"/>
								<path fill="#4F2324" d="M184.137,291.186c-7.086,0-12.851-5.778-12.851-12.877c0-7.101,5.765-12.877,12.851-12.877
									c7.085,0,12.85,5.776,12.85,12.877C196.987,285.408,191.222,291.186,184.137,291.186L184.137,291.186z M184.137,266.775
									c-6.347,0-11.51,5.173-11.51,11.534c0,6.359,5.163,11.532,11.51,11.532c6.346,0,11.507-5.172,11.507-11.532
									C195.644,271.948,190.483,266.775,184.137,266.775L184.137,266.775z"/>
							</g>
							<path id="Shape_89_" fill="#33A7B8" d="M227.844,332.534c0,0,8.711-14.187,18.609,1.049
								C246.453,333.584,238.46,325.968,227.844,332.534L227.844,332.534z"/>
							<path id="Shape_90_" fill="#4F2324" d="M245.95,333.811c-0.158,0-0.317-0.056-0.445-0.17
								c-7.562-6.735-16.363-1.149-16.734-0.908c-0.31,0.2-0.726,0.114-0.927-0.197c-0.203-0.31-0.116-0.726,0.196-0.929
								c0.099-0.064,10.022-6.395,18.357,1.031c0.277,0.246,0.301,0.671,0.056,0.949C246.32,333.734,246.136,333.811,245.95,333.811
								L245.95,333.811z"/>
							<path id="Shape_91_" fill="#33A7B8" d="M272.559,286.196c0,0,39.581,10.271,27.356,44.926c0,0,9.99-3.362,19.007,1.866
								C318.922,332.989,318.737,289.894,272.559,286.196L272.559,286.196z"/>
							<path id="Shape_92_" fill="#4F2324" d="M298.619,333.811c-0.184,0-0.37-0.077-0.502-0.227
								c-0.245-0.277-0.22-0.702,0.058-0.949c8.333-7.425,18.257-1.094,18.355-1.03c0.311,0.203,0.397,0.619,0.195,0.929
								c-0.201,0.311-0.618,0.398-0.927,0.197c-0.371-0.241-9.172-5.828-16.734,0.908
								C298.938,333.754,298.778,333.811,298.619,333.811L298.619,333.811z"/>
							<g transform="translate(39.000000, 77.157464)">
								<path id="Shape_93_" fill="#4F2324" d="M196.814,279.576c-1.167,0-2.111-0.947-2.111-2.114v-11.333
									c0-1.169,0.944-2.115,2.111-2.115s2.11,0.947,2.11,2.115v11.333C198.925,278.629,197.98,279.576,196.814,279.576"/>
								<ellipse id="Oval" fill="#FFFFFF" cx="200.388" cy="266.421" rx="2.684" ry="2.684"/>
							</g>
							<g transform="translate(141.000000, 76.155419)">
								<path id="Shape_94_" fill="#4F2324" d="M169.137,280.578c-1.168,0-2.112-0.947-2.112-2.114V267.13
									c0-1.169,0.944-2.115,2.112-2.115c1.165,0,2.109,0.947,2.109,2.115v11.333C171.246,279.631,170.302,280.578,169.137,280.578
									"/>
								<ellipse id="Oval_1_" fill="#FFFFFF" cx="172.625" cy="266.526" rx="2.684" ry="2.684"/>
							</g>
							<path id="Shape_95_" fill="#33A7B8" d="M271.784,371.076c-7.19,0-13.99-2.676-19.241-7.595
								c-2.702-2.529-2.845-6.772-0.319-9.48c2.523-2.708,6.756-2.85,9.459-0.32c5.98,5.599,15.392,5.28,20.977-0.71
								c2.524-2.706,6.761-2.851,9.46-0.32c2.703,2.531,2.845,6.771,0.319,9.478c-5.132,5.503-12.116,8.674-19.67,8.931
								C272.441,371.073,272.112,371.076,271.784,371.076"/>
							<path id="Shape_96_" fill="#9CD3E3" d="M271.784,369.277c-7.19,0-13.99-2.677-19.241-7.595
								c-2.702-2.528-2.845-6.772-0.319-9.481c2.523-2.706,6.756-2.85,9.459-0.32c5.98,5.599,15.392,5.282,20.977-0.71
								c2.524-2.707,6.761-2.85,9.46-0.32c2.703,2.53,2.845,6.773,0.319,9.48c-5.132,5.503-12.116,8.673-19.67,8.928
								C272.441,369.273,272.112,369.277,271.784,369.277"/>
							<path id="Shape_97_" fill="#7BB4C3" d="M271.809,366.164c-5.817,0-11.644-2.12-16.218-6.403
								c-0.903-0.845-0.95-2.259-0.106-3.161c0.84-0.902,2.25-0.95,3.153-0.106c7.774,7.282,20.013,6.867,27.283-0.925
								c0.842-0.901,2.252-0.95,3.154-0.106c0.9,0.84,0.946,2.257,0.107,3.161C284.508,363.632,278.166,366.164,271.809,366.164"/>
							<path id="Shape_98_" fill="#4F2324" d="M271.809,364.97c-5.817,0-11.644-2.121-16.218-6.405
								c-0.903-0.843-0.95-2.258-0.106-3.161c0.84-0.902,2.25-0.949,3.153-0.107c7.774,7.284,20.013,6.869,27.283-0.923
								c0.842-0.902,2.252-0.95,3.154-0.108c0.9,0.842,0.946,2.258,0.107,3.162C284.508,362.436,278.166,364.97,271.809,364.97"/>
							<g id="Shape_99_" transform="translate(62.000000, 88.680982)">
								<path fill="#33A7B8" d="M209.784,282.395c-7.19,0-13.99-2.676-19.241-7.595c-2.702-2.529-2.845-6.772-0.319-9.48
									c2.523-2.708,6.756-2.85,9.459-0.32c5.98,5.599,15.392,5.28,20.977-0.71c2.524-2.707,6.761-2.851,9.46-0.321
									c2.703,2.531,2.845,6.772,0.319,9.479c-5.132,5.503-12.116,8.674-19.67,8.932
									C210.441,282.392,210.112,282.395,209.784,282.395"/>
								<path fill="#9CD3E3" d="M209.784,280.596c-7.19,0-13.99-2.677-19.241-7.595c-2.702-2.528-2.845-6.773-0.319-9.481
									c2.523-2.706,6.756-2.85,9.459-0.32c5.98,5.599,15.392,5.282,20.977-0.71c2.524-2.707,6.761-2.85,9.46-0.32
									c2.703,2.53,2.845,6.773,0.319,9.48c-5.132,5.503-12.116,8.673-19.67,8.928
									C210.441,280.592,210.112,280.596,209.784,280.596"/>
								<path fill="#7BB4C3" d="M209.809,277.483c-5.817,0-11.644-2.12-16.218-6.403c-0.903-0.845-0.95-2.259-0.106-3.161
									c0.84-0.902,2.25-0.95,3.153-0.106c7.774,7.282,20.013,6.867,27.283-0.925c0.842-0.901,2.252-0.95,3.154-0.106
									c0.9,0.84,0.946,2.257,0.107,3.161C222.508,274.951,216.166,277.483,209.809,277.483"/>
								<path fill="#4F2324" d="M209.809,276.289c-5.817,0-11.644-2.121-16.218-6.405c-0.903-0.843-0.95-2.258-0.106-3.161
									c0.84-0.902,2.25-0.949,3.153-0.107c7.774,7.284,20.013,6.869,27.283-0.923c0.842-0.902,2.252-0.95,3.154-0.108
									c0.9,0.842,0.946,2.258,0.107,3.162C222.508,273.755,216.166,276.289,209.809,276.289"/>
							</g>
							<rect id="Rectangle-path_6_" x="233.313" y="384.633" fill="#49B7C8" width="76.726" height="48.825"/>
							<g id="Shape_100_" transform="translate(44.000000, 144.795501)">
								<path fill="#33A7B8" d="M204.567,268.109c-0.066,1.559-0.038,3.137,0.007,4.678c0.035,0.791,0.124,1.55,0.237,2.294
									l0.227,1.124l0.3,1.103c0.232,0.725,0.525,1.423,0.854,2.099c0.348,0.666,0.746,1.3,1.201,1.875
									c0.455,0.573,0.955,1.113,1.555,1.487c0.587,0.39,1.229,0.639,1.842,0.76c0.57,0.171,1.263,0.161,1.669,0.181l0.582-0.043
									c0.22-0.008,0.256-0.064,0.395-0.084c0.211-0.022,0.513-0.171,0.785-0.266c0.534-0.278,1.076-0.598,1.541-1.069
									c0.487-0.432,0.9-0.977,1.298-1.534c0.371-0.582,0.71-1.194,0.991-1.846c0.278-0.651,0.515-1.327,0.7-2.021
									c0.188-0.693,0.324-1.404,0.423-2.122c0.097-0.72,0.135-1.446,0.158-2.173h2.64c0.017,0.641,0.019,1.283,0.096,1.92
									c0.051,0.64,0.163,1.271,0.294,1.895c0.129,0.627,0.312,1.233,0.51,1.838l0.341,0.882l0.403,0.847
									c0.295,0.552,0.623,1.072,0.985,1.563c0.38,0.471,0.785,0.913,1.233,1.281c0.456,0.354,0.93,0.686,1.445,0.869
									c0.506,0.231,1.042,0.294,1.576,0.337c0.128-0.028,0.7-0.023,0.869-0.091c0.225-0.063,0.448-0.09,0.716-0.214
									c0.523-0.176,1.013-0.494,1.483-0.841c0.465-0.358,0.887-0.796,1.283-1.267c0.381-0.486,0.728-1.008,1.04-1.557l0.429-0.85
									l0.368-0.889c0.215-0.604,0.417-1.219,0.563-1.851c0.15-0.631,0.277-1.271,0.347-1.921c0.092-0.646,0.112-1.301,0.144-1.955
									h1.922c0.015,0.654,0.013,1.311,0.086,1.963c0.049,0.651,0.157,1.3,0.289,1.938c0.127,0.644,0.311,1.27,0.511,1.887
									l0.344,0.913l0.409,0.878c0.304,0.57,0.64,1.114,1.016,1.63l0.612,0.724c0.229,0.208,0.439,0.448,0.679,0.641
									c0.481,0.384,0.989,0.748,1.554,0.959c0.527,0.261,1.201,0.341,1.689,0.398c0.325-0.031,0.726-0.015,0.99-0.086
									c0.273-0.063,0.549-0.103,0.84-0.232c0.584-0.188,1.116-0.532,1.627-0.905c0.505-0.386,0.955-0.851,1.38-1.347
									c0.403-0.511,0.771-1.056,1.103-1.631l0.454-0.885l0.387-0.921c0.227-0.629,0.444-1.264,0.604-1.917
									c0.162-0.65,0.303-1.313,0.38-1.983c0.103-0.668,0.134-1.346,0.172-2.022l0.002-0.021c0.011-0.177,0.163-0.312,0.34-0.303
									c0.171,0.01,0.304,0.154,0.302,0.324c-0.004,0.701,0.004,1.404-0.067,2.105c-0.047,0.699-0.157,1.398-0.293,2.089
									c-0.128,0.695-0.321,1.379-0.537,2.054l-0.373,1l-0.45,0.973c-0.333,0.635-0.708,1.25-1.136,1.837
									c-0.447,0.571-0.936,1.118-1.505,1.597c-0.58,0.462-1.201,0.899-1.917,1.171c-0.337,0.165-0.738,0.258-1.136,0.353
									c-0.401,0.099-0.701,0.087-1.057,0.136c-0.88-0.019-1.591-0.115-2.33-0.409c-0.737-0.247-1.386-0.666-1.993-1.116
									c-0.6-0.462-1.116-1.008-1.594-1.577c-0.455-0.584-0.862-1.199-1.223-1.839l-0.492-0.979l-0.417-1.01
									c-0.243-0.687-0.468-1.376-0.63-2.084c-0.167-0.704-0.307-1.416-0.385-2.137c-0.101-0.716-0.122-1.438-0.155-2.161
									c-0.022-0.531,0.387-0.983,0.919-1.007c0.53-0.024,0.979,0.388,1.003,0.92l0.002,0.056l-0.002,0.029
									c-0.011,0.723-0.015,1.448-0.095,2.17c-0.055,0.723-0.176,1.443-0.326,2.154c-0.142,0.718-0.349,1.42-0.578,2.118
									l-0.392,1.035l-0.476,1.01c-0.347,0.657-0.744,1.298-1.198,1.912c-0.472,0.598-0.993,1.169-1.601,1.673
									c-0.619,0.487-1.284,0.953-2.062,1.238c-0.358,0.168-0.812,0.274-1.259,0.369c-0.498,0.103-0.626,0.076-1.177,0.129
									c-0.835-0.031-1.685-0.146-2.447-0.469c-0.785-0.275-1.466-0.727-2.098-1.207c-0.624-0.494-1.162-1.063-1.652-1.659
									c-0.47-0.608-0.886-1.246-1.252-1.908l-0.5-1.009l-0.421-1.039c-0.246-0.703-0.471-1.41-0.631-2.134
									c-0.165-0.72-0.303-1.446-0.377-2.181c-0.097-0.732-0.118-1.468-0.144-2.202c-0.03-0.731,0.539-1.346,1.268-1.373
									c0.729-0.028,1.343,0.54,1.371,1.271l0.001,0.046v0.057c0.001,3.328-0.714,6.731-2.574,9.696
									c-0.493,0.726-1.02,1.438-1.688,2.061c-0.632,0.647-1.425,1.176-2.27,1.613c-0.457,0.181-0.86,0.389-1.423,0.497
									c-0.244,0.052-0.58,0.141-0.75,0.146l-0.583,0.048l-0.265,0.009l-0.184-0.016l-0.369-0.032
									c-0.247-0.021-0.493-0.052-0.725-0.134c-0.479-0.115-0.929-0.304-1.34-0.545c-0.431-0.209-0.773-0.537-1.139-0.804
									c-0.317-0.324-0.658-0.619-0.928-0.96c-0.575-0.656-1.072-1.335-1.504-2.045c-0.437-0.708-0.764-1.465-1.077-2.212
									l-0.4-1.149l-0.316-1.166l-0.245-1.178l-0.162-1.189c-0.073-0.806-0.114-1.604-0.099-2.38
									c0.015-1.584,0.064-3.132-0.007-4.7c-0.01-0.178,0.129-0.328,0.306-0.337c0.177-0.008,0.327,0.131,0.337,0.308
									C204.567,268.088,204.567,268.101,204.567,268.109"/>
								<path fill="#33A7B8" d="M194.401,247.476c0.053,0.771,0.081,1.555,0.19,2.296c0.075,0.749,0.228,1.502,0.373,2.243
									c0.168,0.74,0.349,1.471,0.574,2.189c0.233,0.715,0.483,1.425,0.8,2.103c0.303,0.681,0.647,1.34,1.053,1.951
									c0.393,0.618,0.841,1.188,1.336,1.7c0.237,0.268,0.526,0.464,0.783,0.701c0.292,0.175,0.562,0.404,0.872,0.529
									c0.591,0.327,1.24,0.424,1.874,0.459c0.209-0.049,0.799-0.045,0.988-0.165c0.139-0.05,0.271-0.074,0.416-0.132l0.442-0.22
									c0.298-0.134,0.558-0.368,0.841-0.544c0.248-0.244,0.525-0.443,0.754-0.713c0.474-0.516,0.908-1.086,1.27-1.712
									c0.377-0.614,0.696-1.276,0.972-1.956c0.286-0.675,0.51-1.381,0.714-2.092c0.199-0.715,0.354-1.44,0.483-2.174
									c0.11-0.735,0.226-1.473,0.266-2.217c0.074-0.743,0.067-1.492,0.086-2.236h1.943c0.032,0.744,0.039,1.492,0.128,2.23
									c0.054,0.744,0.183,1.478,0.306,2.209c0.142,0.728,0.311,1.445,0.521,2.153c0.216,0.701,0.449,1.399,0.747,2.062
									c0.285,0.665,0.613,1.314,0.996,1.91c0.368,0.609,0.804,1.157,1.273,1.647c0.227,0.258,0.498,0.442,0.741,0.672
									c0.272,0.159,0.524,0.382,0.81,0.496c0.549,0.31,1.136,0.392,1.71,0.431c0.135-0.042,0.809-0.043,0.924-0.15
									c0.118-0.046,0.228-0.063,0.358-0.115l0.412-0.198c0.28-0.117,0.527-0.342,0.794-0.505c0.237-0.229,0.503-0.418,0.724-0.676
									c0.458-0.493,0.882-1.043,1.238-1.653c0.372-0.597,0.688-1.243,0.961-1.909c0.285-0.661,0.507-1.357,0.714-2.058
									c0.199-0.703,0.357-1.418,0.486-2.143c0.113-0.728,0.231-1.454,0.275-2.191c0.077-0.735,0.069-1.476,0.098-2.213h2.44
									c0.023,0.737,0.021,1.479,0.102,2.212c0.044,0.736,0.167,1.465,0.279,2.19c0.133,0.725,0.292,1.439,0.494,2.143
									c0.208,0.697,0.432,1.39,0.717,2.052c0.275,0.663,0.594,1.309,0.967,1.901c0.356,0.609,0.782,1.154,1.238,1.644
									c0.221,0.257,0.485,0.44,0.722,0.669c0.267,0.162,0.512,0.384,0.789,0.501c0.271,0.138,0.546,0.261,0.827,0.317
									c0.139,0.047,0.28,0.083,0.423,0.083l0.212,0.02l0.105,0.011l0.055,0.01l0.026,0.002h0.013l0.007,0.003
									c-0.046,0.001,0.115-0.005-0.104,0.004l0.579-0.049c0.09-0.01,0.203-0.012,0.275-0.028l0.171-0.062
									c0.116-0.04,0.227-0.053,0.357-0.101l0.41-0.191c0.281-0.113,0.53-0.332,0.801-0.494c0.238-0.226,0.509-0.407,0.733-0.665
									c0.465-0.487,0.897-1.032,1.264-1.64c0.379-0.591,0.706-1.236,0.988-1.903c0.296-0.659,0.527-1.355,0.743-2.054
									c0.206-0.706,0.377-1.42,0.516-2.148c0.122-0.728,0.252-1.46,0.304-2.2c0.088-0.737,0.094-1.482,0.125-2.226h2.097
									c0.019,0.743,0.012,1.488,0.087,2.229c0.041,0.741,0.159,1.477,0.268,2.211c0.131,0.729,0.277,1.454,0.471,2.168
									c0.199,0.708,0.415,1.415,0.696,2.091c0.269,0.68,0.582,1.342,0.954,1.957c0.355,0.627,0.784,1.2,1.251,1.719
									c0.226,0.271,0.502,0.472,0.748,0.715c0.28,0.181,0.538,0.416,0.838,0.55c0.541,0.346,1.28,0.46,1.77,0.525
									c0.357-0.043,0.839-0.024,1.067-0.134c0.142-0.044,0.28-0.066,0.428-0.118l0.453-0.206c0.312-0.125,0.582-0.354,0.873-0.526
									c0.26-0.236,0.548-0.435,0.789-0.698c0.5-0.506,0.964-1.071,1.354-1.695c0.405-0.612,0.754-1.272,1.056-1.954
									c0.316-0.677,0.567-1.387,0.802-2.103c0.227-0.721,0.409-1.454,0.565-2.195c0.136-0.748,0.285-1.495,0.357-2.252
									c0.108-0.757,0.132-1.52,0.183-2.281v-0.024c0.012-0.194,0.179-0.338,0.371-0.326c0.186,0.013,0.325,0.167,0.326,0.351
									c-0.001,0.782,0.022,1.569-0.039,2.353c-0.025,0.788-0.13,1.57-0.237,2.353c-0.126,0.779-0.28,1.556-0.481,2.323
									c-0.209,0.768-0.439,1.529-0.74,2.272c-0.289,0.744-0.631,1.477-1.048,2.174c-0.397,0.707-0.886,1.375-1.442,1.995
									c-0.265,0.321-0.609,0.581-0.913,0.872c-0.359,0.236-0.686,0.52-1.086,0.707l-0.594,0.288
									c-0.212,0.084-0.453,0.143-0.682,0.21c-0.501,0.165-0.812,0.129-1.218,0.195c-0.372-0.01-0.492-0.03-0.752-0.049
									c-0.228-0.006-0.446-0.056-0.666-0.119c-0.444-0.093-0.856-0.261-1.256-0.461c-0.41-0.178-0.747-0.45-1.119-0.682
									c-0.318-0.284-0.675-0.542-0.956-0.855c-0.589-0.608-1.11-1.27-1.543-1.972c-0.449-0.695-0.825-1.424-1.149-2.172
									c-0.337-0.743-0.601-1.512-0.843-2.283c-0.236-0.775-0.431-1.56-0.579-2.353c-0.133-0.793-0.271-1.59-0.329-2.392
									c-0.093-0.8-0.101-1.603-0.131-2.406c-0.022-0.58,0.428-1.07,1.007-1.092c0.578-0.022,1.067,0.428,1.089,1.01v0.062v0.02
									c-0.018,0.804-0.015,1.608-0.096,2.408c-0.046,0.806-0.171,1.604-0.291,2.402c-0.142,0.797-0.312,1.588-0.533,2.373
									c-0.227,0.783-0.474,1.562-0.796,2.319c-0.311,0.763-0.673,1.511-1.117,2.229c-0.422,0.722-0.938,1.409-1.531,2.049
									c-0.284,0.327-0.647,0.603-0.972,0.904c-0.379,0.252-0.727,0.543-1.155,0.742l-0.637,0.302
									c-0.229,0.092-0.5,0.158-0.753,0.226l-0.386,0.098c-0.117,0.023-0.197,0.023-0.297,0.038l-0.578,0.058l-0.122,0.003h-0.011
									l-0.022-0.003l-0.046-0.003l-0.091-0.008l-0.182-0.015l-0.364-0.033c-0.245-0.013-0.481-0.067-0.71-0.137
									c-0.479-0.107-0.913-0.292-1.331-0.507c-0.433-0.194-0.783-0.485-1.168-0.736c-0.327-0.298-0.693-0.574-0.979-0.899
									c-0.602-0.637-1.127-1.322-1.558-2.044c-0.451-0.717-0.82-1.467-1.139-2.229c-0.332-0.759-0.588-1.54-0.822-2.323
									c-0.229-0.786-0.406-1.581-0.554-2.379c-0.13-0.803-0.264-1.603-0.318-2.411c-0.088-0.809-0.089-1.615-0.116-2.424
									c-0.022-0.676,0.504-1.24,1.178-1.263c0.674-0.021,1.238,0.507,1.261,1.183v0.069v0.011
									c-0.023,0.809-0.033,1.615-0.121,2.422c-0.056,0.81-0.19,1.61-0.322,2.41c-0.152,0.799-0.333,1.592-0.562,2.376
									c-0.236,0.783-0.494,1.562-0.826,2.32c-0.321,0.76-0.691,1.507-1.143,2.22c-0.432,0.72-0.958,1.404-1.559,2.035
									c-0.287,0.326-0.651,0.6-0.98,0.895c-0.382,0.247-0.731,0.536-1.161,0.729l-0.637,0.295c-0.229,0.09-0.5,0.149-0.749,0.217
									c-0.618,0.167-0.736,0.108-1.363,0.174c-0.963-0.052-1.927-0.26-2.733-0.72c-0.425-0.194-0.771-0.486-1.147-0.737
									c-0.32-0.299-0.681-0.57-0.963-0.898c-0.588-0.636-1.101-1.32-1.522-2.04c-0.441-0.713-0.802-1.46-1.11-2.219
									c-0.319-0.756-0.566-1.532-0.79-2.313c-0.218-0.781-0.387-1.571-0.529-2.368c-0.119-0.796-0.244-1.593-0.29-2.394
									c-0.079-0.799-0.072-1.602-0.091-2.403v-0.018c-0.013-0.54,0.413-0.985,0.949-0.997c0.537-0.012,0.984,0.414,0.996,0.953
									l-0.001,0.062c-0.032,0.8-0.04,1.602-0.133,2.398c-0.061,0.8-0.197,1.593-0.331,2.384c-0.153,0.792-0.335,1.573-0.566,2.348
									c-0.237,0.771-0.494,1.538-0.826,2.283c-0.317,0.746-0.686,1.479-1.131,2.176c-0.424,0.701-0.943,1.365-1.525,1.975
									c-0.28,0.313-0.634,0.574-0.949,0.858c-0.368,0.235-0.705,0.512-1.116,0.688l-0.607,0.274
									c-0.214,0.084-0.462,0.136-0.693,0.198c-0.543,0.155-0.744,0.104-1.297,0.162c-0.901-0.057-1.806-0.251-2.569-0.69
									c-0.4-0.187-0.729-0.469-1.087-0.708c-0.309-0.288-0.649-0.549-0.919-0.867c-0.562-0.616-1.063-1.276-1.461-1.986
									c-0.417-0.698-0.757-1.436-1.048-2.18c-0.304-0.742-0.533-1.508-0.742-2.274c-0.203-0.769-0.36-1.547-0.474-2.329
									c-0.098-0.785-0.201-1.563-0.223-2.361c-0.06-0.798-0.031-1.562-0.029-2.338c0-0.194,0.157-0.352,0.351-0.352
									C194.237,247.147,194.389,247.295,194.401,247.476"/>
								<g opacity="0.75">
									<g>
										<path fill="#9CD3E3" d="M194.171,246.322c0.051,0.771,0.08,1.555,0.189,2.295c0.075,0.75,0.227,1.501,0.372,2.243
											c0.169,0.739,0.35,1.473,0.575,2.189c0.233,0.716,0.483,1.427,0.8,2.103c0.302,0.682,0.647,1.341,1.052,1.949
											c0.393,0.62,0.84,1.192,1.337,1.702c0.236,0.268,0.525,0.465,0.782,0.702c0.292,0.175,0.562,0.403,0.871,0.53
											c0.591,0.326,1.24,0.422,1.874,0.458c0.208-0.049,0.799-0.045,0.987-0.166c0.138-0.05,0.271-0.074,0.416-0.132l0.442-0.22
											c0.299-0.134,0.556-0.368,0.84-0.545c0.249-0.243,0.526-0.441,0.754-0.711c0.474-0.516,0.909-1.087,1.27-1.713
											c0.377-0.613,0.697-1.276,0.972-1.956c0.288-0.675,0.51-1.381,0.714-2.092c0.199-0.716,0.354-1.439,0.483-2.174
											c0.109-0.736,0.226-1.472,0.265-2.218c0.075-0.743,0.067-1.489,0.086-2.236h1.944c0.032,0.747,0.039,1.493,0.127,2.232
											c0.053,0.744,0.183,1.477,0.306,2.208c0.142,0.727,0.31,1.446,0.523,2.154c0.216,0.7,0.448,1.398,0.746,2.06
											c0.285,0.668,0.612,1.316,0.996,1.911c0.368,0.61,0.804,1.159,1.272,1.648c0.227,0.258,0.499,0.441,0.742,0.671
											c0.272,0.161,0.523,0.382,0.81,0.497c0.548,0.309,1.136,0.392,1.71,0.431c0.135-0.041,0.809-0.044,0.924-0.149
											c0.119-0.048,0.228-0.063,0.359-0.116l0.412-0.198c0.28-0.116,0.527-0.342,0.794-0.504
											c0.237-0.232,0.503-0.418,0.724-0.676c0.456-0.494,0.881-1.045,1.238-1.654c0.371-0.598,0.687-1.242,0.96-1.909
											c0.286-0.66,0.507-1.357,0.715-2.057c0.198-0.702,0.355-1.42,0.484-2.143c0.113-0.727,0.233-1.455,0.275-2.192
											c0.078-0.735,0.07-1.475,0.099-2.213h2.441c0.022,0.738,0.021,1.478,0.101,2.212c0.045,0.736,0.167,1.465,0.279,2.19
											c0.133,0.725,0.293,1.44,0.494,2.143c0.208,0.697,0.432,1.39,0.718,2.052c0.275,0.664,0.593,1.309,0.967,1.903
											c0.356,0.606,0.781,1.152,1.238,1.641c0.219,0.258,0.484,0.441,0.722,0.672c0.266,0.161,0.512,0.383,0.789,0.498
											c0.271,0.139,0.545,0.263,0.826,0.318c0.141,0.048,0.28,0.084,0.424,0.084l0.211,0.02l0.106,0.011l0.055,0.009
											l0.025,0.002h0.013l0.006,0.002c-0.045,0.003,0.116-0.004-0.104,0.006l0.58-0.049c0.09-0.009,0.203-0.012,0.276-0.028
											l0.17-0.062c0.116-0.04,0.228-0.054,0.357-0.101l0.411-0.192c0.28-0.113,0.528-0.332,0.799-0.493
											c0.241-0.227,0.51-0.409,0.733-0.665c0.466-0.487,0.898-1.033,1.264-1.641c0.38-0.591,0.707-1.237,0.988-1.903
											c0.296-0.659,0.528-1.354,0.743-2.054c0.208-0.705,0.378-1.42,0.518-2.147c0.121-0.728,0.251-1.461,0.304-2.2
											c0.087-0.737,0.092-1.483,0.124-2.227h2.097c0.019,0.743,0.012,1.489,0.088,2.23c0.041,0.74,0.158,1.477,0.266,2.209
											c0.132,0.729,0.278,1.455,0.472,2.169c0.198,0.708,0.414,1.416,0.695,2.092c0.269,0.679,0.583,1.341,0.954,1.956
											c0.355,0.629,0.784,1.2,1.252,1.719c0.225,0.271,0.501,0.472,0.749,0.715c0.279,0.181,0.536,0.416,0.837,0.55
											c0.541,0.346,1.28,0.46,1.77,0.526c0.357-0.045,0.84-0.025,1.067-0.135c0.142-0.044,0.28-0.066,0.43-0.119l0.452-0.204
											c0.31-0.125,0.58-0.355,0.873-0.529c0.258-0.234,0.547-0.433,0.789-0.697c0.5-0.506,0.962-1.072,1.354-1.694
											c0.405-0.612,0.752-1.274,1.055-1.955c0.316-0.676,0.567-1.387,0.802-2.104c0.227-0.721,0.409-1.453,0.565-2.195
											c0.136-0.746,0.285-1.493,0.358-2.25c0.107-0.757,0.13-1.52,0.181-2.284v-0.023c0.013-0.193,0.18-0.339,0.372-0.326
											c0.185,0.012,0.325,0.165,0.326,0.349c-0.002,0.785,0.022,1.57-0.038,2.354c-0.025,0.788-0.131,1.569-0.239,2.352
											c-0.124,0.78-0.279,1.558-0.48,2.324c-0.209,0.767-0.438,1.528-0.74,2.271c-0.29,0.744-0.631,1.478-1.048,2.176
											c-0.396,0.706-0.885,1.373-1.442,1.994c-0.265,0.32-0.609,0.581-0.913,0.871c-0.358,0.238-0.687,0.521-1.086,0.708
											l-0.594,0.289c-0.21,0.084-0.453,0.144-0.681,0.21c-0.503,0.165-0.813,0.129-1.218,0.195
											c-0.373-0.01-0.493-0.03-0.753-0.05c-0.229-0.005-0.446-0.057-0.665-0.119c-0.445-0.092-0.857-0.262-1.257-0.46
											c-0.41-0.178-0.746-0.45-1.119-0.684c-0.317-0.284-0.674-0.541-0.956-0.855c-0.59-0.607-1.111-1.268-1.543-1.971
											c-0.45-0.693-0.825-1.424-1.15-2.172c-0.337-0.743-0.601-1.511-0.843-2.284c-0.235-0.774-0.432-1.559-0.579-2.352
											c-0.132-0.793-0.27-1.59-0.328-2.393c-0.094-0.799-0.101-1.602-0.132-2.406c-0.021-0.58,0.427-1.07,1.007-1.091
											c0.579-0.023,1.068,0.428,1.09,1.009v0.065v0.018c-0.019,0.804-0.014,1.61-0.097,2.411
											c-0.045,0.805-0.17,1.601-0.291,2.402c-0.141,0.796-0.311,1.586-0.532,2.373c-0.226,0.781-0.475,1.561-0.796,2.318
											c-0.312,0.763-0.674,1.511-1.116,2.228c-0.423,0.724-0.939,1.41-1.532,2.049c-0.284,0.327-0.646,0.603-0.972,0.905
											c-0.379,0.251-0.728,0.542-1.155,0.741l-0.637,0.303c-0.229,0.091-0.5,0.158-0.753,0.226l-0.385,0.098
											c-0.118,0.022-0.199,0.022-0.299,0.036l-0.576,0.059l-0.122,0.002h-0.012l-0.021-0.002l-0.046-0.003l-0.091-0.007
											l-0.182-0.015l-0.365-0.034c-0.246-0.013-0.481-0.068-0.71-0.137c-0.479-0.106-0.913-0.292-1.331-0.507
											c-0.432-0.194-0.783-0.485-1.168-0.736c-0.327-0.298-0.693-0.574-0.979-0.9c-0.602-0.636-1.127-1.321-1.558-2.044
											c-0.451-0.716-0.821-1.467-1.14-2.227c-0.331-0.76-0.587-1.542-0.821-2.325c-0.229-0.785-0.408-1.579-0.555-2.379
											c-0.13-0.803-0.264-1.604-0.317-2.411c-0.088-0.807-0.091-1.615-0.116-2.424c-0.023-0.676,0.503-1.24,1.178-1.261
											c0.674-0.023,1.237,0.505,1.262,1.182v0.069v0.01c-0.024,0.809-0.033,1.617-0.122,2.423
											c-0.055,0.809-0.19,1.609-0.321,2.409c-0.152,0.799-0.333,1.592-0.561,2.377c-0.235,0.782-0.494,1.562-0.827,2.318
											c-0.32,0.762-0.691,1.509-1.143,2.221c-0.432,0.721-0.958,1.404-1.559,2.037c-0.286,0.324-0.652,0.598-0.979,0.894
											c-0.382,0.248-0.731,0.537-1.161,0.729l-0.636,0.295c-0.23,0.089-0.501,0.149-0.75,0.217
											c-0.618,0.166-0.736,0.108-1.364,0.174c-0.961-0.051-1.926-0.261-2.732-0.72c-0.425-0.195-0.77-0.486-1.146-0.737
											c-0.322-0.299-0.683-0.571-0.963-0.898c-0.59-0.637-1.103-1.319-1.524-2.039c-0.439-0.715-0.8-1.461-1.107-2.219
											c-0.322-0.758-0.568-1.533-0.792-2.314c-0.216-0.781-0.387-1.571-0.527-2.367c-0.119-0.796-0.245-1.592-0.291-2.395
											c-0.079-0.799-0.072-1.602-0.091-2.404v-0.017c-0.013-0.54,0.413-0.984,0.949-0.997c0.538-0.012,0.984,0.413,0.996,0.952
											l0,0.062c-0.033,0.802-0.041,1.603-0.134,2.399c-0.059,0.799-0.197,1.594-0.33,2.385c-0.154,0.79-0.336,1.573-0.566,2.347
											c-0.236,0.771-0.494,1.538-0.826,2.283c-0.317,0.746-0.686,1.479-1.131,2.175c-0.425,0.703-0.943,1.365-1.525,1.976
											c-0.28,0.313-0.635,0.573-0.951,0.857c-0.367,0.235-0.705,0.513-1.114,0.689l-0.608,0.274
											c-0.214,0.083-0.463,0.136-0.693,0.196c-0.542,0.156-0.744,0.105-1.298,0.164c-0.9-0.056-1.806-0.252-2.568-0.691
											c-0.401-0.188-0.729-0.469-1.087-0.707c-0.307-0.288-0.649-0.551-0.919-0.867c-0.562-0.617-1.063-1.276-1.461-1.986
											c-0.416-0.698-0.757-1.436-1.048-2.181c-0.303-0.742-0.532-1.509-0.742-2.274c-0.202-0.768-0.36-1.545-0.474-2.329
											c-0.097-0.785-0.2-1.563-0.225-2.361c-0.059-0.797-0.03-1.562-0.029-2.338c0-0.195,0.158-0.35,0.351-0.35
											C194.007,245.993,194.159,246.14,194.171,246.322"/>
									</g>
								</g>
								<g transform="translate(14.500000, 29.560327)" opacity="0.75">
									<g>
										<path fill="#9CD3E3" d="M190.067,237.283c-0.066,1.56-0.038,3.137,0.007,4.678c0.035,0.792,0.124,1.55,0.237,2.295
											l0.227,1.124l0.3,1.103c0.232,0.724,0.525,1.422,0.854,2.098c0.348,0.666,0.746,1.3,1.201,1.875
											c0.455,0.573,0.955,1.113,1.555,1.487c0.587,0.39,1.229,0.639,1.842,0.76c0.57,0.171,1.263,0.16,1.669,0.18l0.582-0.042
											c0.22-0.008,0.256-0.064,0.395-0.085c0.211-0.022,0.513-0.169,0.785-0.265c0.534-0.278,1.076-0.6,1.541-1.07
											c0.487-0.432,0.9-0.977,1.298-1.533c0.371-0.583,0.71-1.194,0.991-1.847c0.278-0.649,0.515-1.326,0.7-2.021
											c0.188-0.693,0.324-1.405,0.423-2.121c0.097-0.72,0.135-1.446,0.158-2.174h2.64c0.017,0.642,0.019,1.283,0.096,1.92
											c0.051,0.639,0.163,1.272,0.294,1.896c0.129,0.626,0.312,1.233,0.51,1.836l0.341,0.884l0.403,0.847
											c0.295,0.551,0.623,1.07,0.985,1.562c0.38,0.472,0.785,0.913,1.233,1.282c0.456,0.354,0.93,0.686,1.445,0.869
											c0.506,0.231,1.042,0.295,1.576,0.336c0.128-0.027,0.7-0.022,0.869-0.091c0.225-0.063,0.448-0.089,0.716-0.213
											c0.523-0.177,1.013-0.494,1.483-0.84c0.465-0.36,0.887-0.797,1.283-1.268c0.381-0.486,0.728-1.007,1.04-1.559l0.429-0.848
											l0.368-0.888c0.215-0.606,0.417-1.219,0.563-1.853c0.15-0.63,0.277-1.271,0.347-1.919
											c0.092-0.647,0.112-1.302,0.144-1.955h1.922c0.015,0.653,0.013,1.311,0.086,1.962c0.049,0.652,0.157,1.301,0.289,1.938
											c0.127,0.643,0.311,1.27,0.511,1.887l0.344,0.912l0.409,0.878c0.304,0.571,0.64,1.115,1.016,1.631l0.612,0.723
											c0.229,0.208,0.439,0.447,0.679,0.642c0.481,0.386,0.989,0.748,1.554,0.96c0.527,0.259,1.201,0.34,1.689,0.397
											c0.325-0.031,0.726-0.015,0.99-0.086c0.273-0.062,0.549-0.102,0.84-0.232c0.584-0.188,1.116-0.533,1.627-0.905
											c0.505-0.386,0.955-0.851,1.38-1.348c0.403-0.512,0.771-1.055,1.103-1.629l0.454-0.886l0.387-0.921
											c0.227-0.629,0.445-1.264,0.604-1.918c0.162-0.65,0.303-1.312,0.38-1.982c0.103-0.669,0.134-1.345,0.172-2.022
											l0.002-0.022c0.011-0.176,0.163-0.311,0.34-0.302c0.171,0.011,0.304,0.154,0.302,0.324
											c-0.004,0.7,0.004,1.403-0.067,2.104c-0.047,0.701-0.157,1.4-0.293,2.092c-0.128,0.693-0.321,1.379-0.537,2.053l-0.373,1
											l-0.45,0.973c-0.333,0.635-0.708,1.25-1.136,1.837c-0.447,0.571-0.936,1.119-1.505,1.596
											c-0.58,0.463-1.201,0.9-1.917,1.171c-0.337,0.165-0.738,0.26-1.136,0.354c-0.401,0.1-0.7,0.087-1.057,0.134
											c-0.88-0.017-1.591-0.113-2.33-0.407c-0.737-0.247-1.386-0.666-1.993-1.117c-0.6-0.462-1.116-1.006-1.594-1.575
											c-0.455-0.584-0.862-1.2-1.223-1.84l-0.492-0.979l-0.417-1.011c-0.243-0.686-0.468-1.375-0.63-2.083
											c-0.167-0.703-0.307-1.416-0.385-2.137c-0.101-0.717-0.122-1.438-0.155-2.161c-0.022-0.533,0.387-0.982,0.919-1.006
											c0.53-0.026,0.979,0.387,1.003,0.919l0.002,0.057l-0.002,0.029c-0.011,0.722-0.015,1.447-0.095,2.169
											c-0.055,0.722-0.176,1.443-0.326,2.155c-0.142,0.718-0.349,1.419-0.578,2.117l-0.392,1.034l-0.476,1.009
											c-0.347,0.659-0.744,1.299-1.198,1.912c-0.472,0.6-0.993,1.172-1.601,1.674c-0.619,0.488-1.284,0.954-2.062,1.239
											c-0.358,0.167-0.812,0.274-1.259,0.368c-0.498,0.104-0.626,0.076-1.177,0.131c-0.835-0.033-1.685-0.148-2.447-0.469
											c-0.785-0.277-1.466-0.729-2.098-1.208c-0.624-0.496-1.162-1.063-1.652-1.66c-0.47-0.608-0.886-1.245-1.252-1.906
											l-0.5-1.01l-0.421-1.039c-0.246-0.703-0.471-1.411-0.631-2.135c-0.165-0.719-0.303-1.447-0.377-2.179
											c-0.097-0.733-0.118-1.468-0.144-2.203c-0.03-0.731,0.539-1.346,1.269-1.373c0.729-0.028,1.342,0.541,1.37,1.271
											l0.001,0.047v0.056c0.001,3.329-0.714,6.731-2.574,9.696c-0.493,0.725-1.02,1.438-1.688,2.06
											c-0.632,0.649-1.425,1.178-2.27,1.613c-0.457,0.182-0.86,0.39-1.423,0.499c-0.244,0.053-0.58,0.141-0.75,0.145
											l-0.583,0.049l-0.265,0.008l-0.184-0.015l-0.369-0.033c-0.246-0.021-0.493-0.052-0.725-0.133
											c-0.479-0.116-0.929-0.304-1.34-0.546c-0.431-0.209-0.773-0.536-1.139-0.805c-0.317-0.323-0.657-0.618-0.928-0.959
											c-0.574-0.656-1.072-1.335-1.504-2.045c-0.437-0.708-0.764-1.464-1.077-2.213l-0.4-1.147l-0.316-1.168l-0.244-1.177
											l-0.162-1.188c-0.073-0.807-0.113-1.605-0.099-2.38c0.015-1.584,0.064-3.133-0.007-4.701
											c-0.01-0.178,0.129-0.328,0.306-0.335c0.178-0.011,0.327,0.128,0.337,0.306
											C190.067,237.263,190.067,237.275,190.067,237.283"/>
									</g>
								</g>
							</g>
						</g>
					</g>
				</g>
			</g>
		</g>
	</g>
</g>
</svg>
