<svg xmlns="http://www.w3.org/2000/svg" xmlns:xlink="http://www.w3.org/1999/xlink" width="595.279" height="841.891" viewBox="0 0 595.279 841.891"><g transform="translate(201 .376)"><defs><filter id="a" filterUnits="userSpaceOnUse" x="207.981" y="194.208" width="62.285" height="60.36"><feColorMatrix values="1 0 0 0 0 0 1 0 0 0 0 0 1 0 0 0 0 0 1 0"/></filter></defs><mask maskUnits="userSpaceOnUse" x="207.981" y="194.208" width="62.285" height="60.36" id="b"><path fill="#FFF" d="M207.982 254.568h62.282v-60.36h-62.282z" filter="url(#a)"/></mask><path mask="url(#b)" fill="#472728" d="M268.623 218.583c-1.816-1.887-4.987-2.885-9.177-2.885-3.104 0-6.696.533-10.673 1.587-6.806 1.802-11.553 4.969-14.543 7.603a4.41 4.41 0 0 0-1.034-.476c.046-3.984-.646-9.646-3.717-15.982-4.378-9.037-9.584-14.22-14.283-14.221-1.49 0-2.846.53-3.924 1.531-3.178 2.962-3.322 10.431-3.192 18.477.006.447.015.869.018 1.263.053 4.294 1.649 7.314 4.277 9.865a4.98 4.98 0 0 0-.997.714c-2.165 2.017-3.726 7.423-3.339 11.573.299 3.199 1.646 5.643 3.893 7.065 1.191.754 2.533 1.137 3.987 1.137 1.458 0 2.912-.397 4.295-1.015-.35 1.648-.515 3.319-.118 4.379a3.01 3.01 0 0 0 1.568 1.713c.369.172.784.262 1.217.262 1.4 0 2.611-.866 4.331-3.15.978 3.244 2.847 5.403 5.494 6.21a7.65 7.65 0 0 0 2.247.335c6.336 0 12.1-8.092 12.248-12.062a5.161 5.161 0 0 0-.107-1.22c.529.048 1.037.071 1.537.071 3.304 0 6.077-1.036 8.731-3.26.311-.262.645-.542 1-.835 6.17-5.137 11.725-10.109 11.899-14.436.062-1.598-.505-3.064-1.638-4.243"/></g><path fill="#E500DF" d="M428.111 210.123c-5.357-11.062-11.247-14.515-14.046-11.909-2.801 2.612-2.397 12.692-2.335 17.782.061 5.092 2.66 7.989 7.702 11.243 5.036 3.257 11.154 5.106 11.562 2.759 0-.001 2.481-8.809-2.883-19.875z"/><path fill="#ED497E" d="M414.167 228.535c-2.065 1.922-4.623 11.453.174 14.487 4.794 3.038 12.17-4.146 15.062-8.148 2.892-4.002 1.659-7.243-4.552-7.699 0 0-8.622-.556-10.684 1.36z"/><path fill="#DE00DB" d="M433.495 231.147s5.065-7.624 16.952-10.771c11.885-3.147 18.336-.934 18.186 2.891-.154 3.825-8.061 10.084-11.961 13.361-3.904 3.272-7.793 3.192-13.546 1.487-5.752-1.699-11.143-5.129-9.631-6.968"/><path fill="#ED497E" d="M439.636 233.961s6.048 6.177 5.937 8.994c-.105 2.811-5.67 10.968-11.098 9.31-5.43-1.657-4.786-11.936-3.636-16.738 1.151-4.8 4.409-5.975 8.797-1.566"/><path fill="#734A1E" d="M428.681 242.985c-.517 1.113-3.952 6.531-4.928 6.079-.972-.443.893-6.582 1.403-7.701l5.785-12.598c.512-1.117 1.717-1.659 2.692-1.21.97.442 1.343 1.712.827 2.829l-5.779 12.601z"/><g><path fill="#FFF" d="M275.063 617.109c96.975 0 175.551-79.358 175.551-176.493v-.527c0-97.134-78.576-175.945-175.551-175.945-97.036 0-176.014 78.917-176.014 176.142v.135c0 97.225 78.978 176.688 176.014 176.688z"/><path opacity=".3" fill="#010101" enable-background="new" d="M380.25 298.25s-23.964-62.24-110.041-57.408l47.645 20.461 62.396 36.947zM443.805 392.021c-1.838-2.74 2.413-5.939 3.371-8.649 6.063-17.175 7.181-30.485 7.194-30.622l-.03-.38-.021-.394c1.142-4.005 5.142-6.804 9.28-6.487l.122-.223v-.001c0-.351.52.295.753.336.282.051.83.355 1.122.443 2.845.805 4.795 2.864 5.671 5.791.207.681.29 1.395.357 2.126l1.077-3.812c.124-.436.262-.876.47-1.323.021-.059.028-.162.07-.246.191-.39.354-.814.622-1.173l.169-.23c.255-.338.599-.625.882-.902.062-.059.176-.074.269-.16a8.07 8.07 0 0 1 1.025-.819l.131-.081a7.812 7.812 0 0 1 1.197-.648 8.366 8.366 0 0 1 1.267-.432c.123-.032.229-.042.301-.045.307-.066.61-.083.876-.099.103-.007.208-.011.313-.023l.182.003 2.836.099.222.045a8.704 8.704 0 0 1 5.271 4.183 8.755 8.755 0 0 1 .774 6.686l-1.208 4.238a8.748 8.748 0 0 1 7.906-3.513 8.79 8.79 0 0 1 3.899 1.36 8.552 8.552 0 0 1 1.915 1.682 8.771 8.771 0 0 1 1.166 9.699c-.06.113-.123.224-.185.339-1.017 3.033-9.281 26.782-27.748 52.423-7.21 10.026-15.059 19.042-23.442 26.963-.002.002.819-42.876-8.076-56.154z"/><path fill="#4F2324" d="M373.082 439.777s-13.296 5.504-20.05 6.558l-11.055 33.612 14.554-1.696 8.874-1.368 4.557-.958 3.12-36.148z"/><path fill="#4F2324" d="M473.153 325.065l-.195-.006c-.115.014-.224.018-.336.026-.283.018-.606.037-.938.108a1.623 1.623 0 0 0-.319.047 9.25 9.25 0 0 0-1.35.46c-.061.027-.123.053-.161.073-.41.19-.769.39-1.118.62l-.14.087a8.598 8.598 0 0 0-1.096.875c-.099.09-.22.107-.287.17-.303.296-.672.601-.944.961l-.18.247c-.283.384-.463.837-.668 1.253-.043.087-.059.198-.083.262a9.797 9.797 0 0 0-.515 1.412l-1.175 4.07a11.443 11.443 0 0 0-.434-2.272c-.938-3.123-3.127-5.322-6.162-6.18-.313-.096-1.081-.42-1.385-.474-.243-.043-.428-.732-1.198-.358v.001l.267.241c-4.418-.339-8.275 2.647-9.491 6.923l.014.422.024.406c-.015.142-1.207 14.357-7.682 32.698-5.912 16.735-17.519 40.337-39.311 57.724-8.057 6.418-17.08 11.663-26.87 15.585l-5.562 36.332c21.719-4.272 42.035-13.272 60.393-26.758 15.239-11.197 29.169-25.483 41.401-42.476 19.714-27.38 28.54-52.742 29.628-55.977.067-.124.131-.24.194-.36a9.371 9.371 0 0 0-1.241-10.359 9.245 9.245 0 0 0-2.048-1.795 9.41 9.41 0 0 0-4.161-1.453 9.337 9.337 0 0 0-8.441 3.752l1.291-4.526a9.35 9.35 0 0 0-.828-7.139 9.284 9.284 0 0 0-5.629-4.466l-.236-.049-3.028-.107z"/><path fill="#006E76" d="M353.579 449.896l-7.301 25.716c109.35-7.823 147.094-125.537 147.094-125.537a5.597 5.597 0 0 0-1.671-7.727 5.572 5.572 0 0 0-7.713 1.679l-5.594 8.7-.665 1.035a2.1 2.1 0 0 1-1.944.425 2.117 2.117 0 0 1-1.453-2.617l4.458-15.688c.844-2.965-.873-6.065-3.843-6.91-2.964-.848-6.051.877-6.894 3.849l-4.457 15.689h-.008a2.24 2.24 0 0 1-2.803 1.673 2.244 2.244 0 0 1-1.615-2.4l.253-9.84c.331-3.201-.874-6.067-3.836-6.912a5.584 5.584 0 0 0-6.901 3.849c0-.002-7.877 95.512-95.107 115.016"/><g transform="translate(160 87.618)"><defs><filter id="c" filterUnits="userSpaceOnUse" x="256.455" y="259.384" width="87.614" height="63.355"><feColorMatrix values="1 0 0 0 0 0 1 0 0 0 0 0 1 0 0 0 0 0 1 0"/></filter></defs><mask maskUnits="userSpaceOnUse" x="256.455" y="259.384" width="87.614" height="63.355" id="d"><path fill="#FFF" d="M308.054 245.205l-4.457 15.688-.009-.001a2.24 2.24 0 0 1-2.803 1.675 2.247 2.247 0 0 1-1.616-2.402l.258-9.839c.325-3.202-.875-6.065-3.841-6.912a5.575 5.575 0 0 0-6.895 3.846s-7.88 95.514-95.111 115.018l-7.301 25.713c109.35-7.824 147.093-125.528 147.093-125.528a5.607 5.607 0 0 0-1.67-7.735 5.574 5.574 0 0 0-7.713 1.679l-5.595 8.704-.662 1.036a2.123 2.123 0 0 1-1.946.428 2.126 2.126 0 0 1-1.455-2.619l4.457-15.689a5.587 5.587 0 0 0-3.84-6.908 5.303 5.303 0 0 0-.991-.192 5.576 5.576 0 0 0-5.903 4.038" filter="url(#c)"/></mask><g opacity=".5" mask="url(#d)"><g transform="translate(45.5 11.524)"><defs><filter id="e" filterUnits="userSpaceOnUse" x="210.955" y="247.86" width="87.614" height="63.355"><feColorMatrix values="1 0 0 0 0 0 1 0 0 0 0 0 1 0 0 0 0 0 1 0"/></filter></defs><mask maskUnits="userSpaceOnUse" x="210.955" y="247.86" width="87.614" height="63.355" id="f"><path fill="#FFF" d="M210.959 303.2l82.223 8.023 5.381-55.347-82.222-8.023z" filter="url(#e)"/></mask><g opacity=".75" mask="url(#f)"><defs><filter id="g" filterUnits="userSpaceOnUse" x="210.955" y="247.86" width="87.614" height="63.355"><feColorMatrix values="1 0 0 0 0 0 1 0 0 0 0 0 1 0 0 0 0 0 1 0"/></filter></defs><mask maskUnits="userSpaceOnUse" x="210.955" y="247.86" width="87.614" height="63.355" id="h"><path fill="#FFF" d="M210.959 303.2l82.223 8.023 5.381-55.347-82.222-8.023z" filter="url(#g)"/></mask><g mask="url(#h)"><defs><filter id="i" filterUnits="userSpaceOnUse" x="210.955" y="247.86" width="87.614" height="63.355"><feColorMatrix values="1 0 0 0 0 0 1 0 0 0 0 0 1 0 0 0 0 0 1 0"/></filter></defs><mask maskUnits="userSpaceOnUse" x="210.955" y="247.86" width="87.614" height="63.355" id="j"><path fill="#FFF" d="M210.959 303.2l82.223 8.023 5.382-55.347-82.223-8.026z" filter="url(#i)"/></mask><image overflow="visible" width="131" height="88" xlink:href="863FBEDCA49E9437.png" transform="matrix(.6277 .0611 -.0613 .6289 216.347 247.86)" enable-background="new" mask="url(#j)"/></g></g></g><g transform="translate(45.5 11.524)"><defs><filter id="k" filterUnits="userSpaceOnUse" x="224.673" y="260.271" width="58.77" height="36.186"><feColorMatrix values="1 0 0 0 0 0 1 0 0 0 0 0 1 0 0 0 0 0 1 0"/></filter></defs><mask maskUnits="userSpaceOnUse" x="224.673" y="260.271" width="58.77" height="36.186" id="l"><path fill="#FFF" d="M210.959 303.2l82.223 8.023 5.381-55.347-82.222-8.023z" filter="url(#k)"/></mask><path transform="rotate(21.89 254.046 278.322)" mask="url(#l)" fill="#9CD3E3" d="M225.637 270.283h56.844v16.161h-56.844z"/></g></g></g><g transform="translate(160 87.618)"><defs><filter id="m" filterUnits="userSpaceOnUse" x="199.334" y="348.445" width="39.527" height="58.154"><feColorMatrix values="1 0 0 0 0 0 1 0 0 0 0 0 1 0 0 0 0 0 1 0"/></filter></defs><mask maskUnits="userSpaceOnUse" x="199.334" y="348.445" width="39.527" height="58.154" id="n"><path fill="#FFF" d="M308.054 245.205l-4.457 15.688-.009-.001a2.24 2.24 0 0 1-2.803 1.675 2.247 2.247 0 0 1-1.616-2.402l.258-9.839c.325-3.202-.875-6.065-3.841-6.912a5.575 5.575 0 0 0-6.895 3.846s-7.88 95.514-95.111 115.018l-7.301 25.713c109.35-7.824 147.093-125.528 147.093-125.528a5.607 5.607 0 0 0-1.67-7.735 5.574 5.574 0 0 0-7.713 1.679l-5.595 8.704-.662 1.036a2.123 2.123 0 0 1-1.946.428 2.126 2.126 0 0 1-1.455-2.619l4.457-15.689a5.587 5.587 0 0 0-3.84-6.908 5.303 5.303 0 0 0-.991-.192 5.576 5.576 0 0 0-5.903 4.038" filter="url(#m)"/></mask><g transform="translate(5.5 68.64)" opacity=".5" mask="url(#n)"><defs><filter id="o" filterUnits="userSpaceOnUse" x="193.834" y="279.805" width="39.527" height="58.154"><feColorMatrix values="1 0 0 0 0 0 1 0 0 0 0 0 1 0 0 0 0 0 1 0"/></filter></defs><mask maskUnits="userSpaceOnUse" x="193.834" y="279.805" width="39.527" height="58.154" id="p"><path fill="#FFF" d="M189.158 335.095l43.373 4.229 5.507-56.697-43.37-4.226z" filter="url(#o)"/></mask><path transform="rotate(63.889 213.607 308.892)" mask="url(#p)" fill="#9CD3E3" d="M185.177 300.802h56.842v16.16h-56.842z"/></g></g><g transform="translate(160 87.618)"><defs><filter id="q" filterUnits="userSpaceOnUse" x="198.503" y="312.033" width="107.594" height="108.909"><feColorMatrix values="1 0 0 0 0 0 1 0 0 0 0 0 1 0 0 0 0 0 1 0"/></filter></defs><mask maskUnits="userSpaceOnUse" x="198.503" y="312.033" width="107.594" height="108.909" id="r"><path fill="#FFF" d="M308.054 245.205l-4.457 15.688-.009-.001a2.24 2.24 0 0 1-2.803 1.675 2.247 2.247 0 0 1-1.616-2.402l.258-9.839c.325-3.202-.875-6.065-3.841-6.912a5.575 5.575 0 0 0-6.895 3.846s-7.88 95.514-95.111 115.018l-7.301 25.713c109.35-7.824 147.093-125.528 147.093-125.528a5.607 5.607 0 0 0-1.67-7.735 5.574 5.574 0 0 0-7.713 1.679l-5.595 8.704-.662 1.036a2.123 2.123 0 0 1-1.946.428 2.126 2.126 0 0 1-1.455-2.619l4.457-15.689a5.587 5.587 0 0 0-3.84-6.908 5.303 5.303 0 0 0-.991-.192 5.576 5.576 0 0 0-5.903 4.038" filter="url(#q)"/></mask><g opacity=".5" mask="url(#r)"><g transform="translate(8 45.593)"><defs><filter id="s" filterUnits="userSpaceOnUse" x="190.503" y="266.44" width="107.594" height="108.909"><feColorMatrix values="1 0 0 0 0 0 1 0 0 0 0 0 1 0 0 0 0 0 1 0"/></filter></defs><mask maskUnits="userSpaceOnUse" x="190.503" y="266.44" width="107.594" height="108.909" id="t"><path fill="#FFF" d="M190.517 365.801l97.912 9.558 9.659-99.379-97.915-9.551z" filter="url(#s)"/></mask><g opacity=".75" mask="url(#t)"><defs><filter id="u" filterUnits="userSpaceOnUse" x="190.503" y="266.44" width="107.594" height="108.909"><feColorMatrix values="1 0 0 0 0 0 1 0 0 0 0 0 1 0 0 0 0 0 1 0"/></filter></defs><mask maskUnits="userSpaceOnUse" x="190.503" y="266.44" width="107.594" height="108.909" id="v"><path fill="#FFF" d="M190.517 365.801l97.912 9.558 9.659-99.379-97.915-9.551z" filter="url(#u)"/></mask><g mask="url(#v)"><defs><filter id="w" filterUnits="userSpaceOnUse" x="190.503" y="266.44" width="107.594" height="108.909"><feColorMatrix values="1 0 0 0 0 0 1 0 0 0 0 0 1 0 0 0 0 0 1 0"/></filter></defs><mask maskUnits="userSpaceOnUse" x="190.503" y="266.44" width="107.594" height="108.909" id="x"><path fill="#FFF" d="M190.517 365.801l97.912 9.558 9.659-99.379-97.915-9.551z" filter="url(#w)"/></mask><image overflow="visible" width="156" height="158" xlink:href="863FBEDCA49E9432.png" transform="matrix(.6277 .0611 -.0613 .6289 200.183 266.44)" enable-background="new" mask="url(#x)"/></g></g></g><g transform="translate(8 45.593)"><defs><filter id="y" filterUnits="userSpaceOnUse" x="216.632" y="288.926" width="47.771" height="54.792"><feColorMatrix values="1 0 0 0 0 0 1 0 0 0 0 0 1 0 0 0 0 0 1 0"/></filter></defs><mask maskUnits="userSpaceOnUse" x="216.632" y="288.926" width="47.771" height="54.792" id="z"><path fill="#FFF" d="M190.517 365.801l97.912 9.558 9.659-99.379-97.915-9.551z" filter="url(#y)"/></mask><path mask="url(#z)" fill="#9CD3E3" d="M229.317 288.926l35.086 44.818-12.687 9.974-35.084-44.814z"/></g></g></g><g transform="translate(160 87.618)"><defs><filter id="A" filterUnits="userSpaceOnUse" x="219.982" y="293.56" width="111.94" height="102.48"><feColorMatrix values="1 0 0 0 0 0 1 0 0 0 0 0 1 0 0 0 0 0 1 0"/></filter></defs><mask maskUnits="userSpaceOnUse" x="219.982" y="293.56" width="111.94" height="102.48" id="B"><path fill="#FFF" d="M308.054 245.205l-4.457 15.688-.009-.001a2.24 2.24 0 0 1-2.803 1.675 2.247 2.247 0 0 1-1.616-2.402l.258-9.839c.325-3.202-.875-6.065-3.841-6.912a5.575 5.575 0 0 0-6.895 3.846s-7.88 95.514-95.111 115.018l-7.301 25.713c109.35-7.824 147.093-125.528 147.093-125.528a5.607 5.607 0 0 0-1.67-7.735 5.574 5.574 0 0 0-7.713 1.679l-5.595 8.704-.662 1.036a2.123 2.123 0 0 1-1.946.428 2.126 2.126 0 0 1-1.455-2.619l4.457-15.689a5.587 5.587 0 0 0-3.84-6.908 5.303 5.303 0 0 0-.991-.192 5.576 5.576 0 0 0-5.903 4.038" filter="url(#A)"/></mask><g opacity=".5" mask="url(#B)"><g transform="translate(22 33.569)"><defs><filter id="C" filterUnits="userSpaceOnUse" x="197.982" y="259.991" width="111.94" height="102.48"><feColorMatrix values="1 0 0 0 0 0 1 0 0 0 0 0 1 0 0 0 0 0 1 0"/></filter></defs><mask maskUnits="userSpaceOnUse" x="197.982" y="259.991" width="111.94" height="102.48" id="D"><path fill="#FFF" d="M202.235 264.786h103.424v92.893H202.235z" filter="url(#C)"/></mask><g opacity=".75" mask="url(#D)"><defs><filter id="E" filterUnits="userSpaceOnUse" x="197.982" y="259.991" width="111.94" height="102.48"><feColorMatrix values="1 0 0 0 0 0 1 0 0 0 0 0 1 0 0 0 0 0 1 0"/></filter></defs><mask maskUnits="userSpaceOnUse" x="197.982" y="259.991" width="111.94" height="102.48" id="F"><path fill="#FFF" d="M202.235 264.786h103.424v92.893H202.235z" filter="url(#E)"/></mask><g mask="url(#F)"><defs><filter id="G" filterUnits="userSpaceOnUse" x="197.982" y="259.991" width="111.94" height="102.48"><feColorMatrix values="1 0 0 0 0 0 1 0 0 0 0 0 1 0 0 0 0 0 1 0"/></filter></defs><mask maskUnits="userSpaceOnUse" x="197.982" y="259.991" width="111.94" height="102.48" id="H"><path fill="#FFF" d="M202.235 264.786h103.424v92.893H202.235z" filter="url(#G)"/></mask><image overflow="visible" width="164" height="147" xlink:href="863FBEDCA49E9431.png" transform="matrix(.6277 .0611 -.0613 .6289 206.988 259.991)" enable-background="new" mask="url(#H)"/></g></g></g><g transform="translate(22 33.569)"><defs><filter id="I" filterUnits="userSpaceOnUse" x="223.219" y="282.226" width="53.959" height="48.931"><feColorMatrix values="1 0 0 0 0 0 1 0 0 0 0 0 1 0 0 0 0 0 1 0"/></filter></defs><mask maskUnits="userSpaceOnUse" x="223.219" y="282.226" width="53.959" height="48.931" id="J"><path fill="#FFF" d="M202.235 264.786h103.424v92.893H202.235z" filter="url(#I)"/></mask><path mask="url(#J)" fill="#9CD3E3" d="M233.564 282.226l43.614 36.529-10.338 12.402-43.621-36.533z"/></g></g></g><g transform="translate(160 87.618)"><defs><filter id="K" filterUnits="userSpaceOnUse" x="245.262" y="282.585" width="88.104" height="68.387"><feColorMatrix values="1 0 0 0 0 0 1 0 0 0 0 0 1 0 0 0 0 0 1 0"/></filter></defs><mask maskUnits="userSpaceOnUse" x="245.262" y="282.585" width="88.104" height="68.387" id="L"><path fill="#FFF" d="M308.054 245.205l-4.457 15.688-.009-.001a2.24 2.24 0 0 1-2.803 1.675 2.247 2.247 0 0 1-1.616-2.402l.258-9.839c.325-3.202-.875-6.065-3.841-6.912a5.575 5.575 0 0 0-6.895 3.846s-7.88 95.514-95.111 115.018l-7.301 25.713c109.35-7.824 147.093-125.528 147.093-125.528a5.607 5.607 0 0 0-1.67-7.735 5.574 5.574 0 0 0-7.713 1.679l-5.595 8.704-.662 1.036a2.123 2.123 0 0 1-1.946.428 2.126 2.126 0 0 1-1.455-2.619l4.457-15.689a5.587 5.587 0 0 0-3.84-6.908 5.303 5.303 0 0 0-.991-.192 5.576 5.576 0 0 0-5.903 4.038" filter="url(#K)"/></mask><g opacity=".5" mask="url(#L)"><g transform="translate(38.5 26.554)"><defs><filter id="M" filterUnits="userSpaceOnUse" x="206.762" y="256.031" width="88.104" height="68.387"><feColorMatrix values="1 0 0 0 0 0 1 0 0 0 0 0 1 0 0 0 0 0 1 0"/></filter></defs><mask maskUnits="userSpaceOnUse" x="206.762" y="256.031" width="88.104" height="68.387" id="N"><path fill="#FFF" d="M209.508 259.887h82.612v60.66h-82.612z" filter="url(#M)"/></mask><g opacity=".75" mask="url(#N)"><defs><filter id="O" filterUnits="userSpaceOnUse" x="206.762" y="256.031" width="88.104" height="68.387"><feColorMatrix values="1 0 0 0 0 0 1 0 0 0 0 0 1 0 0 0 0 0 1 0"/></filter></defs><mask maskUnits="userSpaceOnUse" x="206.762" y="256.031" width="88.104" height="68.387" id="P"><path fill="#FFF" d="M209.508 259.887h82.612v60.66h-82.612z" filter="url(#O)"/></mask><g mask="url(#P)"><defs><filter id="Q" filterUnits="userSpaceOnUse" x="206.762" y="256.031" width="88.104" height="68.387"><feColorMatrix values="1 0 0 0 0 0 1 0 0 0 0 0 1 0 0 0 0 0 1 0"/></filter></defs><mask maskUnits="userSpaceOnUse" x="206.762" y="256.031" width="88.104" height="68.387" id="R"><path fill="#FFF" d="M206.768 316.401l82.222 8.019 5.868-60.374-82.22-8.023z" filter="url(#Q)"/></mask><image overflow="visible" width="131" height="96" xlink:href="863FBEDCA49E943D.png" transform="matrix(.6277 .0611 -.0613 .6289 212.643 256.03)" enable-background="new" mask="url(#R)"/></g></g></g><g transform="translate(38.5 26.554)"><defs><filter id="S" filterUnits="userSpaceOnUse" x="221.008" y="268.581" width="57.786" height="40.923"><feColorMatrix values="1 0 0 0 0 0 1 0 0 0 0 0 1 0 0 0 0 0 1 0"/></filter></defs><mask maskUnits="userSpaceOnUse" x="221.008" y="268.581" width="57.786" height="40.923" id="T"><path fill="#FFF" d="M209.508 259.887h82.612v60.66h-82.612z" filter="url(#S)"/></mask><path mask="url(#T)" fill="#9CD3E3" d="M228.554 268.581l50.24 26.639-7.541 14.285-50.245-26.645z"/></g></g></g><path fill="none" d="M185.232 543.635l-1.736-31.098c-.425 1.081-.84 2.166-1.227 3.259-9.365 26.285-6.805 52.504-3.014 69.851.244 1.124.5 2.223.759 3.305a176.36 176.36 0 0 0 18.72 10.558c-8.706-16.109-13.488-35.387-13.502-55.875z"/><path fill="#4F2324" d="M180.316 456.584l-.865.828.033.065c.277-.275.554-.552.834-.825l-.002-.068zM167.191 477.485a146.257 146.257 0 0 1 0 0zM151.541 505.366c-2.762 5.519-4.495 11.077-6.25 16.619 1.755-5.542 3.488-11.101 6.25-16.619zM182.269 515.796c.387-1.093.802-2.178 1.227-3.259l-.455-8.151c-13.839 29.495-11.98 59.793-7.152 81.804 1.364.938 2.738 1.862 4.127 2.762a159.468 159.468 0 0 1-.761-3.305c-3.791-17.347-6.349-43.566 3.014-69.851zM160.779 487.036a151.56 151.56 0 0 1 0 0zM140.673 537.327h-.027c-1.009 5.407-1.507 9.551-2.278 14.032.771-4.479 1.297-8.625 2.305-14.032z"/><path fill="#4F2324" d="M140.755 537.715c.575-2.626 1.397-5.269 1.948-7.92v-.002c.553-2.595 1.418-5.198 2.244-7.808 1.756-5.542 3.804-11.101 6.235-16.619a152.957 152.957 0 0 1 9.599-18.331 145.856 145.856 0 0 1 6.412-9.551 144.327 144.327 0 0 1 13.411-15.848l-.126-2.198-.994-1.962c-14.73 14.541-26.257 31.887-34.208 51.698-4.733 11.797-8.199 24.479-10.424 37.854a173.272 173.272 0 0 0 3.409 4.329 195.397 195.397 0 0 1 2.494-13.642zM180.319 456.652c-.28.273-.558.55-.834.825l.994 1.962-.16-2.787z"/><path fill="#006E76" d="M183.085 504.385v-.006c-2.313 3.664-2.721 7.338-3.98 11.01-.69 2.017-1.417 4.03-1.417 6.04v.003c-2.312 1.628-1.369 3.253-1.745 4.873-1.257 5.388-2.34 10.725-2.828 15.956-.095 1.009-.301 2.015-.369 3.015-.053.768-.155 1.533-.194 2.298-.061 1.172-.139 2.34-.166 3.501a138.73 138.73 0 0 0 .555 16.159c.02.207.029.418.048.626.3 3.081.684 6.078 1.137 8.972.252 1.578.516 3.129.801 4.646.301 1.608.621 3.179.958 4.708 0 .003.025.004.025.004-4.828-22.01-6.703-52.309 7.175-81.805z"/><path fill="#006E76" d="M155.422 523.472l20.031 2.833c.378-1.62.8-3.243 1.258-4.873l-3.367-6.83-17.922 8.87z"/><path fill="#006E76" d="M155.42 522.648h.002l18.409-8.456 3.857 7.24v-.003l-3.853-7.241zM181.416 483.48l.492 1-.042-.715zM180.605 461.64c-.461.47-.905.945-1.355 1.418l1.491.935-.136-2.353z"/><path fill="#006E76" d="M174.134 468.707c1.634-1.907 3.429-3.79 5.198-5.648.45-.473.668-.948 1.439-1.418v-.003c-4.626 5.098-9.52 10.401-13.497 15.848.491-.669.931-1.338 1.434-2.001 1.733-2.289 3.517-4.55 5.426-6.778zM144.92 521.985l10.5 1.487 17.925-8.871 3.366 6.83a113.59 113.59 0 0 1 1.885-6.041l-27.427-10.024a164.469 164.469 0 0 0-6.249 16.619zM160.779 487.036a144.048 144.048 0 0 0-2.266 3.812l5.058 1.85-2.792-5.662z"/><path fill="#006E76" d="M163.568 492.696l19.211 7.021-.87-15.237-.492-1-12.75-7.996c-.5.663-.984 1.332-1.476 2.001a145.457 145.457 0 0 0-6.412 9.551l2.789 5.66zM164.284 551.635l8.207-4.061c.038-.764.08-1.528.133-2.298L159.042 552l5.242-.365zM172.356 551.077c.027-1.161.075-2.331.135-3.503l-8.205 4.061 8.07-.558z"/><path fill="#006E76" d="M138.249 551.359c.534.661 1.069 1.318 1.61 1.97L159.042 552l13.582-6.724c.069-1 .151-2.006.246-3.014l-32.142-4.548a194.802 194.802 0 0 0-2.479 13.645zM160.285 574.145l12.697-6.285c-.02-.208-.038-.419-.057-.626l-18.819 1.306a176.436 176.436 0 0 0 6.179 5.605z"/><path fill="#006E76" d="M165.372 578.371l8.752-1.539a152.77 152.77 0 0 1-1.142-8.972l-12.697 6.285a174.394 174.394 0 0 0 5.087 4.226z"/><path fill="#9CD3E3" d="M175.882 586.185c-.334-1.529-.656-3.1-.958-4.708l-3.341 1.655c1.419 1.04 2.851 2.06 4.299 3.053z"/><path fill="#9CD3E3" d="M171.583 583.133l3.341-1.655a161.025 161.025 0 0 1-.801-4.646l-8.752 1.539a180.688 180.688 0 0 0 6.212 4.762zM168.666 475.484l12.75 7.996-7.282-14.773a144.75 144.75 0 0 0-5.468 6.777zM180.74 463.993l-1.491-.935a142.353 142.353 0 0 0-5.113 5.648l7.282 14.773.45.285-1.128-19.771zM158.617 490.973h.052c-2.75 4.636-4.882 9.48-7.194 14.365v-.014c2.312-4.883 4.392-9.715 7.142-14.351zM182.824 500.49l-.045-.772-19.211-7.022 6.866 13.929z"/><path fill="#9CD3E3" d="M182.824 500.49l-12.39 6.134-6.864-13.928-5.058-1.849a153.16 153.16 0 0 0-7.344 14.519l27.427 10.023a109.255 109.255 0 0 1 4.447-11.01l-.214-3.823-.004-.066zM142.646 529.793h.154v.156h-.154zM144.92 521.793c-.827 2.609-1.584 5.492-2.274 7.808.693-2.316 1.449-5.199 2.274-7.808zM142.994 529.698v-.046c-1.542 2.651-1.71 5.357-2.284 7.675h-.01c.575-2.317.752-4.977 2.294-7.629z"/><path fill="#9CD3E3" d="M142.646 529.793a186.077 186.077 0 0 0-1.918 7.922l32.142 4.548a119.122 119.122 0 0 1 2.583-15.957l-20.031-2.833-12.776 6.32zM155.391 522.665l-12.774 6.31-.067-.137 12.773-6.31z"/><path fill="#9CD3E3" d="M144.92 521.985a179.512 179.512 0 0 0-2.274 7.808l12.774-6.32-10.5-1.488zM159.042 552l-19.183 1.329a178.49 178.49 0 0 0 4.956 5.714L159.042 552z"/><path fill="#9CD3E3" d="M146.234 560.569l18.052-8.935-5.245.367-14.227 7.041c.467.514.946 1.018 1.42 1.527z"/><path fill="#9CD3E3" d="M146.234 560.569a178.802 178.802 0 0 0 7.872 7.972l18.819-1.307a138.843 138.843 0 0 1-.569-16.157l-8.069.558-18.053 8.934z"/><path fill="#4F2324" d="M189.521 542.199l-2.113-38.379a105.039 105.039 0 0 0-3.911 8.717l1.736 31.098c.012 20.488 4.795 39.767 13.501 55.874a174.04 174.04 0 0 0 7.746 3.536c-10.98-16.77-16.959-37.916-16.959-60.846zM184.592 452.664l-6.09-110.596c0-54.069 44.149-98.304 98.104-98.304 53.957 0 98.104 44.235 98.104 98.304l-.034.663c12.146 6.461 20.445 19.251 20.445 33.963 0 16.21-10.082 30.077-24.282 35.712l-7.147 129.79c0 18.911-4.062 36.606-11.643 51.64 1.027 1.305 2.063 2.623 3.107 3.954l.28-.144c8.37-15.824 12.927-34.635 12.938-54.926l3.823-69.4 2.023-36.7 1.153-20.956a42.204 42.204 0 0 0 5.912-3.666c11.598-7.887 18.52-20.938 18.52-34.913 0-14.734-7.813-28.542-20.42-36.167-.396-26.579-11.008-51.624-29.918-70.575-19.3-19.341-44.858-29.991-71.967-29.991-21.443 0-43.205 6.85-60.383 19.279-27.764 19.407-44.826 50.728-44.826 83.871v.726c-10.023 7.919-16.331 20.452-16.331 33.817 0 15.307 8.532 29.385 21.914 36.871l1.846 30.787.607 10.88 2.497-2.397 1.768-1.522z"/><path fill="#4F2324" d="M351.587 599.576a179.869 179.869 0 0 0 3.569-1.786c-1.044-1.333-2.08-2.649-3.107-3.954a94.097 94.097 0 0 1-2.006 3.773c.509.651 1.024 1.306 1.544 1.967z"/><path fill="#4F2324" d="M347.839 601.341a173.209 173.209 0 0 0 3.746-1.765c-.519-.661-1.033-1.316-1.542-1.967a91.4 91.4 0 0 1-2.204 3.732zM182.484 454.517l1.578 3.703c.264-.252.527-.501.794-.752l-.264-4.805-1.774 1.522-2.502 2.397.004.068c.727-.703 1.42-1.44 2.164-2.133zM181.255 460.972l-.777-1.533.126 2.199c.218-.221.431-.443.651-.666zM187.016 496.736a110.666 110.666 0 0 0-3.976 7.649l.455 8.151a105.53 105.53 0 0 1 3.912-8.717l-.391-7.083z"/><path fill="#4F2324" d="M184.062 458.22l-1.578-3.703c-.744.692-1.437 1.43-2.166 2.135l.16 2.787.777 1.533c.916-.924 1.856-1.841 2.807-2.752zM184.856 457.469c-.267.251-.53.502-.794.754l.959 2.249-.165-3.003zM186.463 486.644l-4.597-2.879.042.715 4.991 10.125zM184.959 500.514c.253-.487.506-.973.768-1.46l-2.023 1.002 1.255.458zM183.737 465.874l-2.482-4.899c-.22.221-.432.442-.65.666l.136 2.353 2.996 1.88zM185.727 499.054c.416-.776.85-1.549 1.289-2.323l-.118-2.126-4.99-10.125.87 15.239.925.337 2.024-1.002z"/><path fill="#4F2324" d="M187.711 496.736v-.005c0 .774-1.22 1.547-1.637 2.323-.261.487-.668.973-.92 1.46-.667 1.285-1.298 2.574-2.069 3.866v.006c.771-2.559 2.312-5.11 4.626-7.65zM185.375 466.898l-.354-6.427-.959-2.249c-.951.908-1.891 1.826-2.807 2.752l2.482 4.899 1.638 1.025z"/><path fill="#4F2324" d="M181.288 460.845c.917-.774 1.796-1.715 2.567-2.623v-.003c-.771.911-1.636 1.852-2.551 2.624h-.017v.002zM183.737 465.874l-2.997-1.881 1.126 19.772 4.597 2.879-.953-17.27zM185.375 466.898l-1.638-1.024 1.773 3.5zM183.704 500.056l-.88.434.003.066.213 3.823c.605-1.291 1.25-2.58 1.918-3.865l-1.254-.458zM183.704 500.056l-.925-.338.045.772z"/><path fill="#49B7C8" d="M257.627 616.276c5.803.583 11.685.86 17.636.86a174.86 174.86 0 0 0 39.154-4.439l33.584-11.251 4.048-7.607c7.58-15.034 11.643-32.73 11.643-51.64l7.147-129.792c14.2-5.633 24.282-19.502 24.282-35.712 0-14.712-8.3-27.502-20.445-33.963l.034-.663c0-54.069-44.147-98.304-98.104-98.304-53.953 0-98.104 44.235-98.104 98.304l6.09 110.596 2.15 51.156 2.996 38.379c0 22.93 5.873 44.077 16.854 60.846 3.276 1.402 6.552 2.753 9.926 3.954-.001-.001 22.263 8.334 41.109 9.276zm72.465-94.784c-.007 1.481.007 2.971-.143 4.449-.098 1.481-.329 2.958-.617 4.417-.273 1.472-.681 2.918-1.137 4.342l-.788 2.112-.949 2.055a31.113 31.113 0 0 1-2.4 3.884c-.947 1.209-1.981 2.365-3.186 3.374-1.223.977-2.536 1.903-4.051 2.476-.713.349-1.562.548-2.399.745-.85.21-1.483.185-2.235.286-1.857-.037-3.361-.241-4.927-.861-1.558-.523-2.927-1.41-4.211-2.363-1.269-.977-2.36-2.129-3.368-3.332a30.747 30.747 0 0 1-2.587-3.889l-1.04-2.066-.881-2.138c-.086-.249-.164-.499-.25-.75-.091.296-.173.588-.268.879l-.832 2.184-1.002 2.136a31.6 31.6 0 0 1-2.534 4.04c-.997 1.267-2.098 2.479-3.384 3.539-1.307 1.029-2.713 2.017-4.357 2.618-.758.354-1.72.582-2.663.78-1.051.217-1.322.162-2.488.274-1.768-.066-3.562-.311-5.174-.988-1.66-.584-3.099-1.539-4.436-2.558-1.318-1.043-2.456-2.245-3.487-3.505a31.494 31.494 0 0 1-2.65-4.032l-1.057-2.133-.417-1.026c-.747 1.905-1.649 3.769-2.766 5.55-1.042 1.534-2.16 3.041-3.569 4.358-1.335 1.37-3.01 2.485-4.794 3.407-.968.384-1.819.824-3.008 1.053-.515.108-1.226.301-1.587.308l-1.235.101-.56.02-.388-.036-.78-.068c-.521-.044-1.042-.106-1.533-.281a10.468 10.468 0 0 1-2.831-1.151c-.91-.441-1.632-1.136-2.41-1.701-.669-.683-1.391-1.306-1.963-2.028a31.09 31.09 0 0 1-3.177-4.322c-.925-1.496-1.613-3.095-2.277-4.678l-.846-2.43-.669-2.464-.515-2.489-.343-2.512c-.154-1.707-.238-3.396-.208-5.033.005-.474.012-.942.019-1.412-.006-.423-.026-.849-.019-1.264.014-1.521.04-3.027.054-4.525a75.89 75.89 0 0 0-.072-2.734.66.66 0 0 1 .07-.311 75.06 75.06 0 0 0-.07-2.364c-.018-.376.765-.692 1.138-.711.374-.018 1.199.274 1.199.647v.063c0 .816-.026 1.638-.039 2.458.015.051.039.099.039.156v.061c0 1.166-.539 2.334-.544 3.505.016 1.241-.208 2.485-.173 3.711.07 1.674.14 3.273.381 4.849l.419 2.374.602 2.333a33.304 33.304 0 0 0 1.792 4.434c.734 1.409 1.566 2.749 2.53 3.965.961 1.21 2.015 2.354 3.283 3.142a10.877 10.877 0 0 0 3.896 1.607c1.205.363 2.666.337 3.524.382l1.232-.092c.464-.015.539-.136.831-.178.449-.047 1.085-.359 1.656-.56 1.131-.589 2.279-1.265 3.262-2.26 1.03-.913 1.902-2.065 2.744-3.241.783-1.233 1.5-2.525 2.094-3.904a31.588 31.588 0 0 0 1.478-4.273 36.04 36.04 0 0 0 .895-4.484c.205-1.521.286-3.057.334-4.597a2.79 2.79 0 0 1 2.684-2.9c1.539-.062 2.277 1.143 2.334 2.685l-.56.099v.117c0 1.358.6 2.717.764 4.063.108 1.349.624 2.689.9 4.005.272 1.323.801 2.608 1.216 3.88l.79 1.866.888 1.792a26.905 26.905 0 0 0 2.102 3.301c.804 1.001 1.666 1.93 2.617 2.711.964.747 1.967 1.448 3.06 1.834 1.068.49 2.202.623 3.331.713.271-.06 1.479-.049 1.837-.191.476-.133.948-.189 1.515-.452 1.102-.371 2.142-1.046 3.135-1.775.981-.76 1.874-1.687 2.71-2.679a27.09 27.09 0 0 0 2.196-3.29l.91-1.796.776-1.877c.455-1.28.883-2.578 1.192-3.913.317-1.333.587-2.688.735-4.059.192-1.367.231-2.75.298-4.133-.046-1.122.265-2.077 1.386-2.126 1.123-.054 1.563.818 1.563 1.943v.182c0 1.383.583 2.771.742 4.148.1 1.378.61 2.748.888 4.095.27 1.363.794 2.684 1.218 3.991l.795 1.927.901 1.858a28.248 28.248 0 0 0 2.169 3.444l1.302 1.527c.482.441.935.945 1.439 1.356 1.018.812 2.093 1.582 3.286 2.031 1.113.544 2.539.715 3.573.837.688-.066 1.534-.028 2.095-.179.574-.136 1.155-.217 1.771-.492 1.237-.4 2.36-1.129 3.443-1.915 1.064-.816 2.017-1.8 2.914-2.849a28.045 28.045 0 0 0 2.33-3.446l.959-1.871.818-1.946c.48-1.33.939-2.672 1.277-4.051.34-1.376.642-2.774.804-4.192.217-1.414.278-2.843.362-4.276l.005-.044a.682.682 0 0 1 .714-.641.682.682 0 0 1 .64.685c-.004.831-.01 1.664-.034 2.496.014.057.032.114.032.177zm13.079-48.001c-.052 1.663-.259 3.318-.488 4.972a51.04 51.04 0 0 1-1.007 4.912c-.442 1.62-.92 3.234-1.561 4.804-.612 1.571-1.33 3.12-2.212 4.598a23.62 23.62 0 0 1-3.049 4.216c-.56.676-1.285 1.225-1.93 1.839-.756.503-1.445 1.103-2.293 1.498l-1.254.609c-.447.175-.96.299-1.441.447-1.062.346-1.719.273-2.574.409-.786-.021-1.039-.063-1.59-.104-.481-.009-.945-.115-1.406-.251-.942-.196-1.813-.551-2.656-.972-.867-.377-1.58-.956-2.364-1.444-.672-.599-1.428-1.146-2.021-1.81a24.1 24.1 0 0 1-3.263-4.166c-.953-1.467-1.743-3.011-2.43-4.591-.641-1.415-1.15-2.873-1.62-4.341-.447 1.512-.932 3.021-1.558 4.485-.655 1.614-1.421 3.194-2.359 4.713a24.822 24.822 0 0 1-3.236 4.33c-.602.692-1.368 1.274-2.055 1.914-.801.531-1.539 1.146-2.443 1.567l-1.345.639c-.486.191-1.058.332-1.59.477l-.819.206c-.247.049-.419.049-.626.079l-1.218.465-.261.344h-.024l-.045-.342-.096-.178-.192-.102-.386-.073-.771-.093c-.518-.026-1.017-.15-1.5-.299-1.009-.226-1.93-.624-2.814-1.078-.914-.411-1.654-1.027-2.468-1.559-.689-.631-1.463-1.215-2.07-1.905a24.688 24.688 0 0 1-3.293-4.321c-.951-1.512-1.733-3.102-2.403-4.71-.497-1.129-.896-2.283-1.271-3.443-.376 1.154-.778 2.302-1.271 3.429-.68 1.604-1.46 3.183-2.417 4.69a24.524 24.524 0 0 1-3.293 4.302c-.605.69-1.376 1.269-2.071 1.892-.807.525-1.545 1.134-2.455 1.54l-1.345.627c-.485.187-1.057.314-1.585.459-1.305.35-1.555.227-2.88.364-2.034-.106-4.073-.55-5.778-1.521-.898-.409-1.626-1.027-2.425-1.558-.677-.633-1.439-1.208-2.036-1.901a24.898 24.898 0 0 1-3.219-4.312c-.931-1.51-1.691-3.085-2.343-4.69-.678-1.601-1.199-3.24-1.671-4.892-.003-.008-.003-.016-.006-.022-.497 1.615-1.038 3.215-1.732 4.774-.671 1.58-1.452 3.127-2.393 4.599a24.148 24.148 0 0 1-3.223 4.174c-.591.663-1.338 1.214-2.007 1.815-.777.501-1.492 1.085-2.361 1.458l-1.283.58c-.452.176-.977.287-1.463.417-1.147.328-1.574.22-2.744.347-1.906-.12-3.819-.533-5.428-1.464-.848-.396-1.542-.994-2.298-1.497-.652-.607-1.372-1.16-1.944-1.832-1.189-1.303-2.247-2.696-3.087-4.2-.882-1.475-1.601-3.033-2.216-4.607-.644-1.569-1.126-3.189-1.571-4.807a45.2 45.2 0 0 1-.812-3.84c-.001-.012.437-.023.434-.036l2.24.756c.491 1.512 1.02 3.011 1.688 4.443.638 1.441 1.369 2.832 2.227 4.122a22.331 22.331 0 0 0 2.825 3.597c.5.564 1.111.982 1.654 1.483.619.368 1.188.854 1.839 1.117 1.253.691 2.625.896 3.963.973.439-.104 1.689-.098 2.087-.349.292-.108.572-.157.879-.284l.934-.463c.629-.282 1.175-.779 1.777-1.15.525-.516 1.113-.935 1.593-1.506a20.578 20.578 0 0 0 2.684-3.617c.801-1.298 1.474-2.698 2.057-4.135.605-1.429 1.078-2.92 1.51-4.422a48.268 48.268 0 0 0 1.02-4.596c.232-1.557 1.024-3.113 1.105-4.688.156-1.568.726-3.15.726-4.726v-.034c0-1.142.358-2.08 1.491-2.109 1.138-.026 1.593.874 1.593 2.015v.128c0 .378 0 .756.012 1.133.252.334.421.725.431 1.179l-.012.129c.071 1.573.082 3.153.27 4.717.095 1.307.301 2.595.517 3.883.22.975.456 1.942.744 2.898.455 1.48.945 2.955 1.575 4.355.602 1.413 1.295 2.779 2.105 4.04a19.99 19.99 0 0 0 2.689 3.486c.479.543 1.051.931 1.565 1.415.576.34 1.109.809 1.713 1.051 1.158.652 2.4.828 3.617.909.285-.087 1.709-.09 1.953-.317.249-.097.482-.132.754-.24l.872-.423c.593-.248 1.114-.721 1.681-1.063.497-.491 1.06-.887 1.526-1.431a20.255 20.255 0 0 0 2.619-3.495c.785-1.265 1.45-2.626 2.029-4.037.605-1.397 1.073-2.868 1.509-4.348.421-1.485.754-3 1.027-4.527.239-1.537.491-3.074.584-4.634.163-1.556.148-3.121.208-4.68-.048-1.43 1.611-2.622 3.036-2.667 1.424-.048 3.213 1.072 3.213 2.5V466.073c0 .297-.226.592-.22.889.274.395.22.867.22 1.386V468.516c0 1.558-.257 3.119-.087 4.675.089 1.474.175 2.931.404 4.387.177.784.296 1.562.518 2.334.439 1.471.874 2.938 1.479 4.333.581 1.405 1.235 2.768 2.025 4.021a19.618 19.618 0 0 0 2.607 3.472c.463.543 1.02.931 1.519 1.417.565.344 1.082.81 1.667 1.057.575.292 1.152.552 1.747.671.297.101.59.178.894.178l.448.04.223.023.113-.526.053-.536h.021l1.027.458c.189-.024.431.242.584.208l.361.004c.245-.083.479-.044.754-.144l.87-.373c.593-.238 1.118-.684 1.689-1.023.506-.479 1.078-.855 1.551-1.399a19.907 19.907 0 0 0 2.67-3.462c.805-1.25 1.492-2.61 2.091-4.021.624-1.393 1.113-2.862 1.568-4.339.44-1.49.798-3.002 1.093-4.539.256-1.538.531-3.084.643-4.652.184-1.56.194-3.135.261-4.705-.047-1.228.87-2.261 2.094-2.306 1.22-.048 2.267.903 2.267 2.134V466.076c0 .351-.229.702-.222 1.054.256.347.222.748.222 1.212v.177c0 1.569.306 3.143.465 4.707.087 1.571.474 3.125.702 4.675.006.033.083.065.091.1.146.683.34 1.368.522 2.044.423 1.498.896 2.994 1.491 4.422a27.763 27.763 0 0 0 2.023 4.138 20.897 20.897 0 0 0 2.65 3.629c.477.575 1.061.999 1.583 1.512.592.38 1.14.881 1.772 1.162 1.145.729 2.709.97 3.743 1.112.754-.094 1.774-.052 2.256-.283.298-.094.591-.14.906-.251l.958-.433c.656-.266 1.226-.751 1.843-1.116.549-.498 1.157-.919 1.669-1.474a21.234 21.234 0 0 0 2.861-3.581c.86-1.297 1.593-2.696 2.233-4.135.666-1.43 1.197-2.931 1.693-4.447.479-1.521.868-3.07 1.195-4.641.29-1.579.124-3.158.277-4.755.229-1.601-.096-3.211-.096-4.827v-.049c0-.409.854-.716 1.264-.69.393.027.928.351.932.739-.002.586.123 1.17.126 1.756.28.106.539.371.541.687-.004 1.654.075 3.315-.058 4.971z"/><path fill="#49B7C8" d="M350.043 597.609c-9.77-12.443-17.566-22.289-18.425-23.121l-12.942 10.202-13.277 10.468c.488.837 5.684 7.492 12.868 16.594a174.063 174.063 0 0 0 29.573-10.411 92.545 92.545 0 0 0 2.203-3.732zM198.504 488.329v-.004c-2.312.882-1.859 1.438-1.859 1.438l-2.303-3.749c-2.583 3.539-5.075 7.118-7.123 10.721l1.095 7.086c2.702-5.373 4.794-10.56 10.19-15.492z"/><path fill="#49B7C8" d="M193.94 486.013l1.897 3.749s.401-.556 1.053-1.437l-1.694-3.976c-.422.555-.849 1.108-1.256 1.664zM188.631 468.942l9.726 6.1-10.166-20.624a142.202 142.202 0 0 0-3.335 3.051l.165 3.003 3.61 8.47zM191.358 489.491c-1.366 2.036-2.301 4.196-3.495 6.253-.169.292-.152.695-.152.987v.005c.771-3.603 3.835-6.535 6.417-11.17h-.095c-.897 2.318-1.846 2.688-2.675 3.925z"/><path fill="#49B7C8" d="M191.358 489.715l-4.895-3.07.436 7.961.618 1.249a112.406 112.406 0 0 1 3.841-6.14zM185.021 460.471l.354 6.427 3.256 2.044zM195.42 484.347c0 .554-.962 1.109-1.369 1.666h.057c.407-.557 1.312-1.109 1.312-1.664v-.002zM200.011 478.4l-1.654-3.358-9.727-6.1 6.565 15.405a119.114 119.114 0 0 1 4.816-5.947zM193.94 486.013l-8.43-16.64.952 17.271 4.895 3.07a111.93 111.93 0 0 1 2.583-3.701z"/><path fill="#49B7C8" d="M193.94 486.013c.405-.557.834-1.112 1.256-1.666l-6.565-15.404-3.255-2.045.135 2.476 8.429 16.639zM138.249 551.359c-.104.702-.2 1.403-.293 2.103l1.903-.133a181.475 181.475 0 0 1-1.61-1.97zM199.18 338.257c-21.147 0-38.353 17.242-38.353 38.438 0 21.19 17.206 38.434 38.353 38.434s38.356-17.244 38.356-38.434c0-21.197-17.207-38.438-38.356-38.438"/><path fill="#33A7B8" d="M199.18 349.737c16.021 0 29.008 13.013 29.008 29.065 0 16.048-12.986 29.065-29.008 29.065-16.019 0-29.005-13.015-29.005-29.065 0-16.052 12.986-29.065 29.005-29.065M356.112 349.737c16.022 0 29.008 13.013 29.008 29.065 0 16.048-12.985 29.065-29.008 29.065-16.017 0-29.003-13.015-29.003-29.065 0-16.052 12.983-29.065 29.003-29.065"/><path fill="#4F2324" d="M371.388 480.842l-3.787-.183 2.552-52.886 3.787.183zM182.845 493.476l-2.531-52.79 3.798-.181 2.53 52.789z"/><path fill="#FACF18" d="M199.18 350.818c14.263 0 25.828 11.583 25.828 25.876 0 14.291-11.565 25.877-25.828 25.877-14.26 0-25.823-11.587-25.823-25.877.002-14.294 11.564-25.876 25.823-25.876"/><path fill="#4F2324" d="M199.18 403.998c-15.022 0-27.246-12.25-27.246-27.304 0-15.055 12.224-27.303 27.246-27.303 15.025 0 27.246 12.248 27.246 27.303.002 15.052-12.221 27.304-27.246 27.304zm0-51.759c-13.455 0-24.4 10.97-24.4 24.455 0 13.483 10.946 24.45 24.4 24.45 13.459 0 24.403-10.967 24.403-24.45 0-13.485-10.944-24.455-24.403-24.455z"/><path fill="#FACF18" d="M356.766 350.818c14.263 0 25.818 11.583 25.818 25.876 0 14.291-11.556 25.877-25.818 25.877-14.267 0-25.825-11.587-25.825-25.877 0-14.294 11.558-25.876 25.825-25.876"/><path fill="#4F2324" d="M356.766 403.998c-15.024 0-27.247-12.25-27.247-27.304 0-15.055 12.223-27.303 27.247-27.303 15.021 0 27.243 12.248 27.243 27.303 0 15.052-12.222 27.304-27.243 27.304zm0-51.759c-13.457 0-24.404 10.97-24.404 24.455 0 13.483 10.947 24.45 24.404 24.45 13.453 0 24.397-10.967 24.397-24.45 0-13.485-10.944-24.455-24.397-24.455z"/><path fill="#33A7B8" d="M182.282 341.883s18.47-30.081 39.457 2.225c0 0-16.948-16.148-39.457-2.225z"/><path fill="#4F2324" d="M220.673 344.589c-.335 0-.673-.119-.944-.361-16.034-14.28-34.694-2.438-35.48-1.926a1.424 1.424 0 0 1-1.551-2.388c.21-.135 21.25-13.558 38.923 2.186a1.43 1.43 0 0 1 .119 2.012 1.433 1.433 0 0 1-1.067.477z"/><path fill="#33A7B8" d="M277.091 243.633s83.921 21.777 58.002 95.255c0 0 21.182-7.127 40.299 3.957 0 0-.393-91.371-98.301-99.212z"/><path fill="#4F2324" d="M332.345 344.589a1.427 1.427 0 0 1-.943-2.492c17.67-15.743 38.711-2.32 38.919-2.184a1.425 1.425 0 0 1-1.551 2.388c-.786-.512-19.446-12.356-35.481 1.924-.27.244-.609.364-.944.364z"/><g transform="translate(62 107.157)"><path fill="#4F2324" d="M137.18 286.033a4.479 4.479 0 0 1-4.475-4.483v-24.03c0-2.479 2.002-4.484 4.475-4.484s4.475 2.008 4.475 4.484v24.03a4.477 4.477 0 0 1-4.475 4.483"/><ellipse fill="#FFF" cx="144.759" cy="258.141" rx="5.68" ry="5.691"/></g><g transform="translate(164 106.155)"><path fill="#4F2324" d="M192.766 287.035a4.48 4.48 0 0 1-4.479-4.483v-24.03a4.478 4.478 0 0 1 4.479-4.484 4.478 4.478 0 0 1 4.471 4.484v24.03a4.478 4.478 0 0 1-4.471 4.483"/><ellipse fill="#FFF" cx="200.162" cy="257.243" rx="5.68" ry="5.691"/></g><path fill="#33A7B8" d="M275.447 423.603c-15.245 0-29.662-5.675-40.797-16.104-5.729-5.362-6.031-14.359-.676-20.101 5.349-5.741 14.326-6.042 20.056-.679 12.68 11.871 32.634 11.194 44.477-1.505 5.35-5.737 14.333-6.044 20.056-.679 5.731 5.367 6.032 14.358.678 20.097-10.881 11.668-25.69 18.391-41.707 18.936-.693.026-1.392.035-2.087.035"/><path fill="#9CD3E3" d="M275.447 419.787c-15.245 0-29.662-5.676-40.797-16.103-5.729-5.362-6.031-14.361-.676-20.103 5.349-5.737 14.326-6.042 20.056-.679 12.68 11.871 32.634 11.198 44.477-1.505 5.35-5.739 14.333-6.043 20.056-.679 5.731 5.364 6.032 14.36.678 20.1-10.881 11.668-25.69 18.389-41.707 18.931-.693.028-1.392.038-2.087.038"/><path fill="#7BB4C3" d="M275.5 413.186c-12.334 0-24.688-4.495-34.388-13.576a4.74 4.74 0 0 1-.226-6.701 4.722 4.722 0 0 1 6.686-.226c16.483 15.439 42.433 14.56 57.847-1.962a4.727 4.727 0 0 1 6.688-.224c1.908 1.782 2.006 4.785.227 6.701-9.909 10.619-23.356 15.988-36.834 15.988"/><path fill="#4F2324" d="M275.5 410.655c-12.334 0-24.688-4.497-34.388-13.579a4.739 4.739 0 0 1-.226-6.701 4.724 4.724 0 0 1 6.686-.227c16.483 15.443 42.433 14.564 57.847-1.958a4.727 4.727 0 0 1 6.688-.229c1.908 1.786 2.006 4.789.227 6.704-9.909 10.618-23.356 15.99-36.834 15.99"/><g><path fill="#33A7B8" d="M275.447 423.603c-15.245 0-29.662-5.675-40.797-16.104-5.729-5.362-6.031-14.359-.676-20.101 5.349-5.741 14.326-6.042 20.056-.679 12.68 11.871 32.634 11.194 44.477-1.505 5.35-5.739 14.333-6.044 20.056-.681 5.731 5.368 6.032 14.36.678 20.098-10.881 11.668-25.69 18.391-41.707 18.936-.693.027-1.392.036-2.087.036"/><path fill="#9CD3E3" d="M275.447 419.787c-15.245 0-29.662-5.676-40.797-16.103-5.729-5.362-6.031-14.361-.676-20.103 5.349-5.737 14.326-6.042 20.056-.679 12.68 11.871 32.634 11.198 44.477-1.505 5.35-5.739 14.333-6.043 20.056-.679 5.731 5.364 6.032 14.36.678 20.1-10.881 11.668-25.69 18.389-41.707 18.931-.693.028-1.392.038-2.087.038"/><path fill="#7BB4C3" d="M275.5 413.186c-12.334 0-24.688-4.495-34.388-13.576a4.74 4.74 0 0 1-.226-6.701 4.722 4.722 0 0 1 6.686-.226c16.483 15.439 42.433 14.56 57.847-1.962a4.727 4.727 0 0 1 6.688-.224c1.908 1.782 2.006 4.785.227 6.701-9.909 10.619-23.356 15.988-36.834 15.988"/><path fill="#4F2324" d="M275.5 410.655c-12.334 0-24.688-4.497-34.388-13.579a4.739 4.739 0 0 1-.226-6.701 4.724 4.724 0 0 1 6.686-.227c16.483 15.443 42.433 14.564 57.847-1.958a4.727 4.727 0 0 1 6.688-.229c1.908 1.786 2.006 4.789.227 6.704-9.909 10.618-23.356 15.99-36.834 15.99"/></g><path fill="#49B7C8" d="M193.878 452.346h162.677v103.521H193.878z"/><g><path fill="#33A7B8" d="M226.219 512.288c-.139 3.306-.079 6.65.015 9.919.073 1.677.262 3.286.503 4.864l.481 2.383.636 2.337a33.65 33.65 0 0 0 1.81 4.45c.737 1.412 1.581 2.756 2.547 3.976.964 1.214 2.024 2.36 3.298 3.153a10.937 10.937 0 0 0 3.906 1.61c1.209.362 2.677.342 3.539.385l1.234-.092c.467-.017.543-.136.837-.178.448-.05 1.087-.363 1.663-.563 1.132-.59 2.281-1.268 3.268-2.267 1.033-.916 1.909-2.072 2.752-3.254a27.692 27.692 0 0 0 2.101-3.913 31.715 31.715 0 0 0 1.484-4.287 35.88 35.88 0 0 0 .897-4.5c.205-1.525.287-3.065.336-4.606h5.597c.036 1.359.039 2.72.203 4.07.107 1.357.345 2.697.624 4.018.273 1.329.661 2.616 1.08 3.896l.723 1.87.855 1.797a27.215 27.215 0 0 0 2.09 3.313c.806.999 1.663 1.937 2.615 2.718.966.748 1.972 1.453 3.065 1.842 1.072.49 2.208.624 3.34.714.271-.06 1.485-.05 1.842-.193.477-.134.95-.19 1.519-.453 1.108-.372 2.147-1.047 3.143-1.782.986-.761 1.88-1.688 2.721-2.686a26.973 26.973 0 0 0 2.205-3.301l.91-1.801.78-1.883c.456-1.282.885-2.585 1.194-3.924.32-1.338.59-2.697.736-4.073.196-1.372.238-2.758.304-4.145h4.075c.03 1.387.027 2.779.183 4.16.103 1.383.333 2.757.612 4.11.269 1.363.659 2.69 1.084 4l.729 1.935.867 1.86a28.58 28.58 0 0 0 2.154 3.458l1.298 1.533c.483.442.932.95 1.439 1.36 1.021.814 2.097 1.586 3.294 2.033 1.118.552 2.546.722 3.582.844.689-.066 1.537-.03 2.1-.182.579-.135 1.162-.217 1.779-.493 1.238-.4 2.367-1.128 3.451-1.92 1.071-.818 2.024-1.803 2.925-2.855a28.562 28.562 0 0 0 2.337-3.457l.964-1.876.82-1.953c.48-1.334.943-2.68 1.279-4.064.343-1.38.641-2.784.806-4.205.218-1.417.282-2.853.363-4.29l.005-.044a.687.687 0 0 1 .72-.642.683.683 0 0 1 .641.687c-.009 1.486.007 2.977-.144 4.464-.1 1.484-.332 2.966-.621 4.43-.271 1.474-.68 2.924-1.139 4.354l-.791 2.12-.955 2.062a31.086 31.086 0 0 1-2.406 3.896c-.948 1.21-1.984 2.37-3.192 3.384-1.229.98-2.546 1.908-4.065 2.483-.714.35-1.564.547-2.407.748-.852.209-1.486.184-2.24.288-1.867-.04-3.373-.244-4.941-.868-1.562-.524-2.937-1.412-4.225-2.366-1.273-.98-2.368-2.137-3.379-3.344a31.346 31.346 0 0 1-2.594-3.9l-1.044-2.075-.884-2.14c-.515-1.456-.991-2.917-1.335-4.418-.353-1.494-.65-3.004-.815-4.53-.213-1.52-.259-3.052-.329-4.583a2.045 2.045 0 0 1 1.947-2.135 2.038 2.038 0 0 1 2.128 1.95l.003.118-.003.063c-.024 1.532-.031 3.07-.202 4.6-.116 1.533-.373 3.06-.69 4.569-.301 1.52-.74 3.01-1.226 4.49l-.831 2.195-1.009 2.14a31.5 31.5 0 0 1-2.541 4.054c-1 1.268-2.104 2.48-3.393 3.547-1.313 1.034-2.723 2.02-4.373 2.626-.759.356-1.723.58-2.668.783-1.056.218-1.328.16-2.497.274-1.771-.066-3.572-.312-5.189-.994-1.663-.584-3.108-1.54-4.448-2.56-1.323-1.048-2.464-2.256-3.503-3.518a31.707 31.707 0 0 1-2.655-4.045l-1.062-2.14-.892-2.203c-.522-1.49-.998-2.99-1.337-4.523-.349-1.528-.643-3.068-.801-4.623-.206-1.554-.249-3.114-.304-4.67a2.798 2.798 0 0 1 2.689-2.912 2.803 2.803 0 0 1 2.906 2.695l.003.096v.12c.003 7.057-1.515 14.272-5.457 20.558-1.045 1.539-2.163 3.05-3.578 4.37-1.34 1.373-3.022 2.493-4.812 3.42-.97.383-1.823.824-3.019 1.055-.516.11-1.229.298-1.59.308l-1.238.102-.562.019-.39-.035-.783-.067c-.522-.045-1.045-.11-1.537-.283a10.466 10.466 0 0 1-2.842-1.156c-.913-.444-1.639-1.138-2.415-1.705-.673-.686-1.395-1.312-1.969-2.035a31.055 31.055 0 0 1-3.188-4.336c-.926-1.501-1.62-3.105-2.283-4.69l-.849-2.437-.67-2.472-.518-2.497-.343-2.521c-.155-1.71-.241-3.403-.209-5.048.031-3.357.136-6.638-.016-9.964a.683.683 0 0 1 .649-.714.686.686 0 0 1 .713.652v.06M204.666 468.54c.112 1.637.172 3.298.404 4.87.158 1.587.482 3.183.789 4.755.357 1.569.739 3.12 1.218 4.643.495 1.516 1.024 3.02 1.696 4.457.642 1.444 1.372 2.842 2.232 4.137a22.7 22.7 0 0 0 2.834 3.606c.502.567 1.115.984 1.659 1.487.62.37 1.192.857 1.849 1.122 1.254.692 2.629.897 3.973.973.442-.103 1.694-.095 2.094-.35.294-.106.574-.158.881-.28l.937-.466c.633-.283 1.183-.78 1.783-1.153.527-.517 1.114-.94 1.599-1.511a20.595 20.595 0 0 0 2.693-3.631c.799-1.301 1.476-2.706 2.061-4.146.607-1.432 1.082-2.93 1.514-4.436a48.238 48.238 0 0 0 1.024-4.61c.232-1.558.479-3.122.563-4.7.158-1.574.143-3.162.183-4.74h4.12c.069 1.578.082 3.163.271 4.729.114 1.578.388 3.132.649 4.683a48.266 48.266 0 0 0 1.106 4.566c.458 1.487.952 2.966 1.583 4.372.604 1.412 1.299 2.788 2.111 4.05a20.062 20.062 0 0 0 2.699 3.494c.48.547 1.055.937 1.57 1.425.578.337 1.111.81 1.718 1.05 1.163.658 2.408.832 3.626.914.286-.088 1.715-.091 1.959-.318.25-.098.483-.136.759-.244l.874-.421c.593-.25 1.117-.725 1.683-1.071.503-.487 1.066-.885 1.535-1.432a20.11 20.11 0 0 0 2.625-3.505c.789-1.267 1.458-2.636 2.038-4.05.604-1.4 1.075-2.878 1.513-4.361.422-1.49.756-3.008 1.03-4.544.24-1.541.491-3.082.584-4.647.163-1.558.146-3.127.208-4.69h5.174c.048 1.563.044 3.134.215 4.688.095 1.562.354 3.107.592 4.646.282 1.535.62 3.052 1.047 4.543.441 1.478.916 2.946 1.521 4.349.584 1.407 1.259 2.775 2.049 4.033.755 1.29 1.659 2.447 2.625 3.483.467.546 1.03.934 1.53 1.42.565.342 1.086.813 1.674 1.062.575.292 1.156.55 1.753.672.294.099.593.177.897.177l.449.04.224.023.116.02.055.005h.027l.014.006c-.096.003.246-.011-.219.01l1.228-.104c.19-.021.431-.026.584-.06l.362-.131c.247-.086.48-.112.758-.214l.87-.406c.595-.241 1.124-.703 1.698-1.047.505-.48 1.078-.864 1.554-1.41a19.992 19.992 0 0 0 2.679-3.476c.805-1.254 1.498-2.623 2.096-4.036.627-1.398 1.118-2.875 1.575-4.356.439-1.495.8-3.01 1.095-4.554.258-1.542.534-3.095.644-4.664.185-1.564.198-3.145.265-4.72h4.444c.04 1.575.026 3.155.186 4.727.087 1.572.336 3.13.565 4.688.28 1.545.59 3.084.999 4.598.422 1.5.879 3 1.477 4.432.568 1.442 1.233 2.846 2.021 4.149a20.804 20.804 0 0 0 2.655 3.645c.476.573 1.062 1 1.586 1.515.592.383 1.139.883 1.775 1.167 1.148.73 2.716.973 3.752 1.112.759-.09 1.779-.051 2.263-.283.301-.094.595-.14.908-.251l.961-.436c.659-.265 1.233-.753 1.85-1.117.55-.5 1.162-.921 1.674-1.48a20.888 20.888 0 0 0 2.87-3.595c.861-1.297 1.599-2.697 2.239-4.143.67-1.435 1.203-2.94 1.7-4.458.48-1.527.869-3.083 1.2-4.655.287-1.585.604-3.17.758-4.774.229-1.604.278-3.221.386-4.837v-.051a.74.74 0 0 1 1.478.05c-.002 1.66.049 3.328-.082 4.989-.055 1.67-.276 3.33-.504 4.987a51.76 51.76 0 0 1-1.02 4.927c-.443 1.627-.931 3.243-1.569 4.818-.614 1.578-1.338 3.13-2.221 4.61a23.904 23.904 0 0 1-3.059 4.23c-.562.68-1.292 1.23-1.937 1.848-.762.503-1.454 1.102-2.302 1.5l-1.259.61c-.448.179-.96.302-1.445.447-1.062.348-1.723.273-2.581.413-.79-.021-1.044-.065-1.596-.104-.483-.011-.945-.118-1.412-.252-.942-.196-1.816-.553-2.663-.977-.869-.376-1.583-.954-2.372-1.447-.675-.601-1.43-1.148-2.027-1.813a24.536 24.536 0 0 1-3.272-4.18 31.675 31.675 0 0 1-2.438-4.605c-.714-1.575-1.273-3.204-1.787-4.84a46.001 46.001 0 0 1-1.226-4.99c-.283-1.68-.574-3.37-.697-5.07-.199-1.696-.214-3.398-.28-5.102a2.225 2.225 0 0 1 4.445-.174V468.568c-.039 1.704-.031 3.41-.204 5.107-.097 1.707-.361 3.4-.616 5.093a51.78 51.78 0 0 1-1.131 5.032c-.479 1.66-1.005 3.31-1.688 4.916-.658 1.619-1.427 3.204-2.367 4.726a25.043 25.043 0 0 1-3.247 4.345c-.603.692-1.373 1.276-2.06 1.918-.805.533-1.542 1.15-2.451 1.572l-1.35.64c-.486.194-1.06.336-1.596.479l-.819.207c-.247.049-.418.049-.629.08l-1.224.122-.259.006h-.024l-.047-.006-.097-.007-.193-.015-.384-.03-.774-.071c-.52-.028-1.02-.144-1.505-.29-1.015-.228-1.935-.62-2.822-1.075-.917-.412-1.66-1.03-2.476-1.563-.693-.63-1.47-1.216-2.076-1.905a24.927 24.927 0 0 1-3.304-4.335c-.955-1.518-1.739-3.11-2.414-4.725-.703-1.608-1.246-3.265-1.743-4.926a51.499 51.499 0 0 1-1.174-5.043c-.277-1.701-.56-3.4-.674-5.113-.187-1.714-.19-3.425-.246-5.138a2.588 2.588 0 0 1 2.498-2.678 2.596 2.596 0 0 1 2.675 2.508V468.569c-.049 1.713-.07 3.424-.256 5.134-.118 1.718-.403 3.416-.684 5.11a53.678 53.678 0 0 1-1.19 5.039c-.5 1.659-1.048 3.31-1.752 4.918-.681 1.61-1.465 3.196-2.424 4.708a24.732 24.732 0 0 1-3.304 4.314c-.608.692-1.382 1.27-2.078 1.897-.809.525-1.551 1.138-2.461 1.546l-1.351.627c-.485.189-1.059.316-1.588.46-1.31.353-1.562.229-2.891.367-2.041-.108-4.085-.551-5.794-1.526-.901-.411-1.634-1.032-2.432-1.562-.679-.634-1.445-1.211-2.042-1.906a25.011 25.011 0 0 1-3.229-4.325c-.934-1.512-1.699-3.095-2.352-4.704-.678-1.604-1.202-3.25-1.676-4.906a53.974 53.974 0 0 1-1.122-5.021c-.253-1.687-.518-3.376-.614-5.075-.167-1.694-.154-3.396-.193-5.095v-.038a2.059 2.059 0 0 1 2.012-2.113 2.065 2.065 0 0 1 2.111 2.019l-.003.133c-.068 1.696-.084 3.396-.282 5.085-.128 1.697-.418 3.379-.7 5.055a52.029 52.029 0 0 1-1.201 4.978c-.502 1.636-1.048 3.26-1.751 4.84-.673 1.582-1.455 3.137-2.398 4.613a24.36 24.36 0 0 1-3.233 4.188c-.595.664-1.344 1.217-2.013 1.819-.78.499-1.495 1.086-2.366 1.46l-1.287.583c-.455.177-.98.288-1.47.42-1.15.328-1.576.22-2.75.343-1.911-.12-3.83-.532-5.447-1.463-.849-.397-1.545-.995-2.304-1.501-.654-.61-1.378-1.164-1.95-1.84-1.192-1.306-2.254-2.705-3.098-4.211-.884-1.48-1.605-3.043-2.222-4.621-.644-1.573-1.13-3.198-1.574-4.823a44.534 44.534 0 0 1-1.004-4.938c-.208-1.665-.425-3.316-.473-5.007-.126-1.691-.066-3.313-.063-4.957a.745.745 0 0 1 .744-.745.742.742 0 0 1 .735.693"/><path fill="#9CD3E3" d="M204.178 466.095c.108 1.635.17 3.298.402 4.866.159 1.59.481 3.184.789 4.756.358 1.569.741 3.123 1.22 4.644.494 1.517 1.024 3.024 1.695 4.457.64 1.445 1.372 2.843 2.231 4.134a22.258 22.258 0 0 0 2.836 3.609c.501.566 1.114.984 1.659 1.488.619.37 1.191.856 1.846 1.123 1.254.693 2.63.896 3.974.973.441-.104 1.694-.097 2.094-.353.293-.105.574-.157.881-.28l.937-.465c.634-.283 1.18-.781 1.782-1.156.527-.515 1.115-.936 1.6-1.508a20.491 20.491 0 0 0 2.692-3.631c.801-1.3 1.479-2.706 2.062-4.146.609-1.433 1.082-2.93 1.514-4.436a48.31 48.31 0 0 0 1.025-4.61c.232-1.561.479-3.12.562-4.702.158-1.575.143-3.158.184-4.74h4.121c.068 1.582.082 3.164.27 4.732.113 1.577.387 3.13.649 4.68a47.278 47.278 0 0 0 1.108 4.57c.457 1.484.95 2.965 1.581 4.366.605 1.417 1.298 2.79 2.111 4.053a20.05 20.05 0 0 0 2.698 3.495c.48.546 1.058.935 1.572 1.422.577.342 1.111.81 1.717 1.053 1.163.655 2.408.83 3.626.914.286-.087 1.715-.094 1.959-.318.251-.101.483-.134.761-.245l.873-.421c.593-.247 1.117-.724 1.683-1.07.502-.49 1.067-.885 1.535-1.432a20.249 20.249 0 0 0 2.625-3.505c.787-1.268 1.456-2.636 2.036-4.05.605-1.4 1.075-2.878 1.515-4.36.42-1.49.754-3.01 1.028-4.544.24-1.54.493-3.084.584-4.647.164-1.56.147-3.128.209-4.692h5.174c.048 1.564.044 3.133.215 4.689.095 1.563.354 3.106.591 4.645a48.215 48.215 0 0 0 1.048 4.544c.44 1.478.916 2.945 1.521 4.349.584 1.408 1.259 2.775 2.051 4.035a19.679 19.679 0 0 0 2.625 3.48c.465.547 1.027.935 1.53 1.423.564.34 1.086.812 1.673 1.057.575.294 1.156.556 1.752.674.298.103.594.18.898.18l.449.04.225.022.115.019.054.004h.027l.013.006c-.095.005.247-.01-.219.01l1.229-.101c.191-.021.431-.027.586-.061l.361-.132c.246-.085.481-.112.757-.213l.872-.408c.594-.24 1.12-.702 1.695-1.045.51-.48 1.079-.868 1.554-1.41a19.812 19.812 0 0 0 2.678-3.478c.807-1.253 1.5-2.623 2.097-4.036.627-1.397 1.12-2.872 1.575-4.354a48.23 48.23 0 0 0 1.097-4.554c.258-1.542.533-3.097.645-4.665.184-1.562.195-3.145.262-4.72h4.445c.041 1.575.025 3.157.187 4.729.087 1.569.335 3.13.563 4.684.28 1.547.591 3.085 1 4.598.421 1.502.879 3.003 1.476 4.435.569 1.44 1.234 2.844 2.022 4.148a20.71 20.71 0 0 0 2.654 3.645c.476.575 1.063.999 1.588 1.514.592.384 1.138.883 1.775 1.166 1.146.734 2.714.976 3.752 1.116.758-.094 1.78-.053 2.262-.284.3-.094.595-.141.911-.254l.96-.432c.657-.267 1.229-.755 1.85-1.122.548-.498 1.16-.92 1.673-1.48a21.226 21.226 0 0 0 2.872-3.591c.859-1.3 1.596-2.703 2.237-4.146.67-1.433 1.202-2.941 1.699-4.46a49.466 49.466 0 0 0 1.201-4.654c.287-1.583.603-3.167.759-4.771.228-1.605.276-3.221.383-4.842v-.05a.742.742 0 1 1 1.481.049c-.005 1.664.048 3.33-.082 4.99-.053 1.673-.277 3.329-.507 4.988a51.084 51.084 0 0 1-1.02 4.927c-.442 1.626-.928 3.24-1.568 4.817-.615 1.578-1.337 3.132-2.222 4.613a23.913 23.913 0 0 1-3.058 4.229c-.561.679-1.291 1.23-1.937 1.847-.76.505-1.455 1.104-2.302 1.5l-1.259.613c-.445.178-.961.304-1.444.445-1.064.35-1.724.273-2.582.414-.789-.021-1.045-.064-1.595-.104-.484-.011-.946-.121-1.411-.254-.943-.194-1.817-.554-2.665-.975-.868-.377-1.582-.955-2.372-1.45-.673-.602-1.429-1.146-2.028-1.812a24.26 24.26 0 0 1-3.27-4.18c-.955-1.471-1.75-3.02-2.439-4.604-.715-1.576-1.274-3.204-1.787-4.843a46.335 46.335 0 0 1-1.229-4.987c-.279-1.681-.572-3.37-.695-5.072-.199-1.695-.214-3.396-.28-5.102a2.223 2.223 0 0 1 2.136-2.313 2.223 2.223 0 0 1 2.31 2.139V466.118c-.039 1.705-.03 3.413-.205 5.11-.096 1.706-.361 3.395-.617 5.094a51.866 51.866 0 0 1-1.128 5.032c-.479 1.656-1.008 3.309-1.688 4.915-.66 1.617-1.428 3.204-2.367 4.724a24.904 24.904 0 0 1-3.248 4.344c-.603.694-1.371 1.278-2.061 1.919-.804.532-1.542 1.15-2.449 1.572l-1.351.64c-.485.194-1.06.336-1.596.48l-.816.208c-.249.047-.422.047-.633.076l-1.221.124-.26.004h-.024l-.045-.004-.096-.007-.192-.014-.387-.032-.773-.072c-.521-.025-1.021-.144-1.506-.29-1.015-.225-1.936-.618-2.822-1.074-.915-.412-1.661-1.03-2.476-1.562-.693-.631-1.47-1.216-2.076-1.908a24.802 24.802 0 0 1-3.303-4.334c-.955-1.518-1.74-3.11-2.416-4.722-.702-1.61-1.245-3.268-1.74-4.928a51.471 51.471 0 0 1-1.178-5.044c-.275-1.702-.559-3.4-.671-5.113-.188-1.711-.193-3.424-.247-5.14a2.58 2.58 0 0 1 2.498-2.673 2.591 2.591 0 0 1 2.675 2.506V466.116c-.051 1.716-.071 3.429-.259 5.137-.117 1.715-.403 3.414-.681 5.11a54.485 54.485 0 0 1-1.19 5.039c-.499 1.659-1.047 3.312-1.753 4.916-.679 1.614-1.465 3.198-2.423 4.708a25.016 25.016 0 0 1-3.306 4.319c-.606.687-1.382 1.268-2.076 1.895-.81.526-1.551 1.138-2.463 1.547l-1.349.625c-.488.188-1.062.317-1.59.46-1.31.352-1.56.229-2.891.369-2.039-.11-4.084-.553-5.794-1.527-.9-.414-1.632-1.031-2.431-1.563-.682-.634-1.447-1.212-2.042-1.904a24.954 24.954 0 0 1-3.231-4.326c-.932-1.514-1.697-3.097-2.349-4.704-.681-1.605-1.204-3.251-1.679-4.907a53.72 53.72 0 0 1-1.119-5.018c-.253-1.687-.518-3.376-.616-5.077-.167-1.694-.153-3.397-.193-5.097v-.035a2.061 2.061 0 1 1 4.123-.094l-.001.13c-.07 1.699-.086 3.397-.283 5.087-.126 1.695-.417 3.379-.7 5.056a52.76 52.76 0 0 1-1.2 4.977c-.501 1.636-1.048 3.26-1.751 4.84-.673 1.583-1.455 3.137-2.398 4.61a24.378 24.378 0 0 1-3.233 4.19c-.593.665-1.345 1.216-2.015 1.819-.779.499-1.494 1.086-2.363 1.46l-1.289.583c-.455.177-.982.287-1.47.417-1.149.33-1.577.223-2.753.347-1.909-.12-3.828-.534-5.445-1.465-.849-.398-1.545-.994-2.305-1.5-.652-.611-1.376-1.168-1.949-1.84-1.191-1.308-2.254-2.705-3.098-4.211-.882-1.481-1.605-3.042-2.223-4.622-.643-1.575-1.129-3.2-1.573-4.823a44.14 44.14 0 0 1-1.004-4.94c-.206-1.663-.425-3.313-.476-5.006-.124-1.69-.063-3.312-.061-4.957a.742.742 0 0 1 1.481-.046M226.219 509.605c-.139 3.307-.079 6.65.015 9.919.073 1.677.262 3.285.503 4.865l.481 2.383.636 2.338a33.958 33.958 0 0 0 1.81 4.448c.737 1.412 1.581 2.756 2.547 3.975.964 1.214 2.024 2.36 3.298 3.153a10.921 10.921 0 0 0 3.906 1.61c1.209.362 2.677.34 3.539.383l1.234-.09c.467-.017.543-.138.837-.18.448-.048 1.087-.36 1.663-.561 1.132-.591 2.281-1.271 3.268-2.27 1.033-.914 1.909-2.071 2.752-3.251.786-1.235 1.506-2.531 2.101-3.915a31.525 31.525 0 0 0 1.484-4.287c.399-1.47.687-2.978.897-4.496.205-1.527.287-3.067.336-4.61h5.597c.036 1.36.039 2.72.203 4.072.107 1.354.345 2.698.624 4.019.273 1.327.661 2.614 1.08 3.893l.723 1.872.855 1.797a27.358 27.358 0 0 0 2.09 3.312c.806 1 1.663 1.936 2.615 2.719.966.748 1.972 1.453 3.065 1.842 1.072.49 2.208.625 3.34.712.271-.057 1.485-.046 1.842-.191.477-.135.95-.19 1.519-.452 1.108-.375 2.147-1.047 3.143-1.781.986-.764 1.88-1.69 2.721-2.687a26.78 26.78 0 0 0 2.205-3.304l.91-1.8.78-1.881c.456-1.285.885-2.584 1.194-3.928.32-1.334.59-2.695.736-4.068.196-1.372.238-2.761.304-4.145h4.075c.03 1.384.027 2.779.183 4.159.103 1.383.333 2.758.612 4.108.269 1.364.659 2.692 1.084 4l.729 1.936.867 1.86a28.502 28.502 0 0 0 2.154 3.458l1.298 1.532c.483.442.932.949 1.439 1.36 1.021.818 2.097 1.588 3.294 2.037 1.118.549 2.546.72 3.582.84.689-.064 1.537-.03 2.1-.18.579-.134 1.162-.217 1.779-.493 1.238-.4 2.367-1.13 3.451-1.92 1.071-.818 2.024-1.804 2.925-2.857a28.843 28.843 0 0 0 2.337-3.454l.964-1.88.82-1.951c.48-1.334.943-2.68 1.279-4.065.343-1.381.641-2.783.806-4.204.218-1.42.282-2.851.363-4.29l.005-.045a.688.688 0 0 1 .72-.641.685.685 0 0 1 .641.687c-.009 1.486.007 2.976-.144 4.462-.1 1.486-.332 2.967-.621 4.433-.271 1.472-.68 2.924-1.139 4.354l-.791 2.119-.955 2.062a31.147 31.147 0 0 1-2.406 3.895c-.948 1.212-1.984 2.373-3.192 3.384-1.229.98-2.546 1.909-4.065 2.483-.714.349-1.564.55-2.407.749-.852.21-1.486.185-2.24.284-1.867-.035-3.373-.24-4.941-.863-1.562-.524-2.937-1.414-4.225-2.37-1.273-.98-2.368-2.132-3.379-3.34a31.43 31.43 0 0 1-2.594-3.9l-1.044-2.075-.884-2.143c-.515-1.453-.991-2.916-1.335-4.417-.353-1.491-.65-3.002-.815-4.53-.213-1.52-.259-3.051-.329-4.583a2.04 2.04 0 0 1 1.947-2.132 2.035 2.035 0 0 1 2.128 1.949l.003.119-.003.063c-.024 1.53-.031 3.069-.202 4.597-.116 1.532-.373 3.06-.69 4.57-.301 1.522-.74 3.01-1.226 4.49l-.831 2.193-1.009 2.138a31.248 31.248 0 0 1-2.541 4.056c-1 1.27-2.104 2.483-3.393 3.548-1.313 1.035-2.723 2.022-4.373 2.628-.759.354-1.723.58-2.668.78-1.056.219-1.328.162-2.497.277-1.771-.07-3.572-.314-5.189-.994-1.663-.587-3.108-1.544-4.448-2.562-1.323-1.05-2.464-2.254-3.503-3.52a31.746 31.746 0 0 1-2.655-4.041l-1.062-2.141-.892-2.203c-.522-1.49-.998-2.992-1.337-4.525-.349-1.525-.643-3.07-.801-4.62-.206-1.554-.249-3.112-.304-4.671a2.798 2.798 0 0 1 2.689-2.912 2.803 2.803 0 0 1 2.906 2.695l.003.097v.12c.003 7.057-1.515 14.27-5.457 20.558-1.045 1.536-2.163 3.048-3.578 4.367-1.34 1.377-3.022 2.497-4.812 3.42-.97.385-1.823.826-3.019 1.059-.516.11-1.229.298-1.59.306l-1.238.104-.562.017-.39-.033-.783-.07c-.522-.044-1.045-.108-1.537-.28a10.532 10.532 0 0 1-2.842-1.157c-.913-.445-1.639-1.138-2.415-1.707-.673-.686-1.395-1.311-1.969-2.033a31.063 31.063 0 0 1-3.188-4.337c-.926-1.501-1.62-3.104-2.283-4.691l-.849-2.434-.67-2.475-.518-2.495-.343-2.521c-.155-1.71-.241-3.403-.209-5.047.031-3.357.136-6.64-.016-9.966a.678.678 0 0 1 .649-.711.68.68 0 0 1 .713.649v.062" opacity=".75"/></g></g></svg>