<svg xmlns="http://www.w3.org/2000/svg" width="595.279" height="841.891" viewBox="0 0 595.279 841.891"><g transform="translate(201 .376)"><defs><filter id="a" filterUnits="userSpaceOnUse" x="156.763" y="292.687" width="29.377" height="28.468"><feColorMatrix values="1 0 0 0 0 0 1 0 0 0 0 0 1 0 0 0 0 0 1 0"/></filter></defs><mask maskUnits="userSpaceOnUse" x="156.763" y="292.687" width="29.377" height="28.468" id="b"><path fill="#FFF" d="M156.764 321.155h29.375v-28.468h-29.375z" filter="url(#a)"/></mask><path mask="url(#b)" fill="#472728" d="M185.365 304.183c-.856-.89-2.352-1.36-4.328-1.36-1.464 0-3.157.251-5.033.749-3.21.85-5.449 2.343-6.859 3.586a2.03 2.03 0 0 0-.487-.224c.021-1.879-.305-4.55-1.753-7.538-2.065-4.262-4.521-6.707-6.737-6.708-.702 0-1.342.25-1.851.722-1.498 1.397-1.566 4.92-1.505 8.714l.009.596c.024 2.025.777 3.45 2.017 4.653-.181.1-.336.211-.47.337-1.021.951-1.758 3.501-1.575 5.458.142 1.509.776 2.662 1.836 3.333a3.467 3.467 0 0 0 1.881.536c.688 0 1.373-.188 2.025-.479-.165.777-.243 1.565-.056 2.065.137.367.399.653.739.808.174.081.37.124.574.124.66 0 1.231-.409 2.043-1.486.461 1.53 1.343 2.548 2.591 2.929.343.105.699.158 1.06.158 2.988 0 5.707-3.816 5.776-5.689a2.407 2.407 0 0 0-.05-.575c.249.022.489.034.725.034 1.559 0 2.866-.489 4.118-1.538.146-.124.305-.255.472-.394 2.91-2.423 5.53-4.768 5.612-6.809a2.689 2.689 0 0 0-.774-2.002"/></g><path fill="#E500DF" d="M366.786 300.392c-2.526-5.217-5.305-6.846-6.625-5.617-1.32 1.232-1.13 5.986-1.101 8.387.028 2.401 1.254 3.768 3.632 5.303 2.376 1.536 5.261 2.408 5.453 1.301.001-.001 1.172-4.155-1.359-9.374z"/><path fill="#ED497E" d="M360.209 309.076c-.974.907-2.18 5.402.083 6.833 2.261 1.433 5.739-1.955 7.104-3.843s.782-3.416-2.146-3.631c-.001-.001-4.068-.263-5.041.641z"/><path fill="#DE00DB" d="M369.325 310.308s2.389-3.596 7.995-5.08c5.605-1.484 8.648-.44 8.577 1.364-.072 1.804-3.802 4.756-5.641 6.301-1.842 1.543-3.676 1.505-6.39.702-2.711-.803-5.253-2.42-4.541-3.287"/><path fill="#ED497E" d="M372.222 311.635s2.853 2.914 2.8 4.242c-.049 1.326-2.674 5.173-5.233 4.391-2.562-.781-2.258-5.629-1.715-7.895.541-2.264 2.079-2.818 4.148-.738"/><path fill="#734A1E" d="M367.055 315.891c-.244.525-1.863 3.081-2.324 2.867-.458-.209.421-3.104.662-3.632l2.729-5.942c.241-.527.81-.782 1.27-.571.457.208.634.808.39 1.334l-2.727 5.944z"/><g><path opacity=".3" fill="#010101" enable-background="new" d="M344.213 341.956s-11.303-29.355-51.899-27.076l22.472 9.65 29.427 17.426zM374.189 386.182c-.867-1.292 1.138-2.801 1.59-4.079 2.859-8.1 3.387-14.378 3.393-14.442l-.014-.179-.011-.186c.539-1.889 2.426-3.209 4.377-3.06l.058-.105c0-.166.245.139.355.159.133.024.392.167.529.208 1.342.38 2.261 1.351 2.674 2.731.098.321.138.658.169 1.003l.508-1.798c.059-.206.124-.414.222-.624.01-.028.013-.077.033-.116.09-.184.167-.384.293-.553l.08-.108c.12-.16.282-.295.416-.425.029-.028.083-.035.127-.076.152-.145.312-.27.482-.386l.062-.038a3.693 3.693 0 0 1 .564-.305c.191-.085.375-.144.598-.204a.654.654 0 0 1 .142-.021c.145-.031.288-.039.413-.047.049-.003.099-.005.148-.011l.086.001 1.337.047.104.021a4.102 4.102 0 0 1 2.486 1.973c.538.969.668 2.088.365 3.153l-.57 1.999a4.129 4.129 0 0 1 5.568-1.015c.339.217.642.484.903.793a4.14 4.14 0 0 1 .55 4.575c-.028.053-.059.105-.088.16-.479 1.431-4.377 12.631-13.087 24.725-3.4 4.729-7.102 8.981-11.056 12.717.001-.002.388-20.225-3.806-26.487z"/><path fill="#4F2324" d="M340.832 408.705s-6.271 2.596-9.456 3.093l-5.214 15.853 6.864-.8 4.186-.646 2.149-.45 1.471-17.05z"/><path fill="#4F2324" d="M388.03 354.603l-.092-.003c-.054.007-.105.01-.158.012-.134.01-.286.018-.442.051a.69.69 0 0 0-.15.022 4.286 4.286 0 0 0-.637.217c-.029.013-.059.025-.076.034a4.012 4.012 0 0 0-.527.292l-.065.041a3.992 3.992 0 0 0-.518.413c-.047.042-.104.05-.135.08-.144.14-.317.284-.445.453l-.085.117c-.134.181-.219.395-.315.591-.021.041-.028.094-.039.124a4.6 4.6 0 0 0-.243.666l-.554 1.92a5.41 5.41 0 0 0-.205-1.072c-.442-1.473-1.475-2.51-2.906-2.915-.147-.045-.51-.198-.653-.223-.114-.02-.201-.345-.564-.169l.126.114c-2.084-.16-3.903 1.25-4.477 3.265l.007.2.011.19c-.007.067-.569 6.771-3.623 15.421-2.788 7.893-8.263 19.024-18.541 27.225a50.379 50.379 0 0 1-12.672 7.351l-2.624 17.135c10.244-2.015 19.826-6.259 28.483-12.62 7.188-5.28 13.758-12.019 19.526-20.033 9.298-12.914 13.461-24.875 13.975-26.4l.091-.17a4.42 4.42 0 0 0-.585-4.886 4.352 4.352 0 0 0-.966-.846 4.445 4.445 0 0 0-1.963-.686 4.4 4.4 0 0 0-3.981 1.77l.609-2.135a4.406 4.406 0 0 0-.391-3.367 4.374 4.374 0 0 0-2.655-2.106l-.11-.023-1.431-.05z"/><path fill="#006E76" d="M331.634 413.478l-3.443 12.129c51.574-3.69 69.375-59.208 69.375-59.208a2.64 2.64 0 0 0-.788-3.645 2.627 2.627 0 0 0-3.638.792l-2.639 4.103-.313.488a.993.993 0 0 1-.917.2 1 1 0 0 1-.686-1.233l2.104-7.4a2.639 2.639 0 0 0-1.812-3.258 2.63 2.63 0 0 0-3.252 1.815l-2.102 7.399h-.004a1.056 1.056 0 0 1-1.323.789 1.06 1.06 0 0 1-.762-1.132l.119-4.641c.156-1.51-.412-2.862-1.809-3.26a2.635 2.635 0 0 0-3.255 1.815c.001 0-3.713 45.048-44.855 54.247"/><g transform="translate(160 87.618)"><defs><filter id="c" filterUnits="userSpaceOnUse" x="201.287" y="277.331" width="41.326" height="29.877"><feColorMatrix values="1 0 0 0 0 0 1 0 0 0 0 0 1 0 0 0 0 0 1 0"/></filter></defs><mask maskUnits="userSpaceOnUse" x="201.287" y="277.331" width="41.326" height="29.877" id="d"><path fill="#FFF" d="M225.625 270.644l-2.103 7.399h-.004c-.005.022-.009.042-.015.062a1.057 1.057 0 0 1-2.07-.404l.121-4.641c.153-1.51-.412-2.86-1.812-3.26s-2.854.413-3.252 1.814c0 0-3.716 45.048-44.858 54.247l-3.443 12.127c51.574-3.689 69.375-59.203 69.375-59.203a2.644 2.644 0 0 0-.787-3.648 2.63 2.63 0 0 0-3.639.792l-2.639 4.105-.312.489a1.002 1.002 0 0 1-.918.202 1.004 1.004 0 0 1-.687-1.235l2.103-7.399a2.636 2.636 0 0 0-2.28-3.348 2.621 2.621 0 0 0-2.78 1.901" filter="url(#c)"/></mask><g opacity=".5" mask="url(#d)"><g transform="translate(45.5 11.524)"><defs><filter id="e" filterUnits="userSpaceOnUse" x="155.787" y="265.808" width="41.326" height="29.877"><feColorMatrix values="1 0 0 0 0 0 1 0 0 0 0 0 1 0 0 0 0 0 1 0"/></filter></defs><mask maskUnits="userSpaceOnUse" x="155.787" y="265.808" width="41.326" height="29.877" id="f"><path fill="#FFF" d="M155.791 291.908l38.78 3.784 2.538-26.104-38.78-3.784z" filter="url(#e)"/></mask><g opacity=".75" mask="url(#f)"><defs><filter id="g" filterUnits="userSpaceOnUse" x="155.787" y="265.808" width="41.326" height="29.877"><feColorMatrix values="1 0 0 0 0 0 1 0 0 0 0 0 1 0 0 0 0 0 1 0"/></filter></defs><mask maskUnits="userSpaceOnUse" x="155.787" y="265.808" width="41.326" height="29.877" id="h"><path fill="#FFF" d="M155.791 291.908l38.78 3.784 2.538-26.104-38.78-3.784z" filter="url(#g)"/></mask><g mask="url(#h)"><defs><filter id="i" filterUnits="userSpaceOnUse" x="155.787" y="265.808" width="41.326" height="29.877"><feColorMatrix values="1 0 0 0 0 0 1 0 0 0 0 0 1 0 0 0 0 0 1 0"/></filter></defs><mask maskUnits="userSpaceOnUse" x="155.787" y="265.808" width="41.326" height="29.877" id="j"><path fill="#FFF" d="M155.791 291.908l38.78 3.784 2.538-26.104-38.78-3.785z" filter="url(#i)"/></mask></g></g></g><g transform="translate(45.5 11.524)"><defs><filter id="k" filterUnits="userSpaceOnUse" x="162.251" y="271.662" width="27.719" height="17.067"><feColorMatrix values="1 0 0 0 0 0 1 0 0 0 0 0 1 0 0 0 0 0 1 0"/></filter></defs><mask maskUnits="userSpaceOnUse" x="162.251" y="271.662" width="27.719" height="17.067" id="l"><path fill="#FFF" d="M155.791 291.908l38.78 3.784 2.538-26.104-38.78-3.784z" filter="url(#k)"/></mask><path transform="rotate(-158.11 176.112 280.197)" mask="url(#l)" fill="#9CD3E3" d="M162.706 276.384h26.81v7.622h-26.81z"/></g></g></g><g transform="translate(160 87.618)"><defs><filter id="m" filterUnits="userSpaceOnUse" x="174.351" y="319.33" width="18.643" height="27.426"><feColorMatrix values="1 0 0 0 0 0 1 0 0 0 0 0 1 0 0 0 0 0 1 0"/></filter></defs><mask maskUnits="userSpaceOnUse" x="174.351" y="319.33" width="18.643" height="27.426" id="n"><path fill="#FFF" d="M225.625 270.644l-2.103 7.399h-.004c-.005.022-.009.042-.015.062a1.057 1.057 0 0 1-2.07-.404l.121-4.641c.153-1.51-.412-2.86-1.812-3.26s-2.854.413-3.252 1.814c0 0-3.716 45.048-44.858 54.247l-3.443 12.127c51.574-3.689 69.375-59.203 69.375-59.203a2.644 2.644 0 0 0-.787-3.648 2.63 2.63 0 0 0-3.639.792l-2.639 4.105-.312.489a1.002 1.002 0 0 1-.918.202 1.004 1.004 0 0 1-.687-1.235l2.103-7.399a2.636 2.636 0 0 0-2.28-3.348 2.621 2.621 0 0 0-2.78 1.901" filter="url(#m)"/></mask><g transform="translate(5.5 68.64)" opacity=".5" mask="url(#n)"><defs><filter id="o" filterUnits="userSpaceOnUse" x="168.851" y="250.69" width="18.643" height="27.426"><feColorMatrix values="1 0 0 0 0 0 1 0 0 0 0 0 1 0 0 0 0 0 1 0"/></filter></defs><mask maskUnits="userSpaceOnUse" x="168.851" y="250.69" width="18.643" height="27.426" id="p"><path fill="#FFF" d="M166.643 276.773l20.456 1.995 2.598-26.741-20.455-1.994z" filter="url(#o)"/></mask><path transform="scale(-1) rotate(63.889 424.068 -285.77)" mask="url(#p)" fill="#9CD3E3" d="M164.768 260.592h26.807v7.622h-26.807z"/></g></g><g transform="translate(160 87.618)"><defs><filter id="q" filterUnits="userSpaceOnUse" x="173.953" y="302.162" width="50.752" height="51.36"><feColorMatrix values="1 0 0 0 0 0 1 0 0 0 0 0 1 0 0 0 0 0 1 0"/></filter></defs><mask maskUnits="userSpaceOnUse" x="173.953" y="302.162" width="50.752" height="51.36" id="r"><path fill="#FFF" d="M225.625 270.644l-2.103 7.399h-.004c-.005.022-.009.042-.015.062a1.057 1.057 0 0 1-2.07-.404l.121-4.641c.153-1.51-.412-2.86-1.812-3.26s-2.854.413-3.252 1.814c0 0-3.716 45.048-44.858 54.247l-3.443 12.127c51.574-3.689 69.375-59.203 69.375-59.203a2.644 2.644 0 0 0-.787-3.648 2.63 2.63 0 0 0-3.639.792l-2.639 4.105-.312.489a1.002 1.002 0 0 1-.918.202 1.004 1.004 0 0 1-.687-1.235l2.103-7.399a2.636 2.636 0 0 0-2.28-3.348 2.621 2.621 0 0 0-2.78 1.901" filter="url(#q)"/></mask><g opacity=".5" mask="url(#r)"><g transform="translate(8 45.593)"><defs><filter id="s" filterUnits="userSpaceOnUse" x="165.953" y="256.569" width="50.752" height="51.36"><feColorMatrix values="1 0 0 0 0 0 1 0 0 0 0 0 1 0 0 0 0 0 1 0"/></filter></defs><mask maskUnits="userSpaceOnUse" x="165.953" y="256.569" width="50.752" height="51.36" id="t"><path fill="#FFF" d="M165.963 303.432l46.179 4.508 4.556-46.871-46.18-4.505z" filter="url(#s)"/></mask><g opacity=".75" mask="url(#t)"><defs><filter id="u" filterUnits="userSpaceOnUse" x="165.953" y="256.569" width="50.752" height="51.36"><feColorMatrix values="1 0 0 0 0 0 1 0 0 0 0 0 1 0 0 0 0 0 1 0"/></filter></defs><mask maskUnits="userSpaceOnUse" x="165.953" y="256.569" width="50.752" height="51.36" id="v"><path fill="#FFF" d="M165.963 303.432l46.179 4.508 4.556-46.871-46.18-4.505z" filter="url(#u)"/></mask><g mask="url(#v)"><defs><filter id="w" filterUnits="userSpaceOnUse" x="165.953" y="256.569" width="50.752" height="51.36"><feColorMatrix values="1 0 0 0 0 0 1 0 0 0 0 0 1 0 0 0 0 0 1 0"/></filter></defs><mask maskUnits="userSpaceOnUse" x="165.953" y="256.569" width="50.752" height="51.36" id="x"><path fill="#FFF" d="M165.963 303.432l46.179 4.508 4.556-46.871-46.18-4.505z" filter="url(#w)"/></mask></g></g></g><g transform="translate(8 45.593)"><defs><filter id="y" filterUnits="userSpaceOnUse" x="178.281" y="267.175" width="22.53" height="25.842"><feColorMatrix values="1 0 0 0 0 0 1 0 0 0 0 0 1 0 0 0 0 0 1 0"/></filter></defs><mask maskUnits="userSpaceOnUse" x="178.281" y="267.175" width="22.53" height="25.842" id="z"><path fill="#FFF" d="M165.963 303.432l46.179 4.508 4.556-46.871-46.18-4.505z" filter="url(#y)"/></mask><path mask="url(#z)" fill="#9CD3E3" d="M184.263 267.175l16.548 21.138-5.984 4.704-16.546-21.136z"/></g></g></g><g transform="translate(160 87.618)"><defs><filter id="A" filterUnits="userSpaceOnUse" x="184.084" y="293.45" width="52.802" height="48.329"><feColorMatrix values="1 0 0 0 0 0 1 0 0 0 0 0 1 0 0 0 0 0 1 0"/></filter></defs><mask maskUnits="userSpaceOnUse" x="184.084" y="293.45" width="52.802" height="48.329" id="B"><path fill="#FFF" d="M225.625 270.644l-2.103 7.399h-.004c-.005.022-.009.042-.015.062a1.057 1.057 0 0 1-2.07-.404l.121-4.641c.153-1.51-.412-2.86-1.812-3.26s-2.854.413-3.252 1.814c0 0-3.716 45.048-44.858 54.247l-3.443 12.127c51.574-3.689 69.375-59.203 69.375-59.203a2.644 2.644 0 0 0-.787-3.648 2.63 2.63 0 0 0-3.639.792l-2.639 4.105-.312.489a1.002 1.002 0 0 1-.918.202 1.004 1.004 0 0 1-.687-1.235l2.103-7.399a2.636 2.636 0 0 0-2.28-3.348 2.621 2.621 0 0 0-2.78 1.901" filter="url(#A)"/></mask><g opacity=".5" mask="url(#B)"><g transform="translate(22 33.569)"><defs><filter id="C" filterUnits="userSpaceOnUse" x="162.084" y="259.882" width="52.802" height="48.329"><feColorMatrix values="1 0 0 0 0 0 1 0 0 0 0 0 1 0 0 0 0 0 1 0"/></filter></defs><mask maskUnits="userSpaceOnUse" x="162.084" y="259.882" width="52.802" height="48.329" id="D"><path fill="#FFF" d="M164.093 262.143h48.778v43.812h-48.778z" filter="url(#C)"/></mask><g opacity=".75" mask="url(#D)"><defs><filter id="E" filterUnits="userSpaceOnUse" x="162.084" y="259.882" width="52.802" height="48.329"><feColorMatrix values="1 0 0 0 0 0 1 0 0 0 0 0 1 0 0 0 0 0 1 0"/></filter></defs><mask maskUnits="userSpaceOnUse" x="162.084" y="259.882" width="52.802" height="48.329" id="F"><path fill="#FFF" d="M164.093 262.143h48.778v43.812h-48.778z" filter="url(#E)"/></mask><g mask="url(#F)"><defs><filter id="G" filterUnits="userSpaceOnUse" x="162.084" y="259.882" width="52.802" height="48.329"><feColorMatrix values="1 0 0 0 0 0 1 0 0 0 0 0 1 0 0 0 0 0 1 0"/></filter></defs><mask maskUnits="userSpaceOnUse" x="162.084" y="259.882" width="52.802" height="48.329" id="H"><path fill="#FFF" d="M164.093 262.143h48.778v43.812h-48.778z" filter="url(#G)"/></mask></g></g></g><g transform="translate(22 33.569)"><defs><filter id="I" filterUnits="userSpaceOnUse" x="173.99" y="270.368" width="25.449" height="23.078"><feColorMatrix values="1 0 0 0 0 0 1 0 0 0 0 0 1 0 0 0 0 0 1 0"/></filter></defs><mask maskUnits="userSpaceOnUse" x="173.99" y="270.368" width="25.449" height="23.078" id="J"><path fill="#FFF" d="M164.093 262.143h48.778v43.812h-48.778z" filter="url(#I)"/></mask><path mask="url(#J)" fill="#9CD3E3" d="M178.868 270.368l20.571 17.229-4.876 5.849-20.573-17.23z"/></g></g></g><g transform="translate(160 87.618)"><defs><filter id="K" filterUnits="userSpaceOnUse" x="196.008" y="288.274" width="41.558" height="32.25"><feColorMatrix values="1 0 0 0 0 0 1 0 0 0 0 0 1 0 0 0 0 0 1 0"/></filter></defs><mask maskUnits="userSpaceOnUse" x="196.008" y="288.274" width="41.558" height="32.25" id="L"><path fill="#FFF" d="M225.625 270.644l-2.103 7.399h-.004c-.005.022-.009.042-.015.062a1.057 1.057 0 0 1-2.07-.404l.121-4.641c.153-1.51-.412-2.86-1.812-3.26s-2.854.413-3.252 1.814c0 0-3.716 45.048-44.858 54.247l-3.443 12.127c51.574-3.689 69.375-59.203 69.375-59.203a2.644 2.644 0 0 0-.787-3.648 2.63 2.63 0 0 0-3.639.792l-2.639 4.105-.312.489a1.002 1.002 0 0 1-.918.202 1.004 1.004 0 0 1-.687-1.235l2.103-7.399a2.636 2.636 0 0 0-2.28-3.348 2.621 2.621 0 0 0-2.78 1.901" filter="url(#K)"/></mask><g opacity=".5" mask="url(#L)"><g transform="translate(38.5 26.554)"><defs><filter id="M" filterUnits="userSpaceOnUse" x="157.508" y="261.72" width="41.558" height="32.25"><feColorMatrix values="1 0 0 0 0 0 1 0 0 0 0 0 1 0 0 0 0 0 1 0"/></filter></defs><mask maskUnits="userSpaceOnUse" x="157.508" y="261.72" width="41.558" height="32.25" id="N"><path fill="#FFF" d="M158.805 263.538h38.963v28.61h-38.963z" filter="url(#M)"/></mask><g opacity=".75" mask="url(#N)"><defs><filter id="O" filterUnits="userSpaceOnUse" x="157.508" y="261.72" width="41.558" height="32.25"><feColorMatrix values="1 0 0 0 0 0 1 0 0 0 0 0 1 0 0 0 0 0 1 0"/></filter></defs><mask maskUnits="userSpaceOnUse" x="157.508" y="261.72" width="41.558" height="32.25" id="P"><path fill="#FFF" d="M158.805 263.538h38.963v28.61h-38.963z" filter="url(#O)"/></mask><g mask="url(#P)"><defs><filter id="Q" filterUnits="userSpaceOnUse" x="157.508" y="261.72" width="41.558" height="32.25"><feColorMatrix values="1 0 0 0 0 0 1 0 0 0 0 0 1 0 0 0 0 0 1 0"/></filter></defs><mask maskUnits="userSpaceOnUse" x="157.508" y="261.72" width="41.558" height="32.25" id="R"><path fill="#FFF" d="M157.513 290.192l38.778 3.782 2.768-28.474-38.778-3.784z" filter="url(#Q)"/></mask></g></g></g><g transform="translate(38.5 26.554)"><defs><filter id="S" filterUnits="userSpaceOnUse" x="164.229" y="267.638" width="27.254" height="19.301"><feColorMatrix values="1 0 0 0 0 0 1 0 0 0 0 0 1 0 0 0 0 0 1 0"/></filter></defs><mask maskUnits="userSpaceOnUse" x="164.229" y="267.638" width="27.254" height="19.301" id="T"><path fill="#FFF" d="M158.805 263.538h38.963v28.61h-38.963z" filter="url(#S)"/></mask><path mask="url(#T)" fill="#9CD3E3" d="M167.788 267.638l23.695 12.564-3.557 6.738-23.697-12.567z"/></g></g></g><path fill="none" d="M252.236 457.688l-.819-14.667c-.2.51-.396 1.021-.578 1.537-4.417 12.397-3.21 24.763-1.422 32.944.115.53.236 1.049.358 1.559a82.938 82.938 0 0 0 8.829 4.979c-4.107-7.596-6.362-16.689-6.368-26.352z"/><path fill="#4F2324" d="M249.917 416.632l-.408.391.016.03c.13-.129.261-.26.393-.389l-.001-.032zM243.727 426.49a68.78 68.78 0 0 1 0 0zM236.345 439.639c-1.303 2.603-2.12 5.225-2.948 7.838.828-2.613 1.646-5.235 2.948-7.838zM250.838 444.558a47.41 47.41 0 0 1 .578-1.537l-.214-3.844c-6.527 13.91-5.65 28.2-3.373 38.582.643.441 1.291.878 1.947 1.302a68.2 68.2 0 0 1-.359-1.559c-1.789-8.181-2.995-20.546 1.421-32.944zM240.702 430.994a71.348 71.348 0 0 1 0 0zM231.219 454.714h-.013c-.476 2.55-.71 4.504-1.074 6.618.364-2.113.612-4.069 1.087-6.618z"/><path fill="#4F2324" d="M231.258 454.896c.271-1.238.659-2.484.919-3.735v-.001c.261-1.224.669-2.451 1.059-3.683a77.59 77.59 0 0 1 2.94-7.838 72.187 72.187 0 0 1 4.527-8.646 68.27 68.27 0 0 1 9.349-11.98l-.059-1.037-.469-.925c-6.948 6.858-12.384 15.039-16.134 24.383-2.233 5.563-3.867 11.545-4.917 17.854a82.803 82.803 0 0 0 1.607 2.042 93.659 93.659 0 0 1 1.178-6.434z"/><path fill="#4F2324" d="M249.918 416.664c-.132.128-.263.259-.394.389l.469.926-.075-1.315z"/><path fill="#006E76" d="M251.222 439.177v-.003c-1.09 1.729-1.283 3.461-1.876 5.192-.326.952-.668 1.901-.668 2.85v.001c-1.091.768-.646 1.534-.823 2.298-.593 2.542-1.104 5.059-1.334 7.526-.044.476-.142.95-.174 1.422-.025.362-.073.723-.091 1.084-.029.553-.066 1.104-.078 1.651-.064 2.63.035 5.181.262 7.621.009.098.014.197.022.295a72.628 72.628 0 0 0 1.365 8.642c0 .002.012.002.012.002-2.277-10.38-3.162-24.67 3.383-38.581z"/><path fill="#006E76" d="M238.176 448.178l9.448 1.336c.178-.764.377-1.529.593-2.298l-1.588-3.222-8.453 4.184z"/><path fill="#006E76" d="M238.175 447.791h.001l8.682-3.989 1.819 3.415v-.001l-1.817-3.416zM250.435 429.317l.233.472-.02-.338zM250.053 419.016c-.217.222-.427.446-.639.669l.704.441-.065-1.11z"/><path fill="#006E76" d="M247.001 422.349c.771-.899 1.618-1.787 2.452-2.664.212-.223.315-.447.679-.669v-.001c-2.182 2.405-4.49 4.905-6.366 7.475.231-.315.439-.631.676-.943a68.088 68.088 0 0 1 2.559-3.198zM233.222 447.477l4.952.701 8.455-4.184 1.587 3.222c.267-.948.563-1.898.889-2.85l-12.936-4.728a78.25 78.25 0 0 0-2.947 7.839zM240.702 430.994a66.822 66.822 0 0 0-1.068 1.798l2.385.873-1.317-2.671z"/><path fill="#006E76" d="M242.018 433.664l9.061 3.312-.41-7.187-.232-.472-6.013-3.771c-.236.313-.464.629-.696.944a68.383 68.383 0 0 0-3.024 4.504l1.314 2.67zM242.355 461.462l3.871-1.915c.018-.36.038-.721.062-1.084l-6.406 3.171 2.473-.172zM246.162 461.198c.013-.547.036-1.099.064-1.651l-3.87 1.915 3.806-.264zM230.076 461.332c.252.312.504.621.759.929l9.047-.627 6.406-3.171c.033-.472.071-.946.116-1.422l-15.159-2.145a92.883 92.883 0 0 0-1.169 6.436zM240.469 472.078l5.988-2.964c-.01-.098-.018-.197-.027-.295l-8.875.615c.95.905 1.922 1.785 2.914 2.644zM242.868 474.071l4.128-.726a72.483 72.483 0 0 1-.539-4.231l-5.988 2.964a81.433 81.433 0 0 0 2.399 1.993z"/><path fill="#9CD3E3" d="M247.825 477.757a76.863 76.863 0 0 1-.452-2.221l-1.576.78c.67.491 1.346.973 2.028 1.441z"/><path fill="#9CD3E3" d="M245.798 476.317l1.576-.78a76.022 76.022 0 0 1-.377-2.191l-4.128.726a85.304 85.304 0 0 0 2.929 2.245zM244.422 425.546l6.013 3.771-3.435-6.968a69.743 69.743 0 0 0-2.578 3.197zM250.117 420.126l-.704-.441a66.864 66.864 0 0 0-2.411 2.664l3.434 6.968.212.134-.531-9.325zM239.683 432.851h.024c-1.297 2.187-2.303 4.471-3.393 6.774v-.006c1.091-2.302 2.071-4.581 3.369-6.768zM251.1 437.34l-.022-.365-9.06-3.311 3.238 6.569z"/><path fill="#9CD3E3" d="M251.1 437.34l-5.844 2.894-3.237-6.569-2.385-.872a72.112 72.112 0 0 0-3.464 6.848l12.936 4.727a51.687 51.687 0 0 1 2.097-5.192l-.101-1.803-.002-.033zM232.15 451.16h.072v.074h-.072zM233.222 447.386c-.39 1.231-.747 2.591-1.072 3.683.327-1.092.684-2.451 1.072-3.683zM232.314 451.115v-.021c-.727 1.25-.807 2.526-1.077 3.62h-.005c.272-1.093.355-2.348 1.082-3.599z"/><path fill="#9CD3E3" d="M232.15 451.16a87.96 87.96 0 0 0-.904 3.736l15.159 2.145a56.14 56.14 0 0 1 1.218-7.525l-9.448-1.336-6.025 2.98zM232.094 450.71l6.025-2.977.032.065-6.025 2.976z"/><path fill="#9CD3E3" d="M233.222 447.477a83.402 83.402 0 0 0-1.072 3.683l6.024-2.98-4.952-.703zM239.883 461.634l-9.047.627a85.57 85.57 0 0 0 2.337 2.695l6.71-3.322z"/><path fill="#9CD3E3" d="M233.843 465.676l8.514-4.215-2.474.174-6.71 3.32c.22.242.446.48.67.721zM233.843 465.676a84.938 84.938 0 0 0 3.713 3.76l8.875-.616a65.398 65.398 0 0 1-.269-7.621l-3.806.264-8.513 4.213z"/><path fill="#4F2324" d="M254.258 457.011l-.997-18.102a50.459 50.459 0 0 0-1.845 4.111l.819 14.667c.005 9.663 2.261 18.756 6.367 26.353a81.911 81.911 0 0 0 3.653 1.668c-5.177-7.908-7.997-17.882-7.997-28.697zM251.933 414.783l-2.872-52.161c0-25.501 20.822-46.364 46.27-46.364 25.448 0 46.27 20.863 46.27 46.364l-.017.312c5.729 3.047 9.643 9.08 9.643 16.019 0 7.645-4.755 14.186-11.452 16.843l-3.371 61.213c0 8.92-1.915 17.265-5.491 24.355.484.615.974 1.237 1.466 1.865l.132-.068c3.947-7.463 6.097-16.335 6.102-25.905l1.804-32.731.954-17.309.544-9.883a19.925 19.925 0 0 0 2.788-1.729 19.903 19.903 0 0 0 8.734-16.466c0-6.949-3.685-13.462-9.63-17.058-.188-12.536-5.192-24.348-14.111-33.286-9.103-9.122-21.156-14.145-33.942-14.145-10.113 0-20.377 3.231-28.479 9.093-13.095 9.153-21.142 23.925-21.142 39.557v.342c-4.727 3.735-7.702 9.646-7.702 15.95 0 7.219 4.024 13.859 10.335 17.39l.871 14.521.287 5.131 1.178-1.131.831-.719z"/><path fill="#4F2324" d="M330.695 484.072a82.57 82.57 0 0 0 1.684-.842c-.492-.629-.981-1.25-1.466-1.865a44.972 44.972 0 0 1-.945 1.78c.238.307.481.615.727.927z"/><path fill="#4F2324" d="M328.927 484.905a81.563 81.563 0 0 0 1.767-.833l-.727-.927a44.448 44.448 0 0 1-1.04 1.76zM250.939 415.657l.745 1.747.374-.355-.125-2.266-.836.718-1.18 1.131.002.032c.342-.332.669-.68 1.02-1.007zM250.36 418.701l-.366-.723.059 1.037.307-.314zM253.077 435.569a52.119 52.119 0 0 0-1.875 3.607l.215 3.845a49.667 49.667 0 0 1 1.845-4.111l-.185-3.341z"/><path fill="#4F2324" d="M251.684 417.404l-.745-1.747c-.351.326-.678.675-1.021 1.007l.076 1.314.366.723c.431-.436.875-.868 1.324-1.297zM252.058 417.049l-.374.356.452 1.061-.078-1.417zM252.816 430.809l-2.168-1.358.02.338 2.354 4.775zM252.107 437.351c.119-.229.238-.459.362-.689l-.955.473.593.216zM251.53 421.013l-1.17-2.311c-.104.104-.204.208-.307.314l.064 1.11 1.413.887zM252.469 436.662c.196-.365.4-.73.608-1.095l-.056-1.003-2.354-4.775.41 7.188.436.158.956-.473z"/><path fill="#4F2324" d="M253.405 435.569v-.002c0 .364-.575.729-.772 1.095-.123.23-.315.46-.434.689-.314.605-.612 1.214-.976 1.823v.003c.364-1.207 1.09-2.41 2.182-3.608zM252.302 421.497l-.167-3.032-.452-1.061c-.449.428-.893.861-1.324 1.298l1.17 2.311.773.484z"/><path fill="#4F2324" d="M250.375 418.641c.432-.365.847-.809 1.211-1.237v-.001c-.364.43-.771.874-1.203 1.237l-.008.001zM251.53 421.013l-1.413-.887.531 9.325 2.168 1.358-.45-8.145z"/><path fill="#4F2324" d="M252.302 421.497l-.772-.484.836 1.651zM251.514 437.135l-.415.205.001.031.101 1.803a48.92 48.92 0 0 1 .905-1.822l-.592-.217z"/><path fill="#4F2324" d="M251.514 437.135l-.436-.16.022.365z"/><path fill="#49B7C8" d="M286.379 491.949c2.737.274 5.512.405 8.318.405 6.345 0 12.525-.73 18.466-2.094l15.84-5.306 1.909-3.588c3.575-7.091 5.491-15.437 5.491-24.355l3.371-61.215c6.697-2.657 11.452-9.198 11.452-16.843 0-6.939-3.914-12.971-9.643-16.019l.017-.312c0-25.501-20.822-46.364-46.27-46.364-25.446 0-46.27 20.863-46.27 46.364l2.872 52.161 1.014 24.127 1.413 18.101c0 10.814 2.77 20.789 7.949 28.697 1.545.661 3.09 1.299 4.682 1.865 0 0 10.501 3.932 19.389 4.376zm34.178-44.704c-.003.698.003 1.401-.067 2.099a16.282 16.282 0 0 1-.291 2.083 16.846 16.846 0 0 1-.536 2.048l-.372.996-.447.97a14.558 14.558 0 0 1-1.132 1.831c-.447.57-.935 1.116-1.503 1.592-.577.46-1.195.897-1.91 1.167-.337.165-.737.259-1.132.352-.401.1-.699.088-1.054.135-.876-.017-1.586-.113-2.324-.405-.734-.247-1.381-.665-1.986-1.114-.599-.462-1.112-1.005-1.588-1.572a14.606 14.606 0 0 1-1.221-1.834l-.49-.975-.416-1.008c-.04-.117-.077-.235-.117-.354-.043.14-.082.277-.127.414l-.393 1.03-.472 1.007a15.07 15.07 0 0 1-1.195 1.905c-.471.599-.989 1.17-1.597 1.67-.616.485-1.279.951-2.055 1.234-.357.167-.811.274-1.256.368-.496.103-.623.076-1.173.129-.834-.031-1.68-.146-2.44-.466-.783-.275-1.462-.726-2.093-1.207-.622-.491-1.158-1.059-1.645-1.652a14.834 14.834 0 0 1-1.25-1.902l-.499-1.006-.196-.483a15.73 15.73 0 0 1-1.305 2.617c-.491.724-1.019 1.435-1.683 2.056-.63.646-1.42 1.172-2.261 1.606-.457.182-.857.389-1.418.497-.243.051-.578.143-.749.146l-.583.047-.264.01-.183-.017-.368-.032a2.84 2.84 0 0 1-.723-.133 4.904 4.904 0 0 1-1.335-.543c-.43-.208-.77-.535-1.137-.802-.316-.322-.656-.616-.926-.957a14.621 14.621 0 0 1-1.499-2.038c-.436-.705-.761-1.46-1.074-2.206l-.399-1.146-.315-1.162-.243-1.174-.162-1.185a22.266 22.266 0 0 1-.098-2.374l.009-.666c-.003-.199-.012-.4-.009-.596.007-.718.019-1.428.026-2.135-.004-.43-.014-.856-.034-1.289a.326.326 0 0 1 .033-.146 37.929 37.929 0 0 0-.033-1.115c-.008-.178.361-.326.537-.335.176-.009.565.129.565.305v.029c0 .386-.012.773-.018 1.16.007.024.018.047.018.073v.029c0 .55-.254 1.101-.256 1.652.007.586-.098 1.172-.082 1.751.033.789.066 1.543.18 2.286l.198 1.12.284 1.101c.231.722.517 1.417.846 2.091.346.664.738 1.297 1.193 1.87.453.571.951 1.11 1.548 1.481a5.11 5.11 0 0 0 1.838.759c.568.171 1.257.158 1.662.18l.581-.043c.219-.008.254-.064.392-.084.211-.022.512-.17.781-.265.533-.277 1.075-.597 1.539-1.065.486-.431.897-.975 1.294-1.528.37-.582.708-1.191.988-1.842.276-.647.513-1.322.697-2.015.188-.692.323-1.401.422-2.115.097-.718.135-1.441.157-2.168a1.316 1.316 0 0 1 1.266-1.368c.726-.029 1.074.539 1.101 1.267l-.264.047v.055c0 .641.283 1.281.36 1.916.051.637.294 1.269.425 1.889.128.625.377 1.23.573 1.831l.373.88.418.845c.294.548.629 1.068.992 1.558.379.472.786.91 1.234 1.278.455.353.928.683 1.444.865.503.23 1.039.294 1.571.336.127-.028.697-.023.866-.091.225-.062.447-.089.715-.213.52-.175 1.01-.493 1.479-.837.463-.358.884-.796 1.277-1.264.38-.484.725-1.005 1.036-1.552l.43-.847.366-.886c.215-.604.416-1.216.562-1.846.149-.628.277-1.268.347-1.914.091-.645.109-1.297.141-1.949-.021-.529.125-.979.653-1.003.53-.025.737.386.737.917V445.987c0 .652.275 1.307.351 1.956.047.649.287 1.296.419 1.932.127.643.374 1.266.574 1.882l.375.909.425.876c.303.569.646 1.11 1.022 1.625l.614.72c.228.208.441.445.679.64.48.383.987.746 1.55.958.525.256 1.198.337 1.686.395.324-.031.724-.014.988-.084.271-.064.545-.103.835-.232.583-.188 1.113-.532 1.624-.903.501-.385.951-.849 1.374-1.344.403-.51.771-1.052 1.1-1.625l.452-.883.386-.918c.227-.627.442-1.26.602-1.91.161-.649.304-1.309.38-1.978.103-.667.131-1.341.171-2.017l.002-.021a.322.322 0 0 1 .337-.303.322.322 0 0 1 .302.323c-.002.393-.005.785-.016 1.178.003.025.012.053.012.082zm6.169-22.639c-.025.784-.123 1.564-.23 2.345-.124.777-.274 1.55-.475 2.316-.209.765-.435 1.525-.736 2.266a14.491 14.491 0 0 1-1.044 2.169 11.165 11.165 0 0 1-1.438 1.988c-.264.319-.606.578-.91.867-.356.237-.682.521-1.082.707l-.591.287c-.211.083-.453.141-.68.211-.501.163-.811.129-1.215.192-.37-.01-.489-.029-.749-.049a2.49 2.49 0 0 1-.663-.118 5.167 5.167 0 0 1-1.253-.459c-.409-.178-.745-.45-1.115-.681-.316-.282-.674-.54-.953-.854a11.383 11.383 0 0 1-1.539-1.965 14.812 14.812 0 0 1-1.146-2.165 18.842 18.842 0 0 1-.765-2.048 19.242 19.242 0 0 1-.734 2.115c-.31.762-.671 1.507-1.113 2.224a11.738 11.738 0 0 1-1.525 2.041c-.284.327-.646.602-.97.903-.378.25-.726.54-1.152.739l-.634.301c-.229.091-.499.157-.75.226l-.387.097c-.116.023-.197.023-.295.038l-.574.219-.124.162h-.011l-.021-.161-.045-.084-.091-.048-.182-.035-.364-.044a2.852 2.852 0 0 1-.707-.141c-.476-.106-.91-.294-1.327-.509-.431-.193-.78-.484-1.164-.734-.325-.298-.69-.574-.976-.898a11.592 11.592 0 0 1-1.553-2.038 15.048 15.048 0 0 1-1.133-2.222 17.042 17.042 0 0 1-.6-1.624 17.681 17.681 0 0 1-.599 1.617 15.133 15.133 0 0 1-1.14 2.212c-.43.718-.954 1.4-1.553 2.029-.286.325-.649.599-.977.893-.381.247-.729.534-1.158.726l-.634.296c-.229.089-.498.148-.748.217-.615.165-.733.107-1.358.172-.959-.051-1.921-.26-2.726-.718-.424-.192-.767-.484-1.144-.734-.319-.299-.679-.57-.96-.897a11.742 11.742 0 0 1-1.518-2.033 14.868 14.868 0 0 1-1.105-2.212 20.06 20.06 0 0 1-.788-2.308c-.001-.003-.001-.008-.003-.01a19.8 19.8 0 0 1-.817 2.251 14.467 14.467 0 0 1-1.129 2.169 11.334 11.334 0 0 1-1.52 1.969c-.279.312-.631.573-.947.856-.367.236-.704.512-1.114.688l-.605.273c-.213.083-.46.136-.69.197-.541.154-.743.104-1.294.163-.898-.057-1.801-.251-2.56-.69-.4-.187-.728-.469-1.084-.706-.308-.286-.647-.547-.917-.864a10.676 10.676 0 0 1-1.456-1.98 14.496 14.496 0 0 1-1.045-2.173c-.304-.74-.531-1.504-.741-2.268a21.355 21.355 0 0 1-.383-1.811c0-.006.206-.011.205-.018l1.057.357c.232.713.481 1.42.796 2.095.301.68.646 1.336 1.051 1.944.391.616.838 1.188 1.333 1.696.235.267.523.464.779.699.292.174.561.403.868.527.591.325 1.238.423 1.869.459.207-.049.796-.046.984-.165.138-.051.27-.074.415-.134l.44-.218c.296-.134.554-.368.838-.543.247-.243.525-.44.751-.71a9.728 9.728 0 0 0 1.266-1.706c.378-.612.695-1.272.97-1.95.285-.674.508-1.377.712-2.086.198-.713.354-1.436.481-2.167.109-.734.482-1.469.521-2.212.074-.739.342-1.485.342-2.229v-.016c0-.539.169-.981.703-.995.537-.012.751.412.751.951v.06c0 .178 0 .356.006.534a.949.949 0 0 1 .203.557l-.006.061c.034.742.039 1.487.127 2.225.045.616.142 1.224.244 1.832.104.459.215.915.351 1.366.215.698.446 1.394.743 2.054.284.667.611 1.311.993 1.906a9.516 9.516 0 0 0 1.268 1.644c.226.256.496.439.738.667.272.16.523.382.808.496.546.308 1.132.391 1.706.429.134-.041.806-.043.921-.149.117-.046.227-.062.355-.113l.411-.199c.28-.117.525-.34.792-.502.235-.231.5-.418.72-.675a9.515 9.515 0 0 0 1.235-1.648c.37-.597.684-1.238.957-1.904.286-.658.506-1.353.712-2.05a22.01 22.01 0 0 0 .484-2.136c.113-.725.232-1.45.276-2.186.077-.733.07-1.472.098-2.207-.023-.675.76-1.236 1.432-1.258.671-.022 1.516.505 1.516 1.179v.078c0 .14-.106.279-.104.419.129.187.104.409.104.654v.079c0 .735-.122 1.471-.041 2.205.042.695.082 1.382.19 2.069.083.369.14.736.244 1.101.207.693.412 1.385.698 2.043.274.663.582 1.306.955 1.896.355.607.775 1.15 1.229 1.638.219.257.481.439.717.669.267.162.51.382.786.498.271.138.544.26.824.316.141.048.278.084.422.084l.211.019.105.011.054-.248.024-.253h.01l.484.217c.09-.012.203.114.275.098l.171.002c.115-.039.226-.021.355-.067l.41-.177c.279-.112.527-.322.796-.481.239-.227.509-.404.732-.66a9.371 9.371 0 0 0 1.259-1.633c.38-.59.703-1.231.986-1.896.294-.657.525-1.35.739-2.047.208-.703.377-1.416.516-2.141.121-.726.25-1.455.304-2.193.086-.736.091-1.479.123-2.22a1.033 1.033 0 0 1 .987-1.088 1.02 1.02 0 0 1 1.069 1.007v.081c0 .166-.107.332-.104.498.12.163.104.353.104.571v.083c0 .74.145 1.482.219 2.22.041.741.225 1.475.331 2.206.003.015.04.03.043.047.069.321.161.646.247.964.199.706.422 1.412.703 2.086.267.677.583 1.337.954 1.951a9.797 9.797 0 0 0 1.25 1.712c.225.271.5.471.746.713.279.179.538.415.836.548.54.344 1.277.458 1.765.524.356-.044.837-.024 1.064-.133.141-.045.279-.066.428-.118l.451-.205c.31-.125.579-.354.869-.526.26-.235.546-.434.787-.695a9.99 9.99 0 0 0 1.35-1.688c.406-.612.751-1.271 1.054-1.95.313-.675.564-1.382.798-2.098.227-.717.41-1.448.564-2.188.137-.745.058-1.489.13-2.243.108-.755-.045-1.514-.045-2.276v-.023c0-.193.402-.338.597-.326.185.013.438.166.438.349-.001.276.059.552.06.828.133.05.255.175.256.324.003.779.04 1.562-.022 2.343z"/><path fill="#49B7C8" d="M329.967 483.145c-4.608-5.869-8.285-10.513-8.69-10.905l-6.104 4.812-6.263 4.938c.23.395 2.681 3.533 6.069 7.826a82.13 82.13 0 0 0 13.948-4.91 45.22 45.22 0 0 0 1.04-1.761zM258.495 431.604v-.002c-1.09.416-.876.678-.876.678l-1.087-1.768c-1.218 1.669-2.393 3.356-3.359 5.057l.517 3.342c1.274-2.534 2.26-4.981 4.805-7.307z"/><path fill="#49B7C8" d="M256.343 430.511l.895 1.769s.189-.263.497-.678l-.799-1.876c-.2.263-.402.524-.593.785zM253.838 422.461l4.587 2.877-4.794-9.728c-.536.475-1.06.955-1.573 1.439l.078 1.417 1.702 3.995zM255.125 432.152c-.645.961-1.085 1.979-1.648 2.949-.08.138-.072.328-.072.466v.002c.364-1.699 1.809-3.082 3.026-5.268h-.045c-.423 1.093-.87 1.268-1.261 1.851z"/><path fill="#49B7C8" d="M255.125 432.258l-2.309-1.448.206 3.756.292.589a51.064 51.064 0 0 1 1.811-2.897zM252.136 418.465l.166 3.032 1.536.964zM257.04 429.726c0 .261-.454.522-.646.785h.027c.193-.262.619-.522.619-.785zM259.206 426.922l-.78-1.584-4.588-2.877 3.097 7.266a54.907 54.907 0 0 1 2.271-2.805zM256.343 430.511l-3.976-7.848.449 8.146 2.309 1.448c.391-.583.794-1.166 1.218-1.746z"/><path fill="#49B7C8" d="M256.343 430.511c.191-.263.393-.524.592-.785l-3.097-7.266-1.535-.964.064 1.167 3.976 7.848zM230.076 461.332c-.049.33-.095.661-.138.991l.897-.062c-.254-.308-.507-.618-.759-.929zM258.814 360.824c-9.974 0-18.089 8.132-18.089 18.129 0 9.994 8.115 18.127 18.089 18.127s18.09-8.133 18.09-18.127c0-9.997-8.116-18.129-18.09-18.129"/><path fill="#33A7B8" d="M258.814 366.239c7.556 0 13.681 6.137 13.681 13.708 0 7.569-6.125 13.708-13.681 13.708-7.555 0-13.68-6.138-13.68-13.708 0-7.571 6.125-13.708 13.68-13.708M332.828 366.239c7.558 0 13.682 6.137 13.682 13.708 0 7.569-6.124 13.708-13.682 13.708-7.554 0-13.679-6.138-13.679-13.708.001-7.571 6.125-13.708 13.679-13.708"/><path fill="#4F2324" d="M339.42 403.04l1.785.086-1.2 24.942-1.787-.086zM251.684 409.052l1.194 24.899-1.792.086-1.194-24.899z"/><path fill="#FACF18" d="M258.814 366.75c6.727 0 12.181 5.462 12.181 12.203 0 6.74-5.454 12.205-12.181 12.205-6.726 0-12.179-5.465-12.179-12.205 0-6.742 5.454-12.204 12.179-12.204"/><path fill="#4F2324" d="M258.814 391.83c-7.085 0-12.85-5.778-12.85-12.877 0-7.1 5.765-12.877 12.85-12.877 7.086 0 12.85 5.776 12.85 12.877.001 7.1-5.764 12.877-12.85 12.877zm0-24.41c-6.346 0-11.508 5.172-11.508 11.533 0 6.36 5.163 11.532 11.508 11.532 6.348 0 11.509-5.172 11.509-11.532s-5.161-11.534-11.509-11.534z"/><path fill="#FACF18" d="M333.137 366.75c6.728 0 12.178 5.462 12.178 12.203 0 6.74-5.451 12.205-12.178 12.205-6.729 0-12.18-5.465-12.18-12.205 0-6.742 5.451-12.204 12.18-12.204"/><path fill="#4F2324" d="M333.137 391.83c-7.086 0-12.851-5.778-12.851-12.877 0-7.1 5.765-12.877 12.851-12.877 7.085 0 12.85 5.776 12.85 12.877 0 7.1-5.765 12.877-12.85 12.877zm0-24.41c-6.347 0-11.51 5.172-11.51 11.533 0 6.36 5.163 11.532 11.51 11.532 6.346 0 11.507-5.172 11.507-11.532s-5.161-11.534-11.507-11.534z"/><path fill="#33A7B8" d="M250.844 362.534s8.711-14.187 18.609 1.049c0 .001-7.993-7.615-18.609-1.049z"/><path fill="#4F2324" d="M268.95 363.811a.667.667 0 0 1-.445-.17c-7.562-6.735-16.363-1.149-16.734-.908a.67.67 0 0 1-.731-1.126c.099-.064 10.022-6.395 18.357 1.031a.674.674 0 0 1 .056.949.678.678 0 0 1-.503.224z"/><path fill="#33A7B8" d="M295.559 316.196s39.581 10.271 27.356 44.926c0 0 9.99-3.362 19.007 1.866 0 .001-.185-43.094-46.363-46.792z"/><path fill="#4F2324" d="M321.619 363.811a.673.673 0 0 1-.444-1.176c8.333-7.425 18.257-1.094 18.355-1.03a.671.671 0 0 1-.732 1.126c-.371-.241-9.172-5.828-16.734.908a.659.659 0 0 1-.445.172z"/><g transform="translate(62 107.157)"><path fill="#4F2324" d="M196.814 279.576a2.112 2.112 0 0 1-2.111-2.114v-11.333a2.112 2.112 0 1 1 4.221 0v11.333a2.111 2.111 0 0 1-2.11 2.114"/><ellipse fill="#FFF" cx="200.388" cy="266.421" rx="2.684" ry="2.684"/></g><g transform="translate(164 106.155)"><path fill="#4F2324" d="M169.137 280.578a2.112 2.112 0 0 1-2.112-2.114V267.13c0-1.169.944-2.115 2.112-2.115 1.165 0 2.109.947 2.109 2.115v11.333a2.112 2.112 0 0 1-2.109 2.115"/><ellipse fill="#FFF" cx="172.625" cy="266.526" rx="2.684" ry="2.684"/></g><path fill="#33A7B8" d="M294.784 401.076c-7.19 0-13.99-2.676-19.241-7.595a6.714 6.714 0 0 1-.319-9.48 6.68 6.68 0 0 1 9.459-.32c5.98 5.599 15.392 5.28 20.977-.71a6.682 6.682 0 0 1 9.46-.32 6.71 6.71 0 0 1 .319 9.478c-5.132 5.503-12.116 8.674-19.67 8.931a24.89 24.89 0 0 1-.985.016"/><path fill="#9CD3E3" d="M294.784 399.277c-7.19 0-13.99-2.677-19.241-7.595a6.715 6.715 0 0 1-.319-9.481 6.681 6.681 0 0 1 9.459-.32c5.98 5.599 15.392 5.282 20.977-.71a6.682 6.682 0 0 1 9.46-.32 6.713 6.713 0 0 1 .319 9.48c-5.132 5.503-12.116 8.673-19.67 8.928-.328.014-.657.018-.985.018"/><path fill="#7BB4C3" d="M294.809 396.164a23.65 23.65 0 0 1-16.218-6.403 2.235 2.235 0 0 1-.106-3.161c.84-.902 2.25-.95 3.153-.106 7.774 7.282 20.013 6.867 27.283-.925a2.229 2.229 0 0 1 3.154-.106c.9.84.946 2.257.107 3.161-4.674 5.008-11.016 7.54-17.373 7.54"/><path fill="#4F2324" d="M294.809 394.97a23.647 23.647 0 0 1-16.218-6.405 2.235 2.235 0 0 1 3.047-3.268c7.774 7.284 20.013 6.869 27.283-.923a2.23 2.23 0 0 1 3.154-.108c.9.842.946 2.258.107 3.162-4.674 5.008-11.016 7.542-17.373 7.542"/><g><path fill="#33A7B8" d="M294.784 401.076c-7.19 0-13.99-2.676-19.241-7.595a6.714 6.714 0 0 1-.319-9.48 6.68 6.68 0 0 1 9.459-.32c5.98 5.599 15.392 5.28 20.977-.71a6.682 6.682 0 0 1 9.46-.321 6.712 6.712 0 0 1 .319 9.479c-5.132 5.503-12.116 8.674-19.67 8.932-.328.012-.657.015-.985.015"/><path fill="#9CD3E3" d="M294.784 399.277c-7.19 0-13.99-2.677-19.241-7.595a6.715 6.715 0 0 1-.319-9.481 6.681 6.681 0 0 1 9.459-.32c5.98 5.599 15.392 5.282 20.977-.71a6.682 6.682 0 0 1 9.46-.32 6.713 6.713 0 0 1 .319 9.48c-5.132 5.503-12.116 8.673-19.67 8.928-.328.014-.657.018-.985.018"/><path fill="#7BB4C3" d="M294.809 396.164a23.65 23.65 0 0 1-16.218-6.403 2.235 2.235 0 0 1-.106-3.161c.84-.902 2.25-.95 3.153-.106 7.774 7.282 20.013 6.867 27.283-.925a2.229 2.229 0 0 1 3.154-.106c.9.84.946 2.257.107 3.161-4.674 5.008-11.016 7.54-17.373 7.54"/><path fill="#4F2324" d="M294.809 394.97a23.647 23.647 0 0 1-16.218-6.405 2.235 2.235 0 0 1 3.047-3.268c7.774 7.284 20.013 6.869 27.283-.923a2.23 2.23 0 0 1 3.154-.108c.9.842.946 2.258.107 3.162-4.674 5.008-11.016 7.542-17.373 7.542"/></g><path fill="#49B7C8" d="M256.313 414.633h76.726v48.825h-76.726z"/><g><path fill="#33A7B8" d="M271.567 442.905c-.066 1.559-.038 3.137.007 4.678.035.79.124 1.55.237 2.294l.227 1.124.3 1.103c.232.725.525 1.423.854 2.099a11.9 11.9 0 0 0 1.201 1.875c.455.573.955 1.113 1.555 1.487.587.39 1.229.639 1.842.76.57.17 1.263.16 1.669.18l.582-.042c.22-.008.256-.064.395-.084.211-.022.513-.171.785-.266.534-.278 1.076-.598 1.541-1.07.487-.431.9-.976 1.298-1.533.371-.582.71-1.194.991-1.846.278-.651.515-1.327.7-2.021.188-.693.324-1.404.423-2.122.097-.72.135-1.446.158-2.173h2.64c.017.64.019 1.283.096 1.92.051.64.163 1.27.294 1.895.129.627.312 1.233.51 1.838l.341.882.403.847c.295.552.623 1.072.985 1.563.38.47.785.913 1.233 1.28.456.355.93.687 1.445.87.506.23 1.042.294 1.576.337.128-.028.7-.023.869-.091.225-.063.448-.09.716-.214.523-.176 1.013-.494 1.483-.841.465-.358.887-.796 1.283-1.267.381-.486.728-1.008 1.04-1.557l.429-.85.368-.89a16.838 16.838 0 0 0 .91-3.771c.092-.646.112-1.301.144-1.955h1.922c.015.654.013 1.31.086 1.963.049.65.157 1.3.289 1.938.127.644.311 1.27.511 1.887l.344.913.409.878c.304.57.64 1.114 1.016 1.63l.612.724c.229.208.439.448.679.64.481.385.989.749 1.554.96.527.26 1.201.34 1.689.398.325-.031.726-.015.99-.086.273-.063.549-.103.84-.232.584-.188 1.116-.532 1.627-.905.505-.386.955-.851 1.38-1.347.403-.511.771-1.056 1.103-1.631l.454-.885.387-.921c.227-.63.444-1.264.604-1.917.162-.65.303-1.313.38-1.983.103-.668.134-1.346.172-2.022l.002-.021a.322.322 0 0 1 .642.021c-.004.7.004 1.404-.067 2.105a16.636 16.636 0 0 1-.293 2.089 16.674 16.674 0 0 1-.537 2.054l-.373 1-.45.973c-.333.635-.708 1.25-1.136 1.837a10.596 10.596 0 0 1-1.505 1.597c-.58.462-1.201.899-1.917 1.17-.337.166-.738.259-1.136.354-.401.099-.701.087-1.057.136-.88-.02-1.591-.115-2.33-.41-.737-.246-1.386-.665-1.993-1.115-.6-.462-1.116-1.008-1.594-1.577a14.898 14.898 0 0 1-1.223-1.84l-.492-.978-.417-1.01a18.912 18.912 0 0 1-.63-2.084 17.364 17.364 0 0 1-.385-2.137c-.101-.716-.122-1.438-.155-2.161a.962.962 0 0 1 1.922-.087l.002.056-.002.029c-.011.723-.015 1.448-.095 2.17a16.544 16.544 0 0 1-.326 2.154 18.03 18.03 0 0 1-.578 2.118l-.392 1.035-.476 1.01a14.972 14.972 0 0 1-1.198 1.912 10.979 10.979 0 0 1-1.601 1.673c-.619.487-1.284.953-2.062 1.238-.358.168-.812.274-1.259.369-.498.103-.626.076-1.177.129-.835-.031-1.685-.146-2.447-.47-.785-.274-1.466-.726-2.098-1.206-.624-.494-1.162-1.063-1.652-1.66a14.913 14.913 0 0 1-1.252-1.907l-.5-1.01-.421-1.038a18.684 18.684 0 0 1-.631-2.134 17.724 17.724 0 0 1-.377-2.181c-.097-.732-.118-1.468-.144-2.202a1.321 1.321 0 0 1 2.639-.102l.001.046v.057c.001 3.328-.714 6.73-2.574 9.696-.493.726-1.02 1.438-1.688 2.06-.632.648-1.425 1.177-2.27 1.614-.457.18-.86.389-1.423.497-.244.052-.58.14-.75.146l-.583.048-.265.009-.184-.016-.369-.032a2.901 2.901 0 0 1-.725-.134 4.927 4.927 0 0 1-1.34-.545c-.431-.21-.773-.537-1.139-.804-.317-.324-.658-.62-.928-.96a14.619 14.619 0 0 1-1.504-2.045c-.437-.708-.764-1.465-1.077-2.212l-.4-1.15-.316-1.165-.245-1.178-.162-1.19a21.835 21.835 0 0 1-.099-2.38c.015-1.583.064-3.131-.007-4.7a.321.321 0 1 1 .643-.028c-.003.005-.003.018-.003.026M261.401 422.272c.053.77.081 1.555.19 2.296.075.749.228 1.502.373 2.243.168.74.349 1.47.574 2.189.233.715.483 1.425.8 2.103.303.68.647 1.34 1.053 1.95.393.619.841 1.189 1.336 1.7.237.269.526.465.783.702.292.175.562.404.872.529.591.327 1.24.424 1.874.459.209-.05.799-.045.988-.165.139-.05.271-.074.416-.132l.442-.22c.298-.134.558-.368.841-.544.248-.244.525-.443.754-.713a9.77 9.77 0 0 0 1.27-1.712c.377-.614.696-1.276.972-1.956.286-.675.51-1.381.714-2.092.199-.715.354-1.44.483-2.174.11-.735.226-1.473.266-2.217.074-.743.067-1.492.086-2.236h1.943c.032.744.039 1.492.128 2.23.054.744.183 1.478.306 2.209.142.728.311 1.445.521 2.153.216.7.449 1.399.747 2.062.285.665.613 1.314.996 1.91a9.487 9.487 0 0 0 1.273 1.647c.227.258.498.442.741.672.272.159.524.382.81.496.549.31 1.136.392 1.71.43.135-.041.809-.042.924-.15.118-.045.228-.062.358-.114l.412-.198c.28-.117.527-.342.794-.505.237-.23.503-.418.724-.676a9.394 9.394 0 0 0 1.238-1.653c.372-.597.688-1.243.961-1.91.285-.66.507-1.356.714-2.057.199-.703.357-1.418.486-2.143.113-.728.231-1.454.275-2.191.077-.735.069-1.476.098-2.213h2.44c.023.737.021 1.479.102 2.212.044.736.167 1.465.279 2.19.133.725.292 1.439.494 2.143.208.697.432 1.39.717 2.052.275.663.594 1.309.967 1.9a9.348 9.348 0 0 0 1.238 1.645c.221.257.485.44.722.669.267.162.512.384.789.5.271.139.546.262.827.318.139.047.28.083.423.083l.212.02.105.01.055.01.026.003h.013l.007.003c-.046 0 .115-.005-.104.004l.579-.05c.09-.01.203-.011.275-.027l.171-.062c.116-.04.227-.053.357-.101l.41-.191c.281-.113.53-.332.801-.494.238-.226.509-.407.733-.665a9.46 9.46 0 0 0 1.264-1.64c.379-.591.706-1.236.988-1.903.296-.66.527-1.355.743-2.054.206-.706.377-1.42.516-2.148.122-.728.252-1.46.304-2.2.088-.737.094-1.482.125-2.226h2.097c.019.743.012 1.488.087 2.229.041.74.159 1.477.268 2.21.131.73.277 1.455.471 2.169.199.708.415 1.415.696 2.09.269.68.582 1.343.954 1.958.355.627.784 1.2 1.251 1.719.226.27.502.472.748.715.28.18.538.416.838.55.541.346 1.28.46 1.77.525.357-.043.839-.024 1.067-.134.142-.044.28-.066.428-.118l.453-.206c.312-.125.582-.354.873-.526.26-.236.548-.435.789-.698a9.86 9.86 0 0 0 1.354-1.695c.405-.612.754-1.272 1.056-1.954.316-.677.567-1.387.802-2.103.227-.721.409-1.454.565-2.195.136-.748.285-1.495.357-2.252.108-.757.132-1.52.183-2.281v-.024a.349.349 0 0 1 .697.025c-.001.782.022 1.569-.039 2.353-.025.788-.13 1.57-.237 2.353-.126.779-.28 1.556-.481 2.323a20.005 20.005 0 0 1-.74 2.272 14.332 14.332 0 0 1-1.048 2.174 11.265 11.265 0 0 1-1.442 1.995c-.265.32-.609.58-.913.872-.359.236-.686.52-1.086.707l-.594.288c-.212.084-.453.143-.682.21-.501.165-.812.129-1.218.195-.372-.01-.492-.03-.752-.05a2.663 2.663 0 0 1-.666-.118 5.183 5.183 0 0 1-1.256-.461c-.41-.178-.747-.45-1.119-.682-.318-.284-.675-.542-.956-.855a11.593 11.593 0 0 1-1.543-1.972 14.903 14.903 0 0 1-1.149-2.172c-.337-.743-.601-1.512-.843-2.283a21.825 21.825 0 0 1-.579-2.353c-.133-.793-.271-1.59-.329-2.392-.093-.8-.101-1.603-.131-2.406a1.05 1.05 0 0 1 2.096-.082v.082c-.018.804-.015 1.608-.096 2.408-.046.806-.171 1.604-.291 2.402a24.751 24.751 0 0 1-.533 2.373c-.227.783-.474 1.562-.796 2.319a14.925 14.925 0 0 1-1.117 2.229 11.754 11.754 0 0 1-1.531 2.049c-.284.327-.647.603-.972.904-.379.252-.727.543-1.155.742l-.637.302c-.229.092-.5.158-.753.226l-.386.098c-.117.023-.197.023-.297.038l-.578.058-.122.003h-.011l-.022-.003-.046-.003-.091-.008-.182-.015-.364-.033a2.965 2.965 0 0 1-.71-.137 5.536 5.536 0 0 1-1.331-.507c-.433-.194-.783-.485-1.168-.736-.327-.298-.693-.574-.979-.9a11.775 11.775 0 0 1-1.558-2.043 15.158 15.158 0 0 1-1.139-2.23c-.332-.758-.588-1.54-.822-2.322a24.385 24.385 0 0 1-.554-2.38c-.13-.802-.264-1.602-.318-2.41-.088-.81-.089-1.615-.116-2.424a1.22 1.22 0 1 1 2.439-.08v.079c-.023.81-.033 1.616-.121 2.423-.056.81-.19 1.61-.322 2.41a25.365 25.365 0 0 1-.562 2.376 20.475 20.475 0 0 1-.826 2.32c-.321.76-.691 1.507-1.143 2.22-.432.72-.958 1.404-1.559 2.035-.287.326-.651.6-.98.895-.382.247-.731.536-1.161.729l-.637.295c-.229.09-.5.149-.749.217-.618.167-.736.108-1.363.174-.963-.052-1.927-.26-2.733-.72-.425-.194-.771-.486-1.147-.737-.32-.3-.681-.57-.963-.898a11.764 11.764 0 0 1-1.522-2.04 14.733 14.733 0 0 1-1.11-2.22 20.342 20.342 0 0 1-.79-2.312 25.284 25.284 0 0 1-.529-2.368c-.119-.796-.244-1.593-.29-2.394-.079-.8-.072-1.602-.091-2.403v-.018a.972.972 0 1 1 1.945-.044l-.001.062c-.032.8-.04 1.602-.133 2.398-.061.8-.197 1.593-.331 2.384a24.378 24.378 0 0 1-.566 2.348c-.237.77-.494 1.538-.826 2.283a14.747 14.747 0 0 1-1.131 2.176 11.52 11.52 0 0 1-1.525 1.975c-.28.313-.634.574-.949.858-.368.235-.705.512-1.116.688l-.607.274c-.214.084-.462.136-.693.198-.543.155-.744.104-1.297.162-.901-.057-1.806-.251-2.569-.69-.4-.187-.729-.47-1.087-.708-.309-.288-.649-.55-.919-.867a10.824 10.824 0 0 1-1.461-1.986 14.634 14.634 0 0 1-1.048-2.18c-.304-.742-.533-1.508-.742-2.274a20.984 20.984 0 0 1-.474-2.33c-.098-.784-.201-1.562-.223-2.36-.06-.798-.031-1.562-.029-2.338 0-.194.157-.352.351-.352a.35.35 0 0 1 .344.328"/><path fill="#9CD3E3" d="M261.171 421.118c.051.77.08 1.555.189 2.295.075.75.227 1.5.372 2.243.169.739.35 1.473.575 2.189.233.716.483 1.427.8 2.103.302.682.647 1.34 1.052 1.949.393.62.84 1.192 1.337 1.702.236.268.525.465.782.702.292.175.562.403.871.53.591.326 1.24.422 1.874.458.208-.05.799-.045.987-.166.138-.05.271-.074.416-.132l.442-.22c.299-.134.556-.368.84-.545.249-.243.526-.441.754-.711a9.727 9.727 0 0 0 1.27-1.713c.377-.613.697-1.276.972-1.956.288-.675.51-1.381.714-2.092a22.83 22.83 0 0 0 .483-2.174c.109-.736.226-1.472.265-2.218.075-.743.067-1.49.086-2.236h1.944c.032.747.039 1.493.127 2.232.053.744.183 1.477.306 2.208.142.727.31 1.446.523 2.154.216.7.448 1.398.746 2.06.285.668.612 1.316.996 1.91.368.61.804 1.16 1.272 1.649.227.258.499.44.742.67.272.162.523.383.81.498.548.309 1.136.392 1.71.43.135-.04.809-.043.924-.148.119-.048.228-.063.359-.116l.412-.198c.28-.116.527-.342.794-.504.237-.232.503-.418.724-.676a9.629 9.629 0 0 0 1.238-1.654 12.86 12.86 0 0 0 .96-1.91c.286-.66.507-1.356.715-2.056.198-.702.355-1.42.484-2.143.113-.727.233-1.455.275-2.192.078-.735.07-1.475.099-2.213h2.441c.022.738.021 1.478.101 2.212.045.736.167 1.465.279 2.19.133.725.293 1.44.494 2.143.208.697.432 1.39.718 2.052.275.664.593 1.309.967 1.903a9.35 9.35 0 0 0 1.238 1.64c.219.259.484.442.722.673.266.16.512.383.789.498.271.139.545.263.826.318.141.048.28.084.424.084l.211.02.106.01.055.01.025.002h.013l.006.002c-.045.003.116-.004-.104.006l.58-.05c.09-.008.203-.011.276-.027l.17-.062c.116-.04.228-.054.357-.101l.411-.192c.28-.113.528-.332.799-.493.241-.227.51-.41.733-.665a9.371 9.371 0 0 0 1.264-1.641c.38-.591.707-1.237.988-1.903.296-.66.528-1.354.743-2.054.208-.705.378-1.42.518-2.147.121-.728.251-1.461.304-2.2.087-.737.092-1.483.124-2.227h2.097c.019.743.012 1.489.088 2.23.041.74.158 1.477.266 2.209.132.729.278 1.455.472 2.169.198.708.414 1.416.695 2.092.269.679.583 1.34.954 1.956.355.629.784 1.2 1.252 1.719.225.27.501.472.749.715.279.18.536.416.837.55.541.346 1.28.46 1.77.526.357-.045.84-.025 1.067-.135.142-.044.28-.066.43-.12l.452-.203c.31-.125.58-.355.873-.53.258-.233.547-.432.789-.696.5-.506.962-1.072 1.354-1.694.405-.612.752-1.274 1.055-1.955.316-.676.567-1.387.802-2.104.227-.721.409-1.453.565-2.195.136-.746.285-1.493.358-2.25.107-.757.13-1.52.181-2.284v-.023a.35.35 0 0 1 .698.023c-.002.785.022 1.57-.038 2.354-.025.788-.131 1.569-.239 2.352-.124.78-.279 1.558-.48 2.324a19.856 19.856 0 0 1-.74 2.27c-.29.745-.631 1.479-1.048 2.177a11.23 11.23 0 0 1-1.442 1.994c-.265.32-.609.58-.913.87-.358.239-.687.522-1.086.709l-.594.289c-.21.084-.453.144-.681.21-.503.165-.813.129-1.218.195-.373-.01-.493-.03-.753-.05a2.64 2.64 0 0 1-.665-.12 5.214 5.214 0 0 1-1.257-.46c-.41-.177-.746-.45-1.119-.683-.317-.284-.674-.541-.956-.855a11.41 11.41 0 0 1-1.543-1.971 14.807 14.807 0 0 1-1.15-2.172c-.337-.743-.601-1.511-.843-2.284a21.75 21.75 0 0 1-.579-2.352c-.132-.793-.27-1.59-.328-2.393-.094-.8-.101-1.602-.132-2.406a1.05 1.05 0 1 1 2.097-.082v.083c-.019.804-.014 1.61-.097 2.41-.045.806-.17 1.602-.291 2.403a24.648 24.648 0 0 1-.532 2.373 20.524 20.524 0 0 1-.796 2.318 15.152 15.152 0 0 1-1.116 2.228c-.423.724-.939 1.41-1.532 2.049-.284.327-.646.603-.972.905-.379.25-.728.542-1.155.74l-.637.304c-.229.09-.5.158-.753.226l-.385.098c-.118.022-.199.022-.299.036l-.576.059-.122.002h-.012l-.021-.002-.046-.003-.091-.007-.182-.015-.365-.034a3.005 3.005 0 0 1-.71-.137 5.495 5.495 0 0 1-1.331-.507c-.432-.194-.783-.485-1.168-.736-.327-.298-.693-.574-.979-.9a11.7 11.7 0 0 1-1.558-2.044 15.193 15.193 0 0 1-1.14-2.227c-.331-.76-.587-1.542-.821-2.325a23.906 23.906 0 0 1-.555-2.38c-.13-.802-.264-1.603-.317-2.41-.088-.807-.091-1.615-.116-2.424a1.216 1.216 0 0 1 1.178-1.261 1.223 1.223 0 0 1 1.262 1.182v.079c-.024.809-.033 1.617-.122 2.423-.055.809-.19 1.609-.321 2.409a25.775 25.775 0 0 1-.561 2.377 20.002 20.002 0 0 1-.827 2.318c-.32.762-.691 1.509-1.143 2.22a11.72 11.72 0 0 1-1.559 2.038c-.286.324-.652.598-.979.894-.382.248-.731.537-1.161.729l-.636.295c-.23.089-.501.149-.75.217-.618.166-.736.108-1.364.174-.961-.051-1.926-.261-2.732-.72-.425-.195-.77-.486-1.146-.737-.322-.3-.683-.571-.963-.898a11.706 11.706 0 0 1-1.524-2.04c-.439-.714-.8-1.46-1.107-2.218a19.925 19.925 0 0 1-.792-2.314 25.325 25.325 0 0 1-.527-2.367c-.119-.796-.245-1.592-.291-2.395-.079-.8-.072-1.602-.091-2.404v-.017a.973.973 0 1 1 1.945-.045v.062c-.033.802-.041 1.603-.134 2.399-.059.799-.197 1.594-.33 2.385-.154.79-.336 1.573-.566 2.347-.236.77-.494 1.538-.826 2.283a14.687 14.687 0 0 1-1.131 2.175 11.539 11.539 0 0 1-1.525 1.976c-.28.313-.635.573-.951.857-.367.235-.705.513-1.114.689l-.608.274c-.214.083-.463.136-.693.196-.542.156-.744.105-1.298.164-.9-.056-1.806-.252-2.568-.691-.401-.188-.729-.47-1.087-.707-.307-.288-.649-.551-.919-.867a10.858 10.858 0 0 1-1.461-1.986 14.696 14.696 0 0 1-1.048-2.181c-.303-.742-.532-1.51-.742-2.274a21.074 21.074 0 0 1-.474-2.33c-.097-.784-.2-1.562-.225-2.36-.059-.797-.03-1.562-.029-2.338a.35.35 0 0 1 .699-.021M271.567 441.639c-.066 1.56-.038 3.137.007 4.678.035.792.124 1.55.237 2.295l.227 1.124.3 1.103c.232.724.525 1.422.854 2.098a11.9 11.9 0 0 0 1.201 1.875c.455.573.955 1.113 1.555 1.487.587.39 1.229.639 1.842.76.57.17 1.263.16 1.669.18l.582-.042c.22-.008.256-.064.395-.085.211-.022.513-.17.785-.265.534-.278 1.076-.6 1.541-1.07.487-.432.9-.977 1.298-1.533.371-.583.71-1.194.991-1.847.278-.65.515-1.326.7-2.021.188-.693.324-1.405.423-2.121.097-.72.135-1.446.158-2.174h2.64c.017.642.019 1.283.096 1.92.051.639.163 1.272.294 1.896.129.626.312 1.233.51 1.836l.341.884.403.847c.295.55.623 1.07.985 1.562.38.472.785.913 1.233 1.282.456.354.93.686 1.445.869.506.23 1.042.295 1.576.336.128-.027.7-.022.869-.091.225-.063.448-.09.716-.213.523-.177 1.013-.494 1.483-.84.465-.36.887-.797 1.283-1.268.381-.486.728-1.007 1.04-1.56l.429-.847.368-.888a16.872 16.872 0 0 0 .91-3.772c.092-.647.112-1.302.144-1.955h1.922c.015.653.013 1.31.086 1.962.049.652.157 1.3.289 1.938.127.643.311 1.27.511 1.887l.344.912.409.878c.304.57.64 1.115 1.016 1.63l.612.724c.229.208.439.447.679.642.481.386.989.748 1.554.96.527.259 1.201.34 1.689.397.325-.031.726-.015.99-.086.273-.062.549-.102.84-.232.584-.188 1.116-.533 1.627-.905.505-.386.955-.851 1.38-1.348.403-.512.771-1.055 1.103-1.63l.454-.885.387-.921c.227-.63.445-1.264.604-1.918.162-.65.303-1.312.38-1.982.103-.67.134-1.345.172-2.022l.002-.022a.324.324 0 0 1 .34-.302.322.322 0 0 1 .302.324c-.004.7.004 1.403-.067 2.104-.047.7-.157 1.4-.293 2.092a16.706 16.706 0 0 1-.537 2.053l-.373 1-.45.973c-.333.635-.708 1.25-1.136 1.837-.447.57-.936 1.119-1.505 1.596-.58.463-1.201.9-1.917 1.17-.337.166-.738.26-1.136.355-.401.1-.7.087-1.057.134-.88-.017-1.591-.113-2.33-.407-.737-.247-1.386-.666-1.993-1.117-.6-.462-1.116-1.006-1.594-1.575a14.91 14.91 0 0 1-1.223-1.84l-.492-.98-.417-1.01a18.83 18.83 0 0 1-.63-2.083 17.33 17.33 0 0 1-.385-2.137c-.101-.717-.122-1.438-.155-2.161a.964.964 0 0 1 .919-1.006.96.96 0 0 1 1.003.919l.002.057-.002.029c-.011.722-.015 1.447-.095 2.169a16.611 16.611 0 0 1-.326 2.155 18.014 18.014 0 0 1-.578 2.117l-.392 1.034-.476 1.009a14.765 14.765 0 0 1-1.198 1.912c-.472.6-.993 1.172-1.601 1.674-.619.488-1.284.954-2.062 1.239-.358.167-.812.274-1.259.368-.498.104-.626.076-1.177.13-.835-.032-1.685-.147-2.447-.468-.785-.277-1.466-.73-2.098-1.208a11.03 11.03 0 0 1-1.652-1.66 14.962 14.962 0 0 1-1.252-1.906l-.5-1.01-.421-1.04a18.7 18.7 0 0 1-.631-2.134 17.758 17.758 0 0 1-.377-2.18c-.097-.732-.118-1.467-.144-2.202a1.321 1.321 0 0 1 2.639-.102l.001.047v.056c.001 3.329-.714 6.73-2.574 9.696-.493.725-1.02 1.438-1.688 2.06-.632.649-1.425 1.178-2.27 1.613-.457.182-.86.39-1.423.499-.244.053-.58.14-.75.145l-.583.049-.265.008-.184-.015-.369-.033a2.954 2.954 0 0 1-.725-.133 4.93 4.93 0 0 1-1.34-.546c-.431-.21-.773-.536-1.139-.805-.317-.323-.657-.618-.928-.96a14.699 14.699 0 0 1-1.504-2.044c-.437-.708-.764-1.464-1.077-2.213l-.4-1.147-.316-1.168-.244-1.177-.162-1.188a22.11 22.11 0 0 1-.099-2.38c.015-1.584.064-3.133-.007-4.701a.318.318 0 0 1 .306-.335.32.32 0 0 1 .337.306c-.004.005-.004.017-.004.025" opacity=".75"/></g></g></svg>